<svg width="560" height="112" viewBox="0 0 560 112" fill="none" xmlns="http://www.w3.org/2000/svg">
<mask id="mask0_407_6" style="mask-type:luminance" maskUnits="userSpaceOnUse" x="15" y="13" width="85" height="86">
<path d="M99.973 13.5H15.8677V98.5H99.973V13.5Z" fill="white"/>
</mask>
<g mask="url(#mask0_407_6)">
<path d="M48.1389 13.5852C48.3549 13.6325 48.5275 13.69 48.705 13.7255C52.4713 14.4783 54.9881 17.4444 54.9897 21.1598C54.9941 31.0172 54.9912 40.8746 54.9913 50.732C54.9913 53.4921 54.9924 56.2521 54.9916 59.0122C54.9906 62.1277 52.3275 64.9703 49.11 65.3223C48.1089 65.4319 47.1325 65.3608 46.122 65.1109C45.8986 65.7798 45.6774 66.4422 45.4359 67.1654C47.1491 67.693 48.8487 67.7186 50.5599 67.2737C52.2624 66.8311 53.7067 65.9661 54.9555 64.674C54.9715 64.8395 54.9902 64.9426 54.9902 65.0458C54.9914 73.7062 54.9953 82.3666 54.989 91.027C54.9867 94.1741 53.138 96.8621 50.1502 98.0311C49.5358 98.2715 48.8595 98.3647 48.1959 98.5555C47.5357 98.5852 46.8915 98.5852 46.1943 98.5548C46.0003 98.4903 45.8602 98.4513 45.7179 98.423C44 98.0804 42.5707 97.259 41.4222 95.9885C40.4931 94.9607 39.9181 93.7598 39.6483 92.435C39.5975 92.4226 39.5688 92.4074 39.5428 92.4108C39.4564 92.4223 39.3706 92.439 39.2852 92.4565C37.3366 92.8561 35.4333 92.6783 33.6433 91.8613C30.4357 90.3971 28.6155 87.9259 28.2304 84.5189C27.7445 80.2204 31.3166 77.1818 35.2163 77.3027C35.5559 77.3132 35.7468 77.3959 35.8839 77.7425C36.8145 80.0946 38.4986 81.7657 40.8907 82.7734C41.0289 82.8316 41.1671 82.8899 41.3208 82.9548C40.2748 84.1678 39.6514 85.4902 39.6695 87.0811C40.4298 87.0811 41.1528 87.0811 41.8755 87.0811C42.0064 84.0278 45.1512 82.4129 47.7853 83.4984C48.0955 82.8587 48.4063 82.2175 48.7289 81.5521C47.348 80.9777 45.9736 80.8227 44.545 81.1483C44.3069 81.2026 44.0562 81.2563 43.8156 81.2421C40.5144 81.0479 37.6767 78.1951 37.5783 75.0114C37.5387 73.73 37.8427 72.5366 38.471 71.3793C37.8137 71.0187 37.1768 70.6693 36.5236 70.311C35.6121 71.8295 35.2784 73.4206 35.2955 75.0893C30.824 75.1901 27.829 77.2655 26.2239 81.2405C22.939 80.129 19.8171 77.1707 19.1643 73.1741C18.2059 67.3059 20.8164 63.2054 26.4054 60.7615C26.1366 60.1283 25.8629 59.4838 25.5816 58.8211C24.2863 59.2552 23.1029 59.8051 22.0921 60.6239C21.0847 61.4401 20.1468 62.3362 19.1598 63.2138C17.5387 61.9938 16.3681 60.393 15.8243 58.3844C15.716 57.9844 15.6091 57.5839 15.5016 57.1836C15.5016 56.4777 15.5016 55.7719 15.5322 55.0113C16.1216 51.5726 18.0546 49.1909 21.2761 47.7488C21.1817 47.622 21.1133 47.5322 21.047 47.4409C19.1244 44.796 18.5072 41.8779 19.2021 38.7329C19.729 36.3483 20.9809 34.3335 22.9432 32.7856C26.3476 30.1003 30.1508 29.5155 34.2696 30.9739C35.9988 31.5862 37.4375 32.6376 38.6453 33.9775C38.8002 34.1493 39.0105 34.3296 39.0518 34.5331C39.3966 36.2325 40.1418 37.7327 41.37 38.9987C42.2962 39.9534 43.3804 40.6903 44.6971 41.1813C44.975 40.5069 45.2413 39.8605 45.5219 39.1798C43.3565 38.2453 41.888 36.726 41.3839 34.5034C40.8798 32.2812 41.4245 30.2723 43.0304 28.5536C45.1112 29.554 47.1434 29.5194 49.2015 28.4549C48.8178 27.8116 48.4515 27.1976 48.0857 26.5846C46.7455 27.2188 45.4313 27.2888 44.1342 26.6394C42.822 25.9825 42.1232 24.8913 41.9284 23.4609C41.1611 23.5292 40.4304 23.5943 39.6726 23.6617C39.8283 25.0237 40.3559 26.1727 41.2479 27.1966C40.1564 28.3666 39.482 29.7324 39.1006 31.2932C35.9229 28.6899 32.3019 27.6618 28.1997 28.1405C28.308 25.9702 29.0351 24.085 30.517 22.5272C32.9906 19.9268 36.0698 19.0572 39.6325 19.7572C40.3198 16.5379 42.8084 14.2376 45.9099 13.702C45.9993 13.6866 46.0802 13.6252 46.165 13.5852C46.8093 13.5852 47.4536 13.5852 48.1389 13.5852ZM33.6183 48.4048C31.7397 46.4221 29.4099 45.4282 26.6065 45.3794C26.6065 45.7835 26.6065 46.132 26.6065 46.4805C26.6065 46.8417 26.6065 47.203 26.6065 47.5635C31.6253 47.4761 35.2867 52.651 32.7423 57.4049C33.3859 57.7455 34.0297 58.0861 34.6807 58.4306C34.7552 58.3192 34.8011 58.2642 34.8322 58.2024C36.0552 55.7668 36.1906 53.2896 35.12 50.7733C35.0244 50.5486 34.9834 50.3866 35.1611 50.1695C37.281 47.5794 41.1573 46.911 44.0703 48.6455C45.0163 49.2088 45.7789 49.9531 46.3917 50.8915C47.0428 50.5135 47.6721 50.1481 48.3 49.7836C48.2713 49.706 48.2631 49.6638 48.2417 49.6291C45.902 45.8383 40.5325 44.383 36.4603 46.4153C35.4099 46.9395 34.5152 47.6435 33.6183 48.4048Z" fill="white"/>
<path d="M66.6189 98.5847C65.8242 98.2075 65.0056 97.9157 64.3289 97.4373C62.1424 95.8917 61.5283 93.0264 62.7997 90.6614C64.0149 88.4009 66.882 87.2876 69.4205 88.0777C70.6632 88.4645 71.6476 89.1763 72.3613 90.2221C72.5413 90.4858 72.691 90.5446 72.9903 90.4193C74.4346 89.8144 75.8853 89.2237 77.3375 88.6368C77.5479 88.5517 77.658 88.4756 77.6215 88.2148C77.4112 86.7134 77.9451 85.5017 79.228 84.6236C79.4954 84.4406 79.3881 84.2702 79.3154 84.0839C78.879 82.9657 78.435 81.8503 77.9945 80.7336C77.7303 80.0636 77.456 79.3969 77.2109 78.7204C77.1252 78.4839 77.0098 78.404 76.7461 78.3984C75.2067 78.3654 74.1181 77.2105 74.194 75.7162C74.2631 74.3571 75.542 73.3009 77.0093 73.4122C77.3101 73.435 77.6045 73.5365 77.9469 73.6116C78.665 72.788 79.406 71.9392 80.1456 71.0894C80.4927 70.6905 80.8247 70.2787 81.1879 69.894C81.3724 69.6986 81.4007 69.5609 81.2615 69.3117C80.7435 68.3842 80.7997 67.4595 81.4536 66.6138C82.1208 65.7508 83.0532 65.4364 84.1273 65.6702C85.1898 65.9016 85.8679 66.5876 86.0849 67.6137C86.2749 68.5122 86.0085 69.3183 85.2933 69.9506C84.5518 70.6061 83.677 70.7883 82.7329 70.4887C82.429 70.3923 82.2933 70.456 82.1174 70.6608C81.1125 71.8314 80.1023 72.998 79.0829 74.1569C78.9205 74.3416 78.937 74.4737 79.05 74.6751C79.6624 75.7674 79.4613 76.928 78.5126 77.7868C78.347 77.9368 78.2562 78.0416 78.3512 78.2802C79.0825 80.1174 79.7969 81.961 80.5175 83.8022C80.5477 83.8792 80.5877 83.9525 80.629 84.04C81.7644 83.8647 82.7992 84.0814 83.6861 84.7701C84.8994 85.7123 85.3659 86.9573 85.0397 88.4173C84.712 89.8842 83.7266 90.8464 82.2269 91.1818C80.7362 91.5153 79.4155 91.1034 78.4244 89.9321C78.2137 89.683 78.0582 89.6166 77.747 89.747C76.2107 90.3909 74.6652 91.014 73.0905 91.6577C73.58 93.4569 73.2687 95.1073 72.0855 96.5608C71.2062 97.6409 70.0223 98.2707 68.6089 98.5558C67.9486 98.5847 67.3043 98.5847 66.6189 98.5847Z" fill="white"/>
<path d="M68.6261 13.8853C72.3661 14.2779 73.6316 17.7795 73.2257 19.9286C72.8138 22.1095 71.0641 23.8139 68.7946 24.2464C68.6527 24.2734 68.5125 24.3087 68.3492 24.3451C68.3492 25.6691 68.3492 26.9878 68.3492 28.2867C68.8217 28.4855 69.3176 28.6281 69.7398 28.8838C71.1936 29.7642 71.7808 31.2375 71.3722 32.9547C71.3024 33.2479 71.3918 33.3495 71.6203 33.4764C72.7325 34.094 73.8391 34.7212 74.9425 35.3535C75.1534 35.4743 75.3022 35.4984 75.5219 35.3304C76.4312 34.6349 77.6169 34.5863 78.5415 35.1726C79.4888 35.7735 79.9268 36.8445 79.6534 37.8921C79.3721 38.9702 78.4768 39.6836 77.3073 39.7965C77.1617 39.8106 76.9559 39.9411 76.9065 40.0652C76.6824 40.6289 76.5006 41.2086 76.3108 41.7847C76.1349 42.3186 75.9683 42.8553 75.794 43.4019C76.5902 43.9636 77.0606 44.6764 77.0233 45.6565C76.9851 46.6585 76.3428 47.5342 75.3331 47.9107C74.3935 48.2611 73.2445 48.0115 72.5496 47.306C71.8356 46.5812 71.6133 45.4852 72.0251 44.6021C72.4626 43.6638 73.2064 43.1153 74.2899 43.069C74.5507 43.0579 74.634 42.9545 74.7025 42.7415C75.0219 41.7481 75.3504 40.7573 75.6894 39.7699C75.7682 39.5403 75.7456 39.4176 75.5247 39.2485C74.7428 38.6503 74.4226 37.8429 74.5807 36.8913C74.626 36.6184 74.5605 36.4916 74.3209 36.3607C73.2425 35.7715 72.1648 35.1796 71.1096 34.5533C70.7772 34.356 70.5903 34.3697 70.2995 34.6296C69.1357 35.6697 67.4863 35.9061 66.112 35.2752C64.721 34.6366 63.8814 33.2657 63.9499 31.7448C64.0161 30.2761 65.1198 28.9144 66.5843 28.495C66.7373 28.4512 66.891 28.4094 67.07 28.3595C67.07 27.0256 67.07 25.6955 67.07 24.3317C66.1221 24.172 65.213 23.8905 64.4361 23.3061C62.631 21.9483 61.8325 20.1665 62.2551 17.9962C62.6835 15.7959 64.8862 13.4927 68.6261 13.8853Z" fill="white"/>
<path d="M99.607 56.8903C99.4873 57.2704 99.371 57.612 99.2475 57.9512C98.4492 60.1425 96.1219 61.5484 93.7198 61.4477C89.5493 61.2728 86.8518 56.607 89.4675 52.9772C89.4915 52.9439 89.5036 52.9025 89.5382 52.8289C88.7096 52.0712 87.8762 51.3083 87.0416 50.5465C86.7024 50.2369 86.3524 49.9379 86.0239 49.6181C85.8438 49.4428 85.7102 49.4227 85.4657 49.5462C83.7121 50.4319 81.6296 49.641 81.0339 47.8828C80.613 46.6407 81.0518 45.282 82.1173 44.5276C83.2708 43.7111 84.6564 43.706 85.8214 44.515C85.9627 44.6131 86.101 44.715 86.2619 44.8303C87.8123 43.886 89.3682 42.9448 90.9107 41.9835C91.0055 41.9244 91.0445 41.7008 91.025 41.565C90.7877 39.9118 91.9702 38.5512 93.6406 38.5725C94.7255 38.5863 95.6892 39.2578 96.0332 40.2399C96.4041 41.2988 96.0839 42.3848 95.2049 43.0496C94.3249 43.7151 93.0818 43.7959 92.1848 43.173C91.8288 42.9258 91.6044 42.9676 91.273 43.1754C89.9156 44.0266 88.5404 44.8514 87.1726 45.6871C87.0878 45.7389 87.0099 45.8012 86.9151 45.8683C87.1913 46.7304 87.1491 47.5627 86.7133 48.3675C86.6762 48.4361 86.711 48.5945 86.7721 48.651C87.971 49.7577 89.1788 50.8555 90.3924 51.9621C90.5339 51.8682 90.6415 51.7993 90.7465 51.7268C93.8781 49.5631 98.2335 50.9803 99.3644 54.5317C99.4276 54.7302 99.4862 54.9301 99.577 55.1425C99.6071 55.7206 99.607 56.2857 99.607 56.8903Z" fill="white"/>
<path d="M66.6154 61.0119C66.9002 60.4072 67.149 59.8206 67.4478 59.2587C67.6209 58.9332 67.5765 58.7185 67.3267 58.4452C66.2799 57.3002 66.5001 55.633 67.7887 54.7491C68.9142 53.977 70.4842 54.2036 71.3463 55.2902C71.5485 55.5451 71.7184 55.6023 72.039 55.5176C73.2615 55.1945 74.4905 54.892 75.7246 54.6131C76.053 54.5389 76.1693 54.3959 76.2182 54.0883C76.3734 53.1119 76.967 52.4565 77.9158 52.1148C78.8816 51.767 79.7632 51.9709 80.5233 52.6108C81.6593 53.5671 81.6777 55.2852 80.5872 56.2906C79.4623 57.3278 77.7009 57.2128 76.7299 55.9995C76.4913 55.7014 76.2958 55.6877 75.9644 55.7748C74.7551 56.0926 73.5392 56.3874 72.3223 56.6771C72.0474 56.7426 71.9213 56.8634 71.8631 57.1444C71.5666 58.5762 70.6158 59.2978 69.0856 59.3153C68.9482 59.3169 68.7422 59.4216 68.6869 59.5332C68.1716 60.5734 67.6748 61.6225 67.1977 62.6795C67.1528 62.7788 67.2343 63.0033 67.3324 63.0796C68.5305 64.0126 69.1733 65.1826 69.1444 66.6963C69.1103 68.4804 67.9154 70.1295 66.187 70.6977C64.2985 71.3186 62.2621 70.763 61.1008 69.3102C58.996 66.677 60.4658 62.917 63.867 62.3005C64.4113 62.2018 64.9999 62.2776 65.5606 62.3371C65.8457 62.3674 65.996 62.3232 66.1059 62.0742C66.26 61.7252 66.4345 61.3846 66.6154 61.0119Z" fill="white"/>
<path d="M94.0068 76.7135C91.6521 78.2067 88.7846 76.89 88.1825 74.5327C87.826 73.1366 88.394 71.6458 89.6522 70.7277C90.7948 69.8939 92.4416 69.8023 93.7004 70.5023C96.1846 71.8838 96.3523 75.0008 94.0068 76.7135Z" fill="white"/>
<path d="M85.6887 31.3372C86.8752 30.5083 88.2308 30.4499 89.3522 31.1607C90.4317 31.8449 90.9522 33.0886 90.6758 34.323C90.4042 35.536 89.296 36.5096 88.0332 36.6444C86.7385 36.7827 85.3984 36.1089 84.8941 35.066C84.27 33.7751 84.4879 32.4399 85.4718 31.5287C85.5349 31.4703 85.6005 31.4143 85.6887 31.3372Z" fill="white"/>
<path d="M65.0746 47.457C66.27 47.5774 67.2005 48.3021 67.4442 49.2723C67.7254 50.3922 67.3235 51.435 66.3742 52.0485C65.463 52.6374 64.2339 52.5937 63.3425 51.9407C62.4945 51.3195 62.128 50.2002 62.4517 49.2206C62.8011 48.1635 63.7305 47.4823 64.8597 47.4561C64.9181 47.4548 64.9765 47.4562 65.0746 47.457Z" fill="white"/>
<path d="M79.3626 21.7841C80.5571 20.2186 82.8776 20.4705 83.7571 21.9685C84.3831 23.0347 84.1536 24.3436 83.1863 25.1407C82.2885 25.8804 80.8767 25.9236 79.9462 25.2399C78.9374 24.4987 78.615 23.191 79.1748 22.1042C79.2266 22.0037 79.2899 21.9088 79.3626 21.7841Z" fill="white"/>
<path d="M73.3838 61.5771C73.7177 60.5118 74.4444 59.8917 75.5334 59.7394C76.5852 59.5923 77.4607 59.9631 78.0593 60.8263C78.646 61.6726 78.6665 62.5641 78.1625 63.4569C77.6126 64.431 76.434 64.9124 75.2905 64.6443C74.1225 64.3704 73.3377 63.4553 73.3142 62.3218C73.3093 62.0853 73.3518 61.8478 73.3838 61.5771Z" fill="white"/>
<path d="M72.1147 86.2613C70.8536 86.1607 69.8617 85.2587 69.7245 84.1221C69.5745 82.8795 70.3309 81.6957 71.4817 81.3721C72.705 81.0282 74.0648 81.5353 74.5991 82.5772C75.588 84.5056 74.0035 86.4156 72.1147 86.2613Z" fill="white"/>
<path d="M60.9849 77.9582C59.7531 76.9076 59.8505 75.0165 61.2253 74.0544C62.0236 73.4957 63.217 73.4458 64.0686 73.9614C65.0189 74.5369 65.4921 75.5558 65.2743 76.5574C64.8483 78.5167 62.5344 79.2878 60.9849 77.9582Z" fill="white"/>
<path d="M60.272 39.0379C60.6982 37.9036 61.8613 37.2027 63.0232 37.3536C64.3085 37.5204 65.2171 38.4607 65.3248 39.7354C65.416 40.8158 64.6132 41.9732 63.4742 42.2547C62.5095 42.4931 61.5887 42.3477 60.8623 41.6002C60.1531 40.8705 59.9669 40.0229 60.272 39.0379Z" fill="white"/>
<path d="M77.0595 29.4326C76.2725 30.3364 75.0412 30.4842 74.1576 29.8033C73.3006 29.143 73.1359 27.9305 73.7872 27.0781C74.4396 26.2242 75.6885 26.0331 76.5951 26.6483C77.5321 27.2842 77.7329 28.43 77.0595 29.4326Z" fill="white"/>
<path d="M63.0158 83.3229C63.6255 82.7789 64.2824 82.7195 64.8471 83.1369C65.3523 83.5103 65.5202 84.2297 65.2273 84.7665C64.8573 85.4447 64.0018 85.6718 63.3223 85.2722C62.6149 84.8562 62.4752 84.0362 63.0158 83.3229Z" fill="white"/>
<path d="M67.2455 44.7257C66.6448 44.3487 66.5519 43.8187 66.6848 43.2302C66.7835 42.7927 67.3447 42.3751 67.8403 42.3278C68.3821 42.276 68.9154 42.5761 69.1866 43.0854C69.4294 43.5414 69.3119 44.1868 68.9179 44.5616C68.4799 44.9783 67.8954 45.0425 67.2455 44.7257Z" fill="white"/>
<path d="M83.2804 40.8358C82.5533 40.3121 82.407 39.5709 82.8846 38.9536C83.3163 38.3956 84.175 38.2572 84.7531 38.6524C85.3424 39.0551 85.4836 39.9009 85.0603 40.4921C84.694 41.0037 84.004 41.1458 83.2804 40.8358Z" fill="white"/>
<path d="M60.9875 27.794C60.221 27.4392 59.931 26.7222 60.2434 26.0309C60.4992 25.465 61.2604 25.1388 61.8514 25.3419C62.6009 25.5995 62.9789 26.2919 62.7487 26.9852C62.5204 27.6724 61.8392 27.9946 60.9875 27.794Z" fill="white"/>
<path d="M83.8948 73.8774C84.6971 73.8536 85.2293 74.1861 85.4119 74.7958C85.5845 75.3726 85.3353 75.9828 84.7878 76.2807C84.3159 76.5375 83.8303 76.5318 83.3802 76.2438C82.8812 75.9246 82.6829 75.447 82.8038 74.8883C82.921 74.3464 83.2958 74.0113 83.8948 73.8774Z" fill="white"/>
<path d="M84.7871 61.3929C84.6493 62.1099 84.2643 62.5138 83.6639 62.6045C83.0843 62.6922 82.5442 62.4428 82.2647 61.9586C81.9879 61.4788 82.0434 60.937 82.4136 60.5074C82.762 60.1031 83.3155 59.939 83.8295 60.0877C84.3822 60.2476 84.7368 60.7173 84.7871 61.3929Z" fill="white"/>
<path d="M71.6902 52.3166C71.4011 51.6836 71.4722 51.1623 71.8789 50.7713C72.3091 50.3579 72.8686 50.2515 73.4043 50.4813C73.8992 50.6936 74.2234 51.2067 74.1972 51.7363C74.1715 52.2582 73.7969 52.7265 73.2672 52.8991C72.6896 53.0872 72.1808 52.9058 71.6902 52.3166Z" fill="white"/>
<path d="M67.8727 77.0061C68.4372 76.6863 68.9615 76.718 69.4444 77.0855C69.8886 77.4235 70.013 77.8918 69.8961 78.4089C69.775 78.9447 69.3904 79.2436 68.8518 79.3646C68.3102 79.4863 67.669 79.1855 67.4228 78.7052C67.1088 78.0926 67.2609 77.4885 67.8727 77.0061Z" fill="white"/>
<path d="M83.2299 56.5651C83.0397 55.7942 83.4053 55.1307 84.1039 54.9293C84.8005 54.7285 85.5307 55.0861 85.7576 55.7392C85.9982 56.4317 85.6583 57.1392 84.9647 57.3895C84.2586 57.6443 83.5652 57.3258 83.2299 56.5651Z" fill="white"/>
<path d="M71.64 70.9775C72.0538 71.462 72.1185 71.9612 71.8222 72.4871C71.5702 72.9344 71.0113 73.2072 70.4988 73.1356C69.9284 73.0559 69.5415 72.7464 69.3601 72.2173C69.1784 71.6877 69.4239 71.0709 69.9316 70.7458C70.4208 70.4326 71.0858 70.5149 71.64 70.9775Z" fill="white"/>
<path d="M63.8598 56.679C63.7727 57.4428 63.3445 57.8951 62.6408 58.002C62.1254 58.0802 61.4576 57.6889 61.2504 57.1691C61.0548 56.6782 61.1509 56.232 61.5179 55.8412C61.9123 55.4212 62.3981 55.3016 62.9466 55.4756C63.5211 55.6579 63.7941 56.0806 63.8598 56.679Z" fill="white"/>
<path d="M89.4372 66.0692C88.6723 65.8634 88.2487 65.1981 88.4161 64.5128C88.575 63.8618 89.3122 63.4094 89.9881 63.548C90.705 63.6949 91.2042 64.3688 91.0687 65.0067C90.9048 65.7784 90.2661 66.2055 89.4372 66.0692Z" fill="white"/>
<path d="M81.507 31.0637C80.5724 30.561 80.3267 29.8297 80.8202 29.1094C81.1943 28.5632 81.9107 28.3737 82.5112 28.6622C83.1126 28.9511 83.4236 29.6401 83.213 30.2168C82.9789 30.8575 82.3325 31.224 81.6695 31.0922C81.6267 31.0837 81.5832 31.0783 81.507 31.0637Z" fill="white"/>
<path d="M68.7702 38.7209C69.0931 37.4956 70.435 37.4581 71.0137 38.0088C71.4329 38.4076 71.5566 39.0787 71.2824 39.5638C70.9969 40.0687 70.3806 40.3364 69.7955 40.2096C69.1949 40.0795 68.7827 39.603 68.7596 39.0091C68.7564 38.9249 68.7635 38.8404 68.7702 38.7209Z" fill="white"/>
<path d="M86.4731 82.0415C85.8893 82.4197 85.3292 82.425 84.7858 82.0416C84.3604 81.7416 84.1756 81.1709 84.3205 80.6842C84.4705 80.1806 84.9776 79.7908 85.5368 79.7493C86.0828 79.7087 86.6016 80.0028 86.8442 80.4902C87.1067 81.0178 86.9962 81.5061 86.4731 82.0415Z" fill="white"/>
<path d="M76.8083 69.584C76.2704 70.0066 75.626 70.0752 75.1238 69.7835C74.6651 69.5171 74.4465 69.015 74.5351 68.4798C74.6258 67.9328 74.9456 67.5983 75.4936 67.4528C76.0053 67.3169 76.4672 67.4355 76.8127 67.798C77.1798 68.1831 77.3007 68.6601 77.0799 69.1695C77.0193 69.3091 76.9152 69.4313 76.8083 69.584Z" fill="white"/>
</g>
<path d="M137.796 63.0674H127.313V79.0176H119V27.7222H137.796C149.429 27.7222 155.244 33.4634 155.244 44.9455C155.244 50.8364 153.772 55.3294 150.826 58.4246C147.931 61.5198 143.588 63.0674 137.796 63.0674ZM127.313 55.8786H137.721C143.712 55.8786 146.707 52.2342 146.707 44.9455C146.707 41.451 145.984 38.9048 144.537 37.3074C143.088 35.7099 140.816 34.9112 137.721 34.9112H127.313V55.8786ZM188.255 49.2887C182.364 48.49 178.096 48.0906 175.449 48.0906C172.804 48.0906 170.956 48.4151 169.908 49.0642C168.909 49.6632 168.411 50.6366 168.411 51.9845C168.411 53.3324 168.96 54.281 170.058 54.8302C171.206 55.3793 173.852 56.0284 177.996 56.7772C182.189 57.476 185.159 58.5993 186.907 60.1469C188.654 61.6946 189.528 64.4402 189.528 68.3842C189.528 72.328 188.255 75.2235 185.708 77.0706C183.213 78.9178 179.543 79.8414 174.701 79.8414C171.655 79.8414 167.811 79.417 163.168 78.5683L160.847 78.1939L161.147 71.3795C167.138 72.1782 171.456 72.5776 174.102 72.5776C176.748 72.5776 178.619 72.2532 179.717 71.6041C180.866 70.9551 181.44 69.8818 181.44 68.3842C181.44 66.8865 180.891 65.8631 179.792 65.3139C178.744 64.7148 176.173 64.0908 172.079 63.4419C168.036 62.7429 165.065 61.6696 163.168 60.2218C161.271 58.774 160.323 56.1281 160.323 52.2841C160.323 48.4402 161.621 45.5695 164.217 43.6724C166.863 41.7755 170.233 40.8269 174.326 40.8269C177.522 40.8269 181.44 41.2263 186.083 42.025L188.405 42.4743L188.255 49.2887ZM193.416 41.5757H201.427L209.365 72.0534H211.388L219.324 41.5757H227.412L213.184 95.1177H205.172L209.665 79.0176H203.225L193.416 41.5757ZM247.062 40.7521C249.708 40.7521 252.828 41.1015 256.423 41.8004L258.295 42.1748L257.995 48.6149C254.051 48.2154 251.131 48.0158 249.234 48.0158C245.439 48.0158 242.893 48.8644 241.596 50.5618C240.297 52.2591 239.649 55.4542 239.649 60.1469C239.649 64.8397 240.273 68.0846 241.521 69.8818C242.768 71.679 245.364 72.5776 249.308 72.5776L258.07 71.9786L258.295 78.4935C253.253 79.3921 249.458 79.8414 246.912 79.8414C241.221 79.8414 237.202 78.3188 234.856 75.2734C232.559 72.1782 231.411 67.136 231.411 60.1469C231.411 53.1577 232.634 48.1905 235.081 45.2451C237.527 42.2497 241.521 40.7521 247.062 40.7521ZM274.348 79.0176H266.185V26H274.348V43.5227C278.043 41.6756 281.462 40.7521 284.607 40.7521C289.599 40.7521 292.995 42.1748 294.791 45.0205C296.639 47.816 297.563 52.4589 297.563 58.9487V79.0176H289.4V59.1735C289.4 55.1298 288.976 52.2591 288.127 50.5618C287.278 48.8644 285.481 48.0158 282.735 48.0158C280.339 48.0158 277.943 48.4151 275.546 49.2139L274.348 49.6632V79.0176ZM336.644 79.0176H307.663V28.0967H317.997V69.8818H336.644V79.0176ZM370.767 53.2576V68.8335C370.867 70.0316 371.067 70.8803 371.365 71.3795C371.665 71.8288 372.289 72.1533 373.238 72.3529L372.938 79.9162C370.392 79.9162 368.345 79.7415 366.797 79.3921C365.3 79.0425 363.777 78.3437 362.229 77.2953C358.636 79.0425 354.966 79.9162 351.222 79.9162C343.485 79.9162 339.615 75.8226 339.615 67.6353C339.615 63.6415 340.688 60.8209 342.835 59.1735C344.982 57.476 348.276 56.4777 352.72 56.1781L360.732 55.5791V53.2576C360.732 51.7101 360.383 50.6617 359.684 50.1125C358.985 49.5135 357.862 49.2139 356.314 49.2139L342.236 49.813L341.937 42.8488C347.279 41.401 352.345 40.6771 357.138 40.6771C361.98 40.6771 365.45 41.6756 367.547 43.6724C369.693 45.6694 370.767 48.8644 370.767 53.2576ZM353.918 63.1422C351.123 63.3919 349.725 64.8895 349.725 67.6353C349.725 70.381 350.947 71.7538 353.393 71.7538C355.29 71.7538 357.363 71.4543 359.609 70.8552L360.732 70.5557V62.5431L353.918 63.1422ZM398.454 40.6771C403.697 40.6771 407.515 42.1249 409.912 45.0205C412.358 47.866 413.581 52.983 413.581 60.3716C413.581 67.7602 412.184 72.8772 409.387 75.7227C406.592 78.5184 401.774 79.9162 394.935 79.9162C392.788 79.9162 388.87 79.6667 383.178 79.1673L380.332 78.8678V26.5991H390.367V42.699C393.562 41.3511 396.257 40.6771 398.454 40.6771ZM394.935 70.9302C398.28 70.9302 400.527 70.1315 401.674 68.5339C402.823 66.8865 403.397 63.966 403.397 59.7725C403.397 53.0329 401.299 49.6632 397.106 49.6632C395.11 49.6632 393.213 49.9127 391.415 50.4121L390.367 50.6366V70.6307C392.664 70.8303 394.186 70.9302 394.935 70.9302Z" fill="white"/>
<mask id="mask1_407_6" style="mask-type:luminance" maskUnits="userSpaceOnUse" x="424" y="27" width="118" height="55">
<path d="M530.877 27.2903H435.192C429.448 27.2903 424.792 31.9468 424.792 37.6908V70.9725C424.792 76.7165 429.448 81.373 435.192 81.373H530.877C536.621 81.373 541.278 76.7165 541.278 70.9725V37.6908C541.278 31.9468 536.621 27.2903 530.877 27.2903Z" fill="white"/>
</mask>
<g mask="url(#mask1_407_6)">
<path fill-rule="evenodd" clip-rule="evenodd" d="M419.577 22.9514H545.218V85.712H419.577V22.9514ZM491.011 41.7338C490.106 42.6786 488.539 44.3294 488.544 46.9789V62.8029C488.544 64.8514 489.112 65.9154 490.403 67.1968C491.644 68.4292 493.04 68.9951 494.79 68.9951H502.871V63.3969H496.093C495.466 63.3969 495.064 63.1514 494.649 62.6837C494.059 62.0173 494.146 60.9767 494.146 60.9767V57.1136H501.402L501.394 51.5061L494.146 51.5013V48.396C494.146 48.396 494.182 47.4536 495.031 46.427C495.879 45.4004 497.226 45.2718 497.226 45.2718L502.871 45.2648V39.6643H495.427C493.524 39.6643 491.794 40.9201 491.011 41.7338ZM520.994 68.9981C522.937 69.0085 528.608 69.0385 528.645 62.4896H528.642V46.4341C528.631 39.6611 522.522 39.6654 520.896 39.6667H509.783V68.9974H520.796C520.858 68.9974 520.923 68.9978 520.994 68.9981ZM523.034 59.3515C523.034 59.3515 523.472 63.3969 519.708 63.3923V63.3946H515.388V45.2718H519.742C523.183 45.2697 523.083 48.6603 523.045 49.9407C523.042 50.0516 523.04 50.1466 523.04 50.2223L523.034 59.3515ZM476.209 45.2695H472.227C469.299 45.2672 468.553 47.5003 468.553 50.0422V68.9974H462.95V46.5766C462.96 42.5219 466.916 39.6667 470.97 39.6667H481.811V68.9974H476.209V45.2695ZM442.997 63.3946H447.024L447.027 63.3969C449.935 63.3993 450.667 61.2105 450.669 58.6874V39.6667H456.272V62.1459C456.261 66.1749 452.335 68.9974 448.31 68.9974H437.425V39.6667H443.026L442.997 63.3946Z" fill="white"/>
</g>
</svg>
