<svg width="204" height="209" viewBox="0 0 204 209" fill="none" xmlns="http://www.w3.org/2000/svg">
<g clip-path="url(#clip0_327_111)">
<path d="M83.8116 20.1672C84.2326 20.2608 84.5693 20.3747 84.9152 20.4449C92.2594 21.9349 97.167 27.8054 97.1702 35.159C97.1787 54.6687 97.1731 74.1785 97.1732 93.6883C97.1733 99.151 97.1755 104.614 97.1738 110.076C97.1719 116.243 91.9789 121.869 85.7051 122.566C83.753 122.782 81.8491 122.642 79.8786 122.147C79.443 123.471 79.0115 124.782 78.5406 126.213C81.8812 127.258 85.1956 127.308 88.5322 126.428C91.8521 125.552 94.6684 123.84 97.1034 121.282C97.1346 121.61 97.171 121.814 97.1711 122.018C97.1735 139.159 97.1811 156.3 97.1687 173.44C97.1643 179.669 93.5594 184.989 87.7334 187.303C86.5353 187.779 85.2166 187.963 83.9225 188.341C82.6353 188.399 81.3789 188.399 80.0194 188.339C79.6411 188.212 79.3681 188.134 79.0907 188.078C75.741 187.4 72.9539 185.775 70.7143 183.26C68.9026 181.226 67.7814 178.849 67.2554 176.227C67.1562 176.202 67.1003 176.172 67.0497 176.179C66.8812 176.202 66.7139 176.235 66.5474 176.269C62.7477 177.06 59.0363 176.708 55.546 175.091C49.2914 172.194 45.742 167.302 44.9911 160.559C44.0437 152.052 51.0091 146.038 58.6132 146.277C59.2754 146.298 59.6477 146.462 59.915 147.147C61.7297 151.803 65.0135 155.11 69.6778 157.105C69.9474 157.22 70.2169 157.335 70.5166 157.464C68.477 159.865 67.2614 162.482 67.2966 165.63C68.7792 165.63 70.189 165.63 71.5981 165.63C71.8535 159.587 77.9857 156.391 83.122 158.54C83.7268 157.274 84.3329 156.005 84.962 154.687C82.2692 153.551 79.5892 153.244 76.8035 153.888C76.3392 153.996 75.8504 154.102 75.3813 154.074C68.9442 153.69 63.4108 148.043 63.2189 141.742C63.1417 139.206 63.7346 136.844 64.9597 134.553C63.678 133.84 62.436 133.148 61.1623 132.439C59.385 135.444 58.7341 138.594 58.7674 141.896C50.0483 142.096 44.2085 146.203 41.0786 154.071C34.6732 151.871 28.5857 146.016 27.3129 138.106C25.4439 126.491 30.5344 118.376 41.4324 113.539C40.9083 112.285 40.3747 111.01 39.8261 109.698C37.3004 110.557 34.9928 111.646 33.0219 113.266C31.0574 114.882 29.2286 116.655 27.3041 118.392C24.143 115.978 21.8604 112.809 20.8 108.834C20.5888 108.042 20.3804 107.25 20.1708 106.457C20.1708 105.06 20.1708 103.663 20.2304 102.158C21.3797 95.3521 25.1489 90.6381 31.4306 87.7839C31.2465 87.533 31.1133 87.3551 30.984 87.1746C27.235 81.9397 26.0315 76.1642 27.3866 69.9396C28.414 65.22 30.855 61.2323 34.6814 58.1688C41.3198 52.854 48.7358 51.6966 56.7671 54.583C60.1391 55.7949 62.9441 57.8759 65.2993 60.5277C65.6014 60.8678 66.0116 61.2247 66.0921 61.6274C66.7645 64.9909 68.2177 67.96 70.6126 70.4658C72.4185 72.3553 74.5325 73.8138 77.1001 74.7854C77.6419 73.4508 78.1614 72.1714 78.7084 70.8241C74.4861 68.9746 71.6225 65.9676 70.6396 61.5687C69.6568 57.1704 70.7188 53.1944 73.8502 49.7928C77.9077 51.7727 81.8703 51.7043 85.8835 49.5974C85.1353 48.3243 84.421 47.109 83.7078 45.8956C81.0944 47.1509 78.5318 47.2894 76.0026 46.0042C73.4439 44.704 72.0812 42.5444 71.7013 39.7132C70.2053 39.8484 68.7804 39.9772 67.3026 40.1108C67.6064 42.8063 68.6351 45.0805 70.3745 47.107C68.2462 49.4227 66.9311 52.1259 66.1874 55.215C59.991 50.0626 52.9302 48.0276 44.9312 48.9752C45.1425 44.6796 46.5602 40.9485 49.4499 37.8652C54.2733 32.7187 60.2775 30.9974 67.2245 32.3829C68.5647 26.0113 73.4173 21.4585 79.4651 20.3985C79.6394 20.3679 79.7971 20.2464 79.9624 20.1672C81.2188 20.1672 82.4752 20.1672 83.8116 20.1672ZM55.4972 89.0823C51.8341 85.1582 47.291 83.1911 41.8246 83.0945C41.8246 83.8942 41.8246 84.5839 41.8246 85.2736C41.8246 85.9887 41.8246 86.7037 41.8246 87.4171C51.611 87.2442 58.7504 97.4864 53.7891 106.895C55.044 107.569 56.2993 108.244 57.5688 108.925C57.7142 108.705 57.8036 108.596 57.8642 108.474C60.249 103.653 60.5129 98.7502 58.4254 93.77C58.239 93.3253 58.1591 93.0047 58.5056 92.575C62.6393 87.4487 70.1977 86.1257 75.8779 89.5587C77.7226 90.6736 79.2097 92.1467 80.4046 94.0039C81.6742 93.2558 82.9012 92.5327 84.1256 91.8112C84.0696 91.6577 84.0536 91.574 84.0119 91.5054C79.4496 84.0027 68.9795 81.1223 61.0389 85.1447C58.9907 86.1822 57.2462 87.5755 55.4972 89.0823Z" fill="white"/>
<path d="M119.847 188.399C118.297 187.653 116.701 187.075 115.381 186.128C111.118 183.069 109.92 177.398 112.399 172.718C114.769 168.244 120.36 166.04 125.309 167.604C127.733 168.369 129.652 169.778 131.044 171.848C131.395 172.37 131.687 172.486 132.271 172.238C135.087 171.041 137.915 169.872 140.747 168.71C141.158 168.542 141.372 168.391 141.301 167.875C140.891 164.904 141.932 162.506 144.434 160.768C144.955 160.405 144.746 160.068 144.604 159.699C143.753 157.486 142.887 155.279 142.028 153.068C141.513 151.742 140.978 150.423 140.5 149.084C140.333 148.616 140.108 148.458 139.594 148.447C136.592 148.381 134.47 146.096 134.618 143.138C134.752 140.448 137.246 138.358 140.107 138.578C140.694 138.623 141.268 138.824 141.935 138.973C143.336 137.342 144.781 135.663 146.223 133.981C146.9 133.191 147.547 132.376 148.255 131.615C148.615 131.228 148.67 130.955 148.399 130.462C147.389 128.626 147.498 126.796 148.773 125.122C150.074 123.414 151.893 122.792 153.987 123.255C156.059 123.713 157.381 125.071 157.804 127.102C158.175 128.88 157.655 130.475 156.26 131.727C154.815 133.024 153.109 133.385 151.268 132.792C150.675 132.601 150.411 132.727 150.068 133.132C148.108 135.449 146.138 137.758 144.151 140.052C143.834 140.417 143.866 140.679 144.086 141.077C145.281 143.239 144.888 145.536 143.039 147.236C142.716 147.533 142.539 147.74 142.724 148.213C144.15 151.849 145.543 155.498 146.948 159.142C147.007 159.294 147.085 159.439 147.166 159.612C149.379 159.265 151.397 159.694 153.127 161.057C155.492 162.922 156.402 165.386 155.766 168.276C155.127 171.179 153.206 173.084 150.281 173.748C147.375 174.408 144.799 173.592 142.867 171.274C142.456 170.781 142.153 170.65 141.546 170.908C138.55 172.182 135.536 173.415 132.466 174.689C133.42 178.25 132.813 181.517 130.506 184.394C128.792 186.531 126.483 187.778 123.727 188.342C122.439 188.399 121.183 188.399 119.847 188.399Z" fill="white"/>
<path d="M123.761 20.7636C131.053 21.5406 133.521 28.4711 132.729 32.7245C131.926 37.0411 128.514 40.4144 124.089 41.2703C123.812 41.3238 123.539 41.3936 123.22 41.4657C123.22 44.0862 123.22 46.6961 123.22 49.2669C124.142 49.6605 125.109 49.9427 125.932 50.4488C128.767 52.1912 129.912 55.1072 129.115 58.5059C128.979 59.0862 129.153 59.2872 129.599 59.5383C131.768 60.7608 133.926 62.0021 136.077 63.2535C136.488 63.4926 136.778 63.5404 137.207 63.2078C138.98 61.8313 141.292 61.7351 143.095 62.8956C144.942 64.0847 145.796 66.2046 145.263 68.278C144.714 70.4118 142.969 71.8237 140.688 72.0472C140.404 72.0751 140.003 72.3333 139.907 72.5789C139.47 73.6947 139.115 74.842 138.745 75.9823C138.402 77.0389 138.077 78.1011 137.737 79.1831C139.29 80.2947 140.207 81.7054 140.134 83.6453C140.06 85.6284 138.808 87.3617 136.839 88.1069C135.007 88.8003 132.766 88.3063 131.411 86.91C130.019 85.4754 129.585 83.3062 130.388 81.5584C131.241 79.7014 132.692 78.6158 134.804 78.5242C135.313 78.5021 135.476 78.2976 135.609 77.8759C136.232 75.9097 136.873 73.9488 137.533 71.9946C137.687 71.54 137.643 71.2972 137.212 70.9626C135.688 69.7786 135.063 68.1806 135.372 66.2971C135.46 65.7572 135.332 65.5062 134.865 65.2471C132.762 64.0809 130.661 62.9095 128.603 61.6697C127.955 61.2793 127.591 61.3065 127.024 61.8208C124.754 63.8794 121.538 64.3472 118.858 63.0986C116.146 61.8348 114.509 59.1214 114.642 56.1112C114.771 53.2043 116.923 50.5092 119.779 49.6792C120.077 49.5925 120.377 49.5097 120.726 49.4109C120.726 46.7709 120.726 44.1384 120.726 41.4391C118.878 41.1231 117.105 40.5659 115.59 39.4094C112.07 36.722 110.513 33.1954 111.337 28.8999C112.173 24.545 116.468 19.9867 123.761 20.7636Z" fill="white"/>
<path d="M184.171 105.877C183.938 106.63 183.711 107.306 183.47 107.977C181.913 112.314 177.375 115.097 172.691 114.897C164.559 114.551 159.299 105.317 164.399 98.1326C164.446 98.0665 164.47 97.9846 164.537 97.8388C162.922 96.3394 161.296 94.8294 159.669 93.3217C159.008 92.7089 158.325 92.117 157.684 91.4841C157.333 91.1371 157.073 91.0974 156.596 91.3418C153.177 93.0947 149.116 91.5295 147.954 88.0497C147.134 85.5912 147.989 82.902 150.067 81.409C152.316 79.7929 155.018 79.7829 157.29 81.384C157.565 81.5782 157.835 81.7799 158.149 82.0081C161.172 80.1392 164.206 78.2762 167.214 76.3737C167.398 76.2568 167.475 75.8142 167.437 75.5454C166.974 72.2733 169.28 69.5805 172.537 69.6226C174.652 69.6498 176.531 70.979 177.202 72.9227C177.925 75.0186 177.301 77.168 175.587 78.4837C173.871 79.8009 171.447 79.9609 169.698 78.728C169.004 78.2387 168.566 78.3213 167.92 78.7327C165.273 80.4173 162.592 82.0498 159.925 83.7038C159.759 83.8064 159.607 83.9297 159.422 84.0626C159.961 85.7688 159.879 87.416 159.029 89.009C158.957 89.1447 159.024 89.4583 159.144 89.57C161.481 91.7604 163.837 93.9332 166.203 96.1233C166.479 95.9375 166.689 95.8011 166.893 95.6576C173 91.3752 181.493 94.1802 183.698 101.209C183.821 101.602 183.935 101.998 184.112 102.418C184.171 103.562 184.171 104.681 184.171 105.877Z" fill="white"/>
<path d="M119.84 114.035C120.395 112.838 120.88 111.677 121.463 110.565C121.801 109.921 121.714 109.496 121.227 108.955C119.186 106.689 119.615 103.389 122.128 101.64C124.322 100.112 127.384 100.56 129.065 102.711C129.459 103.215 129.79 103.328 130.415 103.161C132.799 102.521 135.196 101.922 137.602 101.37C138.243 101.224 138.469 100.941 138.565 100.332C138.867 98.3994 140.025 97.1021 141.875 96.4258C143.758 95.7374 145.477 96.141 146.959 97.4075C149.174 99.3002 149.21 102.701 147.084 104.691C144.891 106.743 141.456 106.516 139.562 104.114C139.097 103.524 138.716 103.497 138.07 103.67C135.712 104.299 133.341 104.882 130.968 105.456C130.432 105.585 130.186 105.824 130.073 106.38C129.494 109.214 127.64 110.642 124.657 110.677C124.389 110.68 123.987 110.888 123.879 111.108C122.874 113.167 121.906 115.244 120.975 117.336C120.888 117.532 121.047 117.976 121.238 118.128C123.574 119.974 124.828 122.29 124.771 125.286C124.705 128.817 122.375 132.081 119.004 133.205C115.322 134.434 111.351 133.335 109.087 130.459C104.983 125.247 107.849 117.806 114.481 116.585C115.542 116.39 116.69 116.54 117.783 116.658C118.339 116.718 118.632 116.63 118.846 116.137C119.147 115.447 119.487 114.773 119.84 114.035Z" fill="white"/>
<path d="M173.251 145.113C168.66 148.068 163.068 145.462 161.894 140.796C161.199 138.033 162.307 135.083 164.76 133.265C166.988 131.615 170.199 131.434 172.654 132.819C177.498 135.554 177.825 141.723 173.251 145.113Z" fill="white"/>
<path d="M157.032 55.303C159.346 53.6622 161.989 53.5467 164.176 54.9535C166.281 56.3076 167.296 58.7692 166.757 61.2125C166.227 63.6132 164.066 65.5401 161.604 65.807C159.079 66.0807 156.466 64.747 155.483 62.6828C154.266 60.1281 154.691 57.4853 156.609 55.682C156.732 55.5663 156.86 55.4554 157.032 55.303Z" fill="white"/>
<path d="M116.835 87.2074C119.166 87.4457 120.981 88.8801 121.456 90.8002C122.004 93.0168 121.221 95.0808 119.37 96.295C117.593 97.4605 115.196 97.374 113.458 96.0816C111.804 94.8522 111.09 92.6367 111.721 90.698C112.402 88.6057 114.215 87.2576 116.416 87.2057C116.53 87.203 116.644 87.2057 116.835 87.2074Z" fill="white"/>
<path d="M144.696 36.3947C147.025 33.2963 151.55 33.7948 153.265 36.7596C154.486 38.8698 154.038 41.4606 152.152 43.038C150.401 44.5021 147.648 44.5876 145.834 43.2344C143.867 41.7674 143.238 39.1793 144.33 37.0283C144.431 36.8294 144.554 36.6415 144.696 36.3947Z" fill="white"/>
<path d="M133.038 115.153C133.689 113.045 135.106 111.817 137.229 111.516C139.28 111.225 140.987 111.959 142.154 113.667C143.299 115.342 143.338 117.106 142.356 118.874C141.283 120.801 138.985 121.754 136.755 121.224C134.478 120.682 132.948 118.87 132.902 116.627C132.892 116.159 132.975 115.689 133.038 115.153Z" fill="white"/>
<path d="M130.563 164.009C128.104 163.81 126.17 162.025 125.902 159.775C125.61 157.316 127.085 154.973 129.329 154.332C131.714 153.651 134.366 154.655 135.407 156.717C137.336 160.534 134.246 164.314 130.563 164.009Z" fill="white"/>
<path d="M108.86 147.575C106.458 145.496 106.648 141.753 109.329 139.849C110.886 138.743 113.213 138.644 114.873 139.665C116.727 140.804 117.649 142.821 117.225 144.803C116.394 148.681 111.882 150.207 108.86 147.575Z" fill="white"/>
<path d="M107.471 70.5443C108.302 68.2992 110.57 66.9121 112.836 67.2107C115.342 67.5409 117.113 69.4019 117.323 71.9249C117.501 74.0631 115.936 76.3539 113.715 76.9111C111.834 77.3829 110.038 77.0951 108.622 75.6157C107.239 74.1713 106.876 72.4937 107.471 70.5443Z" fill="white"/>
<path d="M140.205 51.5334C138.671 53.3222 136.27 53.6148 134.547 52.2671C132.876 50.9602 132.554 48.5606 133.824 46.8733C135.097 45.1834 137.532 44.8051 139.3 46.0227C141.127 47.2813 141.518 49.5491 140.205 51.5334Z" fill="white"/>
<path d="M112.821 158.193C114.009 157.116 115.29 156.999 116.391 157.825C117.377 158.564 117.704 159.988 117.133 161.05C116.411 162.393 114.743 162.842 113.418 162.051C112.039 161.228 111.767 159.605 112.821 158.193Z" fill="white"/>
<path d="M121.068 81.8014C119.897 81.0552 119.716 80.0062 119.975 78.8415C120.167 77.9755 121.261 77.149 122.228 77.0554C123.284 76.9529 124.324 77.5469 124.853 78.5549C125.327 79.4574 125.098 80.7347 124.329 81.4766C123.475 82.3014 122.335 82.4284 121.068 81.8014Z" fill="white"/>
<path d="M152.336 74.102C150.918 73.0655 150.633 71.5986 151.564 70.3767C152.406 69.2725 154.081 68.9985 155.208 69.7806C156.357 70.5777 156.632 72.2517 155.807 73.4217C155.092 74.4343 153.747 74.7155 152.336 74.102Z" fill="white"/>
<path d="M108.865 48.2897C107.371 47.5875 106.805 46.1684 107.414 44.8002C107.913 43.6801 109.397 43.0345 110.55 43.4365C112.011 43.9464 112.748 45.3167 112.299 46.6889C111.854 48.0489 110.526 48.6866 108.865 48.2897Z" fill="white"/>
<path d="M153.533 139.499C155.098 139.451 156.136 140.11 156.491 141.316C156.828 142.458 156.342 143.666 155.275 144.255C154.354 144.764 153.408 144.752 152.53 144.182C151.557 143.55 151.17 142.605 151.406 141.499C151.635 140.427 152.365 139.764 153.533 139.499Z" fill="white"/>
<path d="M155.273 114.789C155.005 116.208 154.254 117.007 153.083 117.187C151.953 117.361 150.9 116.867 150.355 115.909C149.815 114.959 149.923 113.887 150.645 113.036C151.324 112.236 152.404 111.912 153.406 112.206C154.484 112.522 155.175 113.452 155.273 114.789Z" fill="white"/>
<path d="M129.735 96.8255C129.172 95.5727 129.31 94.5409 130.103 93.7671C130.942 92.9488 132.033 92.7382 133.078 93.193C134.043 93.6132 134.675 94.6287 134.624 95.6768C134.574 96.7099 133.843 97.6368 132.81 97.9783C131.684 98.3507 130.692 97.9917 129.735 96.8255Z" fill="white"/>
<path d="M122.291 145.691C123.392 145.058 124.414 145.121 125.356 145.848C126.222 146.517 126.465 147.444 126.237 148.467C126.001 149.528 125.251 150.119 124.2 150.359C123.144 150.6 121.894 150.004 121.414 149.054C120.802 147.841 121.098 146.645 122.291 145.691Z" fill="white"/>
<path d="M152.237 105.234C151.866 103.708 152.579 102.395 153.941 101.996C155.299 101.599 156.723 102.307 157.166 103.599C157.635 104.97 156.972 106.37 155.619 106.865C154.243 107.37 152.89 106.739 152.237 105.234Z" fill="white"/>
<path d="M129.637 133.76C130.444 134.719 130.57 135.707 129.992 136.748C129.501 137.633 128.411 138.173 127.412 138.031C126.3 137.873 125.545 137.261 125.191 136.214C124.837 135.165 125.316 133.945 126.306 133.301C127.26 132.681 128.556 132.844 129.637 133.76Z" fill="white"/>
<path d="M114.467 105.459C114.297 106.971 113.462 107.866 112.09 108.078C111.085 108.233 109.782 107.458 109.379 106.429C108.997 105.458 109.185 104.575 109.9 103.801C110.669 102.97 111.617 102.733 112.686 103.078C113.806 103.438 114.339 104.275 114.467 105.459Z" fill="white"/>
<path d="M164.341 124.044C162.85 123.637 162.024 122.32 162.35 120.964C162.66 119.675 164.097 118.78 165.415 119.054C166.813 119.345 167.787 120.679 167.522 121.941C167.203 123.469 165.957 124.314 164.341 124.044Z" fill="white"/>
<path d="M148.878 54.7617C147.055 53.7668 146.576 52.3193 147.538 50.8937C148.268 49.8126 149.665 49.4377 150.836 50.0086C152.008 50.5804 152.615 51.944 152.204 53.0854C151.748 54.3536 150.487 55.0789 149.194 54.8182C149.111 54.8013 149.026 54.7907 148.878 54.7617Z" fill="white"/>
<path d="M124.042 69.9165C124.671 67.4914 127.288 67.4172 128.417 68.5071C129.234 69.2965 129.475 70.6248 128.94 71.5848C128.384 72.5842 127.182 73.1139 126.041 72.863C124.87 72.6054 124.066 71.6623 124.021 70.4869C124.015 70.3203 124.029 70.153 124.042 69.9165Z" fill="white"/>
<path d="M158.561 155.656C157.422 156.405 156.33 156.415 155.271 155.657C154.441 155.063 154.081 153.933 154.363 152.97C154.656 151.973 155.645 151.202 156.735 151.12C157.8 151.039 158.811 151.621 159.284 152.586C159.796 153.63 159.581 154.597 158.561 155.656Z" fill="white"/>
<path d="M139.715 131C138.666 131.837 137.409 131.973 136.43 131.395C135.536 130.868 135.109 129.874 135.282 128.815C135.459 127.732 136.083 127.07 137.151 126.782C138.149 126.513 139.05 126.748 139.724 127.465C140.439 128.228 140.675 129.172 140.244 130.18C140.126 130.456 139.923 130.698 139.715 131Z" fill="white"/>
</g>
<defs>
<clipPath id="clip0_327_111">
<rect width="164" height="168.232" fill="white" transform="translate(20 20)"/>
</clipPath>
</defs>
</svg>
