<?xml version="1.0" encoding="UTF-8"?>
<svg version="1.1" viewBox="0 0 2048 2009" width="1280" height="1280" xmlns="http://www.w3.org/2000/svg">
<path transform="translate(1507,728)" d="m0 0h15l35 2 30 4 29 6 25 7 26 9 20 9 16 8 14 8 17 12 13 11 10 9 10 10 9 11 9 12 8 13 8 15 9 24 7 24 6 28 4 29 2 23v46l-4 38-6 31-7 24-9 25-13 27-11 18-11 14-14 15-8 7-12 10-16 11-15 9-17 9-23 10-26 8-34 8-31 5-34 3h-40l-27-2-32-5-26-6-36-12-21-9-25-13-22-14-13-10-13-11-15-15-11-14-10-15-10-18-8-17-8-23-7-26-5-30-2-23v-50l3-32 5-32 6-27 6-20 9-22 10-19 12-18 10-13 12-13 12-12 17-13 16-10 23-12 17-8 28-10 26-7 25-5 29-4zm-5 144-17 3-18 6-11 6-10 9-6 7-6 12-4 13-4 22-3 30v69l2 37 3 23 5 19 4 10 8 12 9 9 15 8 17 6 24 4h24l20-4 12-4 14-7 10-9 8-10 6-13 4-17 3-29 1-27v-56l-1-42-3-29-4-15-7-13-9-10-14-9-14-6-17-4-9-1z" fill="#0152A2"/>
<path transform="translate(843,729)" d="m0 0h39l25 2 32 5 25 6 26 8 20 8 29 15 9 5 1-33 1-1 41-1h67l13 1 1 14 2 113v31l-1 37-10 1h-110l-8-10-9-11-11-11-16-12-21-12-24-10-23-7-23-5-18-3-15-1h-37l-13 4-9 6-6 7-1 2v8l5 10 9 6 12 5 30 9 177 51 20 7 16 8 16 9 19 14 12 11 16 16 13 17 9 15 10 21 6 20 3 20v30l-3 21-5 19-7 17-8 16-9 13-11 14-13 13-14 11-18 11-16 8-28 10-24 6-23 4-19 2h-54l-21-2-24-4-23-5-27-8-23-8-16-8-31-16-1 6-1 24-1 8-2 1h-124l-1-9-1-56v-66l1-64 1-14 48-1h66l7 10 9 14 6 7 2 1v2l4 2 9 8 17 12 16 9 17 8 24 8 23 5 17 2h43l23-3 18-4 9-4 6-5 2-5-1-8-4-5v-2l-4-2-14-6-61-19-54-16-47-14-35-11-31-11-29-14-20-13-13-10-13-12-10-10-13-17-11-21-6-18-4-20-2-20v-20l2-19 5-22 7-19 11-21 11-15 12-13 11-9 11-8 21-12 15-7 20-7 21-6 26-5 16-2z" fill="#0152A2"/>
<path transform="translate(242,735)" d="m0 0h365l3 1 1 6v133l-3 1-82 1v153l-1 139 85 2 1 1v134l-1 1-362 1-7-1-1-1-1-14v-103l1-17 1-1 82-2v-291l-14-1-67-2-1-1-1-34v-76l1-28z" fill="#0152A2"/>
<path transform="translate(994,376)" d="m0 0h50l38 3 33 4 28 5 32 7 27 7 41 14 26 10 32 14 19 10 28 15 21 13 27 18 14 10 18 14 11 9 13 11 11 10 8 7 34 34 7 8 12 14 14 17 14 19 13 18 1 4-1 1h-18l-8-1-14-19-11-14-11-13-9-11-7-7-7-8-25-25-8-7-11-10-14-11-12-10-5-2-16 8-28 16-22 13 2 4 9 10 12 14 30 39 14 21 6 10v3l-24 1-9-11-10-14-9-12-14-18-24-28-7-7-9 3-28 11-41 15-31 9-4 2 11 25 9 21v3l-7 1h-15l-5-6-8-16-10-19-1-3-42 8-43 6-67 6-1 23h-24l-1-24-58-4-35-4-39-6-20-4h-3l-20 41-2 2h-23v-3l15-34 4-9v-4l-33-10-42-15-32-12h-5l-14 15-9 11-12 14-14 19-13 18-7 9-7 2h-17l-1-3 13-21 14-20 13-17 14-18 11-13 6-8-13-8-18-10-28-16-6-4-4 1-10 7-16 13-8 7-10 9-15 14-13 13-7 8-10 11-9 11-11 13-9 12-10 13-5 5h-22l-2-1 2-5 22-30 10-13 14-17 18-20 12-13 20-20 8-7 12-11 11-9 16-13 19-14 16-11 15-10 20-12 21-12 17-9 28-13 31-13 31-11 34-10 33-8 31-6 36-5 20-2zm-7 23-32 2-35 4-30 5-20 4-2 1 2 4 24 14 19 9 20 7 18 5 25 4 10 1h45l25-3 25-6 27-9 25-12 16-10 2-4-6-2-35-7-30-4-42-3zm197 24-12 9-3 3v3l22 13 27 18 17 12 12 9 18 14 13 11 11 9 7 7 8 7 9 9 6 5 5-1 18-10 23-13 16-9 1-4-29-19-25-15-28-15-21-10-31-13-38-13-24-7zm-354 1-5 2-7-1-8 5-39 14-30 13-25 12-26 14-24 15-12 8-16 11 2 4 16 10 21 12 19 9 6 2 13-12 7-7 11-9 13-12 14-11 15-12 16-12 17-12 30-20 14-9-2-4-9-6-5-4zm309 28-10 5-25 11v3l14 19 13 18 22 33 11 17 13 21 11 18 1 2 9-1 35-10 35-13 26-11v-3l-8-7-10-10-8-7-15-13-15-12-20-15-24-16-16-10-21-12-13-7zm-262 1-22 12-26 16-16 11-14 10-17 13-16 13-14 12-12 11-10 9-3 3v3l21 9 25 9 24 8 29 8 5-1 6-9 12-20 14-23 11-17 12-18 12-17 9-12 8-11 1-4-13-6-25-9zm67 23-5 5-9 11-8 10-14 19-11 16-13 20-12 20-14 24-1 5 12 4 36 6 42 5 29 2h16l6-1v-136l-2-3-36-5zm128 1-43 6-5 2-1 24v103l1 10 1 1 29-1 36-3 35-5 35-7 2-1-1-5-14-26-14-22-11-16-13-18-15-20-11-14-7-8z" fill="#0152A2"/>
<path transform="translate(618,1368)" d="m0 0h17l4 2 10 16 14 19 11 14 11 13 9 11 14 15 6-1 44-17 36-12 26-8h3l-13-32-7-16v-4h21l5 5 17 34 2 5 32-6 49-7 43-4 29-2 1-24 3-1 20 1 1 7v17l20 1 53 5 48 7 31 6 4-1 21-42h24l-3 10-16 36-1 4 9 2 50 16 49 19 5 1 12-12 9-11 10-12 15-20 14-20 9-13 26-1-1 4-10 17-16 23-13 17-11 14-14 17-6 7v2l46 26 18 11 5 1 9-7 13-11 8-7 12-11 7-7h2v-2h2v-2h2l2-4 19-19 7-8 13-15 9-11 16-21 9-12 1-1h26l-2 4-12 18-14 19-14 17-9 11-11 12-7 8-7 7-7 8-13 13-8 7-14 13-11 9-13 11-20 15-17 12-23 15-29 17-27 14-27 13-32 13-41 14-41 11-40 8-34 5-31 3-16 1h-72l-38-3-36-5-36-7-36-9-35-11-33-12-35-15-16-8-23-12-26-15-22-14-17-12-19-14-11-9-16-13-11-10-8-7-13-12-20-20v-2h-2l-7-8-12-13-11-14-10-12-14-19-11-16-3-6h26l7 8 10 14 10 13 11 13 9 11 7 7 7 8 31 31 8 7 14 12 14 11 5 4 5-2 16-8 26-15 13-8 7-4h2l-9-12-14-17-13-17-10-13-11-16-9-14-7-11v-2zm410 50-1 1-1 25v86l1 28 4 2 27 4 24 3 5-4 12-16 14-19 16-23 13-20 12-20 13-23 2-6-9-3-37-7-42-5-48-3zm-35 0-35 2-30 3-34 5-32 6-1 3 8 15 14 24 15 24 14 20 13 18 22 28 3 1 32-5 20-3v-140l-1-1zm-163 24-35 10-29 10-35 15-2 1 2 4 15 15 8 7 12 11 11 9 18 14 14 10 24 16 26 15 22 12 5-1 34-15v-3l-8-11-14-20-15-22-19-29-15-25-13-23zm364 0-8 14-15 26-12 19-9 14-8 12-14 20-13 18-5 7v3l29 13 5 2 6-1 20-11 28-17 21-14 21-16 14-11 10-9 8-7 16-15 8-8v-2h2l-1-3-33-14-23-8-27-8-16-4zm129 47-7 6-14 14-8 7-10 9-11 9-17 14-12 9-19 14-29 19-21 13-2 1v3l15 11 6 1 38-12 33-13 32-14 32-16 25-15 19-13 14-10v-3l-24-15-22-12-17-7zm-621 1-21 10-28 17-13 8 4 4 27 18 15 9 21 12 19 10 26 12 27 11 36 12 20 6h5l11-8 4-5-15-10-17-11-23-16-14-10-17-13-16-13-11-9-11-10-8-7-10-9-7-7zm291 94-29 4-18 4-20 6-20 8-21 11-12 8-1 3 19 5 35 6 38 4 35 2h28l36-2 38-4 37-6 17-4 2-1-2-4-14-9-19-10-23-9-22-6-30-5-12-1z" fill="#0152A2"/>
<path transform="translate(1191,1748)" d="m0 0h25l13 3 14 7 12 11 7 9 7 15 6 21 3 19 1 12v44l-2 19-4 20-6 18-7 13-11 12-10 7-9 4-11 3-7 1h-18l-14-3-12-5-9-6-11-11-7-11-6-14-5-22-2-15-1-30 1-33 4-25 6-19 8-16 8-10 8-7 8-5 15-5zm11 38-9 3-7 6-5 10-3 11-2 15v74l3 17 5 13 4 6 7 5 10 2 10-4 5-4 6-12 3-13 2-30 1-10-1-37-3-25-5-14-6-8-7-4z" fill="#0152A2"/>
<path transform="translate(1011,1748)" d="m0 0h25l16 4 12 7 10 9 7 8 7 14 6 19 3 16 3 35v18l-3 31-3 16-7 21-5 10-8 10-7 7-10 6-10 4-15 3h-19l-16-4-14-7-12-11-8-10-7-16-5-19-3-24v-58l4-25 6-20 8-16 9-10 10-9 13-6zm12 38-9 2-8 7-5 10-3 12-2 16v69l2 17 6 16 4 6 5 4 5 2 7 1 10-4 5-4 6-12 3-12 2-17 1-35-1-22-1-18-3-15-5-12-6-7-10-4z" fill="#0152A2"/>
<path transform="translate(649,1748)" d="m0 0h30l15 3 12 5 11 7 10 10 8 14 3 9 2 17-2 19-5 15-8 15-8 11-12 13-17 17-8 7-12 12-5 4-8 10-1 3h84l2 7-1 36h-156l-1-1 1-10 5-18 10-19 8-11 11-13 15-16 17-16 16-15 11-11 9-12 5-10 2-7v-14l-3-8-4-6-6-5-10-3h-11l-10 4-6 5-6 12-3 14h-11l-30-3-5-1 1-9 4-17 8-16 9-10 8-6 16-8z" fill="#0152A2"/>
<path transform="translate(768,1752)" d="m0 0h153v35l-7 7-8 10-9 13-13 21-12 23-10 26-8 25-5 21-4 25-2 23-1 1h-43v-17l4-30 8-32 9-26 13-29 12-22 14-21 7-10h-98z" fill="#0152A2"/>
<path transform="translate(1385,1748)" d="m0 0h38v233l-1 1h-45l-1-1v-162l-7 4-16 11-12 7-17 7h-5v-41l16-8 11-7 16-12 9-9 7-10z" fill="#0152A2"/>
<path transform="translate(522,175)" d="m0 0 4 2 3 5-1 5-3 2 1 3 8 6 6 8 4 8 1 4v9l-4 10-9 10-10 8-15 7-7 3 1 6 4 2 20-6 18-6 15-3h10l10 5 6 9 3 9-1 10-6 10-11 11-13 8-11 5-8 2h-11l-8-3-7-6-6-10-2-8 1-13h-7l-8-7-2-3-1-7 1-6-9-4-6-5-8-14-2-8 1-9 6-12 10-10 20-13zm-15 28-11 4-9 6-7 8-2 6 1 8 6 10 6 4 9 1 11-4 10-7 7-8 1-3v-7l-5-10-8-7zm49 69-19 5-17 6-2 2v12l5 10 5 5 3 1h9l9-4 10-6 10-9 2-4-1-9-4-6-4-3z" fill="#0152A2"/>
<path transform="translate(341,269)" d="m0 0h16l12 4 13 9 11 10 7 8 8 8 9 11 7 11 4 10 1 5v14l-4 12-7 10-6 7-13 9-11 4-5 1h-10l-12-3-11-6-14-12-16-17-11-13-9-17-2-7v-15l4-12 7-11 9-9 11-7zm1 16-10 4-10 9-5 7-2 5-1 10 2 9 7 12 11 12 7 8 15 15 11 7 6 2h13l9-4 9-7 6-9 2-5v-13l-4-10-6-9-9-10-12-13-10-10-11-7-10-3z" fill="#0152A2"/>
<path transform="translate(1849,564)" d="m0 0h13l8 3 9 6 8 11 8 18 1 4 6-2 22-11 6-2 3 3 4 8-1 4-23 12-94 47-5 1-7-8-11-19-5-10-3-10v-9l3-10 8-11 8-7 14-8 19-8zm2 16-10 3-22 11-9 7-5 6-2 6 1 9 5 12 7 12 6-1 60-30 2-3-8-18-7-10-7-4z" fill="#0152A2"/>
<path transform="translate(1933,811)" d="m0 0 15 1 9 4 8 6 6 9 4 13 2 14v8l32-6h5l2 4 1 11-16 4-113 21h-7l-6-17-5-20v-18l4-10 9-10 16-8 17-4zm-5 17-18 3-10 3-9 5-5 6-2 8 2 16 3 12 1 1 11-1 58-11 4-1v-9l-3-16-5-10-5-4-5-2z" fill="#0152A2"/>
<path transform="translate(1635,241)" d="m0 0h15l11 4 13 9 13 12 13 13 1 3-8 9-5-2-14-14-8-7-13-9-9-2-7 3-6 7-1 9 4 17 9 27 3 15v8l-3 10-7 10-9 7-11 4h-10l-13-4-12-8-12-11-7-7-7-8v-5l5-5 4-2 5 6 8 7 12 11 11 7 3 1h11l9-6 4-7v-11l-5-19-9-29-1-6v-11l4-10 7-9 7-5z" fill="#0152A2"/>
<path transform="translate(128,1110)" d="m0 0h7l3 5 5 19 2 13v16l-3 9-6 8-8 7-9 4-11 3-22 3h-13l-12-3-9-6-7-9-5-13-1-5v-15l3-10 7-10 10-7 13-4 17-3 3 2 3 20 6 44 15-4 8-5 4-5 1-3v-16l-5-27-1-7zm-49 20-13 4-8 5-4 8v16l4 9 7 6 6 2 11 1 6-1-1-13-5-35-1-2z" fill="#0152A2"/>
<path transform="translate(224,454)" d="m0 0h10l13 5 57 39 2 2-1 5-6 8-5-1-3-1v10l-4 12-7 11-9 7-10 3-12-2-11-6-8-8-4-8v-12l5-14 9-15 6-8v-2l-12-7-3-1h-8l-8 6-9 14-10 16-5-1-6-5 4-10 8-14 9-12 8-7zm32 33-10 15-5 10-1 4v7l4 6 8 6 5 2h8l6-4 7-11 4-14-1-5-12-9-11-7z" fill="#0152A2"/>
<path transform="translate(69,847)" d="m0 0 14 1 61 9 5 2-1 13-1 1h-7l4 12 1 6v10l-2 10-6 10-6 5-8 3h-14l-12-3-8-6-5-10-1-4v-23l3-18h-19l-7 2-2 5-2 6-3 22-1 13h-9l-3-1-1-2v-20l2-14 3-10 6-10 8-6zm29 21-2 7-1 7v20l4 6 8 4 11 1 7-2 5-6 1-4v-20l-3-8-2-2-21-3z" fill="#0152A2"/>
<path transform="translate(1912,655)" d="m0 0 5 1 5 8 8 18 4 14v12l-5 10-9 8-16 7-46 17-8 3h-5l-5-10 1-4 4-2v-2l-8-7-8-13-4-12v-7l4-11 7-7 10-5 7-2h14l8 4 7 7 8 15 7 19 6-1 10-5 5-5v-11l-6-17-7-15v-4zm-55 32-9 3-6 5-2 5 1 9 6 12 9 10 9-1 19-7 2-3-9-23-6-8-4-2z" fill="#0152A2"/>
<path transform="translate(590,140)" d="m0 0h14l10 5 8 9 14 27 16 33 3 9-9 5h-5l-2-4-5 5-7 8-9 6-9 4-5 1h-9l-8-3-6-5-8-14-3-10 1-8 5-10 10-9 16-9 10-5-1-6-7-10-4-3-6-1-10 3-19 10-9 5-3-1-4-7 1-4 15-10 16-8zm26 46-17 9-9 7-4 7 1 8 5 10 6 5 2 1h7l12-6 7-6 6-8-2-6-8-17-3-4z" fill="#0152A2"/>
<path transform="translate(1745,384)" d="m0 0 7 1 17 17 9 13 4 9v13l-5 10-7 8-11 9-32 26-11 9-4-1-7-7 1-5 3-4-10-3-11-8-8-10-4-9v-12l5-10 9-9 12-6h12l12 6 10 9 8 9 6 8 5-2 8-8 3-5-1-9-7-11-15-16-3-3 1-5zm-37 46-10 6-6 8-1 6 3 7 7 8 10 7 5 3 4-1 10-8 11-9-1-4-12-14-8-7-4-2z" fill="#0152A2"/>
<path transform="translate(1906,1048)" d="m0 0h17l11 4 7 8 4 10 1 5v23l-1 11h16l8-3 3-4 2-11 1-31 1-1h11l2 5v31l-3 13-6 10-9 6-8 2h-21l-55-4-4-1-1-2v-7l2-6h6l-6-18v-17l4-11 6-7 8-4zm4 16-6 2-5 5-2 6v13l4 13 3 3 16 2h13l1-9v-22l-4-8-6-4-6-1z" fill="#0152A2"/>
<path transform="translate(131,636)" d="m0 0h10l14 3 19 8 12 7 7 6 6 10 2 6v15l-4 13-7 11-9 8-10 4-5 1h-11l-15-4-21-9-9-6-5-5-4-5-4-8-1-4v-16l5-13 7-11 11-8zm2 16-9 2-8 7-4 8-1 3v12l3 6 10 9 18 8 12 4 10 1 8-2 6-4 6-8 2-7v-11l-3-6-4-5-14-8-15-6-6-2z" fill="#0152A2"/>
<path transform="translate(920,48)" d="m0 0h11l13 4 8 7 5 10 3 20 5 54-1 5-6 2h-8l-1-6-17 8-12 3h-9l-8-2-6-4-6-7-4-13v-15l5-10 7-6 12-5 18-3 14-1-3-16-3-6-5-3h-19l-19 3h-5l-2-4v-7l4-3 21-4zm18 53-24 4-6 3-4 5-1 4v8l2 8 3 5 5 3h12l15-5 7-5-2-25-1-5z" fill="#0152A2"/>
<path transform="translate(1875,1253)" d="m0 0h20l19 5 15 6 11 8 7 10 3 8v16l-4 13-6 10-9 8-10 4-4 1h-14l-17-4-15-5-11-6-9-9-5-10-1-3v-18l4-12 7-11 7-6 8-4zm2 16-8 4-6 7-3 8-1 9 3 9 7 7 12 6 20 6 15 1 8-3 6-5 4-7 2-14-3-8-6-7-12-6-24-7z" fill="#0152A2"/>
<path transform="translate(1129,53)" d="m0 0h17l11 3 10 6 8 9 4 9 1 5v21l-3 19-4 12-7 10-8 7-11 4h-20l-13-4-9-7-6-8-4-11-1-6v-12l4-26 4-10 7-10 7-6 9-4zm6 14-9 3-5 4-6 11-3 17-1 6v17l3 8 6 7 10 4h12l10-5 6-9 3-9 3-22v-11l-3-9-7-8-7-3z" fill="#0152A2"/>
<path transform="translate(1440,150)" d="m0 0h9l13 4 9 5 10 9 5 9 2 14-2 13-5 12-9 17-8 10-8 7-10 4-12 1-14-3-11-6-5-4-6-8-4-9-1-4v-11l3-12 8-16 7-13 10-11 8-5zm3 15-8 3-8 7-10 17-6 13-2 8v7l3 8 4 5 8 5 7 2h7l10-4 9-10 12-23 3-14-2-9-4-6-6-5-11-4z" fill="#0152A2"/>
<path transform="translate(169,539)" d="m0 0h14l13 5 23 12 22 12 14 8-1 6-6 9-16-8-23-12-22-12-10-3-8 1-6 5-5 10-3 13v7l17 10 27 14 23 13 4 3-2 6-5 8-7-3-27-14-22-12-26-14-8-6 2-5 4-7h7l1-13 4-12 6-11 8-7z" fill="#0152A2"/>
<path transform="translate(1214,67)" d="m0 0 10 1 5 2v7l12-3h10l13 3 8 4 5 5 4 5 3 9v12l-6 26-11 42-2 5-10-2-5-2 1-8 14-55 1-6v-12l-4-6-8-4-4-1h-19l-5 2-4 13-14 55-3 10-9-1-6-3 1-9 14-56 8-31z" fill="#0152A2"/>
<path transform="translate(1809,461)" d="m0 0 4 1 7 10-1 3-3 3 11 7 7 7 7 11 3 7v13l-4 8-9 10-12 9-24 15-15 10-10 6-4-1-6-10 2-4 17-11 23-15 15-10 6-5 4-6v-8l-6-12-10-9-7-4-11 6-27 18-18 11-10 7-4 1-7-9-1-4 3-3 54-35 17-11z" fill="#0152A2"/>
<path transform="translate(1829,1339)" d="m0 0 7 1 28 12 23 10 34 15 2 1-1 7-3 6-4 2-4-1 1 4v9l-4 16-6 10-8 7-8 3h-14l-15-5-36-16-20-9-1-1 1-7 3-6 5-1 46 20 18 7 10 1 6-3 6-8 3-13 1-13-14-7-28-12-29-13-4-3 2-6z" fill="#0152A2"/>
<path transform="translate(690,98)" d="m0 0h12l10 5 5 4 6 10 5 11 13 36 8 22-4 3-8 3-4-1-8-20-14-39-6-12-6-5-8-1-10 3-11 7-5 5h-2l5 17 16 44 5 14v5l-10 4-5-1-10-26-18-50-6-16 1-3 9-4 5 1 4 3 10-10 14-7z" fill="#0152A2"/>
<path transform="translate(162,1268)" d="m0 0h6l4 13-4 3-38 13-24 8-9 6-4 6v8l3 10 10 14 2 2 5-1 36-12 34-11h5l4 11-1 4-91 31h-5l-4-8-1-5 4-3-1-4-8-9-6-12-2-7v-14l5-10 8-7 15-7 41-14z" fill="#0152A2"/>
<path transform="translate(64,947)" d="m0 0 40 1 24 1 8 1 1 5-1 10-1 1h-14l-29-1h-34l-6 3-4 5-2 7v9l5 18 2 1 13 1 53 2 14 1 1 1v14l-1 1h-19l-81-3-2-4v-9l2-3 5-1-5-12-2-10v-12l3-10 4-6 7-6 10-4z" fill="#0152A2"/>
<path transform="translate(1893,960)" d="m0 0h11l10 5 18 14 19 14 13 10 11 8v-51h13l1 2 1 32v31l-6 4-7 1-7-2-14-10-21-16-12-9-19-14-3-2v54l-2 1h-10l-2-2-1-20-1-42 4-6z" fill="#0152A2"/>
<path transform="translate(852,58)" d="m0 0 5 3 3 6v11l-17 33-10 19-12 23 2 1 47-9 5 1 2 6v5l-3 2-51 10-12 1-5-5-2-4v-11l8-17 10-19 11-20 9-19-14 2-30 6h-5l-4-9v-3l10-3 46-9z" fill="#0152A2"/>
<path transform="translate(1399,86)" d="m0 0 10 1 13 5 5 4-1 7-2 3-7-1-8-3h-7l-4 6-5 11-1 4 10 3 10 5-1 6-3 6-2 1-17-7-4-1-1 6-17 41-11 27-3 6-8-1-6-3-1-4 13-32 15-36 4-11-16-9-2-2 1-4 3-5 7 1 11 5h2l9-19 6-7z" fill="#0152A2"/>
<path transform="translate(65,767)" d="m0 0 9 1 5 3-5 19v2l53 13 15 3h6l5-20h7l5 2 1 4-4 18-5 8-6 5h-14l-31-7-37-9-3 11-4 9-7-1-3-2 1-10 2-10-19-5-1-2 1-14 11 1 8 2h5z" fill="#0152A2"/>
<path transform="translate(1972,1144)" d="m0 0 9 1 1 1v9l-2 12 15 2 6 2v14l-1 1-15-1-8-1-1 8-2 13-4 2-10-3v-7l3-16-16-2-53-8h-6l-4 20-1 2-9-1-3-2 1-13 3-13 4-6 8-4h11l69 10 1-9 3-10z" fill="#0152A2"/>
<path transform="translate(1687,320)" d="m0 0 5 1 11 11 4-1 11-11 5 1 9 6-1 4-14 14 6 7 8 8 1 3-7 8-2 1-8-7-8-8-4 2-13 12-34 34-2 5 7 9 6 6-1 4-5 5-5-1-6-5-7-8-5-9-1-5 3-8 9-11 7-7 8-7 28-28h2l-4-7-8-10 1-4z" fill="#0152A2"/>
<path transform="translate(147,1197)" d="m0 0 4 1 4 10 3 12-1 9-4 6-5 4-16 5-58 14 2 16v5l-6 2-5-1-2-5-3-13-8 1-8 2h-5l-6-13 1-2 19-5h3l-5-19v-4l10-4 4 2 4 17v4l63-15 9-3 2-4-3-13v-6z" fill="#0152A2"/>
<path transform="translate(1007,22)" d="m0 0 3 1 1 22 23 1v12l-1 1h-22l1 57 1 18 2 1 21 2 1 3-1 8-2 1h-26l-6-3-5-6-2-7-1-41v-33h-13l-7-1-2-2v-9l2-1h20v-21l6-2z" fill="#0152A2"/>
<path transform="translate(200,1366)" d="m0 0 5 1 4 11-2 4-46 20-30 13-35 15-10 4-5-1-5-10 1-4 22-10 42-18 39-17z" fill="#0152A2"/>
<path transform="translate(222,383)" d="m0 0 7 4 16 13 14 11 16 13 14 11 16 13 14 11 12 9-1 6-7 8-5-2-13-10-16-13-14-11-32-26-14-11-16-13 1-4 6-8z" fill="#0152A2"/>
<path transform="translate(435,230)" d="m0 0 4 1 6 8-2 4-4 2-2 4-6 8-3 5 1 5 12 15 12 16 21 27 2 5-5 5-5 4-5-2-30-39-16-21-12-16-1-3 9-8 8 2 6-12 4-5h2l1-3z" fill="#0152A2"/>
<path transform="translate(1946,747)" d="m0 0h4l3 9v6l-5 1 2 4 5 5 6 9 2 5-1 5-8 3-4-1-9-17-4-5v-2l-9 1-43 12-26 7h-4l-4-11 1-5 58-16z" fill="#0152A2"/>
<path transform="translate(1524,192)" d="m0 0 6 2 6 5-1 6 11 1 15 6 1 5-5 8h-4l-12-5-9-2h-5l-7 10-12 19-13 20-12 18-5-1-8-6v-4l15-23 12-19 11-17 9-14z" fill="#0152A2"/>
<path transform="translate(31,1048)" d="m0 0h13l2 10 5 14 2 3h22l40-2h20l1 1v14l-2 1-88 5h-11l-2-6v-8l7-2-6-10-3-10z" fill="#0152A2"/>
<path transform="translate(77,729)" d="m0 0 9 2 27 8 39 12 22 7 1 3-4 12-3 1-40-12-49-15-6-3 1-7z" fill="#0152A2"/>
<path transform="translate(1868,1208)" d="m0 0 9 1 82 18 8 3 1 3-3 11-5 1-65-14-28-7-2-1 1-9z" fill="#0152A2"/>
<path transform="translate(1061,47)" d="m0 0 13 1 1 1v17l-5 82-1 2h-12l-4-2 1-24 4-69 1-7z" fill="#0152A2"/>
<path transform="translate(1971,914)" d="m0 0h12l2 7v8l-2 1-84 9-15 1-2-3-1-12 5-2 74-8z" fill="#0152A2"/>
<path transform="translate(756,79)" d="m0 0h5l7 24 17 62 2 7v5l-11 4-4-1-3-8-9-32-14-52v-6z" fill="#0152A2"/>
<path transform="translate(1985,1234)" d="m0 0 10 1 9 2 2 4-3 11-3 3-17-5-2-1 1-8z" fill="#0152A2"/>
<path transform="translate(1062,8)" d="m0 0 15 1 1 1v9l-1 11-1 1h-12l-4-1v-15z" fill="#0152A2"/>
<path transform="translate(40,718)" d="m0 0 9 1 11 4 1 3-4 13-7-1-12-4-3-3 4-12z" fill="#0152A2"/>
<path transform="translate(748,41)" d="m0 0 4 2 4 14v5l-13 4-3-1-5-16v-4z" fill="#0152A2"/>
<path transform="translate(2017,909)" d="m0 0 4 1v15l-4 2h-15l-2-9v-6l1-1z" fill="#0152A2"/>
</svg>
