<svg width="500" height="113" viewBox="0 0 500 113" fill="none" xmlns="http://www.w3.org/2000/svg">
<rect width="500" height="112" transform="translate(0 0.532959)" fill="#2F3439"/>
<rect x="117.773" y="13.302" width="264.455" height="88" rx="2" fill="white"/>
<path fill-rule="evenodd" clip-rule="evenodd" d="M255.753 49.7279C255.748 47.224 257.384 45.6637 258.329 44.7709C259.147 44.0018 260.954 42.8151 262.942 42.8151H270.714V48.108L264.82 48.1146C264.82 48.1146 263.413 48.2362 262.527 49.2064C261.64 50.1766 261.604 51.0672 261.604 51.0672V54.0021L269.171 54.0065L269.181 59.306H261.604V62.957C261.604 62.957 261.513 63.9404 262.129 64.5703C262.561 65.0123 262.981 65.2443 263.635 65.2443H270.714V70.535H262.275C260.449 70.535 258.991 70.0002 257.694 68.8355C256.346 67.6245 255.753 66.6189 255.753 64.683V49.7279ZM297.628 64.3868C297.589 70.8024 291.228 70.5372 289.434 70.5372H277.932V42.8173H289.475C291.072 42.8173 297.614 42.7311 297.626 49.213V64.3868H297.628ZM288.296 65.2399C292.227 65.2443 291.77 61.421 291.77 61.421L291.775 52.7932C291.775 51.8959 292.237 48.1124 288.332 48.1146H283.786V65.2421H288.296V65.2399ZM238.714 48.1124H242.872V70.5372H248.723V42.8173H237.402C233.168 42.8173 229.037 45.5157 229.027 49.3478V70.5372H234.878V52.623C234.878 50.2208 235.657 48.1102 238.714 48.1124ZM212.395 65.2421H208.191L208.22 42.8173H202.372V70.5372H213.738C217.941 70.5372 222.041 67.8698 222.053 64.062V42.8173H216.202V60.7934C216.2 63.178 215.436 65.2465 212.398 65.2443L212.395 65.2421Z" fill="#2F3439"/>
<mask id="path-3-inside-1_121_4576" fill="white">
<rect x="14.3178" y="13.302" width="88" height="88" rx="2"/>
</mask>
<rect x="14.3178" y="13.302" width="88" height="88" rx="2" stroke="white" stroke-width="16" stroke-linejoin="round" mask="url(#path-3-inside-1_121_4576)"/>
<path d="M59.4422 40.8733C60.2605 40.8107 60.1479 38.7234 59.4422 38.6663L57.8496 38.5421C57.75 38.5354 57.6616 38.4716 57.6236 38.3776L57.0987 37.1129C57.0607 37.02 57.0774 36.9126 57.1423 36.8354L58.1809 35.6211C58.7155 34.9994 57.159 33.6014 56.6208 34.061L55.4065 35.0996C55.3304 35.1645 55.2219 35.1824 55.1301 35.1444L53.8655 34.6195C53.7715 34.5815 53.7077 34.493 53.6998 34.3923L53.5767 32.8008C53.5107 31.9815 51.4228 32.0928 51.3686 32.8008L51.2455 34.3923C51.2377 34.493 51.1727 34.5815 51.0788 34.6195L49.8152 35.1444C49.7212 35.1824 49.6149 35.1645 49.5376 35.0996L48.3234 34.061C47.6978 33.5299 46.3019 35.0845 46.7633 35.6211L47.8019 36.8354C47.8668 36.9126 47.8847 37.02 47.8455 37.1129L47.3217 38.3776C47.2836 38.4716 47.1941 38.5354 47.0933 38.5421L45.5008 38.6663C44.6846 38.7326 44.7957 40.8189 45.5008 40.8733L47.0933 40.9975C47.194 41.0053 47.2836 41.0691 47.3217 41.1632L47.8455 42.4278C47.8847 42.5196 47.8668 42.6282 47.8019 42.7042L46.7633 43.9196C46.2288 44.5413 47.7844 45.9374 48.3234 45.4797L49.5376 44.44C49.6149 44.3762 49.7212 44.3583 49.8152 44.3975L51.0788 44.9213C51.1728 44.9593 51.2377 45.0478 51.2455 45.1473L51.3686 46.741C51.4315 47.5593 53.5194 47.4466 53.5767 46.741L53.6998 45.1473C53.7076 45.0477 53.7715 44.9593 53.8655 44.9213L55.1301 44.3975C55.2219 44.3583 55.3305 44.3762 55.4065 44.44L56.6208 45.4797C57.2437 46.0117 58.6423 44.4563 58.1809 43.9196L57.1423 42.7042C57.0774 42.6281 57.0606 42.5196 57.0987 42.4278L57.6236 41.1632C57.6616 41.0691 57.7501 41.0054 57.8496 40.9975L59.4422 40.8733ZM52.472 42.2835C51.8005 42.2835 51.1693 42.0216 50.6948 41.5471C50.2202 41.0726 49.9595 40.4413 49.9595 39.771C49.9595 39.0995 50.2202 38.4683 50.6948 37.9937C51.1693 37.5181 51.8005 37.2573 52.472 37.2573C53.1435 37.2573 53.7748 37.5181 54.2493 37.9937C54.7238 38.4683 54.9846 39.0995 54.9846 39.771C54.9846 40.4413 54.7238 41.0726 54.2493 41.5471C53.7748 42.0216 53.1435 42.2835 52.472 42.2835Z" fill="white"/>
<path fill-rule="evenodd" clip-rule="evenodd" d="M84.514 48.4313C84.8143 32.2668 71.5356 22.3457 55.765 23.3161C37.1343 24.4641 28.0585 39.3105 29.3318 54.5169C30.2609 65.6151 34.5322 70.7154 38.5751 75.5428C40.0724 77.3308 41.5384 79.0813 42.7917 81.0852C44.071 83.1259 44.7436 87.5853 44.7436 89.5359V93.3306C44.7436 94.9874 46.0867 96.3303 47.7436 96.3303H73.35C73.35 96.3303 70.279 92.1487 70.0581 89.1383C69.7733 85.2576 73.7927 84.6808 77.4988 84.149C79.6389 83.8419 81.6745 83.5498 82.7164 82.6452C83.6481 81.8304 84.1977 80.6677 84.2343 79.4322L84.4745 69.1491C84.5051 67.8368 85.3854 66.6968 86.6472 66.3352L89.7977 65.4324C90.5324 65.289 91.1538 64.799 91.4651 64.1167C91.779 63.4346 91.7462 62.6452 91.3776 61.9934L84.9091 50.5707C84.6578 50.1271 84.5238 49.6268 84.5196 49.117L84.514 48.4313ZM37.4054 51.5956C36.6326 51.5956 35.9766 51.0126 35.9389 50.2407C35.8915 44.5433 37.7047 39.1718 41.0685 35.279C41.1334 35.2051 41.257 35.2538 41.257 35.3521V43.181C41.257 43.8303 41.7823 44.3568 42.4304 44.3568C43.0786 44.3568 43.6053 43.8304 43.6053 43.181V34.3054C43.6053 33.3906 44.0147 32.5138 44.7721 32.0007C47.9165 29.8709 51.7648 28.6254 56.1335 28.3567C56.693 28.3215 57.2524 28.3045 57.8045 28.3045C59.1521 28.3045 60.4632 28.4069 61.7291 28.6047C63.0803 28.8159 64.0031 30.0299 64.0031 31.3976V33.4122C64.0067 33.7137 63.9021 34.1467 63.699 34.5164C63.4947 34.8911 63.2052 35.1962 62.8951 35.3617C62.686 35.4736 62.4659 35.5368 62.191 35.5381H60.9107C60.2626 35.5381 59.7372 36.0646 59.7372 36.7128C59.7372 37.3598 60.2626 37.8863 60.9107 37.8863H62.191C62.8587 37.8875 63.485 37.7148 64.0103 37.4279C64.5392 37.1434 64.9723 36.7517 65.3127 36.3187C65.9913 35.4457 66.3441 34.4193 66.3512 33.4124C66.3512 31.6795 68.0951 30.4947 69.5738 31.3981C70.8373 32.1701 71.9896 33.0799 73.0094 34.12C74.5805 35.7198 75.7846 37.4176 76.509 39.3167C77.1365 40.9616 75.7232 42.499 73.9627 42.499H72.247C71.1803 42.4968 70.3169 41.6332 70.3145 40.5667V38.7182C70.3145 38.07 69.7892 37.5446 69.1411 37.5446C68.4926 37.5446 67.9662 38.07 67.9662 38.7182V40.5667C67.9662 42.9295 69.8829 44.8461 72.247 44.8461H76.5481C76.9157 44.8461 77.2084 45.1616 77.16 45.526C76.504 48.8978 75.3468 50.4853 68.6359 51.0719C66.9397 51.2201 65.5207 49.8434 65.5207 48.1408V46.607C65.5207 45.9576 64.9954 45.4322 64.3471 45.4322C63.699 45.4322 63.1724 45.9576 63.1724 46.607V48.3799C63.1724 50.0148 61.8632 51.3499 60.2282 51.3531C60.0849 51.3533 59.9401 51.3535 59.7941 51.3535C56.7141 51.3535 54.4832 51.5724 52.8418 51.9438C51.9218 52.152 50.9432 51.4899 50.9432 50.5466C50.9432 49.8997 50.4178 49.3731 49.7696 49.3731C49.1215 49.3731 48.5948 49.8996 48.5948 50.5466L48.5948 53.473C48.5948 54.0647 48.4047 54.637 48.1581 55.1749C48.0064 55.5056 47.8801 55.8429 47.7538 56.1804C47.3025 57.3859 46.8507 58.5928 45.242 59.5027C42.0927 61.2814 38.9504 60.0577 37.2393 56.2732C36.7228 55.1307 37.6607 53.9439 38.9146 53.9439C40.9103 53.9428 42.5278 52.3265 42.5289 50.3297V48.5626C42.5289 47.9156 42.0024 47.3891 41.3542 47.3891C40.7072 47.3891 40.1807 47.9156 40.1807 48.5626V50.3297C40.1794 51.0269 39.6139 51.5931 38.9171 51.5956L38.9132 51.5956H37.4054ZM56.2935 73.2787V72.2882L56.3013 72.2766C56.3013 72.0506 56.2981 71.8243 56.295 71.5979V71.5979V71.5978C56.2876 71.0691 56.2803 70.5395 56.3129 70.0119C56.3557 69.3166 56.1847 68.9709 55.3923 69.0097C54.6434 69.0468 53.8913 69.0398 53.1391 69.0329H53.1391H53.139C52.7091 69.0289 52.2791 69.0249 51.8497 69.0291C51.8072 69.0296 51.7629 69.0287 51.7179 69.0277C51.3883 69.0208 51.022 69.013 51.0767 69.5496C51.1165 69.9454 51.389 69.9341 51.6491 69.9233C51.7184 69.9205 51.7868 69.9177 51.8497 69.9226C53.1574 70.0235 53.8113 70.7474 53.8113 72.094V73.2282C53.8113 75.2715 53.2753 75.8308 51.2087 75.9435C46.862 76.1804 43.9331 72.7077 44.6168 68.1241C45.0208 65.4088 46.5979 63.4705 48.9519 62.9266C51.4612 62.3478 53.3957 63.183 54.6892 65.4438L54.7139 65.4866C54.9176 65.8405 55.1076 66.1706 55.6565 65.7972C56.244 65.3996 56.0088 65.101 55.734 64.7523C55.7109 64.7229 55.6875 64.6932 55.6642 64.663C53.8191 62.2779 51.3796 61.3923 48.4275 61.7535C45.0441 62.1692 42.255 64.8572 41.6918 68.2755C41.1713 71.4064 42.8921 74.479 46.0074 75.9707C48.5712 77.2021 51.2437 77.0039 53.8968 76.4096C56.2119 75.8891 56.2935 75.6988 56.2935 73.2787ZM72.5304 76.8501C68.4633 76.652 65.5849 74.2009 64.9284 70.3708C64.373 67.1467 66.3269 63.7089 69.4655 62.3688C72.9538 60.881 76.7528 61.8016 78.8698 64.6451C78.9101 64.6995 78.9544 64.7527 78.9984 64.8054C79.2432 65.0986 79.4756 65.377 78.9125 65.7754C78.33 66.1836 78.1453 65.8555 77.9421 65.4946C77.919 65.4537 77.8957 65.4123 77.8715 65.3715C76.6867 63.3826 74.9815 62.4309 72.6585 62.8582C70.3123 63.2894 68.809 64.7111 68.1021 66.9796C67.6282 68.5062 67.6282 70.0484 68.0865 71.5711C68.7546 73.7813 70.1919 75.2031 72.5032 75.6498C74.8338 76.0965 76.5158 75.0632 77.8404 73.2608C77.8889 73.1952 77.934 73.1246 77.9785 73.0549C78.2055 72.6996 78.4187 72.366 78.9902 72.8141C79.521 73.2276 79.2453 73.5014 78.9907 73.7542L78.9906 73.7542C78.9247 73.8196 78.8603 73.8837 78.8115 73.9484C77.3199 75.9295 75.0319 76.9744 72.5342 76.8501H72.5304ZM61.9885 70.9959C61.9923 70.3885 61.9961 69.7812 61.9961 69.1741C61.9961 68.565 61.9904 67.9556 61.9848 67.3461C61.9711 65.8761 61.9574 64.4059 62.0233 62.9395C62.0664 61.9805 61.5851 61.9995 61.0516 62.0206C60.9606 62.0242 60.8681 62.0278 60.7764 62.0267C60.7125 62.0259 60.6489 62.0239 60.5863 62.022C60.0063 62.004 59.5077 61.9885 59.5217 62.9667C59.58 67.1697 59.58 71.3727 59.5217 75.5757C59.5068 76.5412 59.9857 76.5146 60.4883 76.4866C60.6409 76.4782 60.7957 76.4696 60.9395 76.4886C61.662 76.5818 62.0505 76.4458 62.0194 75.5485C61.9695 74.0335 61.979 72.5146 61.9885 70.9959Z" fill="white"/>
<mask id="path-6-inside-2_121_4576" fill="white">
<rect x="397.601" y="13.302" width="88" height="88" rx="2"/>
</mask>
<rect x="397.601" y="13.302" width="88" height="88" rx="2" stroke="white" stroke-width="16" stroke-linejoin="round" mask="url(#path-6-inside-2_121_4576)"/>
<path d="M427.198 29.0173H410.267C409.715 29.0173 409.267 29.4651 409.267 30.0173V37.0621C409.267 37.6144 409.715 38.0621 410.267 38.0621H427.198C427.75 38.0621 428.198 37.6144 428.198 37.0621V30.0173C428.198 29.465 427.75 29.0173 427.198 29.0173Z" fill="white"/>
<path d="M410.267 44.7109C409.716 44.6856 409.267 45.1357 409.267 45.688V52.1018C409.267 52.6541 409.716 53.0978 410.267 53.1393C417.057 53.6508 422.414 59.3278 422.414 66.2483C422.414 73.1688 417.057 78.8458 410.267 79.3573C409.716 79.3988 409.267 79.8425 409.267 80.3948V86.8086C409.267 87.3609 409.716 87.811 410.267 87.7857C421.69 87.261 430.827 77.7975 430.827 66.2483C430.827 54.6991 421.69 45.2356 410.267 44.7109Z" fill="white"/>
<path fill-rule="evenodd" clip-rule="evenodd" d="M451.422 29.7732C451.422 29.1862 450.918 28.7234 450.337 28.8047C439.865 30.269 431.774 39.2897 431.774 50.1571C431.774 61.0246 439.865 70.0453 450.337 71.5096C450.918 71.5909 451.422 71.1281 451.422 70.541V64.03C451.422 63.5335 451.056 63.1163 450.571 63.0123C444.639 61.7417 440.188 56.4661 440.188 50.1571C440.188 43.8482 444.639 38.5726 450.571 37.302C451.056 37.198 451.422 36.7807 451.422 36.2842V29.7732ZM455.247 64.03C455.247 63.5335 455.613 63.1163 456.098 63.0123C462.029 61.7417 466.481 56.4661 466.481 50.1571C466.481 43.8482 462.029 38.5726 456.098 37.302C455.613 37.198 455.247 36.7807 455.247 36.2842V29.7732C455.247 29.1862 455.751 28.7234 456.332 28.8047C466.804 30.269 474.895 39.2897 474.895 50.1571C474.895 61.0246 466.804 70.0453 456.332 71.5096C455.751 71.5909 455.247 71.1281 455.247 70.541V64.03Z" fill="white"/>
<g clip-path="url(#clip0_121_4576)">
<path d="M435.768 83.0441L435.628 84.026H436.627L436.767 83.0441H435.768ZM437.591 84.026H438.326V84.8414H437.468L437.223 86.6553H436.241L436.487 84.8414H435.488L435.243 86.6553H434.296L434.542 84.8414H433.841V84.026H434.647L434.787 83.0441H434.086V82.2287H434.91L435.138 80.5146H436.101L435.873 82.2287H436.872L437.1 80.5146H438.064L437.836 82.2287H438.572V83.0441H437.731L437.591 84.026Z" fill="white"/>
<path d="M440.552 85.7068C440.359 85.3906 440.254 85.0245 440.254 84.6251V80.5146H441.48V84.5918C441.48 84.9413 441.586 85.2075 441.778 85.4072C441.971 85.6069 442.234 85.6901 442.567 85.6901C442.9 85.6901 443.163 85.5903 443.373 85.4072C443.566 85.2075 443.671 84.9413 443.671 84.5918V80.5146H444.915V84.6251C444.915 85.0245 444.81 85.3906 444.617 85.7068C444.407 86.023 444.144 86.2726 443.776 86.439C443.425 86.6221 443.022 86.7053 442.584 86.7053C442.146 86.7053 441.761 86.6221 441.393 86.439C441.025 86.2726 440.744 86.023 440.552 85.7068Z" fill="white"/>
<path d="M450.82 86.6553H449.593L447.228 82.8112V86.6553H446.001V80.5146H447.228L449.593 84.3588V80.5146H450.82V86.6553Z" fill="white"/>
<path d="M453.15 83.0441H455.603V84.0593H453.15V85.6402H456.024V86.6553H451.923V80.5146H456.024V81.5298H453.15V83.0441Z" fill="white"/>
<path d="M460.001 85.2907C460.194 85.0578 460.281 84.6917 460.281 84.1924V83.0109C460.281 82.495 460.194 82.1122 460.019 81.8792C459.843 81.6463 459.563 81.5298 459.178 81.5298H458.144V85.6402H459.178C459.545 85.6402 459.826 85.5237 460.001 85.2907ZM459.178 80.5146C459.896 80.5146 460.457 80.6977 460.877 81.0805C461.298 81.4632 461.508 82.0789 461.508 82.9443V84.1924C461.508 85.0578 461.298 85.6901 460.877 86.0563C460.457 86.439 459.878 86.6221 459.16 86.6221H456.917V80.5146H459.178Z" fill="white"/>
<path d="M466.291 80.3816H463.137V81.8128H466.291V80.3816Z" fill="white"/>
<path d="M463.137 82.8611V84.1924C464.346 84.1924 465.328 85.1243 465.328 86.2726C465.328 87.4208 464.346 88.3528 463.137 88.3528V89.6841C465.117 89.6841 466.729 88.1531 466.729 86.2726C466.729 84.3921 465.117 82.8611 463.137 82.8611Z" fill="white"/>
<path d="M470.479 80.3149C468.499 80.3149 466.887 81.846 466.887 83.7264C466.887 85.6069 468.499 87.1379 470.479 87.1379C472.459 87.1379 474.071 85.6069 474.071 83.7264C474.071 81.846 472.459 80.3149 470.479 80.3149ZM470.479 85.8066C469.27 85.8066 468.289 84.8747 468.289 83.7264C468.289 82.5782 469.27 81.6463 470.479 81.6463C471.688 81.6463 472.669 82.5782 472.669 83.7264C472.669 84.8747 471.688 85.8066 470.479 85.8066Z" fill="white"/>
</g>
<defs>
<clipPath id="clip0_121_4576">
<rect width="42" height="11" fill="white" transform="translate(432.895 79.433)"/>
</clipPath>
</defs>
</svg>
