<svg width="89" height="89" viewBox="0 0 89 89" fill="none" xmlns="http://www.w3.org/2000/svg">
<rect x="4.38696" y="4.63672" width="80" height="80" rx="5" stroke="#095540" stroke-width="8" stroke-linejoin="round"/>
<path d="M45.5113 28.208C46.3296 28.1454 46.217 26.0581 45.5113 26.001L43.9188 25.8768C43.8192 25.8701 43.7308 25.8063 43.6927 25.7123L43.1679 24.4477C43.1298 24.3548 43.1466 24.2473 43.2115 24.1701L44.2501 22.9558C44.7846 22.3341 43.2281 20.9361 42.69 21.3957L41.4757 22.4343C41.3996 22.4992 41.291 22.5171 41.1993 22.4791L39.9347 21.9542C39.8406 21.9162 39.7769 21.8277 39.769 21.727L39.6459 20.1356C39.5799 19.3162 37.4919 19.4275 37.4378 20.1356L37.3147 21.727C37.3068 21.8277 37.2419 21.9162 37.1479 21.9542L35.8843 22.4791C35.7903 22.5171 35.684 22.4992 35.6068 22.4343L34.3925 21.3957C33.767 20.8646 32.371 22.4192 32.8324 22.9558L33.871 24.1701C33.9359 24.2473 33.9538 24.3548 33.9146 24.4477L33.3908 25.7123C33.3528 25.8063 33.2633 25.8701 33.1625 25.8768L31.57 26.001C30.7538 26.0673 30.8649 28.1536 31.57 28.208L33.1625 28.3322C33.2632 28.34 33.3527 28.4039 33.3908 28.4979L33.9146 29.7625C33.9538 29.8543 33.9359 29.9629 33.871 30.0389L32.8324 31.2544C32.298 31.876 33.8535 33.2721 34.3925 32.8144L35.6068 31.7747C35.684 31.7109 35.7904 31.693 35.8843 31.7322L37.1479 32.256C37.242 32.294 37.3068 32.3825 37.3147 32.482L37.4378 34.0757C37.5007 34.894 39.5885 34.7813 39.6459 34.0757L39.769 32.482C39.7768 32.3824 39.8406 32.294 39.9347 32.256L41.1993 31.7322C41.291 31.693 41.3996 31.7109 41.4757 31.7747L42.69 32.8144C43.3129 33.3464 44.7115 31.7911 44.2501 31.2544L43.2115 30.0389C43.1466 29.9628 43.1298 29.8543 43.1679 29.7625L43.6927 28.4979C43.7308 28.4039 43.8192 28.3401 43.9188 28.3322L45.5113 28.208ZM38.5412 29.6182C37.8697 29.6182 37.2384 29.3563 36.7639 28.8818C36.2894 28.4073 36.0286 27.7761 36.0286 27.1057C36.0286 26.4342 36.2894 25.803 36.7639 25.3284C37.2384 24.8528 37.8697 24.5921 38.5412 24.5921C39.2127 24.5921 39.8439 24.8529 40.3184 25.3284C40.793 25.803 41.0537 26.4342 41.0537 27.1057C41.0537 27.7761 40.793 28.4073 40.3184 28.8818C39.8439 29.3563 39.2127 29.6182 38.5412 29.6182Z" fill="#095540"/>
<path fill-rule="evenodd" clip-rule="evenodd" d="M70.5832 35.766C70.8835 19.6015 57.6047 9.6804 41.8341 10.6508C23.2035 11.7988 14.1276 26.6452 15.4009 41.8516C16.33 52.9498 20.6013 58.0501 24.6442 62.8775C26.1416 64.6655 27.6076 66.416 28.8608 68.42C30.1402 70.4606 30.8127 74.92 30.8127 76.8706V80.6653C30.8127 82.3222 32.1559 83.665 33.8127 83.665H59.4192C59.4192 83.665 56.3481 79.4834 56.1272 76.473C55.8425 72.5923 59.8619 72.0155 63.568 71.4837C65.7081 71.1766 67.7437 70.8845 68.7856 69.9799C69.7172 69.1652 70.2669 68.0025 70.3034 66.767L70.5436 56.4838C70.5743 55.1715 71.4545 54.0316 72.7164 53.6699L75.8669 52.7671C76.6015 52.6237 77.223 52.1337 77.5343 51.4514C77.8482 50.7693 77.8153 49.98 77.4468 49.3281L70.9782 37.9054C70.727 37.4618 70.593 36.9615 70.5888 36.4517L70.5832 35.766ZM23.4745 38.9303C22.7017 38.9303 22.0457 38.3473 22.0081 37.5755C21.9607 31.878 23.7738 26.5065 27.1376 22.6137C27.2025 22.5399 27.3262 22.5885 27.3262 22.6868V30.5157C27.3262 31.165 27.8514 31.6916 28.4996 31.6916C29.1477 31.6916 29.6744 31.1652 29.6744 30.5157V21.6401C29.6744 20.7253 30.0839 19.8485 30.8413 19.3354C33.9857 17.2056 37.834 15.9601 42.2027 15.6915C42.7622 15.6562 43.3216 15.6392 43.8737 15.6392C45.2212 15.6392 46.5323 15.7416 47.7982 15.9395C49.1494 16.1506 50.0723 17.3647 50.0723 18.7323V20.7469C50.0758 21.0484 49.9712 21.4814 49.7681 21.8511C49.5639 22.2258 49.2744 22.5309 48.9642 22.6964C48.7551 22.8083 48.535 22.8715 48.2601 22.8728H46.9799C46.3317 22.8728 45.8063 23.3993 45.8063 24.0475C45.8063 24.6945 46.3317 25.221 46.9799 25.221H48.2601C48.9278 25.2222 49.5542 25.0495 50.0794 24.7626C50.6084 24.4781 51.0414 24.0865 51.3818 23.6534C52.0604 22.7804 52.4132 21.7541 52.4204 20.7471C52.4204 19.0142 54.1643 17.8294 55.6429 18.7328C56.9064 19.5048 58.0588 20.4146 59.0786 21.4547C60.6496 23.0545 61.8538 24.7523 62.5782 26.6514C63.2056 28.2963 61.7924 29.8338 60.0319 29.8338H58.3161C57.2495 29.8315 56.3861 28.9679 56.3836 27.9014V26.0529C56.3836 25.4047 55.8584 24.8793 55.2102 24.8793C54.5618 24.8793 54.0354 25.4047 54.0354 26.0529V27.9014C54.0354 30.2642 55.952 32.1809 58.3161 32.1809H62.6172C62.9849 32.1809 63.2776 32.4963 63.2291 32.8607C62.5732 36.2325 61.416 37.82 54.705 38.4066C53.0089 38.5549 51.5898 37.1781 51.5898 35.4755V33.9418C51.5898 33.2923 51.0646 32.7669 50.4163 32.7669C49.7681 32.7669 49.2416 33.2923 49.2416 33.9418V35.7146C49.2416 37.3495 47.9324 38.6846 46.2974 38.6878C46.154 38.6881 46.0093 38.6882 45.8632 38.6882C42.7832 38.6882 40.5523 38.9071 38.911 39.2785C37.991 39.4867 37.0123 38.8246 37.0123 37.8813C37.0123 37.2345 36.4869 36.7078 35.8388 36.7078C35.1906 36.7078 34.6639 37.2343 34.6639 37.8813L34.6639 40.8077C34.6639 41.3994 34.4738 41.9717 34.2272 42.5096C34.0756 42.8403 33.9493 43.1776 33.823 43.5151C33.3717 44.7206 32.9199 45.9275 31.3111 46.8374C28.1619 48.6162 25.0196 47.3924 23.3085 43.608C22.7919 42.4654 23.7299 41.2787 24.9838 41.2787C26.9795 41.2775 28.5969 39.6612 28.5981 37.6644V35.8973C28.5981 35.2503 28.0715 34.7238 27.4234 34.7238C26.7764 34.7238 26.2498 35.2503 26.2498 35.8973V37.6644C26.2485 38.3617 25.6831 38.9278 24.9862 38.9303L24.9823 38.9303H23.4745ZM42.3627 60.6135V59.6229L42.3704 59.6113C42.3704 59.3853 42.3673 59.159 42.3641 58.9326V58.9326V58.9325C42.3568 58.4038 42.3494 57.8742 42.3821 57.3466C42.4248 56.6513 42.2539 56.3056 41.4615 56.3444C40.7126 56.3815 39.9605 56.3745 39.2083 56.3676H39.2082H39.2081C38.7782 56.3636 38.3483 56.3596 37.9188 56.3638C37.8764 56.3643 37.8321 56.3634 37.7871 56.3624C37.4575 56.3555 37.0911 56.3478 37.1458 56.8844C37.1857 57.2801 37.4581 57.2688 37.7183 57.2581C37.7875 57.2552 37.8559 57.2524 37.9188 57.2573C39.2266 57.3583 39.8805 58.0821 39.8805 59.4287V60.563C39.8805 62.6062 39.3444 63.1656 37.2779 63.2782C32.9312 63.5152 30.0023 60.0424 30.6859 55.4588C31.0899 52.7435 32.667 50.8052 35.021 50.2613C37.5304 49.6826 39.4648 50.5177 40.7584 52.7785L40.7831 52.8213C40.9867 53.1753 41.1767 53.5054 41.7256 53.132C42.3132 52.7343 42.078 52.4358 41.8032 52.087C41.78 52.0576 41.7566 52.0279 41.7334 51.9977C39.8883 49.6126 37.4488 48.727 34.4966 49.0882C31.1132 49.5039 28.3242 52.1919 27.7609 55.6103C27.2404 58.7411 28.9612 61.8138 32.0766 63.3054C34.6403 64.5368 37.3128 64.3387 39.9659 63.7443C42.2811 63.2238 42.3627 63.0335 42.3627 60.6135ZM58.5995 64.1848C54.5325 63.9867 51.6541 61.5356 50.9976 57.7055C50.4421 54.4814 52.396 51.0436 55.5347 49.7035C59.0229 48.2157 62.8219 49.1363 64.939 51.9798C64.9792 52.0342 65.0236 52.0874 65.0676 52.1401C65.3123 52.4334 65.5447 52.7118 64.9817 53.1102C64.3991 53.5183 64.2144 53.1903 64.0112 52.8294C63.9881 52.7884 63.9648 52.747 63.9407 52.7062C62.7559 50.7173 61.0506 49.7656 58.7277 50.1929C56.3815 50.6241 54.8782 52.0458 54.1712 54.3144C53.6973 55.8409 53.6973 57.3831 54.1557 58.9058C54.8238 61.1161 56.2611 62.5378 58.5723 62.9845C60.903 63.4312 62.585 62.3979 63.9096 60.5955C63.958 60.5299 64.0031 60.4593 64.0477 60.3896C64.2747 60.0343 64.4879 59.7007 65.0594 60.1488C65.5901 60.5623 65.3144 60.8361 65.0598 61.0889L65.0598 61.0889C64.9939 61.1544 64.9294 61.2184 64.8807 61.2831C63.3891 63.2642 61.1011 64.3091 58.6034 64.1848H58.5995ZM48.0577 58.3307C48.0615 57.7232 48.0653 57.1159 48.0653 56.5088C48.0653 55.8997 48.0596 55.2903 48.0539 54.6808C48.0402 53.2108 48.0266 51.7406 48.0925 50.2742C48.1356 49.3152 47.6543 49.3342 47.1208 49.3553C47.0298 49.3589 46.9372 49.3625 46.8455 49.3614C46.7816 49.3606 46.7181 49.3587 46.6555 49.3567C46.0755 49.3387 45.5768 49.3232 45.5909 50.3014C45.6491 54.5044 45.6491 58.7074 45.5909 62.9104C45.576 63.8759 46.0548 63.8493 46.5575 63.8214C46.7101 63.8129 46.8649 63.8043 47.0087 63.8233C47.7312 63.9165 48.1196 63.7805 48.0886 62.8832C48.0386 61.3683 48.0481 59.8493 48.0577 58.3307Z" fill="#095540"/>
</svg>
