<svg width="776" height="936" viewBox="0 0 776 936" fill="none" xmlns="http://www.w3.org/2000/svg">
<g clip-path="url(#clip0_3_5)">
<path d="M1266.28 -73.5762H-490.281V1010.05H1266.28V-73.5762Z" fill="#095540"/>
<path fill-rule="evenodd" clip-rule="evenodd" d="M413.203 739.718C413.182 727.598 420.349 720.046 424.489 715.724C428.072 712.001 435.989 706.256 444.696 706.256H478.746V731.877L452.922 731.909C452.922 731.909 446.761 732.498 442.878 737.194C438.995 741.89 438.834 746.201 438.834 746.201V760.408L471.985 760.429L472.028 786.082H438.834V803.754C438.834 803.754 438.438 808.515 441.134 811.564C443.027 813.703 444.867 814.826 447.734 814.826H478.746V840.436H441.776C433.774 840.436 427.388 837.848 421.708 832.21C415.803 826.348 413.203 821.48 413.203 812.109V739.718ZM596.653 810.676C596.481 841.731 568.615 840.447 560.752 840.447H510.367V706.267H560.934C567.93 706.267 596.588 705.85 596.642 737.226V810.676H596.653ZM555.767 814.805C572.99 814.826 570.99 796.319 570.99 796.319L571.011 754.556C571.011 750.213 573.033 731.898 555.928 731.909H536.009V814.816H555.767V814.805ZM338.557 731.898H356.774V840.447H382.405V706.267H332.812C314.263 706.267 296.163 719.329 296.12 737.878V840.447H321.751V753.732C321.751 742.104 325.164 731.888 338.557 731.898ZM223.26 814.816H204.839L204.968 706.267H179.348V840.447H229.144C247.554 840.447 265.515 827.535 265.568 809.103V706.267H239.938V793.281C239.927 804.824 236.579 814.837 223.271 814.826L223.26 814.816Z" fill="white"/>
<path d="M304.756 158.3L278.422 330.957C272.665 368.702 298.695 403.982 336.562 409.758L480.907 431.774C518.774 437.549 554.137 411.633 559.894 373.888L573.814 282.623C576.579 264.497 572.007 246.012 561.104 231.233L491.864 137.387C480.961 122.609 464.619 112.749 446.434 109.976L383.744 100.414C345.877 94.6385 310.513 120.554 304.756 158.3Z" fill="#003325"/>
<path d="M294.001 122.674L270.63 275.902L251.415 272.971L274.786 119.743L294.001 122.674ZM305.934 323.751L434.036 343.29L431.114 362.443L303.013 342.905L305.934 323.751ZM481.999 308.14L494.352 227.145L513.567 230.076L501.214 311.071L481.999 308.14ZM397.6 96.0105L341.964 87.5247L344.885 68.3712L400.521 76.857L397.6 96.0105ZM486.634 195.941L425.185 112.655L440.839 101.184L502.287 184.47L486.634 195.941ZM400.521 76.857C416.66 79.3185 431.162 88.0687 440.839 101.184L425.185 112.655C418.564 103.682 408.642 97.6947 397.6 96.0105L400.521 76.857ZM494.352 227.145C496.031 216.139 493.255 204.913 486.634 195.941L502.287 184.47C511.964 197.585 516.021 213.99 513.567 230.076L494.352 227.145ZM270.63 275.902C267.135 298.821 282.941 320.244 305.934 323.751L303.013 342.905C269.407 337.779 246.306 306.469 251.415 272.971L270.63 275.902ZM274.786 119.743C279.895 86.2449 311.28 63.2455 344.885 68.3712L341.964 87.5247C318.971 84.0177 297.497 99.7548 294.001 122.674L274.786 119.743ZM434.036 343.29C457.029 346.797 478.503 331.06 481.999 308.14L501.214 311.071C496.105 344.569 464.721 367.569 431.114 362.443L434.036 343.29ZM429.894 91.1365L422.103 142.212L402.888 139.282L410.678 88.2057L429.894 91.1365ZM457.407 190.062L508.647 197.877L505.726 217.031L454.485 209.215L457.407 190.062ZM422.103 142.212C418.608 165.132 434.414 186.555 457.407 190.062L454.485 209.215C420.879 204.089 397.779 172.78 402.888 139.282L422.103 142.212Z" fill="white"/>
<path d="M373.446 157.666C371.171 154.583 366.822 153.92 363.732 156.184L346.949 168.484L334.595 151.739C332.32 148.657 327.972 147.993 324.882 150.258C321.792 152.521 321.131 156.856 323.405 159.939L335.759 176.684L318.974 188.985C315.884 191.249 315.223 195.584 317.498 198.666C319.772 201.749 324.12 202.412 327.21 200.148L343.995 187.847L356.349 204.592C358.623 207.675 362.972 208.338 366.062 206.074C369.152 203.809 369.813 199.475 367.539 196.392L355.185 179.647L371.969 167.347C375.059 165.082 375.72 160.748 373.446 157.666Z" fill="white"/>
<path d="M415.382 297.04C417.308 277.219 400.563 259.372 377.982 257.178C355.4 254.984 335.533 269.274 333.608 289.095" stroke="white" stroke-width="18" stroke-linecap="round"/>
<path d="M247.22 601.256V571.717H171.34V543.262L215.513 422.396H256.705L208.738 539.197H247.22V489.062H284.618V539.197H301.691V571.717H284.618V601.256H247.22ZM335.992 441.366C347.735 426.552 365.079 419.144 388.024 419.144C410.968 419.144 428.222 426.552 439.785 441.366C451.528 456.181 457.4 480.029 457.4 512.91C457.4 545.611 451.618 569.098 440.056 583.37C428.493 597.462 411.149 604.508 388.024 604.508C364.898 604.508 347.554 597.462 335.992 583.37C324.429 569.098 318.648 545.611 318.648 512.91C318.648 480.029 324.429 456.181 335.992 441.366ZM418.918 512.097C418.918 489.695 416.569 474.067 411.872 465.214C407.174 456.181 399.225 451.664 388.024 451.664C377.003 451.664 369.054 456.181 364.176 465.214C359.478 474.248 357.13 489.875 357.13 512.097C357.13 534.319 359.569 549.857 364.447 558.709C369.325 567.562 377.274 571.988 388.295 571.988C399.315 571.988 407.174 567.562 411.872 558.709C416.569 549.857 418.918 534.319 418.918 512.097ZM550.507 601.256V571.717H474.627V543.262L518.8 422.396H559.992L512.025 539.197H550.507V489.062H587.905V539.197H604.978V571.717H587.905V601.256H550.507Z" fill="#003325"/>
<path d="M247.22 579.72V550.181H171.34V521.726L215.513 400.86H256.705L208.738 517.661H247.22V467.526H284.618V517.661H301.691V550.181H284.618V579.72H247.22ZM335.992 419.83C347.735 405.016 365.079 397.608 388.024 397.608C410.968 397.608 428.222 405.016 439.785 419.83C451.528 434.645 457.4 458.493 457.4 491.374C457.4 524.075 451.618 547.562 440.056 561.834C428.493 575.926 411.149 582.972 388.024 582.972C364.898 582.972 347.554 575.926 335.992 561.834C324.429 547.562 318.648 524.075 318.648 491.374C318.648 458.493 324.429 434.645 335.992 419.83ZM418.918 490.561C418.918 468.159 416.569 452.531 411.872 443.678C407.174 434.645 399.225 430.128 388.024 430.128C377.003 430.128 369.054 434.645 364.176 443.678C359.478 452.712 357.13 468.339 357.13 490.561C357.13 512.783 359.569 528.321 364.447 537.173C369.325 546.026 377.274 550.452 388.295 550.452C399.315 550.452 407.174 546.026 411.872 537.173C416.569 528.321 418.918 512.783 418.918 490.561ZM550.507 579.72V550.181H474.627V521.726L518.8 400.86H559.992L512.025 517.661H550.507V467.526H587.905V517.661H604.978V550.181H587.905V579.72H550.507Z" fill="white"/>
<path d="M331.913 648.897H444.087" stroke="#003325" stroke-width="12" stroke-linecap="round"/>
</g>
<defs>
<clipPath id="clip0_3_5">
<rect width="776" height="936" rx="21" fill="white"/>
</clipPath>
</defs>
</svg>
