<svg width="652" height="281" viewBox="0 0 652 281" fill="none" xmlns="http://www.w3.org/2000/svg">
<path d="M73.8999 198.9L52.9999 156.2H21.3999V241.7H52.9999V198.9L73.8999 241.7L94.6999 198.9V241.7H126.4V156.2H94.6999L73.8999 198.9Z" fill="#D81E05"/>
<path d="M176.1 213.6L189 169L201.8 213.7H176.1V213.6ZM161.1 156.1L136.5 241.7H168.1L172.1 227.6H205.8L209.8 241.7H241.4L216.8 156.1H161.1Z" fill="#D81E05"/>
<path d="M290.5 191.6H283.7V166H290.5C297.6 166 304.5 169.8 304.5 177.6C304.5 185.3 298.4 191.6 290.5 191.6ZM310.6 156.2H251.5V241.7H283.1V206.1H310.6C324.4 206.1 335.6 194.9 335.6 181.2C335.6 167.4 324.4 156.2 310.6 156.2Z" fill="#D81E05"/>
<path d="M346.5 241.7H378.1V206H430.5V192H378.1V170.2H430.5V156.1H346.5V241.7Z" fill="#D81E05"/>
<path d="M621.4 170.2V156.2H537.4V241.7H621.4V227.6H569V206H621.4V191.9H569V170.2H621.4Z" fill="#D81E05"/>
<path d="M480.5 191.6H473.7V166H480.5C487.4 166 494.5 169.8 494.5 177.6C494.5 185.3 488.2 191.6 480.5 191.6ZM525.6 177.6C525.6 165.8 516 156.2 504.2 156.2H476.6H441.5V199V241.8H473.6V206.4H480.4C488.1 206.4 494.4 212.7 494.4 220.5C494.4 220.7 494.4 220.9 494.4 221.2V241.9H504.1H525.5V220.5V219.8C525.1 208.3 515.7 199.1 504.1 199.1C516 198.9 525.6 189.4 525.6 177.6Z" fill="#D81E05"/>
<path d="M51.3999 120.1V117H62.1999V34H51.3999V30.9H116.5L117.6 54.5H115.2C111.1 38.4 108.8 33.9 92.0999 33.9H75.0999V72.8C86.9999 72.6 92.2999 72.3 93.6999 58.9H96.7999V91.7H93.8999C92.9999 78.1 87.5999 76.1 75.1999 76.1V117H86.6999V120.1H51.3999Z" fill="#D81E05"/>
<path d="M176.7 120.1H173.9C169.1 120.1 164.2 120.5 159.3 121V110.2H159.1C155.6 117.5 148.4 121.9 139.7 121.9C126.6 121.9 123.9 115.4 123.9 109V70.3H116.7V67.2H119.4C124.3 67.2 129.6 67.1 134.3 65.9V107.8C134.3 115.9 138.4 117.7 142.4 117.7C151.9 117.7 158.5 109.8 158.5 100.2V70.3H150.9V67.2H154C158.9 67.2 164.2 67.1 168.9 65.9V117H176.5V120.1H176.7Z" fill="#D81E05"/>
<path d="M192.6 70.3H185.2V67.2H188C190.5 67.2 193.1 67.2 195.5 66.9C198 66.7 200.6 66.4 203 65.8V80H203.3C207 71.6 212.2 65.9 222 65.9C226.8 65.9 237.9 67 237.9 79.2V117H245V120.1H220.5V117H227.4V81C227.4 71.3 224.3 69.8 219 69.8C209.9 69.8 203 82.2 203 92.2V117H210.2V120.1H185.2V117H192.6V70.3Z" fill="#D81E05"/>
<path d="M278.2 68.5C265.8 68.5 265.4 82.1 265.4 91.6C265.4 112.1 267.9 118.9 278.9 118.9C282.4 118.9 286.4 116.8 288.1 115.3C293.2 110.7 294.9 108.1 294.9 94.2C294.9 91.3 294.8 85.1 294 82.5C293.4 80.6 290.4 68.5 278.2 68.5ZM312.1 117V120.1C306.2 120.1 300.4 120.2 294.5 121.2V112.3H294.2C290.5 118.7 284.3 121.9 276.7 121.9C263.2 121.9 253.2 108.9 253.2 93.7C253.2 78.8 262.1 66 278 66C282.3 66 290 68 294 76.1H294.3V31.3H285.4V28.2H289.8C294.7 28.2 300 27.9 304.7 27V117H312.1Z" fill="#D81E05"/>
<path d="M353.6 92.2C344.9 92.3 330.1 93.8001 330.1 106.1C330.1 112.6 334.2 116.6 340.4 116.6C344.7 116.6 347.5 115.5 350.7 112.7C351.8 111.6 353.6 110.2 353.6 104.6V92.2ZM373.7 110.8C373.3 117.1 368.5 121.7 362.3 121.7C357.4 121.7 354.6 118.5 353.6 113.6C349.1 119.2 342.4 121.7 335.6 121.7C327.2 121.7 320 118.5 320 108.6C320.4 96.2001 333.1 89.3 353.5 89.3V76.6001C353.5 70.3001 348.6 68.5 343.9 68.5C340.9 68.5 331.5 69.4 331.5 73.3C331.5 74.4 335.5 75 335.5 79.4C335.5 82.7 333.4 85 330 85C326.4 85 324.4 82.3001 324.4 78.6001C324.4 73.8001 329.9 65.8 345.8 65.8C364 65.8 364 73.5 364 78.9V110.7C364 114.7 364 116.8 366.8 116.8C369.5 116.8 370.8 113.1 371.5 110.8H373.7Z" fill="#D81E05"/>
<path d="M428.4 103.5C425.3 113 420 121.2 406.1 121.8C385.4 121.8 379.1 104.6 379.1 95.4C379.1 71.6 398.2 65.9 405.8 65.9C414.5 65.9 426.8 69.9 426.8 80.2C426.8 83.8 424.5 87.3 420.8 87.3C417.2 87.3 414.5 84.9 414.5 81C414.5 75.8 418.8 75.1 418.8 73.7C418.8 70.1 410.4 68.6 407.4 68.6C394.6 68.6 391.3 77.9 391.3 95.4C391.3 103.4 393.3 109.5 394.1 111.4C396.1 115.8 400.2 118.6 407.2 119C414.9 119.4 422.4 113.1 425.6 103.5H428.4Z" fill="#D81E05"/>
<path d="M451.7 32C454.9 32 458.5 34.9 458.5 38.4C458.5 42.5 455.5 45.5 451.7 45.5C447.8 45.5 445.3 42.3 445.3 38.4C445.3 34.9 448.3 32 451.7 32ZM437.6 120.1V117H446.5V70.3H437.6V67.2H442C446.9 67.2 452.2 67.1 457 65.9V117H464.9V120.1H437.6Z" fill="#D81E05"/>
<path d="M509.4 42.2C510.7 40.9 512.1 39.1 514.1 39.1C516.8 39.1 518.8 41 518.8 43.6C518.8 46.6 515.9 48.3 512 50.7L494.3 61.5H489.6L509.4 42.2ZM485.8 93.8C485.8 105 486 119.2 499.4 119.2C512.9 119.2 513 105 513 93.8C513 82.7 512.9 68.6 499.4 68.6C486 68.5 485.8 82.7 485.8 93.8ZM525.2 93.8C525.2 109.9 513.5 121.8 499.4 121.8C485.4 121.8 473.6 109.9 473.6 93.8C473.6 77.7 485.3 65.9 499.4 65.9C513.4 65.9 525.2 77.6 525.2 93.8Z" fill="#D81E05"/>
<path d="M538.9 70.3H531.5V67.2H534.3C536.8 67.2 539.4 67.2 541.8 66.9C544.3 66.7 546.9 66.4 549.3 65.8V80H549.6C553.3 71.6 558.5 65.9 568.3 65.9C573.1 65.9 584.2 67 584.2 79.2V117H591.4V120.1H566.9V117H573.8V81C573.8 71.3 570.7 69.8 565.4 69.8C556.3 69.8 549.4 82.2 549.4 92.2V117H556.6V120.1H531.6V117H539V70.3H538.9Z" fill="#D81E05"/>
</svg>
