<svg width="501" height="112" viewBox="0 0 501 112" fill="none" xmlns="http://www.w3.org/2000/svg">
<g clip-path="url(#clip0_283_478)">
<path d="M53.2714 13.5851C53.4873 13.6324 53.66 13.6899 53.8374 13.7254C57.6037 14.4782 60.1205 17.4443 60.1222 21.1597C60.1265 31.0171 60.1237 40.8745 60.1237 50.7319C60.1238 53.492 60.1249 56.252 60.124 59.0121C60.123 62.1276 57.4599 64.9702 54.2425 65.3222C53.2413 65.4318 52.265 65.3607 51.2544 65.1108C51.031 65.7797 50.8097 66.4421 50.5682 67.1653C52.2814 67.6929 53.9812 67.7185 55.6923 67.2736C57.3948 66.831 58.8392 65.966 60.0879 64.6739C60.1039 64.8394 60.1226 64.9425 60.1226 65.0457C60.1239 73.7061 60.1278 82.3665 60.1214 91.0269C60.1191 94.174 58.2704 96.862 55.2826 98.031C54.6682 98.2714 53.9919 98.3646 53.3283 98.5554C52.6681 98.5851 52.0238 98.5851 51.3266 98.5547C51.1326 98.4902 50.9926 98.4512 50.8503 98.4229C49.1325 98.0803 47.7032 97.2589 46.5546 95.9884C45.6255 94.9606 45.0505 93.7597 44.7808 92.4349C44.7299 92.4225 44.7012 92.4073 44.6752 92.4107C44.5889 92.4222 44.5031 92.4389 44.4177 92.4564C42.4691 92.856 40.5657 92.6782 38.7757 91.8611C35.5681 90.397 33.7479 87.9258 33.3628 84.5188C32.877 80.2203 36.4491 77.1817 40.3487 77.3026C40.6883 77.3131 40.8792 77.3958 41.0164 77.7424C41.947 80.0945 43.6311 81.7656 46.0231 82.7733C46.1613 82.8315 46.2995 82.8898 46.4533 82.9546C45.4072 84.1677 44.7839 85.4901 44.8019 87.081C45.5622 87.081 46.2852 87.081 47.0079 87.081C47.1388 84.0277 50.2836 82.4128 52.9178 83.4983C53.2279 82.8586 53.5387 82.2174 53.8613 81.552C52.4804 80.9776 51.106 80.8226 49.6774 81.1482C49.4393 81.2025 49.1886 81.2562 48.948 81.242C45.6468 81.0478 42.8091 78.195 42.7107 75.0113C42.6711 73.7299 42.9752 72.5365 43.6034 71.3792C42.9462 71.0186 42.3092 70.6692 41.656 70.3109C40.7445 71.8294 40.4107 73.4205 40.4278 75.0892C35.9563 75.19 32.9614 77.2654 31.3563 81.2405C28.0714 80.1289 24.9495 77.1706 24.2968 73.174C23.3383 67.3058 25.9489 63.2053 31.5378 60.7614C31.269 60.1282 30.9954 59.4837 30.714 58.821C29.4187 59.2551 28.2353 59.805 27.2246 60.6238C26.2171 61.44 25.2792 62.3361 24.2923 63.2137C22.6711 61.9937 21.5005 60.3929 20.9567 58.3844C20.8484 57.9843 20.7416 57.5838 20.634 57.1835C20.634 56.4776 20.634 55.7718 20.6646 55.0112C21.254 51.5725 23.187 49.1908 26.4085 47.7487C26.3141 47.6219 26.2458 47.532 26.1795 47.4408C24.2568 44.7959 23.6396 41.8778 24.3346 38.7328C24.8615 36.3482 26.1133 34.3334 28.0756 32.7855C31.4801 30.1002 35.2833 29.5154 39.402 30.9738C41.1312 31.5861 42.5698 32.6375 43.7776 33.9774C43.9325 34.1492 44.1429 34.3295 44.1842 34.533C44.529 36.2324 45.2743 37.7326 46.5025 38.9986C47.4286 39.9533 48.5127 40.6902 49.8295 41.1812C50.1074 40.5068 50.3737 39.8604 50.6543 39.1797C48.4889 38.2452 47.0204 36.7259 46.5163 34.5033C46.0123 32.2811 46.5569 30.2722 48.1628 28.5535C50.2437 29.5539 52.2758 29.5193 54.334 28.4548C53.9502 27.8115 53.5839 27.1975 53.2182 26.5845C51.8779 27.2187 50.5637 27.2887 49.2666 26.6393C47.9545 25.9824 47.2556 24.8912 47.0608 23.4608C46.2936 23.5291 45.5628 23.5942 44.805 23.6616C44.9608 25.0236 45.4883 26.1726 46.3804 27.1965C45.2889 28.3665 44.6144 29.7323 44.2331 31.2931C41.0553 28.6898 37.4343 27.6617 33.3321 28.1404C33.4404 25.9701 34.1675 24.0849 35.6495 22.5271C38.1231 19.9267 41.2022 19.0571 44.7649 19.7571C45.4522 16.5378 47.9408 14.2375 51.0424 13.7019C51.1317 13.6865 51.2126 13.6251 51.2974 13.5851C51.9417 13.5851 52.586 13.5851 53.2714 13.5851ZM38.7507 48.4047C36.8721 46.422 34.5423 45.4281 31.7389 45.3793C31.7389 45.7834 31.7389 46.1319 31.7389 46.4804C31.7389 46.8416 31.7389 47.2029 31.7389 47.5633C36.7578 47.476 40.4191 52.6509 37.8747 57.4048C38.5183 57.7454 39.1621 58.086 39.8131 58.4305C39.8877 58.3191 39.9335 58.2641 39.9646 58.2023C41.1876 55.7667 41.323 53.2895 40.2524 50.7732C40.1568 50.5485 40.1158 50.3865 40.2935 50.1694C42.4135 47.5793 46.2897 46.9109 49.2027 48.6454C50.1487 49.2087 50.9114 49.953 51.5242 50.8914C52.1752 50.5134 52.8045 50.148 53.4324 49.7835C53.4037 49.7059 53.3955 49.6637 53.3741 49.629C51.0344 45.8382 45.6649 44.3829 41.5927 46.4152C40.5423 46.9394 39.6477 47.6434 38.7507 48.4047Z" fill="white"/>
<path d="M71.7514 98.5846C70.9567 98.2074 70.1381 97.9156 69.4613 97.4372C67.2748 95.8916 66.6607 93.0263 67.9321 90.6613C69.1474 88.4008 72.0144 87.2875 74.5529 88.0776C75.7956 88.4644 76.7801 89.1762 77.4938 90.222C77.6737 90.4857 77.8234 90.5445 78.1228 90.4192C79.567 89.8143 81.0177 89.2236 82.4699 88.6367C82.6803 88.5516 82.7904 88.4755 82.7539 88.2147C82.5436 86.7133 83.0776 85.5016 84.3605 84.6235C84.6279 84.4405 84.5206 84.2701 84.4478 84.0838C84.0114 82.9656 83.5674 81.8502 83.127 80.7335C82.8627 80.0635 82.5884 79.3968 82.3434 78.7203C82.2577 78.4838 82.1422 78.4039 81.8785 78.3983C80.3391 78.3653 79.2505 77.2104 79.3265 75.7161C79.3955 74.357 80.6744 73.3008 82.1418 73.4121C82.4426 73.4349 82.7369 73.5364 83.0793 73.6115C83.7974 72.7879 84.5384 71.9391 85.2781 71.0893C85.6251 70.6904 85.9572 70.2786 86.3203 69.8939C86.5048 69.6985 86.5331 69.5608 86.3939 69.3116C85.8759 68.3841 85.9321 67.4594 86.586 66.6137C87.2532 65.7507 88.1857 65.4363 89.2597 65.6701C90.3222 65.9015 91.0003 66.5875 91.2173 67.6136C91.4073 68.5121 91.141 69.3182 90.4257 69.9505C89.6842 70.606 88.8094 70.7882 87.8653 70.4886C87.5614 70.3922 87.4257 70.4559 87.2499 70.6607C86.2449 71.8313 85.2347 72.9979 84.2153 74.1568C84.0529 74.3415 84.0694 74.4736 84.1824 74.675C84.7948 75.7673 84.5937 76.9279 83.645 77.7867C83.4794 77.9367 83.3887 78.0415 83.4836 78.2801C84.215 80.1173 84.9293 81.9609 85.65 83.8021C85.6801 83.8791 85.7201 83.9524 85.7615 84.0399C86.8968 83.8646 87.9316 84.0813 88.8185 84.77C90.0318 85.7122 90.4983 86.9572 90.1722 88.4172C89.8445 89.8841 88.859 90.8463 87.3593 91.1817C85.8686 91.5152 84.548 91.1033 83.5569 89.932C83.3461 89.6829 83.1907 89.6165 82.8794 89.7469C81.3431 90.3908 79.7976 91.0139 78.2229 91.6576C78.7125 93.4568 78.4011 95.1072 77.2179 96.5607C76.3386 97.6408 75.1547 98.2706 73.7413 98.5557C73.081 98.5846 72.4367 98.5846 71.7514 98.5846Z" fill="white"/>
<path d="M73.7585 13.8852C77.4984 14.2778 78.7639 17.7794 78.358 19.9285C77.9461 22.1094 76.1964 23.8138 73.9269 24.2463C73.785 24.2733 73.6449 24.3086 73.4815 24.345C73.4815 25.669 73.4815 26.9877 73.4815 28.2866C73.954 28.4854 74.4499 28.628 74.8721 28.8837C76.3259 29.7641 76.9132 31.2374 76.5045 32.9546C76.4348 33.2478 76.5242 33.3494 76.7526 33.4763C77.8648 34.0939 78.9714 34.7211 80.0749 35.3534C80.2857 35.4742 80.4345 35.4983 80.6542 35.3303C81.5635 34.6348 82.7493 34.5862 83.6738 35.1725C84.6211 35.7734 85.0591 36.8444 84.7857 37.892C84.5044 38.9701 83.6091 39.6835 82.4396 39.7964C82.294 39.8105 82.0882 39.941 82.0388 40.0651C81.8147 40.6288 81.6329 41.2085 81.4431 41.7846C81.2673 42.3185 81.1006 42.8552 80.9263 43.4018C81.7225 43.9635 82.193 44.6763 82.1556 45.6564C82.1174 46.6584 81.4751 47.5341 80.4654 47.9106C79.5258 48.261 78.3768 48.0114 77.6819 47.3059C76.9679 46.5811 76.7457 45.4851 77.1574 44.602C77.5949 43.6637 78.3387 43.1152 79.4222 43.0689C79.6831 43.0578 79.7664 42.9544 79.8349 42.7414C80.1542 41.748 80.4828 40.7572 80.8217 39.7698C80.9006 39.5402 80.8779 39.4175 80.657 39.2484C79.8751 38.6502 79.5549 37.8428 79.713 36.8912C79.7584 36.6183 79.6928 36.4915 79.4532 36.3606C78.3748 35.7714 77.2972 35.1795 76.2419 34.5532C75.9095 34.3559 75.7226 34.3696 75.4318 34.6295C74.268 35.6696 72.6186 35.906 71.2443 35.2751C69.8533 34.6365 69.0137 33.2656 69.0822 31.7447C69.1484 30.276 70.2521 28.9143 71.7166 28.4949C71.8696 28.4511 72.0233 28.4093 72.2023 28.3594C72.2023 27.0255 72.2023 25.6954 72.2023 24.3316C71.2544 24.1719 70.3454 23.8904 69.5685 23.306C67.7633 21.9482 66.9649 20.1664 67.3874 17.9961C67.8158 15.7958 70.0185 13.4926 73.7585 13.8852Z" fill="white"/>
<path d="M104.739 56.8901C104.62 57.2702 104.503 57.6118 104.38 57.951C103.582 60.1423 101.254 61.5482 98.8522 61.4475C94.6817 61.2726 91.9842 56.6068 94.5999 52.977C94.6239 52.9437 94.6361 52.9023 94.6707 52.8287C93.842 52.071 93.0085 51.3081 92.174 50.5463C91.8348 50.2367 91.4847 49.9377 91.1562 49.6179C90.9761 49.4426 90.8426 49.4225 90.5981 49.546C88.8445 50.4317 86.762 49.6408 86.1663 47.8826C85.7455 46.6405 86.1842 45.2818 87.2497 44.5274C88.4032 43.7109 89.7888 43.7058 90.9538 44.5148C91.095 44.6129 91.2335 44.7148 91.3944 44.8301C92.9448 43.8858 94.5007 42.9446 96.0431 41.9833C96.1379 41.9242 96.1769 41.7006 96.1575 41.5648C95.9202 39.9116 97.1026 38.551 98.773 38.5723C99.8579 38.5861 100.822 39.2576 101.166 40.2397C101.536 41.2986 101.216 42.3846 100.337 43.0494C99.4573 43.7149 98.2142 43.7957 97.3172 43.1728C96.9613 42.9256 96.7368 42.9674 96.4054 43.1752C95.048 44.0264 93.6729 44.8512 92.3051 45.6869C92.2202 45.7387 92.1423 45.801 92.0475 45.8681C92.3237 46.7302 92.2815 47.5625 91.8457 48.3673C91.8086 48.4359 91.8434 48.5943 91.9045 48.6508C93.1034 49.7575 94.3112 50.8553 95.5248 51.9619C95.6663 51.868 95.774 51.7991 95.8789 51.7266C99.0105 49.5629 103.366 50.9801 104.497 54.5315C104.56 54.73 104.618 54.9299 104.709 55.1423C104.739 55.7204 104.739 56.2855 104.739 56.8901Z" fill="white"/>
<path d="M71.7478 61.0118C72.0326 60.4071 72.2814 59.8205 72.5802 59.2586C72.7533 58.9331 72.709 58.7184 72.4591 58.4451C71.4123 57.3001 71.6325 55.6329 72.9211 54.749C74.0467 53.9769 75.6166 54.2035 76.4787 55.2901C76.681 55.545 76.8509 55.6022 77.1714 55.5175C78.3939 55.1944 79.6229 54.8919 80.857 54.613C81.1854 54.5388 81.3017 54.3958 81.3506 54.0882C81.5058 53.1118 82.0994 52.4564 83.0483 52.1147C84.014 51.7669 84.8956 51.9708 85.6557 52.6107C86.7917 53.567 86.8101 55.2851 85.7197 56.2905C84.5948 57.3277 82.8333 57.2127 81.8623 55.9994C81.6237 55.7013 81.4282 55.6876 81.0968 55.7747C79.8875 56.0925 78.6716 56.3873 77.4547 56.677C77.1798 56.7425 77.0537 56.8633 76.9955 57.1443C76.6991 58.5761 75.7482 59.2977 74.218 59.3152C74.0806 59.3168 73.8746 59.4215 73.8193 59.5331C73.304 60.5733 72.8073 61.6224 72.3301 62.6794C72.2853 62.7787 72.3667 63.0032 72.4648 63.0795C73.663 64.0125 74.3058 65.1825 74.2768 66.6962C74.2427 68.4803 73.0478 70.1294 71.3194 70.6976C69.4309 71.3185 67.3945 70.7629 66.2332 69.3101C64.1284 66.6769 65.5983 62.9169 68.9994 62.3004C69.5438 62.2017 70.1323 62.2775 70.693 62.337C70.9781 62.3673 71.1284 62.3231 71.2384 62.0741C71.3924 61.7251 71.567 61.3845 71.7478 61.0118Z" fill="white"/>
<path d="M99.1392 76.7135C96.7845 78.2067 93.917 76.89 93.315 74.5327C92.9584 73.1366 93.5264 71.6458 94.7846 70.7277C95.9272 69.8939 97.574 69.8023 98.8329 70.5023C101.317 71.8838 101.485 75.0008 99.1392 76.7135Z" fill="white"/>
<path d="M90.8211 31.3371C92.0075 30.5082 93.3631 30.4498 94.4846 31.1606C95.564 31.8448 96.0846 33.0885 95.8082 34.3229C95.5366 35.5359 94.4283 36.5095 93.1656 36.6443C91.8708 36.7826 90.5307 36.1088 90.0265 35.0659C89.4023 33.775 89.6202 32.4398 90.6041 31.5286C90.6672 31.4702 90.7328 31.4142 90.8211 31.3371Z" fill="white"/>
<path d="M70.2071 47.457C71.4024 47.5774 72.333 48.3021 72.5766 49.2723C72.8579 50.3922 72.456 51.435 71.5067 52.0485C70.5954 52.6374 69.3663 52.5937 68.4749 51.9407C67.627 51.3195 67.2604 50.2002 67.5841 49.2206C67.9336 48.1635 68.863 47.4823 69.9922 47.4561C70.0505 47.4548 70.1089 47.4562 70.2071 47.457Z" fill="white"/>
<path d="M84.495 21.7841C85.6895 20.2186 88.01 20.4705 88.8895 21.9685C89.5156 23.0347 89.286 24.3436 88.3187 25.1407C87.4209 25.8804 86.0091 25.9236 85.0786 25.2399C84.0698 24.4987 83.7474 23.191 84.3072 22.1042C84.359 22.0037 84.4223 21.9088 84.495 21.7841Z" fill="white"/>
<path d="M78.5162 61.5769C78.8501 60.5116 79.5767 59.8915 80.6657 59.7392C81.7175 59.5921 82.5931 59.9629 83.1916 60.8261C83.7784 61.6724 83.7988 62.5639 83.2948 63.4567C82.7449 64.4308 81.5663 64.9122 80.4228 64.6441C79.2549 64.3702 78.4701 63.4551 78.4466 62.3216C78.4416 62.0851 78.4841 61.8476 78.5162 61.5769Z" fill="white"/>
<path d="M77.2471 86.2612C75.986 86.1606 74.9942 85.2586 74.8569 84.122C74.7069 82.8794 75.4634 81.6956 76.6142 81.372C77.8374 81.0281 79.1972 81.5352 79.7315 82.5771C80.7204 84.5055 79.1359 86.4155 77.2471 86.2612Z" fill="white"/>
<path d="M66.1172 77.958C64.8854 76.9074 64.9828 75.0163 66.3576 74.0542C67.1559 73.4955 68.3493 73.4456 69.2009 73.9612C70.1513 74.5367 70.6246 75.5556 70.4068 76.5572C69.9807 78.5165 67.6667 79.2876 66.1172 77.958Z" fill="white"/>
<path d="M65.4043 39.0378C65.8305 37.9035 66.9936 37.2026 68.1556 37.3535C69.4409 37.5203 70.3494 38.4606 70.4571 39.7353C70.5483 40.8157 69.7456 41.9731 68.6065 42.2546C67.6419 42.493 66.721 42.3476 65.9947 41.6001C65.2855 40.8704 65.0992 40.0228 65.4043 39.0378Z" fill="white"/>
<path d="M82.1919 29.4326C81.4049 30.3364 80.1736 30.4842 79.29 29.8033C78.433 29.143 78.2683 27.9305 78.9196 27.0781C79.572 26.2242 80.8209 26.0331 81.7275 26.6483C82.6645 27.2842 82.8653 28.43 82.1919 29.4326Z" fill="white"/>
<path d="M68.1482 83.3227C68.7579 82.7787 69.4148 82.7193 69.9795 83.1367C70.4848 83.5101 70.6526 84.2295 70.3597 84.7663C69.9897 85.4445 69.1343 85.6716 68.4547 85.272C67.7473 84.856 67.6077 84.036 68.1482 83.3227Z" fill="white"/>
<path d="M72.3779 44.7256C71.7773 44.3486 71.6843 43.8186 71.8172 43.2301C71.916 42.7926 72.4771 42.375 72.9727 42.3277C73.5145 42.2759 74.0478 42.576 74.319 43.0853C74.5618 43.5413 74.4443 44.1867 74.0503 44.5615C73.6123 44.9782 73.0278 45.0424 72.3779 44.7256Z" fill="white"/>
<path d="M88.4129 40.8357C87.6857 40.312 87.5394 39.5708 88.017 38.9535C88.4487 38.3955 89.3074 38.2571 89.8856 38.6523C90.4748 39.055 90.616 39.9008 90.1927 40.492C89.8264 41.0036 89.1364 41.1457 88.4129 40.8357Z" fill="white"/>
<path d="M66.1198 27.7939C65.3533 27.4391 65.0634 26.7221 65.3758 26.0308C65.6315 25.4649 66.3927 25.1387 66.9837 25.3418C67.7332 25.5994 68.1112 26.2918 67.881 26.9851C67.6528 27.6723 66.9715 27.9945 66.1198 27.7939Z" fill="white"/>
<path d="M89.0271 73.8774C89.8294 73.8536 90.3616 74.1861 90.5442 74.7958C90.7169 75.3726 90.4677 75.9828 89.9201 76.2807C89.4482 76.5375 88.9627 76.5318 88.5125 76.2438C88.0135 75.9246 87.8152 75.447 87.9361 74.8883C88.0534 74.3464 88.4281 74.0113 89.0271 73.8774Z" fill="white"/>
<path d="M89.9195 61.3929C89.7817 62.1099 89.3967 62.5138 88.7964 62.6045C88.2167 62.6922 87.6766 62.4428 87.3972 61.9586C87.1203 61.4788 87.1759 60.937 87.546 60.5074C87.8944 60.1031 88.4479 59.939 88.962 60.0877C89.5147 60.2476 89.8692 60.7173 89.9195 61.3929Z" fill="white"/>
<path d="M76.8226 52.3166C76.5336 51.6836 76.6046 51.1623 77.0113 50.7713C77.4415 50.3579 78.0011 50.2515 78.5368 50.4813C79.0316 50.6936 79.3558 51.2067 79.3297 51.7362C79.3039 52.2582 78.9294 52.7265 78.3996 52.8991C77.822 53.0872 77.3132 52.9058 76.8226 52.3166Z" fill="white"/>
<path d="M73.0051 77.0061C73.5696 76.6863 74.0939 76.718 74.5768 77.0855C75.021 77.4235 75.1454 77.8918 75.0285 78.4089C74.9074 78.9447 74.5228 79.2436 73.9842 79.3646C73.4426 79.4863 72.8014 79.1855 72.5553 78.7052C72.2413 78.0926 72.3934 77.4885 73.0051 77.0061Z" fill="white"/>
<path d="M88.3623 56.565C88.172 55.7941 88.5377 55.1306 89.2362 54.9292C89.9328 54.7284 90.663 55.086 90.89 55.7391C91.1306 56.4316 90.7906 57.1391 90.0971 57.3894C89.391 57.6442 88.6976 57.3257 88.3623 56.565Z" fill="white"/>
<path d="M76.7723 70.9775C77.1862 71.462 77.2508 71.9612 76.9545 72.4871C76.7025 72.9344 76.1436 73.2072 75.6311 73.1356C75.0607 73.0559 74.6739 72.7464 74.4924 72.2173C74.3107 71.6877 74.5562 71.0709 75.0639 70.7458C75.5531 70.4326 76.2181 70.5149 76.7723 70.9775Z" fill="white"/>
<path d="M68.9921 56.6789C68.9051 57.4427 68.4768 57.895 67.7731 58.0019C67.2577 58.0801 66.5899 57.6888 66.3827 57.169C66.1871 56.6781 66.2833 56.2319 66.6503 55.8411C67.0447 55.4211 67.5304 55.3015 68.0789 55.4755C68.6534 55.6578 68.9264 56.0805 68.9921 56.6789Z" fill="white"/>
<path d="M94.5696 66.0691C93.8047 65.8633 93.3811 65.198 93.5485 64.5127C93.7075 63.8617 94.4447 63.4093 95.1206 63.5479C95.8375 63.6948 96.3366 64.3687 96.2011 65.0066C96.0373 65.7783 95.3985 66.2054 94.5696 66.0691Z" fill="white"/>
<path d="M86.6394 31.0636C85.7048 30.5609 85.4591 29.8296 85.9526 29.1093C86.3268 28.5631 87.0431 28.3736 87.6436 28.6621C88.245 28.951 88.5561 29.64 88.3454 30.2167C88.1113 30.8574 87.4649 31.2239 86.802 31.0921C86.7591 31.0836 86.7156 31.0782 86.6394 31.0636Z" fill="white"/>
<path d="M73.9026 38.7208C74.2254 37.4955 75.5673 37.458 76.1461 38.0087C76.5652 38.4075 76.689 39.0786 76.4147 39.5637C76.1292 40.0686 75.5129 40.3363 74.9278 40.2095C74.3272 40.0794 73.9152 39.6029 73.8921 39.009C73.8888 38.9248 73.8958 38.8403 73.9026 38.7208Z" fill="white"/>
<path d="M91.6055 82.0413C91.0217 82.4195 90.4616 82.4248 89.9182 82.0414C89.4928 81.7414 89.308 81.1707 89.453 80.684C89.603 80.1804 90.11 79.7906 90.6692 79.7491C91.2152 79.7085 91.7341 80.0026 91.9766 80.49C92.2391 81.0176 92.1286 81.5059 91.6055 82.0413Z" fill="white"/>
<path d="M81.9406 69.5838C81.4027 70.0064 80.7584 70.075 80.2562 69.7833C79.7974 69.5169 79.5788 69.0148 79.6675 68.4796C79.7581 67.9326 80.0779 67.5981 80.626 67.4526C81.1377 67.3167 81.5996 67.4353 81.9451 67.7978C82.3121 68.1829 82.4331 68.6599 82.2122 69.1693C82.1516 69.3089 82.0476 69.4311 81.9406 69.5838Z" fill="white"/>
</g>
<path d="M147.785 49.0828H140.092V60.7872H133.993V23.1462H147.785C156.321 23.1462 160.589 27.3591 160.589 35.7848C160.589 40.1076 159.508 43.4046 157.347 45.6759C155.222 47.9472 152.035 49.0828 147.785 49.0828ZM140.092 43.8076H147.73C152.126 43.8076 154.324 41.1333 154.324 35.7848C154.324 33.2205 153.793 31.3521 152.731 30.1799C151.669 29.0076 150.002 28.4215 147.73 28.4215H140.092V43.8076ZM184.812 38.9719C180.489 38.3858 177.357 38.0927 175.416 38.0927C173.474 38.0927 172.119 38.3308 171.349 38.8071C170.617 39.2467 170.25 39.961 170.25 40.9501C170.25 41.9392 170.653 42.6353 171.459 43.0383C172.302 43.4412 174.243 43.9175 177.284 44.467C180.361 44.9798 182.541 45.8041 183.823 46.9397C185.105 48.0754 185.746 50.0902 185.746 52.9843C185.746 55.8783 184.812 58.0031 182.944 59.3585C181.112 60.714 178.419 61.3917 174.866 61.3917C172.631 61.3917 169.811 61.0803 166.404 60.4575L164.7 60.1828L164.92 55.1823C169.316 55.7684 172.485 56.0615 174.426 56.0615C176.368 56.0615 177.742 55.8234 178.548 55.3471C179.39 54.8709 179.812 54.0833 179.812 52.9843C179.812 51.8853 179.409 51.1343 178.603 50.7313C177.833 50.2917 175.947 49.8338 172.943 49.3576C169.975 48.8447 167.796 48.0571 166.404 46.9947C165.012 45.9323 164.316 43.9907 164.316 41.1699C164.316 38.3492 165.268 36.2427 167.173 34.8506C169.115 33.4586 171.587 32.7625 174.591 32.7625C176.936 32.7625 179.812 33.0556 183.218 33.6417L184.922 33.9714L184.812 38.9719ZM188.599 33.312H194.479L200.303 55.6768H201.787L207.612 33.312H213.546L203.106 72.6016H197.226L200.523 60.7872H195.797L188.599 33.312ZM227.965 32.7076C229.907 32.7076 232.196 32.964 234.834 33.4769L236.208 33.7516L235.988 38.4774C233.094 38.1843 230.951 38.0378 229.559 38.0378C226.775 38.0378 224.906 38.6605 223.954 39.9061C223.001 41.1516 222.525 43.4962 222.525 46.9397C222.525 50.3833 222.983 52.7645 223.899 54.0833C224.815 55.4021 226.72 56.0615 229.614 56.0615L236.043 55.6219L236.208 60.4026C232.508 61.062 229.724 61.3917 227.855 61.3917C223.679 61.3917 220.73 60.2744 219.008 58.0397C217.323 55.7684 216.481 52.0684 216.481 46.9397C216.481 41.811 217.378 38.166 219.173 36.0046C220.968 33.8066 223.899 32.7076 227.965 32.7076ZM247.988 60.7872H241.999V21.8824H247.988V34.7407C250.699 33.3853 253.209 32.7076 255.516 32.7076C259.18 32.7076 261.671 33.7516 262.99 35.8398C264.345 37.8912 265.023 41.2982 265.023 46.0605V60.7872H259.033V46.2254C259.033 43.2581 258.722 41.1516 258.099 39.9061C257.476 38.6605 256.158 38.0378 254.143 38.0378C252.384 38.0378 250.626 38.3308 248.867 38.917L247.988 39.2467V60.7872ZM293.701 60.7872H272.436V23.421H280.019V54.0833H293.701V60.7872ZM318.741 41.8843V53.314C318.814 54.1932 318.961 54.816 319.181 55.1823C319.401 55.512 319.858 55.7501 320.555 55.8966L320.335 61.4466C318.466 61.4466 316.964 61.3184 315.829 61.062C314.73 60.8055 313.612 60.2927 312.477 59.5234C309.839 60.8055 307.147 61.4466 304.399 61.4466C298.721 61.4466 295.882 58.4427 295.882 52.4348C295.882 49.5041 296.669 47.4343 298.245 46.2254C299.82 44.9798 302.238 44.2472 305.498 44.0274L311.378 43.5878V41.8843C311.378 40.7487 311.121 39.9794 310.609 39.5764C310.096 39.1368 309.271 38.917 308.136 38.917L297.805 39.3566L297.585 34.2462C301.505 33.1838 305.223 32.6526 308.74 32.6526C312.294 32.6526 314.84 33.3853 316.378 34.8506C317.954 36.316 318.741 38.6605 318.741 41.8843ZM306.377 49.1377C304.326 49.3209 303.3 50.4199 303.3 52.4348C303.3 54.4496 304.198 55.457 305.993 55.457C307.385 55.457 308.905 55.2372 310.554 54.7976L311.378 54.5778V48.6981L306.377 49.1377ZM339.059 32.6526C342.905 32.6526 345.708 33.715 347.466 35.8398C349.261 37.9279 350.159 41.6828 350.159 47.1046C350.159 52.5264 349.133 56.2813 347.081 58.3694C345.03 60.4209 341.495 61.4466 336.476 61.4466C334.901 61.4466 332.025 61.2635 327.849 60.8971L325.761 60.6773V22.322H333.124V34.1363C335.469 33.1472 337.447 32.6526 339.059 32.6526ZM336.476 54.8526C338.93 54.8526 340.579 54.2665 341.422 53.0942C342.264 51.8853 342.685 49.7422 342.685 46.665C342.685 41.7194 341.147 39.2467 338.07 39.2467C336.604 39.2467 335.212 39.4298 333.893 39.7962L333.124 39.961V54.6328C334.809 54.7793 335.926 54.8526 336.476 54.8526Z" fill="white"/>
<path d="M220.796 84.6079H217.804V89.1597H215.432V74.5215H220.796C224.115 74.5215 225.775 76.1598 225.775 79.4365C225.775 81.1176 225.355 82.3998 224.514 83.283C223.688 84.1663 222.448 84.6079 220.796 84.6079ZM217.804 82.5565H220.774C222.484 82.5565 223.339 81.5165 223.339 79.4365C223.339 78.4393 223.132 77.7127 222.719 77.2568C222.306 76.8009 221.658 76.573 220.774 76.573H217.804V82.5565ZM235.195 80.6759C233.514 80.448 232.296 80.334 231.541 80.334C230.786 80.334 230.259 80.4266 229.96 80.6118C229.675 80.7828 229.532 81.0606 229.532 81.4452C229.532 81.8299 229.689 82.1006 230.002 82.2573C230.33 82.414 231.085 82.5992 232.267 82.8129C233.464 83.0123 234.312 83.3329 234.81 83.7745C235.309 84.2162 235.558 84.9997 235.558 86.1252C235.558 87.2507 235.195 88.0769 234.469 88.6041C233.756 89.1312 232.709 89.3947 231.327 89.3947C230.458 89.3947 229.361 89.2736 228.036 89.0315L227.374 88.9246L227.459 86.98C229.169 87.2079 230.401 87.3219 231.156 87.3219C231.911 87.3219 232.446 87.2293 232.759 87.0441C233.087 86.8589 233.25 86.5526 233.25 86.1252C233.25 85.6978 233.094 85.4057 232.78 85.249C232.481 85.0781 231.748 84.9 230.579 84.7148C229.425 84.5153 228.578 84.209 228.036 83.7959C227.495 83.3828 227.224 82.6277 227.224 81.5307C227.224 80.4337 227.595 79.6146 228.335 79.0732C229.091 78.5319 230.052 78.2612 231.22 78.2612C232.132 78.2612 233.25 78.3751 234.575 78.6031L235.238 78.7313L235.195 80.6759ZM236.668 78.4749H238.954L241.22 87.1723H241.796L244.062 78.4749H246.37L242.309 93.7541H240.023L241.305 89.1597H239.467L236.668 78.4749ZM251.977 78.2398C252.732 78.2398 253.622 78.3395 254.648 78.539L255.182 78.6458L255.097 80.4836C253.971 80.3696 253.138 80.3127 252.597 80.3127C251.514 80.3127 250.787 80.5548 250.417 81.0392C250.047 81.5236 249.861 82.4354 249.861 83.7745C249.861 85.1137 250.039 86.0397 250.396 86.5526C250.752 87.0654 251.493 87.3219 252.618 87.3219L255.118 87.1509L255.182 89.0101C253.743 89.2665 252.661 89.3947 251.934 89.3947C250.31 89.3947 249.163 88.9602 248.494 88.0912C247.838 87.2079 247.511 85.769 247.511 83.7745C247.511 81.78 247.86 80.3625 248.558 79.522C249.256 78.6672 250.396 78.2398 251.977 78.2398ZM259.764 89.1597H257.434V74.03H259.764V79.0305C260.818 78.5034 261.794 78.2398 262.691 78.2398C264.116 78.2398 265.085 78.6458 265.598 79.4579C266.125 80.2557 266.388 81.5806 266.388 83.4326V89.1597H264.059V83.4967C264.059 82.3428 263.938 81.5236 263.696 81.0392C263.453 80.5548 262.941 80.3127 262.157 80.3127C261.473 80.3127 260.789 80.4266 260.106 80.6546L259.764 80.7828V89.1597ZM269.677 79.6288C270.418 78.7028 271.643 78.2398 273.353 78.2398C275.062 78.2398 276.28 78.7028 277.007 79.6288C277.748 80.5548 278.118 81.9439 278.118 83.7959C278.118 85.6479 277.762 87.0441 277.049 87.9843C276.337 88.9246 275.105 89.3947 273.353 89.3947C271.6 89.3947 270.368 88.9246 269.656 87.9843C268.943 87.0441 268.587 85.6479 268.587 83.7959C268.587 81.9439 268.95 80.5548 269.677 79.6288ZM271.429 86.5739C271.757 87.1438 272.398 87.4287 273.353 87.4287C274.307 87.4287 274.948 87.1438 275.276 86.5739C275.603 86.0041 275.767 85.071 275.767 83.7745C275.767 82.4781 275.589 81.5592 275.233 81.0179C274.891 80.4765 274.264 80.2058 273.353 80.2058C272.441 80.2058 271.807 80.4765 271.451 81.0179C271.109 81.5592 270.938 82.4781 270.938 83.7745C270.938 85.071 271.102 86.0041 271.429 86.5739ZM280.56 89.1597V74.03H282.889V89.1597H280.56ZM286.414 79.6288C287.155 78.7028 288.38 78.2398 290.089 78.2398C291.799 78.2398 293.017 78.7028 293.743 79.6288C294.484 80.5548 294.855 81.9439 294.855 83.7959C294.855 85.6479 294.499 87.0441 293.786 87.9843C293.074 88.9246 291.842 89.3947 290.089 89.3947C288.337 89.3947 287.105 88.9246 286.392 87.9843C285.68 87.0441 285.324 85.6479 285.324 83.7959C285.324 81.9439 285.687 80.5548 286.414 79.6288ZM288.166 86.5739C288.494 87.1438 289.135 87.4287 290.089 87.4287C291.044 87.4287 291.685 87.1438 292.013 86.5739C292.34 86.0041 292.504 85.071 292.504 83.7745C292.504 82.4781 292.326 81.5592 291.97 81.0179C291.628 80.4765 291.001 80.2058 290.089 80.2058C289.178 80.2058 288.544 80.4765 288.187 81.0179C287.845 81.5592 287.675 82.4781 287.675 83.7745C287.675 85.071 287.838 86.0041 288.166 86.5739ZM306.507 90.6128C306.507 92.9492 304.819 94.1174 301.442 94.1174C299.818 94.1174 298.614 93.8966 297.831 93.455C297.047 93.0133 296.656 92.2084 296.656 91.0402C296.656 90.5131 296.784 90.0572 297.04 89.6725C297.297 89.3021 297.71 88.8961 298.28 88.4545C297.81 88.1411 297.574 87.6211 297.574 86.8945C297.574 86.6096 297.767 86.1466 298.151 85.5055L298.344 85.1849C297.318 84.5723 296.805 83.5038 296.805 81.9795C296.805 80.6973 297.19 79.757 297.959 79.1587C298.728 78.5603 299.768 78.2612 301.079 78.2612C301.706 78.2612 302.326 78.3324 302.938 78.4749L303.259 78.539L306.571 78.4535V80.334L304.797 80.2272C305.182 80.7258 305.374 81.3099 305.374 81.9795C305.374 83.3756 305.018 84.3444 304.306 84.8857C303.608 85.4129 302.511 85.6764 301.015 85.6764C300.645 85.6764 300.331 85.6479 300.075 85.5909C299.875 86.0753 299.776 86.4529 299.776 86.7235C299.776 86.98 299.904 87.158 300.16 87.2578C300.431 87.3575 301.072 87.4145 302.083 87.4287C303.779 87.443 304.94 87.6709 305.567 88.1126C306.194 88.5542 306.507 89.3876 306.507 90.6128ZM298.942 90.8265C298.942 91.3251 299.142 91.6813 299.54 91.895C299.939 92.1087 300.623 92.2155 301.592 92.2155C303.316 92.2155 304.178 91.724 304.178 90.741C304.178 90.1854 304.021 89.8292 303.708 89.6725C303.408 89.5301 302.803 89.4517 301.891 89.4375L299.797 89.3093C299.483 89.5657 299.263 89.8008 299.134 90.0145C299.006 90.2424 298.942 90.5131 298.942 90.8265ZM299.113 81.9795C299.113 82.6348 299.27 83.1192 299.583 83.4326C299.897 83.7318 300.402 83.8814 301.1 83.8814C301.799 83.8814 302.297 83.7318 302.596 83.4326C302.91 83.1192 303.066 82.6348 303.066 81.9795C303.066 81.3241 302.91 80.8469 302.596 80.5477C302.283 80.2343 301.777 80.0776 301.079 80.0776C299.768 80.0776 299.113 80.7116 299.113 81.9795ZM308.396 89.1597V78.4749H310.725V89.1597H308.396ZM308.396 76.6585V74.201H310.725V76.6585H308.396ZM317.547 78.2398C318.302 78.2398 319.192 78.3395 320.218 78.539L320.752 78.6458L320.666 80.4836C319.541 80.3696 318.708 80.3127 318.166 80.3127C317.084 80.3127 316.357 80.5548 315.987 81.0392C315.616 81.5236 315.431 82.4354 315.431 83.7745C315.431 85.1137 315.609 86.0397 315.965 86.5526C316.321 87.0654 317.062 87.3219 318.188 87.3219L320.688 87.1509L320.752 89.0101C319.313 89.2665 318.23 89.3947 317.504 89.3947C315.88 89.3947 314.733 88.9602 314.063 88.0912C313.408 87.2079 313.08 85.769 313.08 83.7745C313.08 81.78 313.429 80.3625 314.127 79.522C314.825 78.6672 315.965 78.2398 317.547 78.2398ZM330.911 81.7658V86.6381C330.925 86.9515 331.003 87.1865 331.146 87.3433C331.302 87.4857 331.538 87.5783 331.851 87.6211L331.787 89.3947C330.562 89.3947 329.614 89.1312 328.945 88.6041C327.805 89.1312 326.658 89.3947 325.504 89.3947C323.381 89.3947 322.32 88.2621 322.32 85.997C322.32 84.9142 322.605 84.1307 323.175 83.6463C323.759 83.1619 324.649 82.8699 325.846 82.7702L328.603 82.5351V81.7658C328.603 81.1959 328.475 80.797 328.218 80.5691C327.976 80.3411 327.613 80.2272 327.128 80.2272C326.217 80.2272 325.077 80.2842 323.709 80.3981L323.025 80.4409L322.94 78.7954C324.493 78.425 325.917 78.2398 327.214 78.2398C328.524 78.2398 329.465 78.5247 330.035 79.0946C330.619 79.6502 330.911 80.5406 330.911 81.7658ZM326.124 84.4156C325.141 84.5011 324.649 85.0353 324.649 86.0183C324.649 87.0013 325.084 87.4928 325.953 87.4928C326.665 87.4928 327.42 87.3789 328.218 87.1509L328.603 87.0227V84.1806L326.124 84.4156ZM333.963 89.1597V74.03H336.292V89.1597H333.963ZM349.128 89.3947C346.991 89.3947 345.538 88.8035 344.769 87.6211C344.014 86.4386 343.636 84.494 343.636 81.7872C343.636 79.0803 344.021 77.1571 344.79 76.0174C345.559 74.8634 347.005 74.2864 349.128 74.2864C350.396 74.2864 351.792 74.4645 353.317 74.8207L353.231 76.7439C351.949 76.516 350.667 76.402 349.385 76.402C348.102 76.402 347.233 76.7867 346.777 77.556C346.322 78.311 346.094 79.7428 346.094 81.8513C346.094 83.9455 346.314 85.3772 346.756 86.1466C347.198 86.9016 348.06 87.2791 349.342 87.2791C350.624 87.2791 351.92 87.1723 353.231 86.9586L353.295 88.9246C351.828 89.238 350.439 89.3947 349.128 89.3947ZM357.888 89.1597H355.559V74.03H357.888V79.0305C358.943 78.5034 359.919 78.2398 360.816 78.2398C362.241 78.2398 363.21 78.6458 363.722 79.4579C364.249 80.2557 364.513 81.5806 364.513 83.4326V89.1597H362.184V83.4967C362.184 82.3428 362.063 81.5236 361.82 81.0392C361.578 80.5548 361.065 80.3127 360.282 80.3127C359.598 80.3127 358.914 80.4266 358.23 80.6546L357.888 80.7828V89.1597ZM375.132 81.7658V86.6381C375.146 86.9515 375.224 87.1865 375.367 87.3433C375.523 87.4857 375.758 87.5783 376.072 87.6211L376.008 89.3947C374.783 89.3947 373.835 89.1312 373.166 88.6041C372.026 89.1312 370.879 89.3947 369.725 89.3947C367.602 89.3947 366.541 88.2621 366.541 85.997C366.541 84.9142 366.826 84.1307 367.396 83.6463C367.98 83.1619 368.87 82.8699 370.067 82.7702L372.824 82.5351V81.7658C372.824 81.1959 372.695 80.797 372.439 80.5691C372.197 80.3411 371.834 80.2272 371.349 80.2272C370.437 80.2272 369.298 80.2842 367.93 80.3981L367.246 80.4409L367.161 78.7954C368.714 78.425 370.138 78.2398 371.435 78.2398C372.745 78.2398 373.686 78.5247 374.255 79.0946C374.84 79.6502 375.132 80.5406 375.132 81.7658ZM370.345 84.4156C369.362 84.5011 368.87 85.0353 368.87 86.0183C368.87 87.0013 369.305 87.4928 370.174 87.4928C370.886 87.4928 371.641 87.3789 372.439 87.1509L372.824 87.0227V84.1806L370.345 84.4156ZM380.385 89.1597H378.056V78.4749H380.364V79.1373C381.404 78.539 382.387 78.2398 383.313 78.2398C384.737 78.2398 385.706 78.6458 386.219 79.4579C386.746 80.2557 387.01 81.5806 387.01 83.4326V89.1597H384.702V83.4967C384.702 82.3428 384.573 81.5236 384.317 81.0392C384.075 80.5548 383.569 80.3127 382.8 80.3127C382.073 80.3127 381.375 80.4551 380.706 80.74L380.385 80.8683V89.1597ZM399.06 90.6128C399.06 92.9492 397.372 94.1174 393.995 94.1174C392.371 94.1174 391.167 93.8966 390.384 93.455C389.6 93.0133 389.208 92.2084 389.208 91.0402C389.208 90.5131 389.337 90.0572 389.593 89.6725C389.85 89.3021 390.263 88.8961 390.833 88.4545C390.362 88.1411 390.127 87.6211 390.127 86.8945C390.127 86.6096 390.32 86.1466 390.704 85.5055L390.897 85.1849C389.871 84.5723 389.358 83.5038 389.358 81.9795C389.358 80.6973 389.743 79.757 390.512 79.1587C391.281 78.5603 392.321 78.2612 393.632 78.2612C394.259 78.2612 394.879 78.3324 395.491 78.4749L395.812 78.539L399.124 78.4535V80.334L397.35 80.2272C397.735 80.7258 397.927 81.3099 397.927 81.9795C397.927 83.3756 397.571 84.3444 396.859 84.8857C396.161 85.4129 395.064 85.6764 393.568 85.6764C393.197 85.6764 392.884 85.6479 392.628 85.5909C392.428 86.0753 392.328 86.4529 392.328 86.7235C392.328 86.98 392.457 87.158 392.713 87.2578C392.984 87.3575 393.625 87.4145 394.636 87.4287C396.332 87.443 397.493 87.6709 398.12 88.1126C398.746 88.5542 399.06 89.3876 399.06 90.6128ZM391.495 90.8265C391.495 91.3251 391.694 91.6813 392.093 91.895C392.492 92.1087 393.176 92.2155 394.145 92.2155C395.869 92.2155 396.731 91.724 396.731 90.741C396.731 90.1854 396.574 89.8292 396.26 89.6725C395.961 89.5301 395.356 89.4517 394.444 89.4375L392.35 89.3093C392.036 89.5657 391.816 89.8008 391.687 90.0145C391.559 90.2424 391.495 90.5131 391.495 90.8265ZM391.666 81.9795C391.666 82.6348 391.823 83.1192 392.136 83.4326C392.45 83.7318 392.955 83.8814 393.653 83.8814C394.351 83.8814 394.85 83.7318 395.149 83.4326C395.463 83.1192 395.619 82.6348 395.619 81.9795C395.619 81.3241 395.463 80.8469 395.149 80.5477C394.836 80.2343 394.33 80.0776 393.632 80.0776C392.321 80.0776 391.666 80.7116 391.666 81.9795ZM408.556 87.2364L409.155 87.1723L409.197 88.9032C407.573 89.2309 406.134 89.3947 404.881 89.3947C403.299 89.3947 402.16 88.9602 401.462 88.0912C400.778 87.2222 400.436 85.8331 400.436 83.9241C400.436 80.1346 401.982 78.2398 405.073 78.2398C408.065 78.2398 409.561 79.871 409.561 83.1334L409.411 84.8003H402.787C402.801 85.6835 402.993 86.3318 403.363 86.7449C403.734 87.158 404.425 87.3646 405.436 87.3646C406.448 87.3646 407.488 87.3219 408.556 87.2364ZM407.274 83.0052C407.274 81.951 407.103 81.2173 406.761 80.8042C406.434 80.3768 405.871 80.1631 405.073 80.1631C404.275 80.1631 403.691 80.3839 403.321 80.8255C402.965 81.2672 402.779 81.9937 402.765 83.0052H407.274ZM424.98 89.1597H416.774V74.5215H419.146V87.0441H424.98V89.1597ZM434.545 81.7658V86.6381C434.559 86.9515 434.637 87.1865 434.78 87.3433C434.937 87.4857 435.172 87.5783 435.485 87.6211L435.421 89.3947C434.196 89.3947 433.248 89.1312 432.579 88.6041C431.439 89.1312 430.292 89.3947 429.138 89.3947C427.016 89.3947 425.954 88.2621 425.954 85.997C425.954 84.9142 426.239 84.1307 426.809 83.6463C427.393 83.1619 428.284 82.8699 429.48 82.7702L432.237 82.5351V81.7658C432.237 81.1959 432.109 80.797 431.852 80.5691C431.61 80.3411 431.247 80.2272 430.762 80.2272C429.851 80.2272 428.711 80.2842 427.343 80.3981L426.66 80.4409L426.574 78.7954C428.127 78.425 429.552 78.2398 430.848 78.2398C432.159 78.2398 433.099 78.5247 433.669 79.0946C434.253 79.6502 434.545 80.5406 434.545 81.7658ZM429.758 84.4156C428.775 84.5011 428.284 85.0353 428.284 86.0183C428.284 87.0013 428.718 87.4928 429.587 87.4928C430.299 87.4928 431.055 87.3789 431.852 87.1509L432.237 87.0227V84.1806L429.758 84.4156ZM442.448 78.2398C443.916 78.2398 444.97 78.653 445.611 79.4792C446.266 80.2913 446.594 81.7373 446.594 83.8173C446.594 85.8972 446.209 87.3504 445.44 88.1767C444.671 88.9887 443.317 89.3947 441.38 89.3947C440.71 89.3947 439.649 89.3306 438.196 89.2024L437.469 89.1383V74.03H439.777V78.8809C440.76 78.4535 441.65 78.2398 442.448 78.2398ZM441.38 87.3219C442.519 87.3219 443.274 87.0583 443.645 86.5312C444.029 85.9898 444.222 85.0781 444.222 83.7959C444.222 82.5137 444.058 81.6162 443.73 81.1033C443.417 80.5762 442.897 80.3127 442.17 80.3127C441.487 80.3127 440.803 80.4195 440.119 80.6332L439.777 80.74V87.2364C440.561 87.2934 441.095 87.3219 441.38 87.3219Z" fill="white"/>
<g clip-path="url(#clip1_283_478)">
<path fill-rule="evenodd" clip-rule="evenodd" d="M354.558 19.6453H446.756V65.6996H354.558V19.6453ZM406.977 33.428C406.313 34.1213 405.164 35.3327 405.167 37.2769V48.8887C405.167 50.3919 405.584 51.1727 406.531 52.113C407.442 53.0173 408.467 53.4326 409.75 53.4326H415.68V49.3246H410.706C410.246 49.3246 409.951 49.1444 409.647 48.8012C409.215 48.3122 409.278 47.5486 409.278 47.5486V44.7138H414.603L414.596 40.599L409.278 40.5955V38.3168C409.278 38.3168 409.304 37.6252 409.927 36.8719C410.55 36.1186 411.538 36.0242 411.538 36.0242L415.68 36.0191V31.9094H410.219C408.822 31.9094 407.552 32.8309 406.977 33.428ZM428.98 53.4348C430.406 53.4424 434.567 53.4644 434.593 48.6588H434.592V36.8771C434.583 31.907 430.1 31.9102 428.907 31.9111L420.753 31.9111V53.4343H428.835C428.879 53.4343 428.928 53.4346 428.98 53.4348ZM430.477 46.356C430.477 46.356 430.798 49.3246 428.035 49.3212V49.3229H424.866V36.0242H428.061C430.586 36.0227 430.512 38.5107 430.485 39.4503C430.482 39.5317 430.48 39.6014 430.48 39.6569L430.477 46.356ZM396.116 36.0225H393.193C391.045 36.0208 390.498 37.6595 390.498 39.5248V53.4343H386.386V36.9817C386.393 34.0063 389.297 31.9111 392.272 31.9111H400.227V53.4343H396.116V36.0225ZM371.744 49.3229H374.699L374.701 49.3246C376.836 49.3263 377.373 47.7202 377.374 45.8687V31.9111H381.486V48.4066C381.477 51.3631 378.596 53.4343 375.643 53.4343H367.655V31.9111H371.765L371.744 49.3229Z" fill="white"/>
</g>
<defs>
<clipPath id="clip0_283_478">
<rect width="84.1053" height="85" fill="white" transform="translate(20.5464 13.5)"/>
</clipPath>
<clipPath id="clip1_283_478">
<rect x="358.385" y="22.8292" width="85.4784" height="39.6864" rx="7.632" fill="white"/>
</clipPath>
</defs>
</svg>
