<svg width="89" height="89" viewBox="0 0 89 89" fill="none" xmlns="http://www.w3.org/2000/svg">
<rect x="4.38696" y="4.23401" width="80" height="80" rx="5" stroke="white" stroke-width="8" stroke-linejoin="round"/>
<path d="M45.5113 27.8053C46.3296 27.7427 46.217 25.6554 45.5113 25.5983L43.9188 25.4741C43.8192 25.4674 43.7308 25.4036 43.6927 25.3096L43.1679 24.045C43.1298 23.9521 43.1466 23.8446 43.2115 23.7674L44.2501 22.5531C44.7846 21.9314 43.2281 20.5334 42.69 20.993L41.4757 22.0316C41.3996 22.0965 41.291 22.1144 41.1993 22.0764L39.9347 21.5515C39.8406 21.5135 39.7769 21.425 39.769 21.3243L39.6459 19.7328C39.5799 18.9135 37.4919 19.0248 37.4378 19.7328L37.3147 21.3243C37.3068 21.425 37.2419 21.5135 37.1479 21.5515L35.8843 22.0764C35.7903 22.1144 35.684 22.0965 35.6068 22.0316L34.3925 20.993C33.767 20.4619 32.371 22.0165 32.8324 22.5531L33.871 23.7674C33.9359 23.8446 33.9538 23.9521 33.9146 24.045L33.3908 25.3096C33.3528 25.4036 33.2633 25.4674 33.1625 25.4741L31.57 25.5983C30.7538 25.6646 30.8649 27.7509 31.57 27.8053L33.1625 27.9295C33.2632 27.9373 33.3527 28.0011 33.3908 28.0952L33.9146 29.3598C33.9538 29.4516 33.9359 29.5602 33.871 29.6362L32.8324 30.8517C32.298 31.4733 33.8535 32.8694 34.3925 32.4117L35.6068 31.372C35.684 31.3082 35.7904 31.2903 35.8843 31.3295L37.1479 31.8533C37.242 31.8913 37.3068 31.9798 37.3147 32.0793L37.4378 33.673C37.5007 34.4913 39.5885 34.3786 39.6459 33.673L39.769 32.0793C39.7768 31.9797 39.8406 31.8913 39.9347 31.8533L41.1993 31.3295C41.291 31.2903 41.3996 31.3082 41.4757 31.372L42.69 32.4117C43.3129 32.9437 44.7115 31.3883 44.2501 30.8517L43.2115 29.6362C43.1466 29.5601 43.1298 29.4516 43.1679 29.3598L43.6927 28.0952C43.7308 28.0011 43.8192 27.9374 43.9188 27.9295L45.5113 27.8053ZM38.5412 29.2155C37.8697 29.2155 37.2384 28.9536 36.7639 28.4791C36.2894 28.0046 36.0286 27.3733 36.0286 26.703C36.0286 26.0315 36.2894 25.4003 36.7639 24.9257C37.2384 24.4501 37.8697 24.1894 38.5412 24.1894C39.2127 24.1894 39.8439 24.4501 40.3184 24.9257C40.793 25.4003 41.0537 26.0315 41.0537 26.703C41.0537 27.3733 40.793 28.0046 40.3184 28.4791C39.8439 28.9536 39.2127 29.2155 38.5412 29.2155Z" fill="white"/>
<path fill-rule="evenodd" clip-rule="evenodd" d="M70.5832 35.3633C70.8835 19.1988 57.6047 9.27769 41.8341 10.2481C23.2035 11.3961 14.1276 26.2425 15.4009 41.4489C16.33 52.5471 20.6013 57.6474 24.6442 62.4748C26.1416 64.2628 27.6076 66.0133 28.8608 68.0172C30.1402 70.0579 30.8127 74.5173 30.8127 76.4679V80.2626C30.8127 81.9194 32.1559 83.2623 33.8127 83.2623H59.4192C59.4192 83.2623 56.3481 79.0807 56.1272 76.0703C55.8425 72.1896 59.8619 71.6128 63.568 71.081C65.7081 70.7739 67.7437 70.4818 68.7856 69.5772C69.7172 68.7624 70.2669 67.5997 70.3034 66.3642L70.5436 56.0811C70.5743 54.7688 71.4545 53.6288 72.7164 53.2672L75.8669 52.3644C76.6015 52.221 77.223 51.731 77.5343 51.0487C77.8482 50.3666 77.8153 49.5773 77.4468 48.9254L70.9782 37.5027C70.727 37.0591 70.593 36.5588 70.5888 36.049L70.5832 35.3633ZM23.4745 38.5276C22.7017 38.5276 22.0457 37.9446 22.0081 37.1727C21.9607 31.4753 23.7738 26.1038 27.1376 22.211C27.2025 22.1371 27.3262 22.1858 27.3262 22.2841V30.113C27.3262 30.7623 27.8514 31.2889 28.4996 31.2889C29.1477 31.2889 29.6744 30.7625 29.6744 30.113V21.2374C29.6744 20.3226 30.0839 19.4458 30.8413 18.9327C33.9857 16.8029 37.834 15.5574 42.2027 15.2888C42.7622 15.2535 43.3216 15.2365 43.8737 15.2365C45.2212 15.2365 46.5323 15.3389 47.7982 15.5367C49.1494 15.7479 50.0723 16.9619 50.0723 18.3296V20.3442C50.0758 20.6457 49.9712 21.0787 49.7681 21.4484C49.5639 21.8231 49.2744 22.1282 48.9642 22.2937C48.7551 22.4056 48.535 22.4688 48.2601 22.4701H46.9799C46.3317 22.4701 45.8063 22.9966 45.8063 23.6448C45.8063 24.2918 46.3317 24.8183 46.9799 24.8183H48.2601C48.9278 24.8195 49.5542 24.6468 50.0794 24.3599C50.6084 24.0754 51.0414 23.6837 51.3818 23.2507C52.0604 22.3777 52.4132 21.3513 52.4204 20.3444C52.4204 18.6115 54.1643 17.4267 55.6429 18.3301C56.9064 19.1021 58.0588 20.0119 59.0786 21.052C60.6496 22.6518 61.8538 24.3496 62.5782 26.2487C63.2056 27.8936 61.7924 29.431 60.0319 29.431H58.3161C57.2495 29.4288 56.3861 28.5652 56.3836 27.4987V25.6502C56.3836 25.002 55.8584 24.4766 55.2102 24.4766C54.5618 24.4766 54.0354 25.002 54.0354 25.6502V27.4987C54.0354 29.8615 55.952 31.7781 58.3161 31.7781H62.6172C62.9849 31.7781 63.2776 32.0936 63.2291 32.458C62.5732 35.8298 61.416 37.4173 54.705 38.0039C53.0089 38.1522 51.5898 36.7754 51.5898 35.0728V33.539C51.5898 32.8896 51.0646 32.3642 50.4163 32.3642C49.7681 32.3642 49.2416 32.8896 49.2416 33.539V35.3119C49.2416 36.9468 47.9324 38.2819 46.2974 38.2851C46.154 38.2854 46.0093 38.2855 45.8632 38.2855C42.7832 38.2855 40.5523 38.5044 38.911 38.8758C37.991 39.084 37.0123 38.4219 37.0123 37.4786C37.0123 36.8318 36.4869 36.3051 35.8388 36.3051C35.1906 36.3051 34.6639 36.8316 34.6639 37.4786L34.6639 40.405C34.6639 40.9967 34.4738 41.569 34.2272 42.1069C34.0756 42.4376 33.9493 42.7749 33.823 43.1124C33.3717 44.3179 32.9199 45.5248 31.3111 46.4347C28.1619 48.2134 25.0196 46.9897 23.3085 43.2052C22.7919 42.0627 23.7299 40.876 24.9838 40.876C26.9795 40.8748 28.5969 39.2585 28.5981 37.2617V35.4946C28.5981 34.8476 28.0715 34.3211 27.4234 34.3211C26.7764 34.3211 26.2498 34.8476 26.2498 35.4946V37.2617C26.2485 37.959 25.6831 38.5251 24.9862 38.5276L24.9823 38.5276H23.4745ZM42.3627 60.2107V59.2202L42.3704 59.2086C42.3704 58.9826 42.3673 58.7563 42.3641 58.5299V58.5299V58.5298C42.3568 58.0011 42.3494 57.4715 42.3821 56.9439C42.4248 56.2486 42.2539 55.9029 41.4615 55.9417C40.7126 55.9788 39.9605 55.9718 39.2083 55.9649H39.2082H39.2081C38.7782 55.9609 38.3483 55.9569 37.9188 55.9611C37.8764 55.9616 37.8321 55.9607 37.7871 55.9597C37.4575 55.9528 37.0911 55.945 37.1458 56.4817C37.1857 56.8774 37.4581 56.8661 37.7183 56.8554C37.7875 56.8525 37.8559 56.8497 37.9188 56.8546C39.2266 56.9556 39.8805 57.6794 39.8805 59.026V60.1602C39.8805 62.2035 39.3444 62.7628 37.2779 62.8755C32.9312 63.1124 30.0023 59.6397 30.6859 55.0561C31.0899 52.3408 32.667 50.4025 35.021 49.8586C37.5304 49.2798 39.4648 50.115 40.7584 52.3758L40.7831 52.4186C40.9867 52.7725 41.1767 53.1027 41.7256 52.7293C42.3132 52.3316 42.078 52.033 41.8032 51.6843C41.78 51.6549 41.7566 51.6252 41.7334 51.595C39.8883 49.2099 37.4488 48.3243 34.4966 48.6855C31.1132 49.1012 28.3242 51.7892 27.7609 55.2075C27.2404 58.3384 28.9612 61.411 32.0766 62.9027C34.6403 64.1341 37.3128 63.936 39.9659 63.3416C42.2811 62.8211 42.3627 62.6308 42.3627 60.2107ZM58.5995 63.7821C54.5325 63.584 51.6541 61.1329 50.9976 57.3028C50.4421 54.0787 52.396 50.6409 55.5347 49.3008C59.0229 47.813 62.8219 48.7336 64.939 51.5771C64.9792 51.6315 65.0236 51.6847 65.0676 51.7374C65.3123 52.0307 65.5447 52.309 64.9817 52.7075C64.3991 53.1156 64.2144 52.7876 64.0112 52.4267C63.9881 52.3857 63.9648 52.3443 63.9407 52.3035C62.7559 50.3146 61.0506 49.3629 58.7277 49.7902C56.3815 50.2214 54.8782 51.6431 54.1712 53.9116C53.6973 55.4382 53.6973 56.9804 54.1557 58.5031C54.8238 60.7133 56.2611 62.1351 58.5723 62.5818C60.903 63.0285 62.585 61.9952 63.9096 60.1928C63.958 60.1272 64.0031 60.0566 64.0477 59.9869C64.2747 59.6316 64.4879 59.298 65.0594 59.7461C65.5901 60.1596 65.3144 60.4334 65.0598 60.6862L65.0598 60.6862C64.9939 60.7516 64.9294 60.8157 64.8807 60.8804C63.3891 62.8615 61.1011 63.9064 58.6034 63.7821H58.5995ZM48.0577 57.928C48.0615 57.3205 48.0653 56.7132 48.0653 56.1061C48.0653 55.497 48.0596 54.8876 48.0539 54.2781C48.0402 52.8081 48.0266 51.3379 48.0925 49.8715C48.1356 48.9125 47.6543 48.9315 47.1208 48.9526C47.0298 48.9562 46.9372 48.9598 46.8455 48.9587C46.7816 48.9579 46.7181 48.956 46.6555 48.954C46.0755 48.936 45.5768 48.9205 45.5909 49.8987C45.6491 54.1017 45.6491 58.3047 45.5909 62.5077C45.576 63.4732 46.0548 63.4466 46.5575 63.4187C46.7101 63.4102 46.8649 63.4016 47.0087 63.4206C47.7312 63.5138 48.1196 63.3778 48.0886 62.4805C48.0386 60.9655 48.0481 59.4466 48.0577 57.928Z" fill="white"/>
</svg>
