<svg width="501" height="112" viewBox="0 0 501 112" fill="none" xmlns="http://www.w3.org/2000/svg">
<g clip-path="url(#clip0_283_478)">
<path d="M61.639 13.5851C61.855 13.6324 62.0276 13.6899 62.2051 13.7254C65.9714 14.4782 68.4882 17.4443 68.4898 21.1597C68.4942 31.0171 68.4913 40.8745 68.4914 50.7319C68.4914 53.492 68.4925 56.252 68.4917 59.0121C68.4907 62.1276 65.8276 64.9702 62.6101 65.3222C61.609 65.4318 60.6326 65.3607 59.6221 65.1108C59.3987 65.7797 59.1774 66.4421 58.9359 67.1653C60.6491 67.6929 62.3488 67.7185 64.06 67.2736C65.7625 66.831 67.2068 65.966 68.4556 64.6739C68.4716 64.8394 68.4903 64.9425 68.4903 65.0457C68.4915 73.7061 68.4954 82.3665 68.4891 91.0269C68.4868 94.174 66.6381 96.862 63.6503 98.031C63.0359 98.2714 62.3596 98.3646 61.696 98.5554C61.0358 98.5851 60.3915 98.5851 59.6943 98.5547C59.5003 98.4902 59.3603 98.4512 59.218 98.4229C57.5001 98.0803 56.0708 97.2589 54.9223 95.9884C53.9932 94.9606 53.4182 93.7597 53.1484 92.4349C53.0976 92.4225 53.0689 92.4073 53.0429 92.4107C52.9565 92.4222 52.8707 92.4389 52.7853 92.4564C50.8367 92.856 48.9334 92.6782 47.1434 91.8612C43.9358 90.397 42.1156 87.9258 41.7305 84.5188C41.2446 80.2203 44.8167 77.1817 48.7164 77.3026C49.056 77.3131 49.2469 77.3958 49.384 77.7424C50.3146 80.0945 51.9987 81.7656 54.3908 82.7733C54.529 82.8315 54.6672 82.8898 54.8209 82.9547C53.7749 84.1677 53.1515 85.4901 53.1696 87.081C53.9299 87.081 54.6529 87.081 55.3756 87.081C55.5065 84.0277 58.6513 82.4128 61.2854 83.4983C61.5956 82.8586 61.9064 82.2174 62.229 81.552C60.8481 80.9776 59.4737 80.8226 58.0451 81.1482C57.807 81.2025 57.5563 81.2562 57.3157 81.242C54.0145 81.0478 51.1768 78.195 51.0784 75.0113C51.0388 73.7299 51.3428 72.5365 51.9711 71.3792C51.3138 71.0186 50.6769 70.6692 50.0237 70.3109C49.1122 71.8294 48.7784 73.4205 48.7955 75.0892C44.324 75.19 41.3291 77.2654 39.724 81.2404C36.4391 80.1289 33.3172 77.1706 32.6644 73.174C31.706 67.3058 34.3165 63.2053 39.9055 60.7614C39.6367 60.1282 39.363 59.4837 39.0817 58.821C37.7864 59.2551 36.603 59.805 35.5922 60.6238C34.5848 61.44 33.6469 62.3361 32.6599 63.2137C31.0388 61.9937 29.8682 60.3929 29.3244 58.3843C29.2161 57.9843 29.1092 57.5838 29.0017 57.1835C29.0017 56.4776 29.0017 55.7718 29.0323 55.0112C29.6217 51.5725 31.5547 49.1908 34.7762 47.7487C34.6818 47.6219 34.6134 47.5321 34.5471 47.4408C32.6245 44.7959 32.0073 41.8778 32.7022 38.7328C33.2291 36.3482 34.481 34.3334 36.4433 32.7855C39.8477 30.1002 43.6509 29.5154 47.7697 30.9738C49.4989 31.5861 50.9375 32.6375 52.1453 33.9774C52.3002 34.1492 52.5106 34.3295 52.5519 34.533C52.8967 36.2324 53.6419 37.7326 54.8701 38.9986C55.7963 39.9533 56.8804 40.6902 58.1971 41.1812C58.475 40.5068 58.7414 39.8604 59.022 39.1797C56.8566 38.2452 55.3881 36.7259 54.884 34.5033C54.3799 32.2811 54.9246 30.2722 56.5305 28.5535C58.6113 29.5539 60.6435 29.5193 62.7016 28.4548C62.3179 27.8115 61.9516 27.1975 61.5858 26.5845C60.2456 27.2187 58.9314 27.2887 57.6343 26.6393C56.3221 25.9824 55.6233 24.8912 55.4285 23.4608C54.6612 23.5291 53.9305 23.5942 53.1727 23.6616C53.3284 25.0236 53.856 26.1726 54.748 27.1965C53.6565 28.3665 52.9821 29.7323 52.6007 31.2931C49.423 28.6898 45.802 27.6617 41.6998 28.1404C41.8081 25.9701 42.5352 24.0849 44.0171 22.5271C46.4907 19.9267 49.5699 19.0571 53.1326 19.7571C53.8199 16.5378 56.3085 14.2375 59.41 13.7019C59.4994 13.6865 59.5803 13.6251 59.6651 13.5851C60.3094 13.5851 60.9537 13.5851 61.639 13.5851ZM47.1184 48.4047C45.2398 46.422 42.91 45.4281 40.1066 45.3793C40.1066 45.7834 40.1066 46.1319 40.1066 46.4804C40.1066 46.8416 40.1066 47.2029 40.1066 47.5634C45.1254 47.476 48.7868 52.6509 46.2424 57.4048C46.886 57.7454 47.5298 58.086 48.1808 58.4305C48.2553 58.3191 48.3012 58.2641 48.3323 58.2023C49.5553 55.7667 49.6907 53.2895 48.6201 50.7732C48.5245 50.5485 48.4835 50.3865 48.6612 50.1694C50.7811 47.5793 54.6574 46.9109 57.5704 48.6454C58.5164 49.2087 59.279 49.953 59.8918 50.8914C60.5429 50.5134 61.1722 50.148 61.8001 49.7835C61.7714 49.7059 61.7632 49.6637 61.7418 49.629C59.4021 45.8382 54.0326 44.3829 49.9604 46.4152C48.91 46.9394 48.0153 47.6434 47.1184 48.4047Z" fill="white"/>
<path d="M80.119 98.5846C79.3243 98.2074 78.5057 97.9156 77.829 97.4372C75.6425 95.8916 75.0284 93.0263 76.2998 90.6613C77.515 88.4008 80.3821 87.2875 82.9206 88.0776C84.1633 88.4644 85.1477 89.1762 85.8614 90.222C86.0414 90.4857 86.1911 90.5445 86.4904 90.4192C87.9347 89.8143 89.3854 89.2236 90.8376 88.6367C91.048 88.5516 91.1581 88.4755 91.1216 88.2147C90.9113 86.7133 91.4452 85.5016 92.7281 84.6235C92.9955 84.4405 92.8882 84.2701 92.8155 84.0838C92.3791 82.9656 91.9351 81.8502 91.4946 80.7335C91.2304 80.0635 90.9561 79.3968 90.711 78.7203C90.6253 78.4838 90.5099 78.4039 90.2462 78.3983C88.7068 78.3653 87.6182 77.2104 87.6941 75.7161C87.7632 74.357 89.0421 73.3008 90.5094 73.4121C90.8102 73.4349 91.1046 73.5364 91.447 73.6115C92.1651 72.7879 92.9061 71.9391 93.6457 71.0893C93.9928 70.6904 94.3248 70.2786 94.688 69.8939C94.8725 69.6985 94.9008 69.5608 94.7616 69.3116C94.2436 68.3841 94.2998 67.4594 94.9537 66.6137C95.6209 65.7507 96.5533 65.4363 97.6274 65.6701C98.6899 65.9015 99.368 66.5875 99.585 67.6136C99.775 68.5121 99.5086 69.3182 98.7934 69.9505C98.0519 70.606 97.1771 70.7882 96.233 70.4886C95.9291 70.3922 95.7934 70.4559 95.6175 70.6607C94.6126 71.8313 93.6024 72.9979 92.583 74.1568C92.4206 74.3415 92.4371 74.4736 92.5501 74.675C93.1625 75.7673 92.9614 76.9279 92.0127 77.7867C91.8471 77.9367 91.7563 78.0415 91.8513 78.2801C92.5826 80.1173 93.297 81.9609 94.0176 83.8021C94.0478 83.8791 94.0878 83.9524 94.1291 84.0399C95.2645 83.8646 96.2993 84.0813 97.1862 84.77C98.3995 85.7122 98.866 86.9572 98.5398 88.4172C98.2121 89.8841 97.2267 90.8463 95.727 91.1817C94.2363 91.5152 92.9156 91.1033 91.9245 89.932C91.7138 89.6829 91.5583 89.6165 91.2471 89.7469C89.7108 90.3908 88.1653 91.0139 86.5906 91.6576C87.0801 93.4568 86.7688 95.1072 85.5856 96.5607C84.7063 97.6408 83.5224 98.2706 82.109 98.5557C81.4487 98.5846 80.8044 98.5846 80.119 98.5846Z" fill="white"/>
<path d="M82.1261 13.8852C85.8661 14.2778 87.1316 17.7794 86.7257 19.9285C86.3138 22.1094 84.5641 23.8138 82.2946 24.2463C82.1527 24.2733 82.0125 24.3086 81.8492 24.345C81.8492 25.669 81.8492 26.9877 81.8492 28.2866C82.3217 28.4854 82.8176 28.628 83.2398 28.8837C84.6936 29.7641 85.2808 31.2374 84.8722 32.9546C84.8024 33.2478 84.8918 33.3494 85.1203 33.4763C86.2325 34.0939 87.3391 34.7211 88.4425 35.3534C88.6534 35.4742 88.8022 35.4983 89.0219 35.3303C89.9312 34.6348 91.1169 34.5862 92.0415 35.1725C92.9888 35.7734 93.4268 36.8444 93.1534 37.892C92.8721 38.9701 91.9768 39.6835 90.8073 39.7964C90.6617 39.8105 90.4559 39.941 90.4065 40.0651C90.1824 40.6288 90.0006 41.2085 89.8108 41.7846C89.6349 42.3185 89.4683 42.8552 89.294 43.4018C90.0902 43.9635 90.5606 44.6763 90.5233 45.6564C90.4851 46.6584 89.8428 47.5341 88.8331 47.9106C87.8935 48.261 86.7445 48.0114 86.0496 47.3059C85.3356 46.5811 85.1133 45.4851 85.5251 44.602C85.9626 43.6637 86.7064 43.1152 87.7899 43.0689C88.0507 43.0578 88.134 42.9544 88.2025 42.7414C88.5219 41.748 88.8504 40.7572 89.1894 39.7698C89.2682 39.5402 89.2456 39.4175 89.0247 39.2484C88.2428 38.6502 87.9226 37.8428 88.0807 36.8912C88.126 36.6183 88.0605 36.4915 87.8209 36.3606C86.7425 35.7714 85.6648 35.1795 84.6096 34.5532C84.2772 34.3559 84.0903 34.3696 83.7995 34.6295C82.6357 35.6696 80.9863 35.906 79.612 35.2751C78.221 34.6365 77.3814 33.2656 77.4499 31.7447C77.5161 30.276 78.6198 28.9143 80.0843 28.4949C80.2373 28.4511 80.391 28.4093 80.57 28.3594C80.57 27.0255 80.57 25.6954 80.57 24.3316C79.6221 24.1719 78.713 23.8904 77.9361 23.306C76.131 21.9482 75.3325 20.1664 75.7551 17.9961C76.1835 15.7958 78.3862 13.4926 82.1261 13.8852Z" fill="white"/>
<path d="M113.107 56.8901C112.987 57.2702 112.871 57.6118 112.748 57.951C111.949 60.1423 109.622 61.5482 107.22 61.4475C103.049 61.2726 100.352 56.6068 102.968 52.977C102.992 52.9437 103.004 52.9023 103.038 52.8287C102.21 52.071 101.376 51.3081 100.542 50.5463C100.202 50.2367 99.8524 49.9377 99.5239 49.6179C99.3438 49.4426 99.2103 49.4225 98.9658 49.546C97.2122 50.4317 95.1297 49.6408 94.534 47.8826C94.1131 46.6405 94.5519 45.2818 95.6174 44.5274C96.7709 43.7109 98.1564 43.7058 99.3214 44.5148C99.4627 44.6129 99.6011 44.7148 99.762 44.8301C101.312 43.8858 102.868 42.9446 104.411 41.9833C104.506 41.9242 104.545 41.7006 104.525 41.5648C104.288 39.9116 105.47 38.551 107.141 38.5723C108.226 38.5861 109.189 39.2576 109.533 40.2397C109.904 41.2986 109.584 42.3846 108.705 43.0494C107.825 43.7149 106.582 43.7957 105.685 43.1728C105.329 42.9256 105.104 42.9674 104.773 43.1752C103.416 44.0264 102.041 44.8512 100.673 45.6869C100.588 45.7387 100.51 45.801 100.415 45.8681C100.691 46.7302 100.649 47.5625 100.213 48.3673C100.176 48.4359 100.211 48.5943 100.272 48.6508C101.471 49.7575 102.679 50.8553 103.892 51.9619C104.034 51.868 104.142 51.7991 104.247 51.7266C107.378 49.5629 111.734 50.9801 112.864 54.5315C112.928 54.73 112.986 54.9299 113.077 55.1423C113.107 55.7204 113.107 56.2855 113.107 56.8901Z" fill="white"/>
<path d="M80.1155 61.0118C80.4003 60.4071 80.6491 59.8205 80.9479 59.2586C81.121 58.9331 81.0766 58.7184 80.8268 58.4451C79.78 57.3001 80.0002 55.6329 81.2888 54.749C82.4143 53.9769 83.9843 54.2035 84.8464 55.2901C85.0486 55.545 85.2185 55.6022 85.5391 55.5175C86.7616 55.1944 87.9906 54.8919 89.2247 54.613C89.5531 54.5388 89.6694 54.3958 89.7183 54.0882C89.8735 53.1118 90.4671 52.4564 91.4159 52.1147C92.3817 51.7669 93.2633 51.9708 94.0234 52.6107C95.1594 53.567 95.1778 55.2851 94.0873 56.2905C92.9624 57.3277 91.201 57.2127 90.23 55.9994C89.9914 55.7013 89.7959 55.6876 89.4645 55.7747C88.2552 56.0925 87.0393 56.3873 85.8224 56.677C85.5475 56.7425 85.4214 56.8633 85.3632 57.1443C85.0667 58.5761 84.1159 59.2977 82.5857 59.3152C82.4483 59.3168 82.2423 59.4215 82.187 59.5331C81.6717 60.5733 81.1749 61.6224 80.6978 62.6794C80.6529 62.7787 80.7344 63.0032 80.8325 63.0795C82.0306 64.0125 82.6734 65.1825 82.6445 66.6962C82.6104 68.4803 81.4155 70.1294 79.6871 70.6976C77.7986 71.3185 75.7622 70.7629 74.6009 69.3101C72.4961 66.6769 73.9659 62.9169 77.3671 62.3004C77.9114 62.2017 78.5 62.2775 79.0607 62.337C79.3458 62.3673 79.4961 62.3231 79.606 62.0741C79.7601 61.7251 79.9346 61.3845 80.1155 61.0118Z" fill="white"/>
<path d="M107.507 76.7135C105.152 78.2067 102.285 76.89 101.683 74.5327C101.326 73.1366 101.894 71.6458 103.152 70.7277C104.295 69.8939 105.942 69.8023 107.201 70.5023C109.685 71.8838 109.852 75.0008 107.507 76.7135Z" fill="white"/>
<path d="M99.1887 31.3371C100.375 30.5082 101.731 30.4498 102.852 31.1606C103.932 31.8448 104.452 33.0885 104.176 34.3229C103.904 35.5359 102.796 36.5095 101.533 36.6443C100.238 36.7826 98.8984 36.1088 98.3941 35.0659C97.77 33.775 97.9879 32.4398 98.9718 31.5286C99.0349 31.4702 99.1005 31.4142 99.1887 31.3371Z" fill="white"/>
<path d="M78.5747 47.457C79.7701 47.5774 80.7006 48.3021 80.9443 49.2723C81.2255 50.3922 80.8236 51.435 79.8743 52.0485C78.9631 52.6374 77.734 52.5937 76.8426 51.9407C75.9946 51.3195 75.6281 50.2002 75.9518 49.2206C76.3012 48.1635 77.2306 47.4823 78.3598 47.4561C78.4182 47.4548 78.4766 47.4562 78.5747 47.457Z" fill="white"/>
<path d="M92.8627 21.7841C94.0572 20.2186 96.3777 20.4705 97.2572 21.9685C97.8832 23.0347 97.6537 24.3436 96.6864 25.1407C95.7886 25.8804 94.3768 25.9236 93.4463 25.2399C92.4375 24.4987 92.1151 23.191 92.6749 22.1042C92.7267 22.0037 92.79 21.9088 92.8627 21.7841Z" fill="white"/>
<path d="M86.8838 61.5769C87.2177 60.5116 87.9444 59.8915 89.0334 59.7392C90.0852 59.5921 90.9607 59.9629 91.5593 60.8261C92.146 61.6724 92.1665 62.5639 91.6625 63.4567C91.1126 64.4308 89.934 64.9122 88.7905 64.6441C87.6225 64.3702 86.8377 63.4551 86.8142 62.3216C86.8093 62.0851 86.8518 61.8476 86.8838 61.5769Z" fill="white"/>
<path d="M85.6148 86.2612C84.3537 86.1606 83.3618 85.2586 83.2246 84.122C83.0746 82.8794 83.831 81.6956 84.9818 81.372C86.2051 81.0281 87.5649 81.5352 88.0992 82.5771C89.0881 84.5055 87.5036 86.4155 85.6148 86.2612Z" fill="white"/>
<path d="M74.4849 77.958C73.2531 76.9074 73.3505 75.0163 74.7253 74.0542C75.5236 73.4955 76.717 73.4456 77.5686 73.9612C78.5189 74.5367 78.9922 75.5556 78.7744 76.5572C78.3484 78.5165 76.0344 79.2876 74.4849 77.958Z" fill="white"/>
<path d="M73.772 39.0378C74.1982 37.9035 75.3613 37.2026 76.5232 37.3535C77.8085 37.5203 78.7171 38.4606 78.8248 39.7353C78.916 40.8157 78.1132 41.9731 76.9742 42.2546C76.0095 42.493 75.0887 42.3476 74.3623 41.6001C73.6531 40.8704 73.4669 40.0228 73.772 39.0378Z" fill="white"/>
<path d="M90.5596 29.4326C89.7726 30.3364 88.5413 30.4842 87.6577 29.8033C86.8007 29.143 86.636 27.9305 87.2873 27.0781C87.9397 26.2242 89.1886 26.0331 90.0952 26.6483C91.0322 27.2842 91.233 28.43 90.5596 29.4326Z" fill="white"/>
<path d="M76.5159 83.3227C77.1256 82.7787 77.7825 82.7193 78.3472 83.1367C78.8524 83.5101 79.0203 84.2295 78.7274 84.7663C78.3574 85.4445 77.5019 85.6716 76.8224 85.272C76.115 84.856 75.9753 84.036 76.5159 83.3227Z" fill="white"/>
<path d="M80.7456 44.7256C80.1449 44.3486 80.052 43.8186 80.1849 43.2301C80.2836 42.7926 80.8448 42.375 81.3404 42.3277C81.8822 42.2759 82.4155 42.576 82.6867 43.0853C82.9295 43.5413 82.812 44.1867 82.418 44.5615C81.98 44.9782 81.3955 45.0424 80.7456 44.7256Z" fill="white"/>
<path d="M96.7805 40.8357C96.0534 40.312 95.9071 39.5708 96.3847 38.9535C96.8164 38.3955 97.6751 38.2571 98.2532 38.6523C98.8425 39.055 98.9837 39.9008 98.5604 40.492C98.1941 41.0036 97.5041 41.1457 96.7805 40.8357Z" fill="white"/>
<path d="M74.4875 27.7939C73.721 27.4391 73.431 26.7221 73.7434 26.0308C73.9992 25.4649 74.7604 25.1387 75.3514 25.3418C76.1009 25.5994 76.4789 26.2918 76.2487 26.9851C76.0204 27.6723 75.3392 27.9945 74.4875 27.7939Z" fill="white"/>
<path d="M97.3948 73.8774C98.1971 73.8536 98.7293 74.1861 98.9119 74.7958C99.0845 75.3726 98.8353 75.9828 98.2878 76.2807C97.8159 76.5375 97.3303 76.5318 96.8802 76.2438C96.3812 75.9246 96.1829 75.447 96.3038 74.8883C96.421 74.3464 96.7958 74.0113 97.3948 73.8774Z" fill="white"/>
<path d="M98.2872 61.3929C98.1494 62.1099 97.7644 62.5138 97.164 62.6045C96.5844 62.6922 96.0443 62.4428 95.7648 61.9586C95.488 61.4788 95.5435 60.937 95.9137 60.5074C96.2621 60.1031 96.8156 59.939 97.3296 60.0877C97.8823 60.2476 98.2369 60.7173 98.2872 61.3929Z" fill="white"/>
<path d="M85.1903 52.3166C84.9012 51.6836 84.9723 51.1623 85.379 50.7713C85.8092 50.3579 86.3687 50.2515 86.9044 50.4813C87.3993 50.6936 87.7235 51.2067 87.6973 51.7363C87.6716 52.2582 87.297 52.7265 86.7673 52.8991C86.1897 53.0872 85.6809 52.9058 85.1903 52.3166Z" fill="white"/>
<path d="M81.3728 77.0061C81.9373 76.6863 82.4616 76.718 82.9445 77.0855C83.3887 77.4235 83.5131 77.8918 83.3962 78.4089C83.2751 78.9447 82.8905 79.2436 82.3519 79.3646C81.8103 79.4863 81.1691 79.1855 80.9229 78.7052C80.6089 78.0926 80.761 77.4885 81.3728 77.0061Z" fill="white"/>
<path d="M96.7299 56.565C96.5397 55.7941 96.9053 55.1306 97.6039 54.9292C98.3005 54.7284 99.0307 55.086 99.2576 55.7391C99.4982 56.4316 99.1583 57.1391 98.4647 57.3894C97.7586 57.6442 97.0652 57.3257 96.7299 56.565Z" fill="white"/>
<path d="M85.14 70.9775C85.5538 71.462 85.6185 71.9612 85.3222 72.4871C85.0702 72.9344 84.5113 73.2072 83.9988 73.1356C83.4284 73.0559 83.0415 72.7464 82.8601 72.2173C82.6784 71.6877 82.9239 71.0709 83.4316 70.7458C83.9208 70.4326 84.5858 70.5149 85.14 70.9775Z" fill="white"/>
<path d="M77.3598 56.6789C77.2727 57.4427 76.8445 57.895 76.1408 58.0019C75.6254 58.0801 74.9576 57.6888 74.7504 57.169C74.5548 56.6781 74.6509 56.2319 75.0179 55.8411C75.4123 55.4211 75.8981 55.3015 76.4466 55.4755C77.0211 55.6578 77.2941 56.0805 77.3598 56.6789Z" fill="white"/>
<path d="M102.937 66.0691C102.172 65.8633 101.749 65.198 101.916 64.5127C102.075 63.8617 102.812 63.4093 103.488 63.5479C104.205 63.6948 104.704 64.3687 104.569 65.0066C104.405 65.7783 103.766 66.2054 102.937 66.0691Z" fill="white"/>
<path d="M95.0071 31.0636C94.0725 30.5609 93.8268 29.8296 94.3203 29.1093C94.6944 28.5631 95.4108 28.3736 96.0113 28.6621C96.6127 28.951 96.9237 29.64 96.7131 30.2167C96.479 30.8574 95.8326 31.2239 95.1696 31.0921C95.1268 31.0836 95.0833 31.0782 95.0071 31.0636Z" fill="white"/>
<path d="M82.2702 38.7208C82.5931 37.4955 83.935 37.458 84.5137 38.0087C84.9329 38.4075 85.0566 39.0786 84.7824 39.5637C84.4969 40.0686 83.8806 40.3363 83.2955 40.2095C82.6949 40.0794 82.2828 39.6029 82.2597 39.009C82.2565 38.9248 82.2635 38.8403 82.2702 38.7208Z" fill="white"/>
<path d="M99.9732 82.0413C99.3894 82.4195 98.8293 82.4248 98.2859 82.0414C97.8605 81.7414 97.6757 81.1707 97.8206 80.684C97.9706 80.1804 98.4777 79.7906 99.0369 79.7491C99.5829 79.7085 100.102 80.0026 100.344 80.49C100.607 81.0176 100.496 81.5059 99.9732 82.0413Z" fill="white"/>
<path d="M90.3083 69.5838C89.7704 70.0064 89.126 70.075 88.6238 69.7833C88.1651 69.5169 87.9465 69.0148 88.0351 68.4796C88.1258 67.9326 88.4456 67.5981 88.9936 67.4526C89.5053 67.3167 89.9672 67.4353 90.3127 67.7978C90.6798 68.1829 90.8007 68.6599 90.5799 69.1693C90.5193 69.3089 90.4152 69.4311 90.3083 69.5838Z" fill="white"/>
</g>
<path d="M161.153 49.0828H153.46V60.7872H147.36V23.1462H161.153C169.689 23.1462 173.956 27.3591 173.956 35.7848C173.956 40.1076 172.876 43.4046 170.714 45.6759C168.59 47.9472 165.403 49.0828 161.153 49.0828ZM153.46 43.8076H161.098C165.494 43.8076 167.692 41.1333 167.692 35.7848C167.692 33.2205 167.161 31.3521 166.099 30.1799C165.036 29.0076 163.369 28.4215 161.098 28.4215H153.46V43.8076ZM198.18 38.9719C193.857 38.3858 190.725 38.0927 188.783 38.0927C186.842 38.0927 185.486 38.3308 184.717 38.8071C183.984 39.2467 183.618 39.961 183.618 40.9501C183.618 41.9392 184.021 42.6353 184.827 43.0383C185.669 43.4412 187.611 43.9175 190.652 44.467C193.729 44.9798 195.908 45.8041 197.191 46.9397C198.473 48.0754 199.114 50.0902 199.114 52.9843C199.114 55.8783 198.18 58.0031 196.311 59.3585C194.48 60.714 191.787 61.3917 188.234 61.3917C185.999 61.3917 183.178 61.0803 179.771 60.4575L178.068 60.1828L178.288 55.1823C182.684 55.7684 185.853 56.0615 187.794 56.0615C189.736 56.0615 191.109 55.8234 191.915 55.3471C192.758 54.8709 193.179 54.0833 193.179 52.9843C193.179 51.8853 192.776 51.1343 191.97 50.7313C191.201 50.2917 189.314 49.8338 186.31 49.3576C183.343 48.8447 181.163 48.0571 179.771 46.9947C178.379 45.9323 177.683 43.9907 177.683 41.1699C177.683 38.3492 178.636 36.2427 180.541 34.8506C182.482 33.4586 184.955 32.7625 187.959 32.7625C190.304 32.7625 193.179 33.0556 196.586 33.6417L198.29 33.9714L198.18 38.9719ZM201.967 33.312H207.846L213.671 55.6768H215.155L220.979 33.312H226.914L216.473 72.6016H210.594L213.891 60.7872H209.165L201.967 33.312ZM241.333 32.7076C243.275 32.7076 245.564 32.964 248.202 33.4769L249.576 33.7516L249.356 38.4774C246.462 38.1843 244.319 38.0378 242.927 38.0378C240.142 38.0378 238.274 38.6605 237.322 39.9061C236.369 41.1516 235.893 43.4962 235.893 46.9397C235.893 50.3833 236.351 52.7645 237.267 54.0833C238.182 55.4021 240.087 56.0615 242.981 56.0615L249.411 55.6219L249.576 60.4026C245.876 61.062 243.091 61.3917 241.223 61.3917C237.047 61.3917 234.098 60.2744 232.376 58.0397C230.691 55.7684 229.848 52.0684 229.848 46.9397C229.848 41.811 230.746 38.166 232.541 36.0046C234.336 33.8066 237.267 32.7076 241.333 32.7076ZM261.356 60.7872H255.366V21.8824H261.356V34.7407C264.067 33.3853 266.576 32.7076 268.884 32.7076C272.547 32.7076 275.039 33.7516 276.357 35.8398C277.713 37.8912 278.391 41.2982 278.391 46.0605V60.7872H272.401V46.2254C272.401 43.2581 272.09 41.1516 271.467 39.9061C270.844 38.6605 269.525 38.0378 267.51 38.0378C265.752 38.0378 263.994 38.3308 262.235 38.917L261.356 39.2467V60.7872ZM307.069 60.7872H285.803V23.421H293.386V54.0833H307.069V60.7872ZM332.109 41.8843V53.314C332.182 54.1932 332.329 54.816 332.548 55.1823C332.768 55.512 333.226 55.7501 333.922 55.8966L333.702 61.4466C331.834 61.4466 330.332 61.3184 329.196 61.062C328.097 60.8055 326.98 60.2927 325.844 59.5234C323.207 60.8055 320.514 61.4466 317.767 61.4466C312.089 61.4466 309.249 58.4427 309.249 52.4348C309.249 49.5041 310.037 47.4343 311.612 46.2254C313.188 44.9798 315.605 44.2472 318.866 44.0274L324.745 43.5878V41.8843C324.745 40.7487 324.489 39.9794 323.976 39.5764C323.463 39.1368 322.639 38.917 321.503 38.917L311.173 39.3566L310.953 34.2462C314.873 33.1838 318.591 32.6526 322.108 32.6526C325.661 32.6526 328.207 33.3853 329.746 34.8506C331.321 36.316 332.109 38.6605 332.109 41.8843ZM319.745 49.1377C317.694 49.3209 316.668 50.4199 316.668 52.4348C316.668 54.4496 317.565 55.457 319.36 55.457C320.752 55.457 322.273 55.2372 323.921 54.7976L324.745 54.5778V48.6981L319.745 49.1377ZM352.426 32.6526C356.273 32.6526 359.075 33.715 360.834 35.8398C362.629 37.9279 363.526 41.6828 363.526 47.1046C363.526 52.5264 362.501 56.2813 360.449 58.3694C358.398 60.4209 354.862 61.4466 349.844 61.4466C348.268 61.4466 345.393 61.2635 341.216 60.8971L339.128 60.6773V22.322H346.492V34.1363C348.836 33.1472 350.814 32.6526 352.426 32.6526ZM349.844 54.8526C352.298 54.8526 353.947 54.2665 354.789 53.0942C355.632 51.8853 356.053 49.7422 356.053 46.665C356.053 41.7194 354.514 39.2467 351.437 39.2467C349.972 39.2467 348.58 39.4298 347.261 39.7962L346.492 39.961V54.6328C348.177 54.7793 349.294 54.8526 349.844 54.8526Z" fill="white"/>
<path d="M234.164 84.6079H231.172V89.1597H228.8V74.5215H234.164C237.483 74.5215 239.143 76.1598 239.143 79.4365C239.143 81.1176 238.722 82.3998 237.882 83.283C237.056 84.1663 235.816 84.6079 234.164 84.6079ZM231.172 82.5565H234.142C235.852 82.5565 236.707 81.5165 236.707 79.4365C236.707 78.4393 236.5 77.7127 236.087 77.2568C235.674 76.8009 235.025 76.573 234.142 76.573H231.172V82.5565ZM248.563 80.6759C246.882 80.448 245.664 80.334 244.909 80.334C244.154 80.334 243.626 80.4266 243.327 80.6118C243.042 80.7828 242.9 81.0606 242.9 81.4452C242.9 81.8299 243.057 82.1006 243.37 82.2573C243.698 82.414 244.453 82.5992 245.635 82.8129C246.832 83.0123 247.68 83.3329 248.178 83.7745C248.677 84.2162 248.926 84.9997 248.926 86.1252C248.926 87.2507 248.563 88.0769 247.836 88.6041C247.124 89.1312 246.077 89.3947 244.695 89.3947C243.826 89.3947 242.729 89.2736 241.404 89.0315L240.742 88.9246L240.827 86.98C242.537 87.2079 243.769 87.3219 244.524 87.3219C245.279 87.3219 245.813 87.2293 246.127 87.0441C246.454 86.8589 246.618 86.5526 246.618 86.1252C246.618 85.6978 246.461 85.4057 246.148 85.249C245.849 85.0781 245.115 84.9 243.947 84.7148C242.793 84.5153 241.945 84.209 241.404 83.7959C240.863 83.3828 240.592 82.6277 240.592 81.5307C240.592 80.4337 240.962 79.6146 241.703 79.0732C242.458 78.5319 243.42 78.2612 244.588 78.2612C245.5 78.2612 246.618 78.3751 247.943 78.6031L248.606 78.7313L248.563 80.6759ZM250.035 78.4749H252.322L254.587 87.1723H255.164L257.429 78.4749H259.737L255.677 93.7541H253.39L254.673 89.1597H252.835L250.035 78.4749ZM265.345 78.2398C266.1 78.2398 266.99 78.3395 268.016 78.539L268.55 78.6458L268.465 80.4836C267.339 80.3696 266.506 80.3127 265.964 80.3127C264.882 80.3127 264.155 80.5548 263.785 81.0392C263.414 81.5236 263.229 82.4354 263.229 83.7745C263.229 85.1137 263.407 86.0397 263.763 86.5526C264.119 87.0654 264.86 87.3219 265.986 87.3219L268.486 87.1509L268.55 89.0101C267.111 89.2665 266.028 89.3947 265.302 89.3947C263.678 89.3947 262.531 88.9602 261.861 88.0912C261.206 87.2079 260.878 85.769 260.878 83.7745C260.878 81.78 261.227 80.3625 261.925 79.522C262.624 78.6672 263.763 78.2398 265.345 78.2398ZM273.131 89.1597H270.802V74.03H273.131V79.0305C274.186 78.5034 275.161 78.2398 276.059 78.2398C277.484 78.2398 278.452 78.6458 278.965 79.4579C279.492 80.2557 279.756 81.5806 279.756 83.4326V89.1597H277.427V83.4967C277.427 82.3428 277.306 81.5236 277.063 81.0392C276.821 80.5548 276.308 80.3127 275.525 80.3127C274.841 80.3127 274.157 80.4266 273.473 80.6546L273.131 80.7828V89.1597ZM283.045 79.6288C283.785 78.7028 285.011 78.2398 286.72 78.2398C288.43 78.2398 289.648 78.7028 290.374 79.6288C291.115 80.5548 291.486 81.9439 291.486 83.7959C291.486 85.6479 291.129 87.0441 290.417 87.9843C289.705 88.9246 288.473 89.3947 286.72 89.3947C284.968 89.3947 283.736 88.9246 283.023 87.9843C282.311 87.0441 281.955 85.6479 281.955 83.7959C281.955 81.9439 282.318 80.5548 283.045 79.6288ZM284.797 86.5739C285.125 87.1438 285.766 87.4287 286.72 87.4287C287.675 87.4287 288.316 87.1438 288.643 86.5739C288.971 86.0041 289.135 85.071 289.135 83.7745C289.135 82.4781 288.957 81.5592 288.601 81.0179C288.259 80.4765 287.632 80.2058 286.72 80.2058C285.808 80.2058 285.174 80.4765 284.818 81.0179C284.476 81.5592 284.305 82.4781 284.305 83.7745C284.305 85.071 284.469 86.0041 284.797 86.5739ZM293.928 89.1597V74.03H296.257V89.1597H293.928ZM299.781 79.6288C300.522 78.7028 301.747 78.2398 303.457 78.2398C305.167 78.2398 306.385 78.7028 307.111 79.6288C307.852 80.5548 308.222 81.9439 308.222 83.7959C308.222 85.6479 307.866 87.0441 307.154 87.9843C306.442 88.9246 305.209 89.3947 303.457 89.3947C301.705 89.3947 300.472 88.9246 299.76 87.9843C299.048 87.0441 298.692 85.6479 298.692 83.7959C298.692 81.9439 299.055 80.5548 299.781 79.6288ZM301.534 86.5739C301.861 87.1438 302.502 87.4287 303.457 87.4287C304.411 87.4287 305.053 87.1438 305.38 86.5739C305.708 86.0041 305.872 85.071 305.872 83.7745C305.872 82.4781 305.694 81.5592 305.337 81.0179C304.996 80.4765 304.369 80.2058 303.457 80.2058C302.545 80.2058 301.911 80.4765 301.555 81.0179C301.213 81.5592 301.042 82.4781 301.042 83.7745C301.042 85.071 301.206 86.0041 301.534 86.5739ZM319.875 90.6128C319.875 92.9492 318.186 94.1174 314.81 94.1174C313.186 94.1174 311.982 93.8966 311.199 93.455C310.415 93.0133 310.023 92.2084 310.023 91.0402C310.023 90.5131 310.151 90.0572 310.408 89.6725C310.664 89.3021 311.077 88.8961 311.647 88.4545C311.177 88.1411 310.942 87.6211 310.942 86.8945C310.942 86.6096 311.134 86.1466 311.519 85.5055L311.711 85.1849C310.686 84.5723 310.173 83.5038 310.173 81.9795C310.173 80.6973 310.558 79.757 311.327 79.1587C312.096 78.5603 313.136 78.2612 314.447 78.2612C315.074 78.2612 315.693 78.3324 316.306 78.4749L316.626 78.539L319.939 78.4535V80.334L318.165 80.2272C318.55 80.7258 318.742 81.3099 318.742 81.9795C318.742 83.3756 318.386 84.3444 317.674 84.8857C316.976 85.4129 315.879 85.6764 314.383 85.6764C314.012 85.6764 313.699 85.6479 313.442 85.5909C313.243 86.0753 313.143 86.4529 313.143 86.7235C313.143 86.98 313.271 87.158 313.528 87.2578C313.799 87.3575 314.44 87.4145 315.451 87.4287C317.146 87.443 318.308 87.6709 318.934 88.1126C319.561 88.5542 319.875 89.3876 319.875 90.6128ZM312.31 90.8265C312.31 91.3251 312.509 91.6813 312.908 91.895C313.307 92.1087 313.991 92.2155 314.96 92.2155C316.683 92.2155 317.545 91.724 317.545 90.741C317.545 90.1854 317.389 89.8292 317.075 89.6725C316.776 89.5301 316.171 89.4517 315.259 89.4375L313.165 89.3093C312.851 89.5657 312.63 89.8008 312.502 90.0145C312.374 90.2424 312.31 90.5131 312.31 90.8265ZM312.481 81.9795C312.481 82.6348 312.637 83.1192 312.951 83.4326C313.264 83.7318 313.77 83.8814 314.468 83.8814C315.166 83.8814 315.665 83.7318 315.964 83.4326C316.277 83.1192 316.434 82.6348 316.434 81.9795C316.434 81.3241 316.277 80.8469 315.964 80.5477C315.651 80.2343 315.145 80.0776 314.447 80.0776C313.136 80.0776 312.481 80.7116 312.481 81.9795ZM321.764 89.1597V78.4749H324.093V89.1597H321.764ZM321.764 76.6585V74.201H324.093V76.6585H321.764ZM330.914 78.2398C331.669 78.2398 332.56 78.3395 333.585 78.539L334.12 78.6458L334.034 80.4836C332.909 80.3696 332.075 80.3127 331.534 80.3127C330.451 80.3127 329.725 80.5548 329.354 81.0392C328.984 81.5236 328.799 82.4354 328.799 83.7745C328.799 85.1137 328.977 86.0397 329.333 86.5526C329.689 87.0654 330.43 87.3219 331.555 87.3219L334.056 87.1509L334.12 89.0101C332.681 89.2665 331.598 89.3947 330.871 89.3947C329.247 89.3947 328.101 88.9602 327.431 88.0912C326.776 87.2079 326.448 85.769 326.448 83.7745C326.448 81.78 326.797 80.3625 327.495 79.522C328.193 78.6672 329.333 78.2398 330.914 78.2398ZM344.278 81.7658V86.6381C344.293 86.9515 344.371 87.1865 344.513 87.3433C344.67 87.4857 344.905 87.5783 345.219 87.6211L345.155 89.3947C343.929 89.3947 342.982 89.1312 342.312 88.6041C341.173 89.1312 340.026 89.3947 338.872 89.3947C336.749 89.3947 335.688 88.2621 335.688 85.997C335.688 84.9142 335.973 84.1307 336.543 83.6463C337.127 83.1619 338.017 82.8699 339.214 82.7702L341.97 82.5351V81.7658C341.97 81.1959 341.842 80.797 341.586 80.5691C341.344 80.3411 340.98 80.2272 340.496 80.2272C339.584 80.2272 338.444 80.2842 337.077 80.3981L336.393 80.4409L336.308 78.7954C337.86 78.425 339.285 78.2398 340.581 78.2398C341.892 78.2398 342.832 78.5247 343.402 79.0946C343.986 79.6502 344.278 80.5406 344.278 81.7658ZM339.492 84.4156C338.509 84.5011 338.017 85.0353 338.017 86.0183C338.017 87.0013 338.452 87.4928 339.321 87.4928C340.033 87.4928 340.788 87.3789 341.586 87.1509L341.97 87.0227V84.1806L339.492 84.4156ZM347.331 89.1597V74.03H349.66V89.1597H347.331ZM362.496 89.3947C360.359 89.3947 358.906 88.8035 358.136 87.6211C357.381 86.4386 357.004 84.494 357.004 81.7872C357.004 79.0803 357.388 77.1571 358.158 76.0174C358.927 74.8634 360.373 74.2864 362.496 74.2864C363.764 74.2864 365.16 74.4645 366.684 74.8207L366.599 76.7439C365.317 76.516 364.034 76.402 362.752 76.402C361.47 76.402 360.601 76.7867 360.145 77.556C359.689 78.311 359.461 79.7428 359.461 81.8513C359.461 83.9455 359.682 85.3772 360.124 86.1466C360.565 86.9016 361.427 87.2791 362.709 87.2791C363.992 87.2791 365.288 87.1723 366.599 86.9586L366.663 88.9246C365.195 89.238 363.806 89.3947 362.496 89.3947ZM371.256 89.1597H368.927V74.03H371.256V79.0305C372.31 78.5034 373.286 78.2398 374.184 78.2398C375.608 78.2398 376.577 78.6458 377.09 79.4579C377.617 80.2557 377.881 81.5806 377.881 83.4326V89.1597H375.551V83.4967C375.551 82.3428 375.43 81.5236 375.188 81.0392C374.946 80.5548 374.433 80.3127 373.65 80.3127C372.966 80.3127 372.282 80.4266 371.598 80.6546L371.256 80.7828V89.1597ZM388.499 81.7658V86.6381C388.514 86.9515 388.592 87.1865 388.734 87.3433C388.891 87.4857 389.126 87.5783 389.44 87.6211L389.375 89.3947C388.15 89.3947 387.203 89.1312 386.533 88.6041C385.394 89.1312 384.247 89.3947 383.093 89.3947C380.97 89.3947 379.909 88.2621 379.909 85.997C379.909 84.9142 380.194 84.1307 380.763 83.6463C381.348 83.1619 382.238 82.8699 383.435 82.7702L386.191 82.5351V81.7658C386.191 81.1959 386.063 80.797 385.807 80.5691C385.564 80.3411 385.201 80.2272 384.717 80.2272C383.805 80.2272 382.665 80.2842 381.298 80.3981L380.614 80.4409L380.528 78.7954C382.081 78.425 383.506 78.2398 384.802 78.2398C386.113 78.2398 387.053 78.5247 387.623 79.0946C388.207 79.6502 388.499 80.5406 388.499 81.7658ZM383.712 84.4156C382.729 84.5011 382.238 85.0353 382.238 86.0183C382.238 87.0013 382.672 87.4928 383.542 87.4928C384.254 87.4928 385.009 87.3789 385.807 87.1509L386.191 87.0227V84.1806L383.712 84.4156ZM393.753 89.1597H391.423V78.4749H393.731V79.1373C394.771 78.539 395.754 78.2398 396.68 78.2398C398.105 78.2398 399.074 78.6458 399.587 79.4579C400.114 80.2557 400.377 81.5806 400.377 83.4326V89.1597H398.069V83.4967C398.069 82.3428 397.941 81.5236 397.685 81.0392C397.442 80.5548 396.937 80.3127 396.167 80.3127C395.441 80.3127 394.743 80.4551 394.073 80.74L393.753 80.8683V89.1597ZM412.428 90.6128C412.428 92.9492 410.739 94.1174 407.363 94.1174C405.739 94.1174 404.535 93.8966 403.751 93.455C402.968 93.0133 402.576 92.2084 402.576 91.0402C402.576 90.5131 402.704 90.0572 402.961 89.6725C403.217 89.3021 403.63 88.8961 404.2 88.4545C403.73 88.1411 403.495 87.6211 403.495 86.8945C403.495 86.6096 403.687 86.1466 404.072 85.5055L404.264 85.1849C403.239 84.5723 402.726 83.5038 402.726 81.9795C402.726 80.6973 403.11 79.757 403.88 79.1587C404.649 78.5603 405.689 78.2612 407 78.2612C407.626 78.2612 408.246 78.3324 408.859 78.4749L409.179 78.539L412.492 78.4535V80.334L410.718 80.2272C411.103 80.7258 411.295 81.3099 411.295 81.9795C411.295 83.3756 410.939 84.3444 410.226 84.8857C409.528 85.4129 408.431 85.6764 406.936 85.6764C406.565 85.6764 406.252 85.6479 405.995 85.5909C405.796 86.0753 405.696 86.4529 405.696 86.7235C405.696 86.98 405.824 87.158 406.081 87.2578C406.351 87.3575 406.993 87.4145 408.004 87.4287C409.699 87.443 410.86 87.6709 411.487 88.1126C412.114 88.5542 412.428 89.3876 412.428 90.6128ZM404.863 90.8265C404.863 91.3251 405.062 91.6813 405.461 91.895C405.86 92.1087 406.544 92.2155 407.513 92.2155C409.236 92.2155 410.098 91.724 410.098 90.741C410.098 90.1854 409.942 89.8292 409.628 89.6725C409.329 89.5301 408.723 89.4517 407.812 89.4375L405.717 89.3093C405.404 89.5657 405.183 89.8008 405.055 90.0145C404.927 90.2424 404.863 90.5131 404.863 90.8265ZM405.034 81.9795C405.034 82.6348 405.19 83.1192 405.504 83.4326C405.817 83.7318 406.323 83.8814 407.021 83.8814C407.719 83.8814 408.218 83.7318 408.517 83.4326C408.83 83.1192 408.987 82.6348 408.987 81.9795C408.987 81.3241 408.83 80.8469 408.517 80.5477C408.203 80.2343 407.698 80.0776 407 80.0776C405.689 80.0776 405.034 80.7116 405.034 81.9795ZM421.924 87.2364L422.522 87.1723L422.565 88.9032C420.941 89.2309 419.502 89.3947 418.248 89.3947C416.667 89.3947 415.527 88.9602 414.829 88.0912C414.145 87.2222 413.804 85.8331 413.804 83.9241C413.804 80.1346 415.349 78.2398 418.441 78.2398C421.432 78.2398 422.928 79.871 422.928 83.1334L422.779 84.8003H416.154C416.168 85.6835 416.361 86.3318 416.731 86.7449C417.102 87.158 417.793 87.3646 418.804 87.3646C419.816 87.3646 420.855 87.3219 421.924 87.2364ZM420.642 83.0052C420.642 81.951 420.471 81.2173 420.129 80.8042C419.801 80.3768 419.239 80.1631 418.441 80.1631C417.643 80.1631 417.059 80.3839 416.688 80.8255C416.332 81.2672 416.147 81.9937 416.133 83.0052H420.642ZM438.347 89.1597H430.141V74.5215H432.513V87.0441H438.347V89.1597ZM447.913 81.7658V86.6381C447.927 86.9515 448.005 87.1865 448.148 87.3433C448.304 87.4857 448.539 87.5783 448.853 87.6211L448.789 89.3947C447.564 89.3947 446.616 89.1312 445.947 88.6041C444.807 89.1312 443.66 89.3947 442.506 89.3947C440.383 89.3947 439.322 88.2621 439.322 85.997C439.322 84.9142 439.607 84.1307 440.177 83.6463C440.761 83.1619 441.651 82.8699 442.848 82.7702L445.605 82.5351V81.7658C445.605 81.1959 445.476 80.797 445.22 80.5691C444.978 80.3411 444.615 80.2272 444.13 80.2272C443.218 80.2272 442.079 80.2842 440.711 80.3981L440.027 80.4409L439.942 78.7954C441.495 78.425 442.919 78.2398 444.216 78.2398C445.526 78.2398 446.467 78.5247 447.036 79.0946C447.621 79.6502 447.913 80.5406 447.913 81.7658ZM443.126 84.4156C442.143 84.5011 441.651 85.0353 441.651 86.0183C441.651 87.0013 442.086 87.4928 442.955 87.4928C443.667 87.4928 444.422 87.3789 445.22 87.1509L445.605 87.0227V84.1806L443.126 84.4156ZM455.816 78.2398C457.283 78.2398 458.337 78.653 458.979 79.4792C459.634 80.2913 459.962 81.7373 459.962 83.8173C459.962 85.8972 459.577 87.3504 458.808 88.1767C458.038 88.9887 456.685 89.3947 454.747 89.3947C454.078 89.3947 453.016 89.3306 451.563 89.2024L450.837 89.1383V74.03H453.145V78.8809C454.128 78.4535 455.018 78.2398 455.816 78.2398ZM454.747 87.3219C455.887 87.3219 456.642 87.0583 457.013 86.5312C457.397 85.9898 457.59 85.0781 457.59 83.7959C457.59 82.5137 457.426 81.6162 457.098 81.1033C456.785 80.5762 456.265 80.3127 455.538 80.3127C454.854 80.3127 454.17 80.4195 453.487 80.6332L453.145 80.74V87.2364C453.928 87.2934 454.462 87.3219 454.747 87.3219Z" fill="white"/>
<g clip-path="url(#clip1_283_478)">
<path fill-rule="evenodd" clip-rule="evenodd" d="M367.926 19.6453H460.124V65.6996H367.926V19.6453ZM420.345 33.428C419.681 34.1213 418.531 35.3327 418.535 37.2769V48.8887C418.535 50.3919 418.952 51.1727 419.899 52.113C420.81 53.0173 421.834 53.4326 423.118 53.4326H429.048V49.3246H424.074C423.614 49.3246 423.319 49.1444 423.015 48.8012C422.583 48.3122 422.646 47.5486 422.646 47.5486V44.7138H427.971L427.964 40.599L422.646 40.5955V38.3168C422.646 38.3168 422.672 37.6252 423.295 36.8719C423.918 36.1186 424.906 36.0242 424.906 36.0242L429.048 36.0191V31.9094H423.586C422.19 31.9094 420.92 32.8309 420.345 33.428ZM442.348 53.4348C443.774 53.4424 447.934 53.4644 447.961 48.6588H447.959V36.8771C447.951 31.907 443.468 31.9102 442.275 31.9111L434.12 31.9111V53.4343H442.202C442.247 53.4343 442.295 53.4346 442.348 53.4348ZM443.844 46.356C443.844 46.356 444.165 49.3246 441.403 49.3212V49.3229H438.233V36.0242H441.428C443.954 36.0227 443.88 38.5107 443.852 39.4503C443.85 39.5317 443.848 39.6014 443.848 39.6569L443.844 46.356ZM409.483 36.0225H406.561C404.413 36.0208 403.865 37.6595 403.865 39.5248V53.4343H399.754V36.9817C399.761 34.0063 402.664 31.9111 405.64 31.9111H413.595V53.4343H409.483V36.0225ZM385.112 49.3229H388.067L388.069 49.3246C390.203 49.3263 390.74 47.7202 390.742 45.8687V31.9111H394.853V48.4066C394.845 51.3631 391.964 53.4343 389.011 53.4343H381.023V31.9111H385.133L385.112 49.3229Z" fill="white"/>
</g>
<defs>
<clipPath id="clip0_283_478">
<rect width="84.1053" height="85" fill="white" transform="translate(28.9141 13.5)"/>
</clipPath>
<clipPath id="clip1_283_478">
<rect x="371.753" y="22.8292" width="85.4784" height="39.6864" rx="7.632" fill="white"/>
</clipPath>
</defs>
</svg>
