<svg width="501" height="112" viewBox="0 0 501 112" fill="none" xmlns="http://www.w3.org/2000/svg">
<g clip-path="url(#clip0_283_298)">
<path d="M52.9232 13.585C53.1368 13.6322 53.3076 13.6898 53.4832 13.7253C57.2094 14.4781 59.6995 17.4442 59.7011 21.1596C59.7054 31.017 59.7025 40.8744 59.7026 50.7318C59.7027 53.4918 59.7038 56.2519 59.7029 59.012C59.7019 62.1275 57.0671 64.9701 53.8839 65.3221C52.8934 65.4316 51.9275 65.3605 50.9277 65.1107C50.7066 65.7795 50.4877 66.442 50.2488 67.1652C51.9437 67.6928 53.6254 67.7184 55.3183 67.2735C57.0028 66.8308 58.4317 65.9659 59.6672 64.6738C59.683 64.8393 59.7015 64.9424 59.7015 65.0456C59.7028 73.706 59.7066 82.3664 59.7003 91.0268C59.6981 94.1739 57.869 96.8619 54.913 98.0309C54.3052 98.2713 53.636 98.3645 52.9795 98.5553C52.3263 98.585 51.6889 98.585 50.9991 98.5546C50.8072 98.4901 50.6687 98.4511 50.5279 98.4227C48.8283 98.0802 47.4142 97.2588 46.2779 95.9883C45.3586 94.9605 44.7898 93.7595 44.5229 92.4347C44.4726 92.4224 44.4442 92.4071 44.4185 92.4106C44.333 92.4221 44.2481 92.4387 44.1637 92.4562C42.2358 92.8558 40.3527 92.6781 38.5818 91.861C35.4083 90.3969 33.6074 87.9256 33.2264 84.5187C32.7457 80.2202 36.2798 77.1816 40.138 77.3025C40.474 77.313 40.6629 77.3957 40.7985 77.7422C41.7192 80.0943 43.3854 81.7655 45.752 82.7731C45.8888 82.8314 46.0255 82.8897 46.1776 82.9545C45.1427 84.1676 44.526 85.49 44.5438 87.0808C45.296 87.0808 46.0113 87.0808 46.7263 87.0808C46.8559 84.0276 49.9672 82.4127 52.5733 83.4982C52.8801 82.8585 53.1877 82.2173 53.5069 81.5519C52.1406 80.9774 50.7808 80.8224 49.3674 81.1481C49.1318 81.2024 48.8838 81.2561 48.6458 81.2419C45.3797 81.0477 42.5722 78.1949 42.4749 75.0111C42.4357 73.7298 42.7365 72.5364 43.3581 71.3791C42.7078 71.0185 42.0776 70.6691 41.4314 70.3108C40.5296 71.8293 40.1993 73.4204 40.2162 75.089C35.7923 75.1899 32.8293 77.2652 31.2413 81.2403C27.9913 80.1287 24.9026 77.1705 24.2568 73.1738C23.3085 67.3056 25.8913 63.2051 31.4208 60.7612C31.1549 60.1281 30.8841 59.4836 30.6058 58.8209C29.3243 59.255 28.1535 59.8049 27.1535 60.6237C26.1567 61.4399 25.2288 62.336 24.2524 63.2136C22.6485 61.9936 21.4903 60.3928 20.9523 58.3842C20.8452 57.9841 20.7394 57.5837 20.6331 57.1834C20.6331 56.4775 20.6331 55.7716 20.6633 55.0111C21.2464 51.5724 23.1589 49.1907 26.3461 47.7486C26.2527 47.6218 26.1851 47.5319 26.1195 47.4407C24.2173 44.7957 23.6067 41.8776 24.2942 38.7327C24.8155 36.3481 26.054 34.3332 27.9955 32.7854C31.3637 30.1001 35.1264 29.5153 39.2013 30.9737C40.9122 31.586 42.3354 32.6374 43.5304 33.9772C43.6837 34.1491 43.8918 34.3294 43.9327 34.5329C44.2738 36.2323 45.0111 37.7324 46.2263 38.9985C47.1426 39.9532 48.2152 40.6901 49.5179 41.181C49.7928 40.5067 50.0564 39.8603 50.3339 39.1796C48.1916 38.2451 46.7387 36.7258 46.24 34.5032C45.7413 32.281 46.2801 30.2721 47.869 28.5534C49.9277 29.5537 51.9382 29.5192 53.9744 28.4547C53.5948 27.8114 53.2324 27.1974 52.8705 26.5843C51.5445 27.2186 50.2443 27.2886 48.961 26.6392C47.6628 25.9823 46.9714 24.8911 46.7787 23.4607C46.0196 23.529 45.2966 23.594 44.5469 23.6615C44.701 25.0235 45.2229 26.1725 46.1055 27.1964C45.0256 28.3664 44.3583 29.7322 43.981 31.293C40.8371 28.6897 37.2546 27.6615 33.196 28.1403C33.3032 25.9699 34.0226 24.0848 35.4887 22.5269C37.936 19.9266 40.9824 19.0569 44.5072 19.757C45.1872 16.5377 47.6493 14.2374 50.7179 13.7018C50.8063 13.6864 50.8863 13.6249 50.9702 13.585C51.6077 13.585 52.2451 13.585 52.9232 13.585ZM38.557 48.4046C36.6984 46.4219 34.3933 45.428 31.6198 45.3792C31.6198 45.7833 31.6198 46.1318 31.6198 46.4802C31.6198 46.8415 31.6198 47.2028 31.6198 47.5632C36.5852 47.4759 40.2076 52.6508 37.6903 57.4047C38.3271 57.7452 38.964 58.0859 39.6081 58.4303C39.6819 58.319 39.7272 58.264 39.758 58.2021C40.968 55.7666 41.1019 53.2893 40.0427 50.7731C39.9481 50.5484 39.9076 50.3864 40.0834 50.1693C42.1808 47.5792 46.0158 46.9108 48.8978 48.6453C49.8337 49.2086 50.5883 49.9529 51.1945 50.8913C51.8387 50.5133 52.4613 50.1479 53.0825 49.7833C53.0541 49.7058 53.046 49.6635 53.0248 49.6289C50.71 45.8381 45.3977 44.3827 41.3687 46.4151C40.3295 46.9393 39.4444 47.6433 38.557 48.4046Z" fill="#095540"/>
<path d="M71.2066 98.5846C70.4203 98.2074 69.6104 97.9156 68.9408 97.4372C66.7776 95.8916 66.1701 93.0263 67.428 90.6613C68.6303 88.4008 71.4668 87.2875 73.9783 88.0776C75.2078 88.4644 76.1818 89.1762 76.8879 90.222C77.0659 90.4857 77.214 90.5445 77.5102 90.4192C78.9391 89.8143 80.3743 89.2236 81.8111 88.6367C82.0193 88.5516 82.1282 88.4755 82.0921 88.2147C81.884 86.7133 82.4123 85.5016 83.6815 84.6235C83.9461 84.4405 83.8399 84.2701 83.768 84.0838C83.3362 82.9656 82.8969 81.8502 82.4611 80.7335C82.1997 80.0635 81.9283 79.3968 81.6859 78.7203C81.6011 78.4838 81.4869 78.4039 81.226 78.3983C79.703 78.3653 78.6259 77.2104 78.7011 75.7161C78.7694 74.357 80.0347 73.3008 81.4864 73.4121C81.784 73.4349 82.0753 73.5364 82.414 73.6115C83.1245 72.7879 83.8576 71.9391 84.5893 71.0893C84.9327 70.6904 85.2612 70.2786 85.6205 69.8939C85.8031 69.6985 85.831 69.5608 85.6934 69.3116C85.1808 68.3841 85.2365 67.4594 85.8834 66.6137C86.5435 65.7507 87.466 65.4363 88.5286 65.6701C89.5798 65.9015 90.2507 66.5875 90.4654 67.6136C90.6534 68.5121 90.3899 69.3182 89.6822 69.9505C88.9486 70.606 88.0831 70.7882 87.1491 70.4886C86.8484 70.3922 86.7142 70.4559 86.5402 70.6607C85.5459 71.8313 84.5465 72.9979 83.5379 74.1568C83.3772 74.3415 83.3936 74.4736 83.5053 74.675C84.1112 75.7673 83.9123 76.9279 82.9737 77.7867C82.8098 77.9367 82.72 78.0415 82.814 78.2801C83.5376 80.1173 84.2443 81.9609 84.9573 83.8021C84.9871 83.8791 85.0267 83.9524 85.0676 84.0399C86.1909 83.8646 87.2147 84.0813 88.0922 84.77C89.2926 85.7122 89.7541 86.9572 89.4314 88.4172C89.1072 89.8841 88.1322 90.8463 86.6485 91.1817C85.1737 91.5152 83.867 91.1033 82.8865 89.932C82.678 89.6829 82.5242 89.6165 82.2162 89.7469C80.6963 90.3908 79.1672 91.0139 77.6092 91.6576C78.0936 93.4568 77.7856 95.1072 76.615 96.5607C75.745 97.6408 74.5737 98.2706 73.1753 98.5557C72.5221 98.5846 71.8846 98.5846 71.2066 98.5846Z" fill="#095540"/>
<path d="M73.1923 13.8853C76.8925 14.2779 78.1445 17.7795 77.7429 19.9286C77.3354 22.1096 75.6043 23.814 73.359 24.2464C73.2186 24.2734 73.0799 24.3087 72.9183 24.3451C72.9183 25.6691 72.9183 26.9878 72.9183 28.2867C73.3858 28.4856 73.8764 28.6282 74.2941 28.8839C75.7324 29.7642 76.3135 31.2376 75.9092 32.9548C75.8401 33.2479 75.9286 33.3495 76.1546 33.4764C77.255 34.0941 78.3498 34.7212 79.4415 35.3535C79.6501 35.4743 79.7974 35.4984 80.0147 35.3304C80.9143 34.6349 82.0875 34.5863 83.0022 35.1726C83.9394 35.7735 84.3727 36.8446 84.1023 37.8921C83.824 38.9703 82.9382 39.6836 81.7811 39.7966C81.6371 39.8106 81.4334 39.9411 81.3846 40.0652C81.1629 40.629 80.983 41.2086 80.7952 41.7848C80.6212 42.3186 80.4564 42.8553 80.2839 43.402C81.0717 43.9636 81.5371 44.6764 81.5001 45.6565C81.4624 46.6585 80.8269 47.5342 79.8279 47.9108C78.8983 48.2611 77.7616 48.0115 77.074 47.306C76.3676 46.5812 76.1477 45.4852 76.5551 44.6021C76.9879 43.6639 77.7238 43.1153 78.7958 43.0691C79.0539 43.0579 79.1363 42.9546 79.2041 42.7415C79.52 41.7481 79.8451 40.7573 80.1804 39.77C80.2584 39.5403 80.236 39.4176 80.0175 39.2486C79.2439 38.6503 78.9271 37.8429 79.0835 36.8913C79.1284 36.6185 79.0635 36.4917 78.8265 36.3608C77.7596 35.7715 76.6934 35.1797 75.6493 34.5533C75.3205 34.356 75.1356 34.3698 74.8479 34.6296C73.6964 35.6697 72.0646 35.9061 70.7049 35.2752C69.3287 34.6367 68.498 33.2658 68.5658 31.7448C68.6313 30.2761 69.7232 28.9144 71.1722 28.495C71.3236 28.4512 71.4756 28.4094 71.6527 28.3595C71.6527 27.0256 71.6527 25.6955 71.6527 24.3317C70.7149 24.172 69.8155 23.8905 69.0469 23.3061C67.2609 21.9483 66.471 20.1665 66.8891 17.9962C67.3129 15.7959 69.4922 13.4928 73.1923 13.8853Z" fill="#095540"/>
<path d="M103.844 56.8901C103.725 57.2702 103.61 57.6118 103.488 57.951C102.698 60.1423 100.396 61.5482 98.0191 61.4475C93.893 61.2726 91.2242 56.6068 93.8121 52.977C93.8359 52.9437 93.8479 52.9023 93.8821 52.8287C93.0623 52.071 92.2376 51.3081 91.4119 50.5463C91.0764 50.2367 90.73 49.9377 90.405 49.6179C90.2268 49.4426 90.0948 49.4225 89.8528 49.546C88.1179 50.4317 86.0576 49.6408 85.4682 47.8826C85.0518 46.6405 85.4859 45.2818 86.5401 44.5274C87.6813 43.7109 89.0521 43.7058 90.2047 44.5148C90.3445 44.6129 90.4815 44.7148 90.6406 44.8301C92.1746 43.8858 93.7139 42.9446 95.24 41.9833C95.3337 41.9242 95.3724 41.7006 95.3531 41.5648C95.1183 39.9116 96.2882 38.551 97.9408 38.5723C99.0142 38.5861 99.9675 39.2576 100.308 40.2397C100.675 41.2986 100.358 42.3846 99.4885 43.0494C98.6178 43.7149 97.388 43.7957 96.5005 43.1728C96.1483 42.9256 95.9263 42.9674 95.5984 43.1752C94.2554 44.0264 92.8949 44.8512 91.5417 45.6869C91.4577 45.7387 91.3806 45.801 91.2868 45.8681C91.5601 46.7302 91.5183 47.5625 91.0872 48.3673C91.0505 48.4359 91.0849 48.5943 91.1454 48.6508C92.3315 49.7575 93.5265 50.8553 94.7272 51.9619C94.8672 51.868 94.9737 51.7991 95.0775 51.7266C98.1758 49.5629 102.485 50.9801 103.604 54.5315C103.666 54.73 103.724 54.9299 103.814 55.1423C103.844 55.7204 103.844 56.2855 103.844 56.8901Z" fill="#079268"/>
<path d="M71.2031 61.0118C71.4849 60.4071 71.7311 59.8205 72.0267 59.2586C72.198 58.9331 72.1541 58.7184 71.9069 58.4451C70.8712 57.3001 71.0891 55.6329 72.364 54.749C73.4776 53.9769 75.0308 54.2035 75.8837 55.2901C76.0838 55.545 76.2519 55.6022 76.5691 55.5175C77.7786 55.1944 78.9945 54.8919 80.2155 54.613C80.5403 54.5388 80.6554 54.3958 80.7038 54.0882C80.8573 53.1118 81.4446 52.4564 82.3834 52.1147C83.3389 51.7669 84.2111 51.9708 84.9631 52.6107C86.087 53.567 86.1052 55.2851 85.0264 56.2905C83.9134 57.3277 82.1708 57.2127 81.21 55.9994C80.974 55.7013 80.7806 55.6876 80.4527 55.7747C79.2563 56.0925 78.0533 56.3873 76.8493 56.677C76.5774 56.7425 76.4526 56.8633 76.3951 57.1443C76.1017 58.5761 75.161 59.2977 73.6471 59.3152C73.5112 59.3168 73.3073 59.4215 73.2526 59.5331C72.7428 60.5733 72.2513 61.6224 71.7793 62.6794C71.7349 62.7787 71.8155 63.0032 71.9125 63.0795C73.0979 64.0125 73.7339 65.1825 73.7053 66.6962C73.6715 68.4803 72.4893 70.1294 70.7793 70.6976C68.9109 71.3185 66.8962 70.7629 65.7472 69.3101C63.6648 66.6769 65.119 62.9169 68.484 62.3004C69.0226 62.2017 69.6048 62.2775 70.1596 62.337C70.4416 62.3673 70.5904 62.3231 70.6991 62.0741C70.8516 61.7251 71.0242 61.3845 71.2031 61.0118Z" fill="#FBBE01"/>
<path d="M98.3031 76.7135C95.9734 78.2067 93.1364 76.89 92.5408 74.5327C92.188 73.1366 92.75 71.6458 93.9948 70.7277C95.1253 69.8939 96.7545 69.8023 98 70.5023C100.458 71.8838 100.624 75.0008 98.3031 76.7135Z" fill="#079268"/>
<path d="M90.0734 31.3371C91.2472 30.5082 92.5884 30.4498 93.6979 31.1606C94.7659 31.8448 95.2809 33.0885 95.0074 34.3229C94.7387 35.5359 93.6422 36.5095 92.393 36.6443C91.112 36.7826 89.7862 36.1088 89.2873 35.0659C88.6698 33.775 88.8854 32.4398 89.8587 31.5286C89.9212 31.4702 89.9861 31.4142 90.0734 31.3371Z" fill="#FFE38C"/>
<path d="M69.6786 47.457C70.8613 47.5774 71.7819 48.3021 72.023 49.2723C72.3013 50.3922 71.9036 51.435 70.9644 52.0485C70.0629 52.6374 68.8469 52.5937 67.9649 51.9407C67.126 51.3195 66.7633 50.2002 67.0836 49.2206C67.4293 48.1635 68.3488 47.4823 69.466 47.4561C69.5238 47.4548 69.5816 47.4562 69.6786 47.457Z" fill="#FFE38C"/>
<path d="M83.8147 21.7841C84.9965 20.2186 87.2923 20.4705 88.1625 21.9685C88.7818 23.0347 88.5547 24.3436 87.5977 25.1407C86.7095 25.8804 85.3127 25.9236 84.3921 25.2399C83.394 24.4987 83.075 23.191 83.6289 22.1042C83.6801 22.0037 83.7428 21.9088 83.8147 21.7841Z" fill="#079268"/>
<path d="M77.8995 61.5769C78.2298 60.5116 78.9487 59.8915 80.0262 59.7392C81.0667 59.5921 81.933 59.9629 82.5251 60.8261C83.1057 61.6724 83.1259 62.5639 82.6273 63.4567C82.0832 64.4308 80.9171 64.9122 79.7858 64.6441C78.6303 64.3702 77.8538 63.4551 77.8306 62.3216C77.8257 62.0851 77.8677 61.8476 77.8995 61.5769Z" fill="#079268"/>
<path d="M76.6439 86.2612C75.3961 86.1606 74.4149 85.2586 74.2791 84.122C74.1307 82.8794 74.8791 81.6956 76.0176 81.372C77.2278 81.0281 78.5732 81.5352 79.1018 82.5771C80.0802 84.5055 78.5125 86.4155 76.6439 86.2612Z" fill="#079268"/>
<path d="M65.6323 77.958C64.4137 76.9074 64.51 75.0163 65.8702 74.0542C66.66 73.4955 67.8407 73.4456 68.6832 73.9612C69.6235 74.5367 70.0917 75.5556 69.8763 76.5572C69.4547 78.5165 67.1654 79.2876 65.6323 77.958Z" fill="#079268"/>
<path d="M64.927 39.0378C65.3487 37.9035 66.4993 37.2026 67.649 37.3535C68.9206 37.5203 69.8195 38.4606 69.926 39.7353C70.0163 40.8157 69.222 41.9731 68.0951 42.2546C67.1407 42.493 66.2297 42.3476 65.5111 41.6001C64.8094 40.8704 64.6252 40.0228 64.927 39.0378Z" fill="#079268"/>
<path d="M81.5361 29.4326C80.7574 30.3364 79.5392 30.4842 78.665 29.8033C77.8172 29.143 77.6542 27.9305 78.2986 27.0781C78.944 26.2242 80.1796 26.0331 81.0766 26.6483C82.0036 27.2842 82.2023 28.43 81.5361 29.4326Z" fill="#FFE38C"/>
<path d="M67.6418 83.3227C68.245 82.7787 68.8949 82.7193 69.4536 83.1367C69.9535 83.5101 70.1195 84.2295 69.8298 84.7663C69.4637 85.4445 68.6173 85.6716 67.945 85.272C67.2451 84.856 67.107 84.036 67.6418 83.3227Z" fill="#FBBE01"/>
<path d="M71.8264 44.7256C71.2322 44.3486 71.1403 43.8186 71.2717 43.2301C71.3694 42.7926 71.9246 42.375 72.4149 42.3277C72.951 42.2759 73.4786 42.576 73.7469 43.0853C73.9871 43.5413 73.8709 44.1867 73.4811 44.5615C73.0477 44.9782 72.4695 45.0424 71.8264 44.7256Z" fill="#FBBE01"/>
<path d="M87.6907 40.8357C86.9714 40.312 86.8266 39.5708 87.2991 38.9535C87.7262 38.3955 88.5758 38.2571 89.1478 38.6523C89.7307 39.055 89.8704 39.9008 89.4517 40.492C89.0893 41.0036 88.4066 41.1457 87.6907 40.8357Z" fill="#FBBE01"/>
<path d="M65.635 27.7939C64.8766 27.4391 64.5898 26.7221 64.8989 26.0308C65.1519 25.4649 65.905 25.1387 66.4897 25.3418C67.2312 25.5994 67.6052 26.2918 67.3774 26.9851C67.1516 27.6723 66.4776 27.9945 65.635 27.7939Z" fill="#FBBE01"/>
<path d="M88.2986 73.8774C89.0924 73.8536 89.6189 74.1861 89.7995 74.7958C89.9704 75.3726 89.7238 75.9828 89.1821 76.2807C88.7152 76.5375 88.2348 76.5318 87.7894 76.2438C87.2957 75.9246 87.0995 75.447 87.2192 74.8883C87.3352 74.3464 87.706 74.0113 88.2986 73.8774Z" fill="#FBBE01"/>
<path d="M89.1816 61.3929C89.0453 62.1099 88.6643 62.5138 88.0704 62.6045C87.4969 62.6922 86.9626 62.4428 86.6861 61.9586C86.4121 61.4788 86.4671 60.937 86.8334 60.5074C87.178 60.1031 87.7257 59.939 88.2342 60.0877C88.7811 60.2476 89.1318 60.7173 89.1816 61.3929Z" fill="#FFE38C"/>
<path d="M76.2239 52.3166C75.938 51.6836 76.0082 51.1623 76.4107 50.7713C76.8362 50.3579 77.3898 50.2515 77.9198 50.4813C78.4094 50.6936 78.7302 51.2067 78.7043 51.7362C78.6789 52.2582 78.3083 52.7265 77.7842 52.8991C77.2127 53.0872 76.7093 52.9058 76.2239 52.3166Z" fill="#079268"/>
<path d="M72.447 77.0061C73.0055 76.6863 73.5242 76.718 74.002 77.0855C74.4415 77.4235 74.5645 77.8918 74.4489 78.4089C74.329 78.9447 73.9486 79.2436 73.4157 79.3646C72.8799 79.4863 72.2455 79.1855 72.0019 78.7052C71.6913 78.0926 71.8417 77.4885 72.447 77.0061Z" fill="#FFE38C"/>
<path d="M87.6408 56.565C87.4526 55.7941 87.8143 55.1306 88.5055 54.9292C89.1947 54.7284 89.9171 55.086 90.1416 55.7391C90.3796 56.4316 90.0433 57.1391 89.3571 57.3894C88.6586 57.6442 87.9725 57.3257 87.6408 56.565Z" fill="#079268"/>
<path d="M76.1741 70.9775C76.5836 71.462 76.6476 71.9612 76.3544 72.4871C76.1051 72.9344 75.5522 73.2072 75.0451 73.1356C74.4808 73.0559 74.0981 72.7464 73.9185 72.2173C73.7388 71.6877 73.9817 71.0709 74.484 70.7458C74.9679 70.4326 75.6259 70.5149 76.1741 70.9775Z" fill="#709D90"/>
<path d="M68.4767 56.6789C68.3906 57.4427 67.9669 57.895 67.2707 58.0019C66.7608 58.0801 66.1 57.6888 65.8951 57.169C65.7016 56.6781 65.7967 56.2319 66.1598 55.8411C66.55 55.4211 67.0306 55.3015 67.5732 55.4755C68.1416 55.6578 68.4117 56.0805 68.4767 56.6789Z" fill="#709D90"/>
<path d="M93.7821 66.0691C93.0254 65.8633 92.6063 65.198 92.7719 64.5127C92.9291 63.8617 93.6585 63.4093 94.3272 63.5479C95.0365 63.6948 95.5303 64.3687 95.3963 65.0066C95.2342 65.7783 94.6022 66.2054 93.7821 66.0691Z" fill="#709D90"/>
<path d="M85.9364 31.0636C85.0117 30.5609 84.7686 29.8296 85.2568 29.1093C85.627 28.5631 86.3358 28.3736 86.9299 28.6621C87.5249 28.951 87.8326 29.64 87.6242 30.2167C87.3926 30.8574 86.7531 31.2239 86.0971 31.0921C86.0548 31.0836 86.0117 31.0782 85.9364 31.0636Z" fill="#709D90"/>
<path d="M73.3349 38.7208C73.6543 37.4955 74.9819 37.458 75.5546 38.0087C75.9693 38.4075 76.0917 39.0786 75.8204 39.5637C75.5379 40.0686 74.9282 40.3363 74.3493 40.2095C73.7551 40.0794 73.3474 39.6029 73.3245 39.009C73.3213 38.9248 73.3283 38.8403 73.3349 38.7208Z" fill="#FFE38C"/>
<path d="M90.8495 82.0413C90.2719 82.4195 89.7178 82.4248 89.1802 82.0414C88.7594 81.7414 88.5765 81.1707 88.7199 80.684C88.8683 80.1804 89.37 79.7906 89.9232 79.7491C90.4634 79.7085 90.9767 80.0026 91.2167 80.49C91.4764 81.0176 91.3671 81.5059 90.8495 82.0413Z" fill="#079268"/>
<path d="M81.2874 69.5838C80.7553 70.0064 80.1178 70.075 79.6209 69.7833C79.167 69.5169 78.9508 69.0148 79.0385 68.4796C79.1281 67.9326 79.4446 67.5981 79.9868 67.4526C80.493 67.3167 80.95 67.4353 81.2918 67.7978C81.655 68.1829 81.7746 68.6599 81.5561 69.1693C81.4962 69.3089 81.3933 69.4311 81.2874 69.5838Z" fill="#079268"/>
</g>
<path d="M146.89 49.0827H139.197V60.7871H133.098V23.1461H146.89C155.426 23.1461 159.694 27.359 159.694 35.7847C159.694 40.1074 158.613 43.4045 156.452 45.6758C154.327 47.947 151.14 49.0827 146.89 49.0827ZM139.197 43.8074H146.836C151.232 43.8074 153.43 41.1332 153.43 35.7847C153.43 33.2203 152.898 31.352 151.836 30.1797C150.774 29.0075 149.107 28.4213 146.836 28.4213H139.197V43.8074ZM183.917 38.9718C179.594 38.3857 176.462 38.0926 174.521 38.0926C172.579 38.0926 171.224 38.3307 170.454 38.807C169.722 39.2466 169.355 39.9609 169.355 40.95C169.355 41.9391 169.758 42.6352 170.564 43.0381C171.407 43.4411 173.348 43.9173 176.389 44.4668C179.466 44.9797 181.646 45.804 182.928 46.9396C184.21 48.0753 184.851 50.0901 184.851 52.9842C184.851 55.8782 183.917 58.003 182.049 59.3584C180.217 60.7138 177.525 61.3916 173.971 61.3916C171.736 61.3916 168.916 61.0802 165.509 60.4574L163.805 60.1827L164.025 55.1822C168.421 55.7683 171.59 56.0614 173.532 56.0614C175.473 56.0614 176.847 55.8233 177.653 55.347C178.495 54.8708 178.917 54.0832 178.917 52.9842C178.917 51.8851 178.514 51.1342 177.708 50.7312C176.938 50.2916 175.052 49.8337 172.048 49.3574C169.081 48.8446 166.901 48.0569 165.509 46.9946C164.117 45.9322 163.421 43.9906 163.421 41.1698C163.421 38.349 164.373 36.2426 166.278 34.8505C168.22 33.4584 170.692 32.7624 173.696 32.7624C176.041 32.7624 178.917 33.0555 182.324 33.6416L184.027 33.9713L183.917 38.9718ZM187.704 33.3119H193.584L199.408 55.6767H200.892L206.717 33.3119H212.651L202.211 72.6014H196.331L199.628 60.7871H194.903L187.704 33.3119ZM227.07 32.7075C229.012 32.7075 231.302 32.9639 233.939 33.4768L235.313 33.7515L235.093 38.4773C232.199 38.1842 230.056 38.0376 228.664 38.0376C225.88 38.0376 224.011 38.6604 223.059 39.906C222.107 41.1515 221.63 43.4961 221.63 46.9396C221.63 50.3832 222.088 52.7644 223.004 54.0832C223.92 55.402 225.825 56.0614 228.719 56.0614L235.148 55.6218L235.313 60.4025C231.613 61.0619 228.829 61.3916 226.96 61.3916C222.784 61.3916 219.835 60.2742 218.113 58.0396C216.428 55.7683 215.586 52.0683 215.586 46.9396C215.586 41.8109 216.483 38.1659 218.278 36.0045C220.073 33.8065 223.004 32.7075 227.07 32.7075ZM247.093 60.7871H241.104V21.8822H247.093V34.7406C249.804 33.3852 252.314 32.7075 254.622 32.7075C258.285 32.7075 260.776 33.7515 262.095 35.8396C263.45 37.8911 264.128 41.298 264.128 46.0604V60.7871H258.138V46.2253C258.138 43.2579 257.827 41.1515 257.204 39.906C256.581 38.6604 255.263 38.0376 253.248 38.0376C251.489 38.0376 249.731 38.3307 247.973 38.9169L247.093 39.2466V60.7871Z" fill="#095540"/>
<path d="M292.806 60.7871H271.541V23.4208H279.124V54.0832H292.806V60.7871ZM317.846 41.8842V53.3139C317.92 54.1931 318.066 54.8158 318.286 55.1822C318.506 55.5119 318.964 55.75 319.66 55.8965L319.44 61.4465C317.572 61.4465 316.07 61.3183 314.934 61.0619C313.835 60.8054 312.718 60.2926 311.582 59.5233C308.944 60.8054 306.252 61.4465 303.504 61.4465C297.826 61.4465 294.987 58.4426 294.987 52.4347C294.987 49.504 295.775 47.4342 297.35 46.2253C298.925 44.9797 301.343 44.247 304.603 44.0272L310.483 43.5876V41.8842C310.483 40.7485 310.226 39.9792 309.714 39.5763C309.201 39.1367 308.376 38.9169 307.241 38.9169L296.91 39.3565L296.69 34.2461C300.61 33.1837 304.328 32.6525 307.845 32.6525C311.399 32.6525 313.945 33.3852 315.483 34.8505C317.059 36.3159 317.846 38.6604 317.846 41.8842ZM305.482 49.1376C303.431 49.3208 302.405 50.4198 302.405 52.4347C302.405 54.4495 303.303 55.4569 305.098 55.4569C306.49 55.4569 308.01 55.2371 309.659 54.7975L310.483 54.5777V48.698L305.482 49.1376ZM338.164 32.6525C342.01 32.6525 344.813 33.7149 346.571 35.8396C348.366 37.9277 349.264 41.6827 349.264 47.1045C349.264 52.5262 348.238 56.2812 346.187 58.3693C344.135 60.4208 340.6 61.4465 335.581 61.4465C334.006 61.4465 331.13 61.2633 326.954 60.897L324.866 60.6772V22.3218H332.229V34.1362C334.574 33.1471 336.552 32.6525 338.164 32.6525ZM335.581 54.8525C338.036 54.8525 339.684 54.2663 340.527 53.0941C341.369 51.8851 341.79 49.7421 341.79 46.6649C341.79 41.7193 340.252 39.2466 337.175 39.2466C335.709 39.2466 334.317 39.4297 332.998 39.7961L332.229 39.9609V54.6327C333.914 54.7792 335.032 54.8525 335.581 54.8525Z" fill="#FBBE01"/>
<path d="M219.901 84.6078H216.909V89.1595H214.537V74.5214H219.901C223.22 74.5214 224.88 76.1597 224.88 79.4364C224.88 81.1175 224.46 82.3996 223.619 83.2829C222.793 84.1662 221.554 84.6078 219.901 84.6078ZM216.909 82.5563H219.88C221.589 82.5563 222.444 81.5164 222.444 79.4364C222.444 78.4391 222.237 77.7126 221.824 77.2567C221.411 76.8008 220.763 76.5729 219.88 76.5729H216.909V82.5563ZM234.3 80.6758C232.619 80.4479 231.401 80.3339 230.646 80.3339C229.891 80.3339 229.364 80.4265 229.065 80.6117C228.78 80.7827 228.637 81.0605 228.637 81.4451C228.637 81.8298 228.794 82.1005 229.107 82.2572C229.435 82.4139 230.19 82.5991 231.373 82.8128C232.569 83.0122 233.417 83.3328 233.916 83.7744C234.414 84.216 234.664 84.9996 234.664 86.1251C234.664 87.2505 234.3 88.0768 233.574 88.6039C232.861 89.1311 231.814 89.3946 230.432 89.3946C229.563 89.3946 228.466 89.2735 227.141 89.0313L226.479 88.9245L226.564 86.9798C228.274 87.2078 229.506 87.3218 230.261 87.3218C231.016 87.3218 231.551 87.2292 231.864 87.044C232.192 86.8588 232.356 86.5525 232.356 86.1251C232.356 85.6977 232.199 85.4056 231.885 85.2489C231.586 85.078 230.853 84.8999 229.684 84.7147C228.53 84.5152 227.683 84.2089 227.141 83.7958C226.6 83.3826 226.329 82.6276 226.329 81.5306C226.329 80.4336 226.7 79.6145 227.441 79.0731C228.196 78.5317 229.157 78.2611 230.325 78.2611C231.237 78.2611 232.356 78.375 233.681 78.603L234.343 78.7312L234.3 80.6758ZM235.773 78.4747H238.059L240.325 87.1722H240.902L243.167 78.4747H245.475L241.414 93.754H239.128L240.41 89.1595H238.572L235.773 78.4747ZM251.082 78.2397C251.837 78.2397 252.727 78.3394 253.753 78.5389L254.287 78.6457L254.202 80.4835C253.077 80.3695 252.243 80.3125 251.702 80.3125C250.619 80.3125 249.892 80.5547 249.522 81.0391C249.152 81.5235 248.966 82.4352 248.966 83.7744C248.966 85.1136 249.145 86.0396 249.501 86.5525C249.857 87.0653 250.598 87.3218 251.723 87.3218L254.223 87.1508L254.287 89.01C252.849 89.2664 251.766 89.3946 251.039 89.3946C249.415 89.3946 248.268 88.9601 247.599 88.0911C246.943 87.2078 246.616 85.7689 246.616 83.7744C246.616 81.7799 246.965 80.3624 247.663 79.5219C248.361 78.6671 249.501 78.2397 251.082 78.2397ZM258.869 89.1595H256.539V74.0299H258.869V79.0304C259.923 78.5032 260.899 78.2397 261.796 78.2397C263.221 78.2397 264.19 78.6457 264.703 79.4577C265.23 80.2555 265.493 81.5805 265.493 83.4325V89.1595H263.164V83.4966C263.164 82.3426 263.043 81.5235 262.801 81.0391C262.559 80.5547 262.046 80.3125 261.262 80.3125C260.578 80.3125 259.894 80.4265 259.211 80.6544L258.869 80.7827V89.1595ZM268.782 79.6287C269.523 78.7027 270.748 78.2397 272.458 78.2397C274.167 78.2397 275.385 78.7027 276.112 79.6287C276.853 80.5547 277.223 81.9437 277.223 83.7958C277.223 85.6478 276.867 87.044 276.155 87.9842C275.442 88.9245 274.21 89.3946 272.458 89.3946C270.705 89.3946 269.473 88.9245 268.761 87.9842C268.048 87.044 267.692 85.6478 267.692 83.7958C267.692 81.9437 268.056 80.5547 268.782 79.6287ZM270.534 86.5738C270.862 87.1437 271.503 87.4286 272.458 87.4286C273.412 87.4286 274.053 87.1437 274.381 86.5738C274.709 86.004 274.872 85.0708 274.872 83.7744C274.872 82.478 274.694 81.5591 274.338 81.0177C273.996 80.4764 273.369 80.2057 272.458 80.2057C271.546 80.2057 270.912 80.4764 270.556 81.0177C270.214 81.5591 270.043 82.478 270.043 83.7744C270.043 85.0708 270.207 86.004 270.534 86.5738ZM279.665 89.1595V74.0299H281.994V89.1595H279.665ZM285.519 79.6287C286.26 78.7027 287.485 78.2397 289.194 78.2397C290.904 78.2397 292.122 78.7027 292.849 79.6287C293.589 80.5547 293.96 81.9437 293.96 83.7958C293.96 85.6478 293.604 87.044 292.891 87.9842C292.179 88.9245 290.947 89.3946 289.194 89.3946C287.442 89.3946 286.21 88.9245 285.497 87.9842C284.785 87.044 284.429 85.6478 284.429 83.7958C284.429 81.9437 284.792 80.5547 285.519 79.6287ZM287.271 86.5738C287.599 87.1437 288.24 87.4286 289.194 87.4286C290.149 87.4286 290.79 87.1437 291.118 86.5738C291.445 86.004 291.609 85.0708 291.609 83.7744C291.609 82.478 291.431 81.5591 291.075 81.0177C290.733 80.4764 290.106 80.2057 289.194 80.2057C288.283 80.2057 287.649 80.4764 287.292 81.0177C286.951 81.5591 286.78 82.478 286.78 83.7744C286.78 85.0708 286.943 86.004 287.271 86.5738ZM305.612 90.6127C305.612 92.9491 303.924 94.1173 300.547 94.1173C298.923 94.1173 297.72 93.8965 296.936 93.4548C296.152 93.0132 295.761 92.2083 295.761 91.0401C295.761 90.513 295.889 90.0571 296.145 89.6724C296.402 89.302 296.815 88.896 297.385 88.4543C296.915 88.1409 296.68 87.6209 296.68 86.8944C296.68 86.6094 296.872 86.1464 297.257 85.5053L297.449 85.1848C296.423 84.5722 295.91 83.5037 295.91 81.9794C295.91 80.6972 296.295 79.7569 297.064 79.1586C297.834 78.5602 298.874 78.2611 300.184 78.2611C300.811 78.2611 301.431 78.3323 302.043 78.4747L302.364 78.5389L305.676 78.4534V80.3339L303.903 80.2271C304.287 80.7257 304.479 81.3098 304.479 81.9794C304.479 83.3755 304.123 84.3443 303.411 84.8856C302.713 85.4127 301.616 85.6763 300.12 85.6763C299.75 85.6763 299.436 85.6478 299.18 85.5908C298.98 86.0752 298.881 86.4527 298.881 86.7234C298.881 86.9798 299.009 87.1579 299.265 87.2577C299.536 87.3574 300.177 87.4144 301.189 87.4286C302.884 87.4429 304.045 87.6708 304.672 88.1124C305.299 88.5541 305.612 89.3875 305.612 90.6127ZM298.047 90.8264C298.047 91.325 298.247 91.6812 298.646 91.8949C299.044 92.1086 299.728 92.2154 300.697 92.2154C302.421 92.2154 303.283 91.7239 303.283 90.7409C303.283 90.1853 303.126 89.8291 302.813 89.6724C302.513 89.53 301.908 89.4516 300.996 89.4374L298.902 89.3091C298.589 89.5656 298.368 89.8006 298.24 90.0143C298.111 90.2423 298.047 90.513 298.047 90.8264ZM298.218 81.9794C298.218 82.6347 298.375 83.1191 298.688 83.4325C299.002 83.7317 299.507 83.8813 300.206 83.8813C300.904 83.8813 301.402 83.7317 301.701 83.4325C302.015 83.1191 302.172 82.6347 302.172 81.9794C302.172 81.324 302.015 80.8468 301.701 80.5476C301.388 80.2342 300.882 80.0775 300.184 80.0775C298.874 80.0775 298.218 80.7114 298.218 81.9794ZM307.501 89.1595V78.4747H309.83V89.1595H307.501ZM307.501 76.6583V74.2008H309.83V76.6583H307.501ZM316.652 78.2397C317.407 78.2397 318.297 78.3394 319.323 78.5389L319.857 78.6457L319.772 80.4835C318.646 80.3695 317.813 80.3125 317.271 80.3125C316.189 80.3125 315.462 80.5547 315.092 81.0391C314.721 81.5235 314.536 82.4352 314.536 83.7744C314.536 85.1136 314.714 86.0396 315.07 86.5525C315.426 87.0653 316.167 87.3218 317.293 87.3218L319.793 87.1508L319.857 89.01C318.418 89.2664 317.335 89.3946 316.609 89.3946C314.985 89.3946 313.838 88.9601 313.168 88.0911C312.513 87.2078 312.185 85.7689 312.185 83.7744C312.185 81.7799 312.534 80.3624 313.233 79.5219C313.931 78.6671 315.07 78.2397 316.652 78.2397ZM330.016 81.7657V86.6379C330.03 86.9514 330.108 87.1864 330.251 87.3431C330.408 87.4856 330.643 87.5782 330.956 87.6209L330.892 89.3946C329.667 89.3946 328.719 89.1311 328.05 88.6039C326.91 89.1311 325.763 89.3946 324.609 89.3946C322.487 89.3946 321.425 88.262 321.425 85.9968C321.425 84.9141 321.71 84.1306 322.28 83.6462C322.864 83.1618 323.755 82.8698 324.951 82.77L327.708 82.535V81.7657C327.708 81.1958 327.58 80.7969 327.323 80.569C327.081 80.341 326.718 80.2271 326.233 80.2271C325.322 80.2271 324.182 80.284 322.814 80.398L322.13 80.4408L322.045 78.7953C323.598 78.4249 325.022 78.2397 326.319 78.2397C327.63 78.2397 328.57 78.5246 329.14 79.0945C329.724 79.6501 330.016 80.5405 330.016 81.7657ZM325.229 84.4155C324.246 84.501 323.755 85.0352 323.755 86.0182C323.755 87.0012 324.189 87.4927 325.058 87.4927C325.77 87.4927 326.525 87.3787 327.323 87.1508L327.708 87.0226V84.1804L325.229 84.4155ZM333.068 89.1595V74.0299H335.397V89.1595H333.068ZM348.233 89.3946C346.096 89.3946 344.643 88.8034 343.874 87.6209C343.119 86.4385 342.741 84.4939 342.741 81.787C342.741 79.0802 343.126 77.157 343.895 76.0172C344.665 74.8633 346.111 74.2863 348.233 74.2863C349.501 74.2863 350.897 74.4644 352.422 74.8205L352.336 76.7438C351.054 76.5159 349.772 76.4019 348.49 76.4019C347.207 76.4019 346.338 76.7866 345.883 77.5559C345.427 78.3109 345.199 79.7427 345.199 81.8511C345.199 83.9454 345.42 85.3771 345.861 86.1464C346.303 86.9015 347.165 87.279 348.447 87.279C349.729 87.279 351.026 87.1722 352.336 86.9585L352.4 88.9245C350.933 89.2379 349.544 89.3946 348.233 89.3946ZM356.994 89.1595H354.664V74.0299H356.994V79.0304C358.048 78.5032 359.024 78.2397 359.921 78.2397C361.346 78.2397 362.315 78.6457 362.827 79.4577C363.355 80.2555 363.618 81.5805 363.618 83.4325V89.1595H361.289V83.4966C361.289 82.3426 361.168 81.5235 360.926 81.0391C360.683 80.5547 360.171 80.3125 359.387 80.3125C358.703 80.3125 358.019 80.4265 357.335 80.6544L356.994 80.7827V89.1595ZM374.237 81.7657V86.6379C374.251 86.9514 374.329 87.1864 374.472 87.3431C374.628 87.4856 374.864 87.5782 375.177 87.6209L375.113 89.3946C373.888 89.3946 372.94 89.1311 372.271 88.6039C371.131 89.1311 369.984 89.3946 368.83 89.3946C366.707 89.3946 365.646 88.262 365.646 85.9968C365.646 84.9141 365.931 84.1306 366.501 83.6462C367.085 83.1618 367.975 82.8698 369.172 82.77L371.929 82.535V81.7657C371.929 81.1958 371.801 80.7969 371.544 80.569C371.302 80.341 370.939 80.2271 370.454 80.2271C369.542 80.2271 368.403 80.284 367.035 80.398L366.351 80.4408L366.266 78.7953C367.819 78.4249 369.243 78.2397 370.54 78.2397C371.85 78.2397 372.791 78.5246 373.361 79.0945C373.945 79.6501 374.237 80.5405 374.237 81.7657ZM369.45 84.4155C368.467 84.501 367.975 85.0352 367.975 86.0182C367.975 87.0012 368.41 87.4927 369.279 87.4927C369.991 87.4927 370.746 87.3787 371.544 87.1508L371.929 87.0226V84.1804L369.45 84.4155ZM379.49 89.1595H377.161V78.4747H379.469V79.1372C380.509 78.5389 381.492 78.2397 382.418 78.2397C383.842 78.2397 384.811 78.6457 385.324 79.4577C385.851 80.2555 386.115 81.5805 386.115 83.4325V89.1595H383.807V83.4966C383.807 82.3426 383.679 81.5235 383.422 81.0391C383.18 80.5547 382.674 80.3125 381.905 80.3125C381.178 80.3125 380.48 80.455 379.811 80.7399L379.49 80.8681V89.1595ZM398.165 90.6127C398.165 92.9491 396.477 94.1173 393.1 94.1173C391.476 94.1173 390.272 93.8965 389.489 93.4548C388.705 93.0132 388.314 92.2083 388.314 91.0401C388.314 90.513 388.442 90.0571 388.698 89.6724C388.955 89.302 389.368 88.896 389.938 88.4543C389.468 88.1409 389.232 87.6209 389.232 86.8944C389.232 86.6094 389.425 86.1464 389.809 85.5053L390.002 85.1848C388.976 84.5722 388.463 83.5037 388.463 81.9794C388.463 80.6972 388.848 79.7569 389.617 79.1586C390.386 78.5602 391.426 78.2611 392.737 78.2611C393.364 78.2611 393.984 78.3323 394.596 78.4747L394.917 78.5389L398.229 78.4534V80.3339L396.455 80.2271C396.84 80.7257 397.032 81.3098 397.032 81.9794C397.032 83.3755 396.676 84.3443 395.964 84.8856C395.266 85.4127 394.169 85.6763 392.673 85.6763C392.303 85.6763 391.989 85.6478 391.733 85.5908C391.533 86.0752 391.434 86.4527 391.434 86.7234C391.434 86.9798 391.562 87.1579 391.818 87.2577C392.089 87.3574 392.73 87.4144 393.741 87.4286C395.437 87.4429 396.598 87.6708 397.225 88.1124C397.852 88.5541 398.165 89.3875 398.165 90.6127ZM390.6 90.8264C390.6 91.325 390.8 91.6812 391.198 91.8949C391.597 92.1086 392.281 92.2154 393.25 92.2154C394.974 92.2154 395.836 91.7239 395.836 90.7409C395.836 90.1853 395.679 89.8291 395.366 89.6724C395.066 89.53 394.461 89.4516 393.549 89.4374L391.455 89.3091C391.141 89.5656 390.921 89.8006 390.792 90.0143C390.664 90.2423 390.6 90.513 390.6 90.8264ZM390.771 81.9794C390.771 82.6347 390.928 83.1191 391.241 83.4325C391.555 83.7317 392.06 83.8813 392.758 83.8813C393.457 83.8813 393.955 83.7317 394.254 83.4325C394.568 83.1191 394.724 82.6347 394.724 81.9794C394.724 81.324 394.568 80.8468 394.254 80.5476C393.941 80.2342 393.435 80.0775 392.737 80.0775C391.426 80.0775 390.771 80.7114 390.771 81.9794ZM407.661 87.2363L408.26 87.1722L408.302 88.9031C406.678 89.2308 405.24 89.3946 403.986 89.3946C402.404 89.3946 401.265 88.9601 400.567 88.0911C399.883 87.222 399.541 85.833 399.541 83.924C399.541 80.1345 401.087 78.2397 404.178 78.2397C407.17 78.2397 408.666 79.8709 408.666 83.1333L408.516 84.8001H401.892C401.906 85.6834 402.098 86.3316 402.469 86.7448C402.839 87.1579 403.53 87.3645 404.541 87.3645C405.553 87.3645 406.593 87.3218 407.661 87.2363ZM406.379 83.0051C406.379 81.9509 406.208 81.2172 405.866 80.804C405.539 80.3766 404.976 80.1629 404.178 80.1629C403.38 80.1629 402.796 80.3838 402.426 80.8254C402.07 81.267 401.884 81.9936 401.87 83.0051H406.379ZM424.085 89.1595H415.879V74.5214H418.251V87.044H424.085V89.1595ZM433.65 81.7657V86.6379C433.664 86.9514 433.743 87.1864 433.885 87.3431C434.042 87.4856 434.277 87.5782 434.59 87.6209L434.526 89.3946C433.301 89.3946 432.354 89.1311 431.684 88.6039C430.544 89.1311 429.397 89.3946 428.243 89.3946C426.121 89.3946 425.059 88.262 425.059 85.9968C425.059 84.9141 425.344 84.1306 425.914 83.6462C426.498 83.1618 427.389 82.8698 428.585 82.77L431.342 82.535V81.7657C431.342 81.1958 431.214 80.7969 430.957 80.569C430.715 80.341 430.352 80.2271 429.868 80.2271C428.956 80.2271 427.816 80.284 426.448 80.398L425.765 80.4408L425.679 78.7953C427.232 78.4249 428.657 78.2397 429.953 78.2397C431.264 78.2397 432.204 78.5246 432.774 79.0945C433.358 79.6501 433.65 80.5405 433.65 81.7657ZM428.863 84.4155C427.88 84.501 427.389 85.0352 427.389 86.0182C427.389 87.0012 427.823 87.4927 428.692 87.4927C429.405 87.4927 430.16 87.3787 430.957 87.1508L431.342 87.0226V84.1804L428.863 84.4155ZM441.553 78.2397C443.021 78.2397 444.075 78.6528 444.716 79.4791C445.371 80.2912 445.699 81.7372 445.699 83.8171C445.699 85.8971 445.314 87.3503 444.545 88.1765C443.776 88.9886 442.422 89.3946 440.485 89.3946C439.815 89.3946 438.754 89.3305 437.301 89.2023L436.574 89.1382V74.0299H438.882V78.8808C439.865 78.4534 440.755 78.2397 441.553 78.2397ZM440.485 87.3218C441.624 87.3218 442.38 87.0582 442.75 86.5311C443.135 85.9897 443.327 85.078 443.327 83.7958C443.327 82.5136 443.163 81.6161 442.835 81.1032C442.522 80.5761 442.002 80.3125 441.275 80.3125C440.592 80.3125 439.908 80.4194 439.224 80.6331L438.882 80.7399V87.2363C439.666 87.2933 440.2 87.3218 440.485 87.3218Z" fill="#949494"/>
<g clip-path="url(#clip1_283_298)">
<rect x="357.49" y="22.8291" width="85.4784" height="39.6864" rx="7.632" fill="white"/>
<path fill-rule="evenodd" clip-rule="evenodd" d="M353.663 19.645H445.861V65.6994H353.663V19.645ZM406.082 33.4278C405.418 34.121 404.269 35.3325 404.272 37.2766V48.8885C404.272 50.3917 404.689 51.1724 405.636 52.1128C406.547 53.0171 407.572 53.4323 408.855 53.4323H414.785V49.3243H409.811C409.351 49.3243 409.056 49.1442 408.752 48.801C408.32 48.3119 408.383 47.5483 408.383 47.5483V44.7136H413.708L413.701 40.5987L408.383 40.5953V38.3165C408.383 38.3165 408.409 37.625 409.032 36.8717C409.655 36.1184 410.643 36.024 410.643 36.024L414.785 36.0189V31.9091H409.324C407.927 31.9091 406.657 32.8306 406.082 33.4278ZM428.085 53.4346C429.511 53.4421 433.672 53.4641 433.698 48.6586H433.697V36.8768C433.688 31.9068 429.205 31.91 428.012 31.9108L419.858 31.9109V53.4341H427.94C427.984 53.4341 428.033 53.4343 428.085 53.4346ZM429.582 46.3557C429.582 46.3557 429.903 49.3243 427.14 49.3209V49.3226H423.971V36.024H427.166C429.691 36.0224 429.617 38.5105 429.59 39.4501C429.587 39.5314 429.585 39.6012 429.585 39.6567L429.582 46.3557ZM395.221 36.0223H392.298C390.15 36.0206 389.603 37.6593 389.603 39.5245V53.4341H385.491V36.9815C385.498 34.006 388.402 31.9109 391.377 31.9109H399.332V53.4341H395.221V36.0223ZM370.849 49.3226H373.804L373.806 49.3243C375.941 49.3261 376.478 47.7199 376.479 45.8684V31.9109H380.591V48.4063C380.582 51.3629 377.701 53.4341 374.748 53.4341H366.76V31.9109H370.87L370.849 49.3226Z" fill="#095540"/>
</g>
<defs>
<clipPath id="clip0_283_298">
<rect width="83.2105" height="85" fill="white" transform="translate(20.5464 13.5)"/>
</clipPath>
<clipPath id="clip1_283_298">
<rect x="357.49" y="22.8291" width="85.4784" height="39.6864" rx="7.632" fill="white"/>
</clipPath>
</defs>
</svg>
