<svg width="501" height="113" viewBox="0 0 501 113" fill="none" xmlns="http://www.w3.org/2000/svg">
<rect x="0.278259" y="0.564697" width="500" height="112" fill="#095540"/>
<rect x="0.278259" y="0.564697" width="500" height="112" fill="#095540"/>
<path fill-rule="evenodd" clip-rule="evenodd" d="M256.542 48.9985C256.537 46.2722 258.318 44.5734 259.347 43.6012C260.238 42.7639 262.205 41.4717 264.37 41.4717H272.832V47.2347L266.414 47.242C266.414 47.242 264.883 47.3743 263.918 48.4307C262.953 49.487 262.913 50.4568 262.913 50.4568V53.6523L271.152 53.6571L271.163 59.4274H262.913V63.4026C262.913 63.4026 262.814 64.4734 263.484 65.1592C263.955 65.6404 264.412 65.8931 265.125 65.8931H272.832V71.6537H263.644C261.655 71.6537 260.068 71.0714 258.656 69.8033C257.188 68.4847 256.542 67.3898 256.542 65.2819V48.9985ZM302.137 64.9595C302.095 71.9449 295.169 71.6561 293.214 71.6561H280.692V41.4741H293.26C294.998 41.4741 302.121 41.3802 302.134 48.4379V64.9595H302.137ZM291.975 65.8883C296.256 65.8931 295.759 61.7302 295.759 61.7302L295.764 52.3361C295.764 51.3591 296.267 47.2395 292.015 47.242H287.065V65.8907H291.975V65.8883ZM237.99 47.2396H242.517V71.6561H248.888V41.4741H236.562C231.952 41.4741 227.453 44.4122 227.442 48.5847V71.6561H233.813V52.1508C233.813 49.5351 234.661 47.2371 237.99 47.2396ZM209.334 65.8907H204.755L204.787 41.4741H198.419V71.6561H210.796C215.372 71.6561 219.836 68.7518 219.849 64.6057V41.4741H213.479V61.0468C213.476 63.6432 212.644 65.8955 209.336 65.8931L209.334 65.8907Z" fill="white"/>
</svg>
