<svg width="501" height="112" viewBox="0 0 501 112" fill="none" xmlns="http://www.w3.org/2000/svg">
<g clip-path="url(#clip0_283_478)">
<path d="M66.139 13.5851C66.355 13.6324 66.5276 13.6899 66.7051 13.7254C70.4714 14.4782 72.9882 17.4443 72.9898 21.1597C72.9942 31.0171 72.9913 40.8745 72.9914 50.7319C72.9914 53.492 72.9925 56.252 72.9917 59.0121C72.9907 62.1276 70.3276 64.9702 67.1101 65.3222C66.109 65.4318 65.1326 65.3607 64.1221 65.1108C63.8987 65.7797 63.6774 66.4421 63.4359 67.1653C65.1491 67.6929 66.8488 67.7185 68.56 67.2736C70.2625 66.831 71.7068 65.966 72.9556 64.6739C72.9716 64.8394 72.9903 64.9425 72.9903 65.0457C72.9915 73.7061 72.9954 82.3665 72.9891 91.0269C72.9868 94.174 71.1381 96.862 68.1503 98.031C67.5359 98.2714 66.8596 98.3646 66.196 98.5554C65.5358 98.5851 64.8915 98.5851 64.1943 98.5547C64.0003 98.4902 63.8603 98.4512 63.718 98.4229C62.0001 98.0803 60.5708 97.2589 59.4223 95.9884C58.4932 94.9606 57.9182 93.7597 57.6484 92.4349C57.5976 92.4225 57.5689 92.4073 57.5429 92.4107C57.4565 92.4222 57.3707 92.4389 57.2853 92.4564C55.3367 92.856 53.4334 92.6782 51.6434 91.8612C48.4358 90.397 46.6156 87.9258 46.2305 84.5188C45.7446 80.2203 49.3167 77.1817 53.2164 77.3026C53.556 77.3131 53.7469 77.3958 53.884 77.7424C54.8146 80.0945 56.4987 81.7656 58.8908 82.7733C59.029 82.8315 59.1672 82.8898 59.3209 82.9547C58.2749 84.1677 57.6515 85.4901 57.6696 87.081C58.4299 87.081 59.1529 87.081 59.8756 87.081C60.0065 84.0277 63.1513 82.4128 65.7854 83.4983C66.0956 82.8586 66.4064 82.2174 66.729 81.552C65.3481 80.9776 63.9737 80.8226 62.5451 81.1482C62.307 81.2025 62.0563 81.2562 61.8157 81.242C58.5145 81.0478 55.6768 78.195 55.5784 75.0113C55.5388 73.7299 55.8428 72.5365 56.4711 71.3792C55.8138 71.0186 55.1769 70.6692 54.5237 70.3109C53.6122 71.8294 53.2784 73.4205 53.2955 75.0892C48.824 75.19 45.8291 77.2654 44.224 81.2404C40.9391 80.1289 37.8172 77.1706 37.1644 73.174C36.206 67.3058 38.8165 63.2053 44.4055 60.7614C44.1367 60.1282 43.863 59.4837 43.5817 58.821C42.2864 59.2551 41.103 59.805 40.0922 60.6238C39.0848 61.44 38.1469 62.3361 37.1599 63.2137C35.5388 61.9937 34.3682 60.3929 33.8244 58.3843C33.7161 57.9843 33.6092 57.5838 33.5017 57.1835C33.5017 56.4776 33.5017 55.7718 33.5323 55.0112C34.1217 51.5725 36.0547 49.1908 39.2762 47.7487C39.1818 47.6219 39.1134 47.5321 39.0471 47.4408C37.1245 44.7959 36.5073 41.8778 37.2022 38.7328C37.7291 36.3482 38.981 34.3334 40.9433 32.7855C44.3477 30.1002 48.1509 29.5154 52.2697 30.9738C53.9989 31.5861 55.4375 32.6375 56.6453 33.9774C56.8002 34.1492 57.0106 34.3295 57.0519 34.533C57.3967 36.2324 58.1419 37.7326 59.3701 38.9986C60.2963 39.9533 61.3804 40.6902 62.6971 41.1812C62.975 40.5068 63.2414 39.8604 63.522 39.1797C61.3566 38.2452 59.8881 36.7259 59.384 34.5033C58.8799 32.2811 59.4246 30.2722 61.0305 28.5535C63.1113 29.5539 65.1435 29.5193 67.2016 28.4548C66.8179 27.8115 66.4516 27.1975 66.0858 26.5845C64.7456 27.2187 63.4314 27.2887 62.1343 26.6393C60.8221 25.9824 60.1233 24.8912 59.9285 23.4608C59.1612 23.5291 58.4305 23.5942 57.6727 23.6616C57.8284 25.0236 58.356 26.1726 59.248 27.1965C58.1565 28.3665 57.4821 29.7323 57.1007 31.2931C53.923 28.6898 50.302 27.6617 46.1998 28.1404C46.3081 25.9701 47.0352 24.0849 48.5171 22.5271C50.9907 19.9267 54.0699 19.0571 57.6326 19.7571C58.3199 16.5378 60.8085 14.2375 63.91 13.7019C63.9994 13.6865 64.0803 13.6251 64.1651 13.5851C64.8094 13.5851 65.4537 13.5851 66.139 13.5851ZM51.6184 48.4047C49.7398 46.422 47.41 45.4281 44.6066 45.3793C44.6066 45.7834 44.6066 46.1319 44.6066 46.4804C44.6066 46.8416 44.6066 47.2029 44.6066 47.5634C49.6254 47.476 53.2868 52.6509 50.7424 57.4048C51.386 57.7454 52.0298 58.086 52.6808 58.4305C52.7553 58.3191 52.8012 58.2641 52.8323 58.2023C54.0553 55.7667 54.1907 53.2895 53.1201 50.7732C53.0245 50.5485 52.9835 50.3865 53.1612 50.1694C55.2811 47.5793 59.1574 46.9109 62.0704 48.6454C63.0164 49.2087 63.779 49.953 64.3918 50.8914C65.0429 50.5134 65.6722 50.148 66.3001 49.7835C66.2714 49.7059 66.2632 49.6637 66.2418 49.629C63.9021 45.8382 58.5326 44.3829 54.4604 46.4152C53.41 46.9394 52.5153 47.6434 51.6184 48.4047Z" fill="white"/>
<path d="M84.619 98.5846C83.8243 98.2074 83.0057 97.9156 82.329 97.4372C80.1425 95.8916 79.5284 93.0263 80.7998 90.6613C82.015 88.4008 84.8821 87.2875 87.4206 88.0776C88.6633 88.4644 89.6477 89.1762 90.3614 90.222C90.5414 90.4857 90.6911 90.5445 90.9904 90.4192C92.4347 89.8143 93.8854 89.2236 95.3376 88.6367C95.548 88.5516 95.6581 88.4755 95.6216 88.2147C95.4113 86.7133 95.9452 85.5016 97.2281 84.6235C97.4955 84.4405 97.3882 84.2701 97.3155 84.0838C96.8791 82.9656 96.4351 81.8502 95.9946 80.7335C95.7304 80.0635 95.4561 79.3968 95.211 78.7203C95.1253 78.4838 95.0099 78.4039 94.7462 78.3983C93.2068 78.3653 92.1182 77.2104 92.1941 75.7161C92.2632 74.357 93.5421 73.3008 95.0094 73.4121C95.3102 73.4349 95.6046 73.5364 95.947 73.6115C96.6651 72.7879 97.4061 71.9391 98.1457 71.0893C98.4928 70.6904 98.8248 70.2786 99.188 69.8939C99.3725 69.6985 99.4008 69.5608 99.2616 69.3116C98.7436 68.3841 98.7998 67.4594 99.4537 66.6137C100.121 65.7507 101.053 65.4363 102.127 65.6701C103.19 65.9015 103.868 66.5875 104.085 67.6136C104.275 68.5121 104.009 69.3182 103.293 69.9505C102.552 70.606 101.677 70.7882 100.733 70.4886C100.429 70.3922 100.293 70.4559 100.118 70.6607C99.1126 71.8313 98.1024 72.9979 97.083 74.1568C96.9206 74.3415 96.9371 74.4736 97.0501 74.675C97.6625 75.7673 97.4614 76.9279 96.5127 77.7867C96.3471 77.9367 96.2563 78.0415 96.3513 78.2801C97.0826 80.1173 97.797 81.9609 98.5176 83.8021C98.5478 83.8791 98.5878 83.9524 98.6291 84.0399C99.7645 83.8646 100.799 84.0813 101.686 84.77C102.9 85.7122 103.366 86.9572 103.04 88.4172C102.712 89.8841 101.727 90.8463 100.227 91.1817C98.7363 91.5152 97.4156 91.1033 96.4245 89.932C96.2138 89.6829 96.0583 89.6165 95.7471 89.7469C94.2108 90.3908 92.6653 91.0139 91.0906 91.6576C91.5801 93.4568 91.2688 95.1072 90.0856 96.5607C89.2063 97.6408 88.0224 98.2706 86.609 98.5557C85.9487 98.5846 85.3044 98.5846 84.619 98.5846Z" fill="white"/>
<path d="M86.6261 13.8852C90.3661 14.2778 91.6316 17.7794 91.2257 19.9285C90.8138 22.1094 89.0641 23.8138 86.7946 24.2463C86.6527 24.2733 86.5125 24.3086 86.3492 24.345C86.3492 25.669 86.3492 26.9877 86.3492 28.2866C86.8217 28.4854 87.3176 28.628 87.7398 28.8837C89.1936 29.7641 89.7808 31.2374 89.3722 32.9546C89.3024 33.2478 89.3918 33.3494 89.6203 33.4763C90.7325 34.0939 91.8391 34.7211 92.9425 35.3534C93.1534 35.4742 93.3022 35.4983 93.5219 35.3303C94.4312 34.6348 95.6169 34.5862 96.5415 35.1725C97.4888 35.7734 97.9268 36.8444 97.6534 37.892C97.3721 38.9701 96.4768 39.6835 95.3073 39.7964C95.1617 39.8105 94.9559 39.941 94.9065 40.0651C94.6824 40.6288 94.5006 41.2085 94.3108 41.7846C94.1349 42.3185 93.9683 42.8552 93.794 43.4018C94.5902 43.9635 95.0606 44.6763 95.0233 45.6564C94.9851 46.6584 94.3428 47.5341 93.3331 47.9106C92.3935 48.261 91.2445 48.0114 90.5496 47.3059C89.8356 46.5811 89.6133 45.4851 90.0251 44.602C90.4626 43.6637 91.2064 43.1152 92.2899 43.0689C92.5507 43.0578 92.634 42.9544 92.7025 42.7414C93.0219 41.748 93.3504 40.7572 93.6894 39.7698C93.7682 39.5402 93.7456 39.4175 93.5247 39.2484C92.7428 38.6502 92.4226 37.8428 92.5807 36.8912C92.626 36.6183 92.5605 36.4915 92.3209 36.3606C91.2425 35.7714 90.1648 35.1795 89.1096 34.5532C88.7772 34.3559 88.5903 34.3696 88.2995 34.6295C87.1357 35.6696 85.4863 35.906 84.112 35.2751C82.721 34.6365 81.8814 33.2656 81.9499 31.7447C82.0161 30.276 83.1198 28.9143 84.5843 28.4949C84.7373 28.4511 84.891 28.4093 85.07 28.3594C85.07 27.0255 85.07 25.6954 85.07 24.3316C84.1221 24.1719 83.213 23.8904 82.4361 23.306C80.631 21.9482 79.8325 20.1664 80.2551 17.9961C80.6835 15.7958 82.8862 13.4926 86.6261 13.8852Z" fill="white"/>
<path d="M117.607 56.8901C117.487 57.2702 117.371 57.6118 117.248 57.951C116.449 60.1423 114.122 61.5482 111.72 61.4475C107.549 61.2726 104.852 56.6068 107.468 52.977C107.492 52.9437 107.504 52.9023 107.538 52.8287C106.71 52.071 105.876 51.3081 105.042 50.5463C104.702 50.2367 104.352 49.9377 104.024 49.6179C103.844 49.4426 103.71 49.4225 103.466 49.546C101.712 50.4317 99.6297 49.6408 99.034 47.8826C98.6131 46.6405 99.0519 45.2818 100.117 44.5274C101.271 43.7109 102.656 43.7058 103.821 44.5148C103.963 44.6129 104.101 44.7148 104.262 44.8301C105.812 43.8858 107.368 42.9446 108.911 41.9833C109.006 41.9242 109.045 41.7006 109.025 41.5648C108.788 39.9116 109.97 38.551 111.641 38.5723C112.726 38.5861 113.689 39.2576 114.033 40.2397C114.404 41.2986 114.084 42.3846 113.205 43.0494C112.325 43.7149 111.082 43.7957 110.185 43.1728C109.829 42.9256 109.604 42.9674 109.273 43.1752C107.916 44.0264 106.541 44.8512 105.173 45.6869C105.088 45.7387 105.01 45.801 104.915 45.8681C105.191 46.7302 105.149 47.5625 104.713 48.3673C104.676 48.4359 104.711 48.5943 104.772 48.6508C105.971 49.7575 107.179 50.8553 108.392 51.9619C108.534 51.868 108.642 51.7991 108.747 51.7266C111.878 49.5629 116.234 50.9801 117.364 54.5315C117.428 54.73 117.486 54.9299 117.577 55.1423C117.607 55.7204 117.607 56.2855 117.607 56.8901Z" fill="white"/>
<path d="M84.6155 61.0118C84.9003 60.4071 85.1491 59.8205 85.4479 59.2586C85.621 58.9331 85.5766 58.7184 85.3268 58.4451C84.28 57.3001 84.5002 55.6329 85.7888 54.749C86.9143 53.9769 88.4843 54.2035 89.3464 55.2901C89.5486 55.545 89.7185 55.6022 90.0391 55.5175C91.2616 55.1944 92.4906 54.8919 93.7247 54.613C94.0531 54.5388 94.1694 54.3958 94.2183 54.0882C94.3735 53.1118 94.9671 52.4564 95.9159 52.1147C96.8817 51.7669 97.7633 51.9708 98.5234 52.6107C99.6594 53.567 99.6778 55.2851 98.5873 56.2905C97.4624 57.3277 95.701 57.2127 94.73 55.9994C94.4914 55.7013 94.2959 55.6876 93.9645 55.7747C92.7552 56.0925 91.5393 56.3873 90.3224 56.677C90.0475 56.7425 89.9214 56.8633 89.8632 57.1443C89.5667 58.5761 88.6159 59.2977 87.0857 59.3152C86.9483 59.3168 86.7423 59.4215 86.687 59.5331C86.1717 60.5733 85.6749 61.6224 85.1978 62.6794C85.1529 62.7787 85.2344 63.0032 85.3325 63.0795C86.5306 64.0125 87.1734 65.1825 87.1445 66.6962C87.1104 68.4803 85.9155 70.1294 84.1871 70.6976C82.2986 71.3185 80.2622 70.7629 79.1009 69.3101C76.9961 66.6769 78.4659 62.9169 81.8671 62.3004C82.4114 62.2017 83 62.2775 83.5607 62.337C83.8458 62.3673 83.9961 62.3231 84.106 62.0741C84.2601 61.7251 84.4346 61.3845 84.6155 61.0118Z" fill="white"/>
<path d="M112.007 76.7135C109.652 78.2067 106.785 76.89 106.183 74.5327C105.826 73.1366 106.394 71.6458 107.652 70.7277C108.795 69.8939 110.442 69.8023 111.701 70.5023C114.185 71.8838 114.352 75.0008 112.007 76.7135Z" fill="white"/>
<path d="M103.689 31.3371C104.875 30.5082 106.231 30.4498 107.352 31.1606C108.432 31.8448 108.952 33.0885 108.676 34.3229C108.404 35.5359 107.296 36.5095 106.033 36.6443C104.738 36.7826 103.398 36.1088 102.894 35.0659C102.27 33.775 102.488 32.4398 103.472 31.5286C103.535 31.4702 103.6 31.4142 103.689 31.3371Z" fill="white"/>
<path d="M83.0747 47.457C84.2701 47.5774 85.2006 48.3021 85.4443 49.2723C85.7255 50.3922 85.3236 51.435 84.3743 52.0485C83.4631 52.6374 82.234 52.5937 81.3426 51.9407C80.4946 51.3195 80.1281 50.2002 80.4518 49.2206C80.8012 48.1635 81.7306 47.4823 82.8598 47.4561C82.9182 47.4548 82.9766 47.4562 83.0747 47.457Z" fill="white"/>
<path d="M97.3627 21.7841C98.5572 20.2186 100.878 20.4705 101.757 21.9685C102.383 23.0347 102.154 24.3436 101.186 25.1407C100.289 25.8804 98.8768 25.9236 97.9463 25.2399C96.9375 24.4987 96.6151 23.191 97.1749 22.1042C97.2267 22.0037 97.29 21.9088 97.3627 21.7841Z" fill="white"/>
<path d="M91.3838 61.5769C91.7177 60.5116 92.4444 59.8915 93.5334 59.7392C94.5852 59.5921 95.4607 59.9629 96.0593 60.8261C96.646 61.6724 96.6665 62.5639 96.1625 63.4567C95.6126 64.4308 94.434 64.9122 93.2905 64.6441C92.1225 64.3702 91.3377 63.4551 91.3142 62.3216C91.3093 62.0851 91.3518 61.8476 91.3838 61.5769Z" fill="white"/>
<path d="M90.1148 86.2612C88.8537 86.1606 87.8618 85.2586 87.7246 84.122C87.5746 82.8794 88.331 81.6956 89.4818 81.372C90.7051 81.0281 92.0649 81.5352 92.5992 82.5771C93.5881 84.5055 92.0036 86.4155 90.1148 86.2612Z" fill="white"/>
<path d="M78.9849 77.958C77.7531 76.9074 77.8505 75.0163 79.2253 74.0542C80.0236 73.4955 81.217 73.4456 82.0686 73.9612C83.0189 74.5367 83.4922 75.5556 83.2744 76.5572C82.8484 78.5165 80.5344 79.2876 78.9849 77.958Z" fill="white"/>
<path d="M78.272 39.0378C78.6982 37.9035 79.8613 37.2026 81.0232 37.3535C82.3085 37.5203 83.2171 38.4606 83.3248 39.7353C83.416 40.8157 82.6132 41.9731 81.4742 42.2546C80.5095 42.493 79.5887 42.3476 78.8623 41.6001C78.1531 40.8704 77.9669 40.0228 78.272 39.0378Z" fill="white"/>
<path d="M95.0596 29.4326C94.2726 30.3364 93.0413 30.4842 92.1577 29.8033C91.3007 29.143 91.136 27.9305 91.7873 27.0781C92.4397 26.2242 93.6886 26.0331 94.5952 26.6483C95.5322 27.2842 95.733 28.43 95.0596 29.4326Z" fill="white"/>
<path d="M81.0159 83.3227C81.6256 82.7787 82.2825 82.7193 82.8472 83.1367C83.3524 83.5101 83.5203 84.2295 83.2274 84.7663C82.8574 85.4445 82.0019 85.6716 81.3224 85.272C80.615 84.856 80.4753 84.036 81.0159 83.3227Z" fill="white"/>
<path d="M85.2456 44.7256C84.6449 44.3486 84.552 43.8186 84.6849 43.2301C84.7836 42.7926 85.3448 42.375 85.8404 42.3277C86.3822 42.2759 86.9155 42.576 87.1867 43.0853C87.4295 43.5413 87.312 44.1867 86.918 44.5615C86.48 44.9782 85.8955 45.0424 85.2456 44.7256Z" fill="white"/>
<path d="M101.281 40.8357C100.553 40.312 100.407 39.5708 100.885 38.9535C101.316 38.3955 102.175 38.2571 102.753 38.6523C103.342 39.055 103.484 39.9008 103.06 40.492C102.694 41.0036 102.004 41.1457 101.281 40.8357Z" fill="white"/>
<path d="M78.9875 27.7939C78.221 27.4391 77.931 26.7221 78.2434 26.0308C78.4992 25.4649 79.2604 25.1387 79.8514 25.3418C80.6009 25.5994 80.9789 26.2918 80.7487 26.9851C80.5204 27.6723 79.8392 27.9945 78.9875 27.7939Z" fill="white"/>
<path d="M101.895 73.8774C102.697 73.8536 103.229 74.1861 103.412 74.7958C103.585 75.3726 103.335 75.9828 102.788 76.2807C102.316 76.5375 101.83 76.5318 101.38 76.2438C100.881 75.9246 100.683 75.447 100.804 74.8883C100.921 74.3464 101.296 74.0113 101.895 73.8774Z" fill="white"/>
<path d="M102.787 61.3929C102.649 62.1099 102.264 62.5138 101.664 62.6045C101.084 62.6922 100.544 62.4428 100.265 61.9586C99.988 61.4788 100.044 60.937 100.414 60.5074C100.762 60.1031 101.316 59.939 101.83 60.0877C102.382 60.2476 102.737 60.7173 102.787 61.3929Z" fill="white"/>
<path d="M89.6903 52.3166C89.4012 51.6836 89.4723 51.1623 89.879 50.7713C90.3092 50.3579 90.8687 50.2515 91.4044 50.4813C91.8993 50.6936 92.2235 51.2067 92.1973 51.7363C92.1716 52.2582 91.797 52.7265 91.2673 52.8991C90.6897 53.0872 90.1809 52.9058 89.6903 52.3166Z" fill="white"/>
<path d="M85.8728 77.0061C86.4373 76.6863 86.9616 76.718 87.4445 77.0855C87.8887 77.4235 88.0131 77.8918 87.8962 78.4089C87.7751 78.9447 87.3905 79.2436 86.8519 79.3646C86.3103 79.4863 85.6691 79.1855 85.4229 78.7052C85.1089 78.0926 85.261 77.4885 85.8728 77.0061Z" fill="white"/>
<path d="M101.23 56.565C101.04 55.7941 101.405 55.1306 102.104 54.9292C102.801 54.7284 103.531 55.086 103.758 55.7391C103.998 56.4316 103.658 57.1391 102.965 57.3894C102.259 57.6442 101.565 57.3257 101.23 56.565Z" fill="white"/>
<path d="M89.64 70.9775C90.0538 71.462 90.1185 71.9612 89.8222 72.4871C89.5702 72.9344 89.0113 73.2072 88.4988 73.1356C87.9284 73.0559 87.5415 72.7464 87.3601 72.2173C87.1784 71.6877 87.4239 71.0709 87.9316 70.7458C88.4208 70.4326 89.0858 70.5149 89.64 70.9775Z" fill="white"/>
<path d="M81.8598 56.6789C81.7727 57.4427 81.3445 57.895 80.6408 58.0019C80.1254 58.0801 79.4576 57.6888 79.2504 57.169C79.0548 56.6781 79.1509 56.2319 79.5179 55.8411C79.9123 55.4211 80.3981 55.3015 80.9466 55.4755C81.5211 55.6578 81.7941 56.0805 81.8598 56.6789Z" fill="white"/>
<path d="M107.437 66.0691C106.672 65.8633 106.249 65.198 106.416 64.5127C106.575 63.8617 107.312 63.4093 107.988 63.5479C108.705 63.6948 109.204 64.3687 109.069 65.0066C108.905 65.7783 108.266 66.2054 107.437 66.0691Z" fill="white"/>
<path d="M99.5071 31.0636C98.5725 30.5609 98.3268 29.8296 98.8203 29.1093C99.1944 28.5631 99.9108 28.3736 100.511 28.6621C101.113 28.951 101.424 29.64 101.213 30.2167C100.979 30.8574 100.333 31.2239 99.6696 31.0921C99.6268 31.0836 99.5833 31.0782 99.5071 31.0636Z" fill="white"/>
<path d="M86.7702 38.7208C87.0931 37.4955 88.435 37.458 89.0137 38.0087C89.4329 38.4075 89.5566 39.0786 89.2824 39.5637C88.9969 40.0686 88.3806 40.3363 87.7955 40.2095C87.1949 40.0794 86.7828 39.6029 86.7597 39.009C86.7565 38.9248 86.7635 38.8403 86.7702 38.7208Z" fill="white"/>
<path d="M104.473 82.0413C103.889 82.4195 103.329 82.4248 102.786 82.0414C102.361 81.7414 102.176 81.1707 102.321 80.684C102.471 80.1804 102.978 79.7906 103.537 79.7491C104.083 79.7085 104.602 80.0026 104.844 80.49C105.107 81.0176 104.996 81.5059 104.473 82.0413Z" fill="white"/>
<path d="M94.8083 69.5838C94.2704 70.0064 93.626 70.075 93.1238 69.7833C92.6651 69.5169 92.4465 69.0148 92.5351 68.4796C92.6258 67.9326 92.9456 67.5981 93.4936 67.4526C94.0053 67.3167 94.4672 67.4353 94.8127 67.7978C95.1798 68.1829 95.3007 68.6599 95.0799 69.1693C95.0193 69.3089 94.9152 69.4311 94.8083 69.5838Z" fill="white"/>
</g>
<path d="M160.653 49.0828H152.96V60.7872H146.86V23.1462H160.653C169.189 23.1462 173.456 27.3591 173.456 35.7848C173.456 40.1076 172.376 43.4046 170.214 45.6759C168.09 47.9472 164.903 49.0828 160.653 49.0828ZM152.96 43.8076H160.598C164.994 43.8076 167.192 41.1333 167.192 35.7848C167.192 33.2205 166.661 31.3521 165.599 30.1799C164.536 29.0076 162.869 28.4215 160.598 28.4215H152.96V43.8076ZM197.68 38.9719C193.357 38.3858 190.225 38.0927 188.283 38.0927C186.342 38.0927 184.986 38.3308 184.217 38.8071C183.484 39.2467 183.118 39.961 183.118 40.9501C183.118 41.9392 183.521 42.6353 184.327 43.0383C185.169 43.4412 187.111 43.9175 190.152 44.467C193.229 44.9798 195.408 45.8041 196.691 46.9397C197.973 48.0754 198.614 50.0902 198.614 52.9843C198.614 55.8783 197.68 58.0031 195.811 59.3585C193.98 60.714 191.287 61.3917 187.734 61.3917C185.499 61.3917 182.678 61.0803 179.271 60.4575L177.568 60.1828L177.788 55.1823C182.184 55.7684 185.353 56.0615 187.294 56.0615C189.236 56.0615 190.609 55.8234 191.415 55.3471C192.258 54.8709 192.679 54.0833 192.679 52.9843C192.679 51.8853 192.276 51.1343 191.47 50.7313C190.701 50.2917 188.814 49.8338 185.81 49.3576C182.843 48.8447 180.663 48.0571 179.271 46.9947C177.879 45.9323 177.183 43.9907 177.183 41.1699C177.183 38.3492 178.136 36.2427 180.041 34.8506C181.982 33.4586 184.455 32.7625 187.459 32.7625C189.804 32.7625 192.679 33.0556 196.086 33.6417L197.79 33.9714L197.68 38.9719ZM201.467 33.312H207.346L213.171 55.6768H214.655L220.479 33.312H226.414L215.973 72.6016H210.094L213.391 60.7872H208.665L201.467 33.312ZM240.833 32.7076C242.775 32.7076 245.064 32.964 247.702 33.4769L249.076 33.7516L248.856 38.4774C245.962 38.1843 243.819 38.0378 242.427 38.0378C239.642 38.0378 237.774 38.6605 236.822 39.9061C235.869 41.1516 235.393 43.4962 235.393 46.9397C235.393 50.3833 235.851 52.7645 236.767 54.0833C237.682 55.4021 239.587 56.0615 242.481 56.0615L248.911 55.6219L249.076 60.4026C245.376 61.062 242.591 61.3917 240.723 61.3917C236.547 61.3917 233.598 60.2744 231.876 58.0397C230.191 55.7684 229.348 52.0684 229.348 46.9397C229.348 41.811 230.246 38.166 232.041 36.0046C233.836 33.8066 236.767 32.7076 240.833 32.7076ZM260.856 60.7872H254.866V21.8824H260.856V34.7407C263.567 33.3853 266.076 32.7076 268.384 32.7076C272.047 32.7076 274.539 33.7516 275.857 35.8398C277.213 37.8912 277.891 41.2982 277.891 46.0605V60.7872H271.901V46.2254C271.901 43.2581 271.59 41.1516 270.967 39.9061C270.344 38.6605 269.025 38.0378 267.01 38.0378C265.252 38.0378 263.494 38.3308 261.735 38.917L260.856 39.2467V60.7872ZM306.569 60.7872H285.303V23.421H292.886V54.0833H306.569V60.7872ZM331.609 41.8843V53.314C331.682 54.1932 331.829 54.816 332.048 55.1823C332.268 55.512 332.726 55.7501 333.422 55.8966L333.202 61.4466C331.334 61.4466 329.832 61.3184 328.696 61.062C327.597 60.8055 326.48 60.2927 325.344 59.5234C322.707 60.8055 320.014 61.4466 317.267 61.4466C311.589 61.4466 308.749 58.4427 308.749 52.4348C308.749 49.5041 309.537 47.4343 311.112 46.2254C312.688 44.9798 315.105 44.2472 318.366 44.0274L324.245 43.5878V41.8843C324.245 40.7487 323.989 39.9794 323.476 39.5764C322.963 39.1368 322.139 38.917 321.003 38.917L310.673 39.3566L310.453 34.2462C314.373 33.1838 318.091 32.6526 321.608 32.6526C325.161 32.6526 327.707 33.3853 329.246 34.8506C330.821 36.316 331.609 38.6605 331.609 41.8843ZM319.245 49.1377C317.194 49.3209 316.168 50.4199 316.168 52.4348C316.168 54.4496 317.065 55.457 318.86 55.457C320.252 55.457 321.773 55.2372 323.421 54.7976L324.245 54.5778V48.6981L319.245 49.1377ZM351.926 32.6526C355.773 32.6526 358.575 33.715 360.334 35.8398C362.129 37.9279 363.026 41.6828 363.026 47.1046C363.026 52.5264 362.001 56.2813 359.949 58.3694C357.898 60.4209 354.362 61.4466 349.344 61.4466C347.768 61.4466 344.893 61.2635 340.716 60.8971L338.628 60.6773V22.322H345.992V34.1363C348.336 33.1472 350.314 32.6526 351.926 32.6526ZM349.344 54.8526C351.798 54.8526 353.447 54.2665 354.289 53.0942C355.132 51.8853 355.553 49.7422 355.553 46.665C355.553 41.7194 354.014 39.2467 350.937 39.2467C349.472 39.2467 348.08 39.4298 346.761 39.7962L345.992 39.961V54.6328C347.677 54.7793 348.794 54.8526 349.344 54.8526Z" fill="white"/>
<path d="M233.664 84.6079H230.672V89.1597H228.3V74.5215H233.664C236.983 74.5215 238.643 76.1598 238.643 79.4365C238.643 81.1176 238.222 82.3998 237.382 83.283C236.556 84.1663 235.316 84.6079 233.664 84.6079ZM230.672 82.5565H233.642C235.352 82.5565 236.207 81.5165 236.207 79.4365C236.207 78.4393 236 77.7127 235.587 77.2568C235.174 76.8009 234.525 76.573 233.642 76.573H230.672V82.5565ZM248.063 80.6759C246.382 80.448 245.164 80.334 244.409 80.334C243.654 80.334 243.126 80.4266 242.827 80.6118C242.542 80.7828 242.4 81.0606 242.4 81.4452C242.4 81.8299 242.557 82.1006 242.87 82.2573C243.198 82.414 243.953 82.5992 245.135 82.8129C246.332 83.0123 247.18 83.3329 247.678 83.7745C248.177 84.2162 248.426 84.9997 248.426 86.1252C248.426 87.2507 248.063 88.0769 247.336 88.6041C246.624 89.1312 245.577 89.3947 244.195 89.3947C243.326 89.3947 242.229 89.2736 240.904 89.0315L240.242 88.9246L240.327 86.98C242.037 87.2079 243.269 87.3219 244.024 87.3219C244.779 87.3219 245.313 87.2293 245.627 87.0441C245.954 86.8589 246.118 86.5526 246.118 86.1252C246.118 85.6978 245.961 85.4057 245.648 85.249C245.349 85.0781 244.615 84.9 243.447 84.7148C242.293 84.5153 241.445 84.209 240.904 83.7959C240.363 83.3828 240.092 82.6277 240.092 81.5307C240.092 80.4337 240.462 79.6146 241.203 79.0732C241.958 78.5319 242.92 78.2612 244.088 78.2612C245 78.2612 246.118 78.3751 247.443 78.6031L248.106 78.7313L248.063 80.6759ZM249.535 78.4749H251.822L254.087 87.1723H254.664L256.929 78.4749H259.237L255.177 93.7541H252.89L254.173 89.1597H252.335L249.535 78.4749ZM264.845 78.2398C265.6 78.2398 266.49 78.3395 267.516 78.539L268.05 78.6458L267.965 80.4836C266.839 80.3696 266.006 80.3127 265.464 80.3127C264.382 80.3127 263.655 80.5548 263.285 81.0392C262.914 81.5236 262.729 82.4354 262.729 83.7745C262.729 85.1137 262.907 86.0397 263.263 86.5526C263.619 87.0654 264.36 87.3219 265.486 87.3219L267.986 87.1509L268.05 89.0101C266.611 89.2665 265.528 89.3947 264.802 89.3947C263.178 89.3947 262.031 88.9602 261.361 88.0912C260.706 87.2079 260.378 85.769 260.378 83.7745C260.378 81.78 260.727 80.3625 261.425 79.522C262.124 78.6672 263.263 78.2398 264.845 78.2398ZM272.631 89.1597H270.302V74.03H272.631V79.0305C273.686 78.5034 274.661 78.2398 275.559 78.2398C276.984 78.2398 277.952 78.6458 278.465 79.4579C278.992 80.2557 279.256 81.5806 279.256 83.4326V89.1597H276.927V83.4967C276.927 82.3428 276.806 81.5236 276.563 81.0392C276.321 80.5548 275.808 80.3127 275.025 80.3127C274.341 80.3127 273.657 80.4266 272.973 80.6546L272.631 80.7828V89.1597ZM282.545 79.6288C283.285 78.7028 284.511 78.2398 286.22 78.2398C287.93 78.2398 289.148 78.7028 289.874 79.6288C290.615 80.5548 290.986 81.9439 290.986 83.7959C290.986 85.6479 290.629 87.0441 289.917 87.9843C289.205 88.9246 287.973 89.3947 286.22 89.3947C284.468 89.3947 283.236 88.9246 282.523 87.9843C281.811 87.0441 281.455 85.6479 281.455 83.7959C281.455 81.9439 281.818 80.5548 282.545 79.6288ZM284.297 86.5739C284.625 87.1438 285.266 87.4287 286.22 87.4287C287.175 87.4287 287.816 87.1438 288.143 86.5739C288.471 86.0041 288.635 85.071 288.635 83.7745C288.635 82.4781 288.457 81.5592 288.101 81.0179C287.759 80.4765 287.132 80.2058 286.22 80.2058C285.308 80.2058 284.674 80.4765 284.318 81.0179C283.976 81.5592 283.805 82.4781 283.805 83.7745C283.805 85.071 283.969 86.0041 284.297 86.5739ZM293.428 89.1597V74.03H295.757V89.1597H293.428ZM299.281 79.6288C300.022 78.7028 301.247 78.2398 302.957 78.2398C304.667 78.2398 305.885 78.7028 306.611 79.6288C307.352 80.5548 307.722 81.9439 307.722 83.7959C307.722 85.6479 307.366 87.0441 306.654 87.9843C305.942 88.9246 304.709 89.3947 302.957 89.3947C301.205 89.3947 299.972 88.9246 299.26 87.9843C298.548 87.0441 298.192 85.6479 298.192 83.7959C298.192 81.9439 298.555 80.5548 299.281 79.6288ZM301.034 86.5739C301.361 87.1438 302.002 87.4287 302.957 87.4287C303.911 87.4287 304.553 87.1438 304.88 86.5739C305.208 86.0041 305.372 85.071 305.372 83.7745C305.372 82.4781 305.194 81.5592 304.837 81.0179C304.496 80.4765 303.869 80.2058 302.957 80.2058C302.045 80.2058 301.411 80.4765 301.055 81.0179C300.713 81.5592 300.542 82.4781 300.542 83.7745C300.542 85.071 300.706 86.0041 301.034 86.5739ZM319.375 90.6128C319.375 92.9492 317.686 94.1174 314.31 94.1174C312.686 94.1174 311.482 93.8966 310.699 93.455C309.915 93.0133 309.523 92.2084 309.523 91.0402C309.523 90.5131 309.651 90.0572 309.908 89.6725C310.164 89.3021 310.577 88.8961 311.147 88.4545C310.677 88.1411 310.442 87.6211 310.442 86.8945C310.442 86.6096 310.634 86.1466 311.019 85.5055L311.211 85.1849C310.186 84.5723 309.673 83.5038 309.673 81.9795C309.673 80.6973 310.058 79.757 310.827 79.1587C311.596 78.5603 312.636 78.2612 313.947 78.2612C314.574 78.2612 315.193 78.3324 315.806 78.4749L316.126 78.539L319.439 78.4535V80.334L317.665 80.2272C318.05 80.7258 318.242 81.3099 318.242 81.9795C318.242 83.3756 317.886 84.3444 317.174 84.8857C316.476 85.4129 315.379 85.6764 313.883 85.6764C313.512 85.6764 313.199 85.6479 312.942 85.5909C312.743 86.0753 312.643 86.4529 312.643 86.7235C312.643 86.98 312.771 87.158 313.028 87.2578C313.299 87.3575 313.94 87.4145 314.951 87.4287C316.646 87.443 317.808 87.6709 318.434 88.1126C319.061 88.5542 319.375 89.3876 319.375 90.6128ZM311.81 90.8265C311.81 91.3251 312.009 91.6813 312.408 91.895C312.807 92.1087 313.491 92.2155 314.46 92.2155C316.183 92.2155 317.045 91.724 317.045 90.741C317.045 90.1854 316.889 89.8292 316.575 89.6725C316.276 89.5301 315.671 89.4517 314.759 89.4375L312.665 89.3093C312.351 89.5657 312.13 89.8008 312.002 90.0145C311.874 90.2424 311.81 90.5131 311.81 90.8265ZM311.981 81.9795C311.981 82.6348 312.137 83.1192 312.451 83.4326C312.764 83.7318 313.27 83.8814 313.968 83.8814C314.666 83.8814 315.165 83.7318 315.464 83.4326C315.777 83.1192 315.934 82.6348 315.934 81.9795C315.934 81.3241 315.777 80.8469 315.464 80.5477C315.151 80.2343 314.645 80.0776 313.947 80.0776C312.636 80.0776 311.981 80.7116 311.981 81.9795ZM321.264 89.1597V78.4749H323.593V89.1597H321.264ZM321.264 76.6585V74.201H323.593V76.6585H321.264ZM330.414 78.2398C331.169 78.2398 332.06 78.3395 333.085 78.539L333.62 78.6458L333.534 80.4836C332.409 80.3696 331.575 80.3127 331.034 80.3127C329.951 80.3127 329.225 80.5548 328.854 81.0392C328.484 81.5236 328.299 82.4354 328.299 83.7745C328.299 85.1137 328.477 86.0397 328.833 86.5526C329.189 87.0654 329.93 87.3219 331.055 87.3219L333.556 87.1509L333.62 89.0101C332.181 89.2665 331.098 89.3947 330.371 89.3947C328.747 89.3947 327.601 88.9602 326.931 88.0912C326.276 87.2079 325.948 85.769 325.948 83.7745C325.948 81.78 326.297 80.3625 326.995 79.522C327.693 78.6672 328.833 78.2398 330.414 78.2398ZM343.778 81.7658V86.6381C343.793 86.9515 343.871 87.1865 344.013 87.3433C344.17 87.4857 344.405 87.5783 344.719 87.6211L344.655 89.3947C343.429 89.3947 342.482 89.1312 341.812 88.6041C340.673 89.1312 339.526 89.3947 338.372 89.3947C336.249 89.3947 335.188 88.2621 335.188 85.997C335.188 84.9142 335.473 84.1307 336.043 83.6463C336.627 83.1619 337.517 82.8699 338.714 82.7702L341.47 82.5351V81.7658C341.47 81.1959 341.342 80.797 341.086 80.5691C340.844 80.3411 340.48 80.2272 339.996 80.2272C339.084 80.2272 337.944 80.2842 336.577 80.3981L335.893 80.4409L335.808 78.7954C337.36 78.425 338.785 78.2398 340.081 78.2398C341.392 78.2398 342.332 78.5247 342.902 79.0946C343.486 79.6502 343.778 80.5406 343.778 81.7658ZM338.992 84.4156C338.009 84.5011 337.517 85.0353 337.517 86.0183C337.517 87.0013 337.952 87.4928 338.821 87.4928C339.533 87.4928 340.288 87.3789 341.086 87.1509L341.47 87.0227V84.1806L338.992 84.4156ZM346.831 89.1597V74.03H349.16V89.1597H346.831ZM361.996 89.3947C359.859 89.3947 358.406 88.8035 357.636 87.6211C356.881 86.4386 356.504 84.494 356.504 81.7872C356.504 79.0803 356.888 77.1571 357.658 76.0174C358.427 74.8634 359.873 74.2864 361.996 74.2864C363.264 74.2864 364.66 74.4645 366.184 74.8207L366.099 76.7439C364.817 76.516 363.534 76.402 362.252 76.402C360.97 76.402 360.101 76.7867 359.645 77.556C359.189 78.311 358.961 79.7428 358.961 81.8513C358.961 83.9455 359.182 85.3772 359.624 86.1466C360.065 86.9016 360.927 87.2791 362.209 87.2791C363.492 87.2791 364.788 87.1723 366.099 86.9586L366.163 88.9246C364.695 89.238 363.306 89.3947 361.996 89.3947ZM370.756 89.1597H368.427V74.03H370.756V79.0305C371.81 78.5034 372.786 78.2398 373.684 78.2398C375.108 78.2398 376.077 78.6458 376.59 79.4579C377.117 80.2557 377.381 81.5806 377.381 83.4326V89.1597H375.051V83.4967C375.051 82.3428 374.93 81.5236 374.688 81.0392C374.446 80.5548 373.933 80.3127 373.15 80.3127C372.466 80.3127 371.782 80.4266 371.098 80.6546L370.756 80.7828V89.1597ZM387.999 81.7658V86.6381C388.014 86.9515 388.092 87.1865 388.234 87.3433C388.391 87.4857 388.626 87.5783 388.94 87.6211L388.875 89.3947C387.65 89.3947 386.703 89.1312 386.033 88.6041C384.894 89.1312 383.747 89.3947 382.593 89.3947C380.47 89.3947 379.409 88.2621 379.409 85.997C379.409 84.9142 379.694 84.1307 380.263 83.6463C380.848 83.1619 381.738 82.8699 382.935 82.7702L385.691 82.5351V81.7658C385.691 81.1959 385.563 80.797 385.307 80.5691C385.064 80.3411 384.701 80.2272 384.217 80.2272C383.305 80.2272 382.165 80.2842 380.798 80.3981L380.114 80.4409L380.028 78.7954C381.581 78.425 383.006 78.2398 384.302 78.2398C385.613 78.2398 386.553 78.5247 387.123 79.0946C387.707 79.6502 387.999 80.5406 387.999 81.7658ZM383.212 84.4156C382.229 84.5011 381.738 85.0353 381.738 86.0183C381.738 87.0013 382.172 87.4928 383.042 87.4928C383.754 87.4928 384.509 87.3789 385.307 87.1509L385.691 87.0227V84.1806L383.212 84.4156ZM393.253 89.1597H390.923V78.4749H393.231V79.1373C394.271 78.539 395.254 78.2398 396.18 78.2398C397.605 78.2398 398.574 78.6458 399.087 79.4579C399.614 80.2557 399.877 81.5806 399.877 83.4326V89.1597H397.569V83.4967C397.569 82.3428 397.441 81.5236 397.185 81.0392C396.942 80.5548 396.437 80.3127 395.667 80.3127C394.941 80.3127 394.243 80.4551 393.573 80.74L393.253 80.8683V89.1597ZM411.928 90.6128C411.928 92.9492 410.239 94.1174 406.863 94.1174C405.239 94.1174 404.035 93.8966 403.251 93.455C402.468 93.0133 402.076 92.2084 402.076 91.0402C402.076 90.5131 402.204 90.0572 402.461 89.6725C402.717 89.3021 403.13 88.8961 403.7 88.4545C403.23 88.1411 402.995 87.6211 402.995 86.8945C402.995 86.6096 403.187 86.1466 403.572 85.5055L403.764 85.1849C402.739 84.5723 402.226 83.5038 402.226 81.9795C402.226 80.6973 402.61 79.757 403.38 79.1587C404.149 78.5603 405.189 78.2612 406.5 78.2612C407.126 78.2612 407.746 78.3324 408.359 78.4749L408.679 78.539L411.992 78.4535V80.334L410.218 80.2272C410.603 80.7258 410.795 81.3099 410.795 81.9795C410.795 83.3756 410.439 84.3444 409.726 84.8857C409.028 85.4129 407.931 85.6764 406.436 85.6764C406.065 85.6764 405.752 85.6479 405.495 85.5909C405.296 86.0753 405.196 86.4529 405.196 86.7235C405.196 86.98 405.324 87.158 405.581 87.2578C405.851 87.3575 406.493 87.4145 407.504 87.4287C409.199 87.443 410.36 87.6709 410.987 88.1126C411.614 88.5542 411.928 89.3876 411.928 90.6128ZM404.363 90.8265C404.363 91.3251 404.562 91.6813 404.961 91.895C405.36 92.1087 406.044 92.2155 407.013 92.2155C408.736 92.2155 409.598 91.724 409.598 90.741C409.598 90.1854 409.442 89.8292 409.128 89.6725C408.829 89.5301 408.223 89.4517 407.312 89.4375L405.217 89.3093C404.904 89.5657 404.683 89.8008 404.555 90.0145C404.427 90.2424 404.363 90.5131 404.363 90.8265ZM404.534 81.9795C404.534 82.6348 404.69 83.1192 405.004 83.4326C405.317 83.7318 405.823 83.8814 406.521 83.8814C407.219 83.8814 407.718 83.7318 408.017 83.4326C408.33 83.1192 408.487 82.6348 408.487 81.9795C408.487 81.3241 408.33 80.8469 408.017 80.5477C407.703 80.2343 407.198 80.0776 406.5 80.0776C405.189 80.0776 404.534 80.7116 404.534 81.9795ZM421.424 87.2364L422.022 87.1723L422.065 88.9032C420.441 89.2309 419.002 89.3947 417.748 89.3947C416.167 89.3947 415.027 88.9602 414.329 88.0912C413.645 87.2222 413.304 85.8331 413.304 83.9241C413.304 80.1346 414.849 78.2398 417.941 78.2398C420.932 78.2398 422.428 79.871 422.428 83.1334L422.279 84.8003H415.654C415.668 85.6835 415.861 86.3318 416.231 86.7449C416.602 87.158 417.293 87.3646 418.304 87.3646C419.316 87.3646 420.355 87.3219 421.424 87.2364ZM420.142 83.0052C420.142 81.951 419.971 81.2173 419.629 80.8042C419.301 80.3768 418.739 80.1631 417.941 80.1631C417.143 80.1631 416.559 80.3839 416.188 80.8255C415.832 81.2672 415.647 81.9937 415.633 83.0052H420.142ZM437.847 89.1597H429.641V74.5215H432.013V87.0441H437.847V89.1597ZM447.413 81.7658V86.6381C447.427 86.9515 447.505 87.1865 447.648 87.3433C447.804 87.4857 448.039 87.5783 448.353 87.6211L448.289 89.3947C447.064 89.3947 446.116 89.1312 445.447 88.6041C444.307 89.1312 443.16 89.3947 442.006 89.3947C439.883 89.3947 438.822 88.2621 438.822 85.997C438.822 84.9142 439.107 84.1307 439.677 83.6463C440.261 83.1619 441.151 82.8699 442.348 82.7702L445.105 82.5351V81.7658C445.105 81.1959 444.976 80.797 444.72 80.5691C444.478 80.3411 444.115 80.2272 443.63 80.2272C442.718 80.2272 441.579 80.2842 440.211 80.3981L439.527 80.4409L439.442 78.7954C440.995 78.425 442.419 78.2398 443.716 78.2398C445.026 78.2398 445.967 78.5247 446.536 79.0946C447.121 79.6502 447.413 80.5406 447.413 81.7658ZM442.626 84.4156C441.643 84.5011 441.151 85.0353 441.151 86.0183C441.151 87.0013 441.586 87.4928 442.455 87.4928C443.167 87.4928 443.922 87.3789 444.72 87.1509L445.105 87.0227V84.1806L442.626 84.4156ZM455.316 78.2398C456.783 78.2398 457.837 78.653 458.479 79.4792C459.134 80.2913 459.462 81.7373 459.462 83.8173C459.462 85.8972 459.077 87.3504 458.308 88.1767C457.538 88.9887 456.185 89.3947 454.247 89.3947C453.578 89.3947 452.516 89.3306 451.063 89.2024L450.337 89.1383V74.03H452.645V78.8809C453.628 78.4535 454.518 78.2398 455.316 78.2398ZM454.247 87.3219C455.387 87.3219 456.142 87.0583 456.513 86.5312C456.897 85.9898 457.09 85.0781 457.09 83.7959C457.09 82.5137 456.926 81.6162 456.598 81.1033C456.285 80.5762 455.765 80.3127 455.038 80.3127C454.354 80.3127 453.67 80.4195 452.987 80.6332L452.645 80.74V87.2364C453.428 87.2934 453.962 87.3219 454.247 87.3219Z" fill="white"/>
<g clip-path="url(#clip1_283_478)">
<path fill-rule="evenodd" clip-rule="evenodd" d="M367.426 19.6453H459.624V65.6996H367.426V19.6453ZM419.845 33.428C419.181 34.1213 418.031 35.3327 418.035 37.2769V48.8887C418.035 50.3919 418.452 51.1727 419.399 52.113C420.31 53.0173 421.334 53.4326 422.618 53.4326H428.548V49.3246H423.574C423.114 49.3246 422.819 49.1444 422.515 48.8012C422.083 48.3122 422.146 47.5486 422.146 47.5486V44.7138H427.471L427.464 40.599L422.146 40.5955V38.3168C422.146 38.3168 422.172 37.6252 422.795 36.8719C423.418 36.1186 424.406 36.0242 424.406 36.0242L428.548 36.0191V31.9094H423.086C421.69 31.9094 420.42 32.8309 419.845 33.428ZM441.848 53.4348C443.274 53.4424 447.434 53.4644 447.461 48.6588H447.459V36.8771C447.451 31.907 442.968 31.9102 441.775 31.9111L433.62 31.9111V53.4343H441.702C441.747 53.4343 441.795 53.4346 441.848 53.4348ZM443.344 46.356C443.344 46.356 443.665 49.3246 440.903 49.3212V49.3229H437.733V36.0242H440.928C443.454 36.0227 443.38 38.5107 443.352 39.4503C443.35 39.5317 443.348 39.6014 443.348 39.6569L443.344 46.356ZM408.983 36.0225H406.061C403.913 36.0208 403.365 37.6595 403.365 39.5248V53.4343H399.254V36.9817C399.261 34.0063 402.164 31.9111 405.14 31.9111H413.095V53.4343H408.983V36.0225ZM384.612 49.3229H387.567L387.569 49.3246C389.703 49.3263 390.24 47.7202 390.242 45.8687V31.9111H394.353V48.4066C394.345 51.3631 391.464 53.4343 388.511 53.4343H380.523V31.9111H384.633L384.612 49.3229Z" fill="white"/>
</g>
<defs>
<clipPath id="clip0_283_478">
<rect width="84.1053" height="85" fill="white" transform="translate(33.4141 13.5)"/>
</clipPath>
<clipPath id="clip1_283_478">
<rect x="371.253" y="22.8292" width="85.4784" height="39.6864" rx="7.632" fill="white"/>
</clipPath>
</defs>
</svg>
