<svg width="501" height="112" viewBox="0 0 501 112" fill="none" xmlns="http://www.w3.org/2000/svg">
<g clip-path="url(#clip0_283_298)">
<path d="M61.7382 13.585C61.9519 13.6322 62.1227 13.6898 62.2982 13.7253C66.0245 14.4781 68.5145 17.4442 68.5161 21.1596C68.5205 31.017 68.5176 40.8744 68.5177 50.7318C68.5177 53.4918 68.5188 56.2519 68.518 59.012C68.517 62.1275 65.8822 64.9701 62.699 65.3221C61.7085 65.4316 60.7425 65.3605 59.7427 65.1107C59.5217 65.7795 59.3028 66.442 59.0638 67.1652C60.7588 67.6928 62.4405 67.7184 64.1334 67.2735C65.8178 66.8308 67.2468 65.9659 68.4822 64.6738C68.4981 64.8393 68.5166 64.9424 68.5166 65.0456C68.5178 73.706 68.5217 82.3664 68.5154 91.0268C68.5131 94.1739 66.6841 96.8619 63.7281 98.0309C63.1202 98.2713 62.4511 98.3645 61.7945 98.5553C61.1414 98.585 60.504 98.585 59.8141 98.5546C59.6222 98.4901 59.4837 98.4511 59.343 98.4227C57.6434 98.0802 56.2293 97.2588 55.0929 95.9883C54.1737 94.9605 53.6049 93.7595 53.3379 92.4347C53.2876 92.4224 53.2593 92.4071 53.2336 92.4106C53.1481 92.4221 53.0632 92.4387 52.9787 92.4562C51.0509 92.8558 49.1677 92.6781 47.3968 91.861C44.2234 90.3969 42.4225 87.9256 42.0415 84.5187C41.5608 80.2202 45.0949 77.1816 48.9531 77.3025C49.289 77.313 49.4779 77.3957 49.6136 77.7422C50.5343 80.0943 52.2005 81.7655 54.5671 82.7731C54.7038 82.8314 54.8405 82.8897 54.9926 82.9545C53.9578 84.1676 53.341 85.49 53.3589 87.0808C54.1111 87.0808 54.8264 87.0808 55.5414 87.0808C55.6709 84.0276 58.7823 82.4127 61.3884 83.4982C61.6952 82.8585 62.0028 82.2173 62.3219 81.5519C60.9557 80.9774 59.5959 80.8224 58.1825 81.1481C57.9469 81.2024 57.6989 81.2561 57.4609 81.2419C54.1948 81.0477 51.3873 78.1949 51.2899 75.0111C51.2507 73.7298 51.5516 72.5364 52.1731 71.3791C51.5229 71.0185 50.8927 70.6691 50.2464 70.3108C49.3447 71.8293 49.0144 73.4204 49.0313 75.089C44.6074 75.1899 41.6444 77.2652 40.0564 81.2403C36.8063 80.1287 33.7177 77.1705 33.0719 73.1738C32.1236 67.3056 34.7064 63.2051 40.2359 60.7612C39.9699 60.1281 39.6992 59.4836 39.4208 58.8209C38.1394 59.255 36.9685 59.8049 35.9685 60.6237C34.9718 61.4399 34.0439 62.336 33.0674 63.2136C31.4635 61.9936 30.3054 60.3928 29.7674 58.3842C29.6602 57.9841 29.5545 57.5837 29.4481 57.1834C29.4481 56.4775 29.4481 55.7716 29.4784 55.0111C30.0615 51.5724 31.9739 49.1907 35.1611 47.7486C35.0677 47.6218 35.0001 47.5319 34.9345 47.4407C33.0324 44.7957 32.4217 41.8776 33.1093 38.7327C33.6306 36.3481 34.8691 34.3332 36.8105 32.7854C40.1787 30.1001 43.9415 29.5153 48.0164 30.9737C49.7273 31.586 51.1505 32.6374 52.3455 33.9772C52.4987 34.1491 52.7069 34.3294 52.7477 34.5329C53.0889 36.2323 53.8262 37.7324 55.0413 38.9985C55.9576 39.9532 57.0302 40.6901 58.3329 41.181C58.6079 40.5067 58.8714 39.8603 59.149 39.1796C57.0067 38.2451 55.5538 36.7258 55.055 34.5032C54.5564 32.281 55.0952 30.2721 56.684 28.5534C58.7427 29.5537 60.7533 29.5192 62.7895 28.4547C62.4099 27.8114 62.0474 27.1974 61.6856 26.5843C60.3596 27.2186 59.0594 27.2886 57.7761 26.6392C56.4779 25.9823 55.7864 24.8911 55.5937 23.4607C54.8347 23.529 54.1117 23.594 53.3619 23.6615C53.516 25.0235 54.038 26.1725 54.9205 27.1964C53.8406 28.3664 53.1734 29.7322 52.7961 31.293C49.6521 28.6897 46.0696 27.6615 42.0111 28.1403C42.1183 25.9699 42.8376 24.0848 44.3038 22.5269C46.7511 19.9266 49.7975 19.0569 53.3223 19.757C54.0023 16.5377 56.4644 14.2374 59.5329 13.7018C59.6214 13.6864 59.7013 13.6249 59.7853 13.585C60.4227 13.585 61.0602 13.585 61.7382 13.585ZM47.3721 48.4046C45.5135 46.4219 43.2084 45.428 40.4349 45.3792C40.4349 45.7833 40.4349 46.1318 40.4349 46.4802C40.4349 46.8415 40.4349 47.2028 40.4349 47.5632C45.4003 47.4759 49.0227 52.6508 46.5054 57.4047C47.1421 57.7452 47.7791 58.0859 48.4231 58.4303C48.4969 58.319 48.5423 58.264 48.573 58.2021C49.7831 55.7666 49.917 53.2893 48.8578 50.7731C48.7632 50.5484 48.7226 50.3864 48.8985 50.1693C50.9958 47.5792 54.8308 46.9108 57.7128 48.6453C58.6488 49.2086 59.4033 49.9529 60.0096 50.8913C60.6538 50.5133 61.2763 50.1479 61.8976 49.7833C61.8691 49.7058 61.861 49.6635 61.8399 49.6289C59.5251 45.8381 54.2127 44.3827 50.1838 46.4151C49.1446 46.9393 48.2595 47.6433 47.3721 48.4046Z" fill="#095540"/>
<path d="M80.0216 98.5846C79.2354 98.2074 78.4255 97.9156 77.7559 97.4372C75.5927 95.8916 74.9852 93.0263 76.243 90.6613C77.4453 88.4008 80.2819 87.2875 82.7933 88.0776C84.0228 88.4644 84.9968 89.1762 85.7029 90.222C85.881 90.4857 86.0291 90.5445 86.3252 90.4192C87.7541 89.8143 89.1894 89.2236 90.6262 88.6367C90.8343 88.5516 90.9433 88.4755 90.9071 88.2147C90.699 86.7133 91.2273 85.5016 92.4966 84.6235C92.7611 84.4405 92.655 84.2701 92.583 84.0838C92.1512 82.9656 91.712 81.8502 91.2762 80.7335C91.0148 80.0635 90.7434 79.3968 90.5009 78.7203C90.4162 78.4838 90.3019 78.4039 90.0411 78.3983C88.518 78.3653 87.441 77.2104 87.5161 75.7161C87.5845 74.357 88.8498 73.3008 90.3015 73.4121C90.5991 73.4349 90.8903 73.5364 91.2291 73.6115C91.9395 72.7879 92.6727 71.9391 93.4044 71.0893C93.7478 70.6904 94.0763 70.2786 94.4356 69.8939C94.6181 69.6985 94.6461 69.5608 94.5084 69.3116C93.9959 68.3841 94.0515 67.4594 94.6984 66.6137C95.3586 65.7507 96.2811 65.4363 97.3437 65.6701C98.3949 65.9015 99.0658 66.5875 99.2805 67.6136C99.4685 68.5121 99.205 69.3182 98.4973 69.9505C97.7637 70.606 96.8982 70.7882 95.9641 70.4886C95.6635 70.3922 95.5292 70.4559 95.3553 70.6607C94.3609 71.8313 93.3615 72.9979 92.353 74.1568C92.1923 74.3415 92.2087 74.4736 92.3204 74.675C92.9263 75.7673 92.7273 76.9279 91.7887 77.7867C91.6249 77.9367 91.5351 78.0415 91.6291 78.2801C92.3526 80.1173 93.0594 81.9609 93.7724 83.8021C93.8022 83.8791 93.8418 83.9524 93.8827 84.0399C95.006 83.8646 96.0298 84.0813 96.9072 84.77C98.1076 85.7122 98.5691 86.9572 98.2464 88.4172C97.9222 89.8841 96.9473 90.8463 95.4636 91.1817C93.9887 91.5152 92.6821 91.1033 91.7015 89.932C91.493 89.6829 91.3392 89.6165 91.0313 89.7469C89.5114 90.3908 87.9823 91.0139 86.4243 91.6576C86.9087 93.4568 86.6006 95.1072 85.43 96.5607C84.5601 97.6408 83.3887 98.2706 81.9904 98.5557C81.3372 98.5846 80.6997 98.5846 80.0216 98.5846Z" fill="#095540"/>
<path d="M82.0074 13.8853C85.7075 14.2779 86.9596 17.7795 86.558 19.9286C86.1505 22.1096 84.4194 23.814 82.174 24.2464C82.0337 24.2734 81.895 24.3087 81.7334 24.3451C81.7334 25.6691 81.7334 26.9878 81.7334 28.2867C82.2009 28.4856 82.6914 28.6282 83.1092 28.8839C84.5475 29.7642 85.1285 31.2376 84.7242 32.9548C84.6552 33.2479 84.7436 33.3495 84.9697 33.4764C86.0701 34.0941 87.1649 34.7212 88.2566 35.3535C88.4652 35.4743 88.6124 35.4984 88.8298 35.3304C89.7294 34.6349 90.9025 34.5863 91.8172 35.1726C92.7545 35.7735 93.1878 36.8446 92.9173 37.8921C92.639 38.9703 91.7533 39.6836 90.5962 39.7966C90.4521 39.8106 90.2485 39.9411 90.1997 40.0652C89.9779 40.629 89.798 41.2086 89.6103 41.7848C89.4363 42.3186 89.2714 42.8553 89.099 43.402C89.8867 43.9636 90.3522 44.6764 90.3152 45.6565C90.2774 46.6585 89.6419 47.5342 88.643 47.9108C87.7134 48.2611 86.5766 48.0115 85.8891 47.306C85.1827 46.5812 84.9628 45.4852 85.3702 44.6021C85.803 43.6639 86.5389 43.1153 87.6109 43.0691C87.869 43.0579 87.9514 42.9546 88.0191 42.7415C88.3351 41.7481 88.6601 40.7573 88.9955 39.77C89.0735 39.5403 89.0511 39.4176 88.8325 39.2486C88.059 38.6503 87.7422 37.8429 87.8986 36.8913C87.9434 36.6185 87.8786 36.4917 87.6416 36.3608C86.5746 35.7715 85.5084 35.1797 84.4644 34.5533C84.1356 34.356 83.9507 34.3698 83.663 34.6296C82.5115 35.6697 80.8796 35.9061 79.52 35.2752C78.1437 34.6367 77.3131 33.2658 77.3809 31.7448C77.4464 30.2761 78.5383 28.9144 79.9872 28.495C80.1387 28.4512 80.2907 28.4094 80.4677 28.3595C80.4677 27.0256 80.4677 25.6955 80.4677 24.3317C79.53 24.172 78.6306 23.8905 77.862 23.3061C76.076 21.9483 75.286 20.1665 75.7041 17.9962C76.128 15.7959 78.3072 13.4928 82.0074 13.8853Z" fill="#095540"/>
<path d="M112.659 56.8901C112.54 57.2702 112.425 57.6118 112.303 57.951C111.513 60.1423 109.211 61.5482 106.834 61.4475C102.708 61.2726 100.039 56.6068 102.627 52.977C102.651 52.9437 102.663 52.9023 102.697 52.8287C101.877 52.071 101.053 51.3081 100.227 50.5463C99.8914 50.2367 99.5451 49.9377 99.2201 49.6179C99.0419 49.4426 98.9098 49.4225 98.6679 49.546C96.933 50.4317 94.8726 49.6408 94.2833 47.8826C93.8669 46.6405 94.301 45.2818 95.3552 44.5274C96.4964 43.7109 97.8672 43.7058 99.0198 44.5148C99.1596 44.6129 99.2965 44.7148 99.4557 44.8301C100.99 43.8858 102.529 42.9446 104.055 41.9833C104.149 41.9242 104.187 41.7006 104.168 41.5648C103.933 39.9116 105.103 38.551 106.756 38.5723C107.829 38.5861 108.783 39.2576 109.123 40.2397C109.49 41.2986 109.173 42.3846 108.304 43.0494C107.433 43.7149 106.203 43.7957 105.316 43.1728C104.963 42.9256 104.741 42.9674 104.413 43.1752C103.07 44.0264 101.71 44.8512 100.357 45.6869C100.273 45.7387 100.196 45.801 100.102 45.8681C100.375 46.7302 100.333 47.5625 99.9022 48.3673C99.8655 48.4359 99.9 48.5943 99.9605 48.6508C101.147 49.7575 102.342 50.8553 103.542 51.9619C103.682 51.868 103.789 51.7991 103.893 51.7266C106.991 49.5629 111.3 50.9801 112.419 54.5315C112.481 54.73 112.539 54.9299 112.629 55.1423C112.659 55.7204 112.659 56.2855 112.659 56.8901Z" fill="#079268"/>
<path d="M80.0182 61.0118C80.3 60.4071 80.5462 59.8205 80.8418 59.2586C81.013 58.9331 80.9692 58.7184 80.722 58.4451C79.6863 57.3001 79.9041 55.6329 81.1791 54.749C82.2926 53.9769 83.8459 54.2035 84.6988 55.2901C84.8989 55.545 85.067 55.6022 85.3841 55.5175C86.5936 55.1944 87.8095 54.8919 89.0305 54.613C89.3554 54.5388 89.4705 54.3958 89.5189 54.0882C89.6724 53.1118 90.2597 52.4564 91.1985 52.1147C92.154 51.7669 93.0262 51.9708 93.7782 52.6107C94.9021 53.567 94.9203 55.2851 93.8415 56.2905C92.7285 57.3277 90.9858 57.2127 90.0251 55.9994C89.7891 55.7013 89.5957 55.6876 89.2678 55.7747C88.0714 56.0925 86.8684 56.3873 85.6644 56.677C85.3925 56.7425 85.2677 56.8633 85.2101 57.1443C84.9168 58.5761 83.9761 59.2977 82.4622 59.3152C82.3262 59.3168 82.1224 59.4215 82.0677 59.5331C81.5579 60.5733 81.0664 61.6224 80.5943 62.6794C80.55 62.7787 80.6305 63.0032 80.7276 63.0795C81.913 64.0125 82.549 65.1825 82.5203 66.6962C82.4866 68.4803 81.3044 70.1294 79.5944 70.6976C77.726 71.3185 75.7112 70.7629 74.5623 69.3101C72.4799 66.6769 73.9341 62.9169 77.2991 62.3004C77.8376 62.2017 78.4199 62.2775 78.9747 62.337C79.2567 62.3673 79.4054 62.3231 79.5142 62.0741C79.6666 61.7251 79.8393 61.3845 80.0182 61.0118Z" fill="#FBBE01"/>
<path d="M107.118 76.7135C104.788 78.2067 101.952 76.89 101.356 74.5327C101.003 73.1366 101.565 71.6458 102.81 70.7277C103.94 69.8939 105.57 69.8023 106.815 70.5023C109.273 71.8838 109.439 75.0008 107.118 76.7135Z" fill="#079268"/>
<path d="M98.8885 31.3371C100.062 30.5082 101.403 30.4498 102.513 31.1606C103.581 31.8448 104.096 33.0885 103.823 34.3229C103.554 35.5359 102.457 36.5095 101.208 36.6443C99.9271 36.7826 98.6012 36.1088 98.1023 35.0659C97.4848 33.775 97.7004 32.4398 98.6738 31.5286C98.7363 31.4702 98.8011 31.4142 98.8885 31.3371Z" fill="#FFE38C"/>
<path d="M78.4937 47.457C79.6764 47.5774 80.597 48.3021 80.8381 49.2723C81.1163 50.3922 80.7187 51.435 79.7795 52.0485C78.8779 52.6374 77.6619 52.5937 76.78 51.9407C75.9411 51.3195 75.5784 50.2002 75.8987 49.2206C76.2444 48.1635 77.1639 47.4823 78.2811 47.4561C78.3388 47.4548 78.3966 47.4562 78.4937 47.457Z" fill="#FFE38C"/>
<path d="M92.6297 21.7841C93.8115 20.2186 96.1073 20.4705 96.9775 21.9685C97.5969 23.0347 97.3698 24.3436 96.4128 25.1407C95.5245 25.8804 94.1278 25.9236 93.2071 25.2399C92.2091 24.4987 91.8901 23.191 92.444 22.1042C92.4952 22.0037 92.5578 21.9088 92.6297 21.7841Z" fill="#079268"/>
<path d="M86.7145 61.5769C87.0449 60.5116 87.7638 59.8915 88.8412 59.7392C89.8818 59.5921 90.748 59.9629 91.3402 60.8261C91.9207 61.6724 91.941 62.5639 91.4423 63.4567C90.8983 64.4308 89.7322 64.9122 88.6009 64.6441C87.4454 64.3702 86.6689 63.4551 86.6456 62.3216C86.6408 62.0851 86.6828 61.8476 86.7145 61.5769Z" fill="#079268"/>
<path d="M85.4589 86.2612C84.2112 86.1606 83.2299 85.2586 83.0942 84.122C82.9457 82.8794 83.6941 81.6956 84.8327 81.372C86.0429 81.0281 87.3882 81.5352 87.9169 82.5771C88.8953 84.5055 87.3276 86.4155 85.4589 86.2612Z" fill="#079268"/>
<path d="M74.4474 77.958C73.2287 76.9074 73.3251 75.0163 74.6852 74.0542C75.4751 73.4955 76.6558 73.4456 77.4983 73.9612C78.4385 74.5367 78.9068 75.5556 78.6913 76.5572C78.2698 78.5165 75.9804 79.2876 74.4474 77.958Z" fill="#079268"/>
<path d="M73.7421 39.0378C74.1637 37.9035 75.3144 37.2026 76.464 37.3535C77.7356 37.5203 78.6345 38.4606 78.7411 39.7353C78.8314 40.8157 78.0371 41.9731 76.9102 42.2546C75.9558 42.493 75.0448 42.3476 74.3261 41.6001C73.6245 40.8704 73.4402 40.0228 73.7421 39.0378Z" fill="#079268"/>
<path d="M90.3511 29.4326C89.5725 30.3364 88.3543 30.4842 87.48 29.8033C86.6322 29.143 86.4692 27.9305 87.1136 27.0781C87.7591 26.2242 88.9947 26.0331 89.8916 26.6483C90.8187 27.2842 91.0173 28.43 90.3511 29.4326Z" fill="#FFE38C"/>
<path d="M76.4568 83.3227C77.0601 82.7787 77.71 82.7193 78.2686 83.1367C78.7685 83.5101 78.9346 84.2295 78.6448 84.7663C78.2788 85.4445 77.4324 85.6716 76.7601 85.272C76.0602 84.856 75.922 84.036 76.4568 83.3227Z" fill="#FBBE01"/>
<path d="M80.6415 44.7256C80.0473 44.3486 79.9553 43.8186 80.0868 43.2301C80.1845 42.7926 80.7396 42.375 81.23 42.3277C81.7661 42.2759 82.2936 42.576 82.562 43.0853C82.8022 43.5413 82.686 44.1867 82.2961 44.5615C81.8628 44.9782 81.2845 45.0424 80.6415 44.7256Z" fill="#FBBE01"/>
<path d="M96.5058 40.8357C95.7864 40.312 95.6416 39.5708 96.1142 38.9535C96.5412 38.3955 97.3909 38.2571 97.9628 38.6523C98.5458 39.055 98.6855 39.9008 98.2667 40.492C97.9043 41.0036 97.2217 41.1457 96.5058 40.8357Z" fill="#FBBE01"/>
<path d="M74.4501 27.7939C73.6917 27.4391 73.4048 26.7221 73.7139 26.0308C73.967 25.4649 74.7201 25.1387 75.3048 25.3418C76.0463 25.5994 76.4203 26.2918 76.1925 26.9851C75.9667 27.6723 75.2927 27.9945 74.4501 27.7939Z" fill="#FBBE01"/>
<path d="M97.1137 73.8774C97.9075 73.8536 98.434 74.1861 98.6146 74.7958C98.7854 75.3726 98.5389 75.9828 97.9972 76.2807C97.5303 76.5375 97.0499 76.5318 96.6045 76.2438C96.1108 75.9246 95.9146 75.447 96.0342 74.8883C96.1503 74.3464 96.521 74.0113 97.1137 73.8774Z" fill="#FBBE01"/>
<path d="M97.9967 61.3929C97.8603 62.1099 97.4794 62.5138 96.8855 62.6045C96.312 62.6922 95.7776 62.4428 95.5011 61.9586C95.2272 61.4788 95.2822 60.937 95.6484 60.5074C95.9931 60.1031 96.5407 59.939 97.0493 60.0877C97.5961 60.2476 97.9469 60.7173 97.9967 61.3929Z" fill="#FFE38C"/>
<path d="M85.039 52.3166C84.753 51.6836 84.8233 51.1623 85.2257 50.7713C85.6513 50.3579 86.2049 50.2515 86.7349 50.4813C87.2245 50.6936 87.5452 51.2067 87.5194 51.7363C87.4939 52.2582 87.1233 52.7265 86.5992 52.8991C86.0278 53.0872 85.5244 52.9058 85.039 52.3166Z" fill="#079268"/>
<path d="M81.2621 77.0061C81.8205 76.6863 82.3392 76.718 82.8171 77.0855C83.2565 77.4235 83.3796 77.8918 83.2639 78.4089C83.1441 78.9447 82.7636 79.2436 82.2307 79.3646C81.6949 79.4863 81.0606 79.1855 80.817 78.7052C80.5063 78.0926 80.6568 77.4885 81.2621 77.0061Z" fill="#FFE38C"/>
<path d="M96.4559 56.565C96.2676 55.7941 96.6294 55.1306 97.3205 54.9292C98.0097 54.7284 98.7322 55.086 98.9567 55.7391C99.1947 56.4316 98.8584 57.1391 98.1722 57.3894C97.4736 57.6442 96.7876 57.3257 96.4559 56.565Z" fill="#079268"/>
<path d="M84.9892 70.9775C85.3987 71.462 85.4626 71.9612 85.1695 72.4871C84.9202 72.9344 84.3673 73.2072 83.8602 73.1356C83.2959 73.0559 82.9131 72.7464 82.7336 72.2173C82.5538 71.6877 82.7967 71.0709 83.299 70.7458C83.783 70.4326 84.4409 70.5149 84.9892 70.9775Z" fill="#709D90"/>
<path d="M77.2918 56.6789C77.2057 57.4427 76.782 57.895 76.0857 58.0019C75.5758 58.0801 74.9151 57.6888 74.7102 57.169C74.5166 56.6781 74.6118 56.2319 74.9748 55.8411C75.3651 55.4211 75.8457 55.3015 76.3883 55.4755C76.9567 55.6578 77.2268 56.0805 77.2918 56.6789Z" fill="#709D90"/>
<path d="M102.597 66.0691C101.84 65.8633 101.421 65.198 101.587 64.5127C101.744 63.8617 102.474 63.4093 103.142 63.5479C103.852 63.6948 104.345 64.3687 104.211 65.0066C104.049 65.7783 103.417 66.2054 102.597 66.0691Z" fill="#709D90"/>
<path d="M94.7514 31.0636C93.8267 30.5609 93.5837 29.8296 94.0719 29.1093C94.4421 28.5631 95.1508 28.3736 95.7449 28.6621C96.34 28.951 96.6477 29.64 96.4392 30.2167C96.2077 30.8574 95.5681 31.2239 94.9122 31.0921C94.8698 31.0836 94.8268 31.0782 94.7514 31.0636Z" fill="#709D90"/>
<path d="M82.15 38.7208C82.4694 37.4955 83.797 37.458 84.3696 38.0087C84.7844 38.4075 84.9068 39.0786 84.6354 39.5637C84.353 40.0686 83.7432 40.3363 83.1643 40.2095C82.5702 40.0794 82.1625 39.6029 82.1396 39.009C82.1364 38.9248 82.1434 38.8403 82.15 38.7208Z" fill="#FFE38C"/>
<path d="M99.6646 82.0413C99.087 82.4195 98.5329 82.4248 97.9952 82.0414C97.5744 81.7414 97.3915 81.1707 97.535 80.684C97.6834 80.1804 98.185 79.7906 98.7383 79.7491C99.2785 79.7085 99.7918 80.0026 100.032 80.49C100.291 81.0176 100.182 81.5059 99.6646 82.0413Z" fill="#079268"/>
<path d="M90.1025 69.5838C89.5703 70.0064 88.9328 70.075 88.436 69.7833C87.9821 69.5169 87.7658 69.0148 87.8535 68.4796C87.9432 67.9326 88.2596 67.5981 88.8018 67.4526C89.3081 67.3167 89.7651 67.4353 90.1069 67.7978C90.47 68.1829 90.5897 68.6599 90.3712 69.1693C90.3113 69.3089 90.2083 69.4311 90.1025 69.5838Z" fill="#079268"/>
</g>
<path d="M160.706 49.0827H153.013V60.7871H146.913V23.1461H160.706C169.241 23.1461 173.509 27.359 173.509 35.7847C173.509 40.1074 172.428 43.4045 170.267 45.6758C168.142 47.947 164.955 49.0827 160.706 49.0827ZM153.013 43.8074H160.651C165.047 43.8074 167.245 41.1332 167.245 35.7847C167.245 33.2203 166.714 31.352 165.651 30.1797C164.589 29.0075 162.922 28.4213 160.651 28.4213H153.013V43.8074ZM197.732 38.9718C193.41 38.3857 190.277 38.0926 188.336 38.0926C186.394 38.0926 185.039 38.3307 184.269 38.807C183.537 39.2466 183.17 39.9609 183.17 40.95C183.17 41.9391 183.573 42.6352 184.379 43.0381C185.222 43.4411 187.164 43.9173 190.204 44.4668C193.281 44.9797 195.461 45.804 196.743 46.9396C198.025 48.0753 198.666 50.0901 198.666 52.9842C198.666 55.8782 197.732 58.003 195.864 59.3584C194.032 60.7138 191.34 61.3916 187.786 61.3916C185.552 61.3916 182.731 61.0802 179.324 60.4574L177.62 60.1827L177.84 55.1822C182.236 55.7683 185.405 56.0614 187.347 56.0614C189.288 56.0614 190.662 55.8233 191.468 55.347C192.311 54.8708 192.732 54.0832 192.732 52.9842C192.732 51.8851 192.329 51.1342 191.523 50.7312C190.754 50.2916 188.867 49.8337 185.863 49.3574C182.896 48.8446 180.716 48.0569 179.324 46.9946C177.932 45.9322 177.236 43.9906 177.236 41.1698C177.236 38.349 178.188 36.2426 180.093 34.8505C182.035 33.4584 184.508 32.7624 187.512 32.7624C189.856 32.7624 192.732 33.0555 196.139 33.6416L197.842 33.9713L197.732 38.9718ZM201.519 33.3119H207.399L213.224 55.6767H214.707L220.532 33.3119H226.467L216.026 72.6014H210.146L213.443 60.7871H208.718L201.519 33.3119ZM240.886 32.7075C242.827 32.7075 245.117 32.9639 247.754 33.4768L249.128 33.7515L248.908 38.4773C246.014 38.1842 243.871 38.0376 242.479 38.0376C239.695 38.0376 237.827 38.6604 236.874 39.906C235.922 41.1515 235.445 43.4961 235.445 46.9396C235.445 50.3832 235.903 52.7644 236.819 54.0832C237.735 55.402 239.64 56.0614 242.534 56.0614L248.963 55.6218L249.128 60.4025C245.428 61.0619 242.644 61.3916 240.776 61.3916C236.599 61.3916 233.65 60.2742 231.929 58.0396C230.244 55.7683 229.401 52.0683 229.401 46.9396C229.401 41.8109 230.298 38.1659 232.094 36.0045C233.889 33.8065 236.819 32.7075 240.886 32.7075ZM260.909 60.7871H254.919V21.8822H260.909V34.7406C263.619 33.3852 266.129 32.7075 268.437 32.7075C272.1 32.7075 274.591 33.7515 275.91 35.8396C277.265 37.8911 277.943 41.298 277.943 46.0604V60.7871H271.954V46.2253C271.954 43.2579 271.642 41.1515 271.019 39.906C270.397 38.6604 269.078 38.0376 267.063 38.0376C265.305 38.0376 263.546 38.3307 261.788 38.9169L260.909 39.2466V60.7871Z" fill="#095540"/>
<path d="M306.622 60.7871H285.356V23.4208H292.939V54.0832H306.622V60.7871ZM331.661 41.8842V53.3139C331.735 54.1931 331.881 54.8158 332.101 55.1822C332.321 55.5119 332.779 55.75 333.475 55.8965L333.255 61.4465C331.387 61.4465 329.885 61.3183 328.749 61.0619C327.65 60.8054 326.533 60.2926 325.397 59.5233C322.759 60.8054 320.067 61.4465 317.319 61.4465C311.641 61.4465 308.802 58.4426 308.802 52.4347C308.802 49.504 309.59 47.4342 311.165 46.2253C312.74 44.9797 315.158 44.247 318.418 44.0272L324.298 43.5876V41.8842C324.298 40.7485 324.042 39.9792 323.529 39.5763C323.016 39.1367 322.192 38.9169 321.056 38.9169L310.725 39.3565L310.506 34.2461C314.425 33.1837 318.144 32.6525 321.66 32.6525C325.214 32.6525 327.76 33.3852 329.299 34.8505C330.874 36.3159 331.661 38.6604 331.661 41.8842ZM319.298 49.1376C317.246 49.3208 316.22 50.4198 316.22 52.4347C316.22 54.4495 317.118 55.4569 318.913 55.4569C320.305 55.4569 321.825 55.2371 323.474 54.7975L324.298 54.5777V48.698L319.298 49.1376ZM351.979 32.6525C355.825 32.6525 358.628 33.7149 360.386 35.8396C362.181 37.9277 363.079 41.6827 363.079 47.1045C363.079 52.5262 362.053 56.2812 360.002 58.3693C357.95 60.4208 354.415 61.4465 349.396 61.4465C347.821 61.4465 344.945 61.2633 340.769 60.897L338.681 60.6772V22.3218H346.044V34.1362C348.389 33.1471 350.367 32.6525 351.979 32.6525ZM349.396 54.8525C351.851 54.8525 353.499 54.2663 354.342 53.0941C355.184 51.8851 355.606 49.7421 355.606 46.6649C355.606 41.7193 354.067 39.2466 350.99 39.2466C349.524 39.2466 348.132 39.4297 346.814 39.7961L346.044 39.9609V54.6327C347.729 54.7792 348.847 54.8525 349.396 54.8525Z" fill="#FBBE01"/>
<path d="M233.716 84.6078H230.724V89.1595H228.352V74.5214H233.716C237.036 74.5214 238.695 76.1597 238.695 79.4364C238.695 81.1175 238.275 82.3996 237.434 83.2829C236.608 84.1662 235.369 84.6078 233.716 84.6078ZM230.724 82.5563H233.695C235.404 82.5563 236.259 81.5164 236.259 79.4364C236.259 78.4391 236.053 77.7126 235.639 77.2567C235.226 76.8008 234.578 76.5729 233.695 76.5729H230.724V82.5563ZM248.115 80.6758C246.434 80.4479 245.216 80.3339 244.461 80.3339C243.706 80.3339 243.179 80.4265 242.88 80.6117C242.595 80.7827 242.452 81.0605 242.452 81.4451C242.452 81.8298 242.609 82.1005 242.923 82.2572C243.25 82.4139 244.005 82.5991 245.188 82.8128C246.384 83.0122 247.232 83.3328 247.731 83.7744C248.229 84.216 248.479 84.9996 248.479 86.1251C248.479 87.2505 248.115 88.0768 247.389 88.6039C246.677 89.1311 245.629 89.3946 244.248 89.3946C243.378 89.3946 242.282 89.2735 240.957 89.0313L240.294 88.9245L240.38 86.9798C242.089 87.2078 243.322 87.3218 244.077 87.3218C244.832 87.3218 245.366 87.2292 245.679 87.044C246.007 86.8588 246.171 86.5525 246.171 86.1251C246.171 85.6977 246.014 85.4056 245.701 85.2489C245.401 85.078 244.668 84.8999 243.5 84.7147C242.346 84.5152 241.498 84.2089 240.957 83.7958C240.415 83.3826 240.145 82.6276 240.145 81.5306C240.145 80.4336 240.515 79.6145 241.256 79.0731C242.011 78.5317 242.972 78.2611 244.141 78.2611C245.052 78.2611 246.171 78.375 247.496 78.603L248.158 78.7312L248.115 80.6758ZM249.588 78.4747H251.875L254.14 87.1722H254.717L256.982 78.4747H259.29L255.23 93.754H252.943L254.225 89.1595H252.387L249.588 78.4747ZM264.897 78.2397C265.652 78.2397 266.543 78.3394 267.568 78.5389L268.103 78.6457L268.017 80.4835C266.892 80.3695 266.058 80.3125 265.517 80.3125C264.434 80.3125 263.708 80.5547 263.337 81.0391C262.967 81.5235 262.782 82.4352 262.782 83.7744C262.782 85.1136 262.96 86.0396 263.316 86.5525C263.672 87.0653 264.413 87.3218 265.538 87.3218L268.039 87.1508L268.103 89.01C266.664 89.2664 265.581 89.3946 264.854 89.3946C263.23 89.3946 262.084 88.9601 261.414 88.0911C260.759 87.2078 260.431 85.7689 260.431 83.7744C260.431 81.7799 260.78 80.3624 261.478 79.5219C262.176 78.6671 263.316 78.2397 264.897 78.2397ZM272.684 89.1595H270.355V74.0299H272.684V79.0304C273.738 78.5032 274.714 78.2397 275.612 78.2397C277.036 78.2397 278.005 78.6457 278.518 79.4577C279.045 80.2555 279.309 81.5805 279.309 83.4325V89.1595H276.979V83.4966C276.979 82.3426 276.858 81.5235 276.616 81.0391C276.374 80.5547 275.861 80.3125 275.077 80.3125C274.394 80.3125 273.71 80.4265 273.026 80.6544L272.684 80.7827V89.1595ZM282.597 79.6287C283.338 78.7027 284.563 78.2397 286.273 78.2397C287.982 78.2397 289.2 78.7027 289.927 79.6287C290.668 80.5547 291.038 81.9437 291.038 83.7958C291.038 85.6478 290.682 87.044 289.97 87.9842C289.257 88.9245 288.025 89.3946 286.273 89.3946C284.521 89.3946 283.288 88.9245 282.576 87.9842C281.864 87.044 281.507 85.6478 281.507 83.7958C281.507 81.9437 281.871 80.5547 282.597 79.6287ZM284.35 86.5738C284.677 87.1437 285.318 87.4286 286.273 87.4286C287.227 87.4286 287.868 87.1437 288.196 86.5738C288.524 86.004 288.688 85.0708 288.688 83.7744C288.688 82.478 288.51 81.5591 288.153 81.0177C287.811 80.4764 287.185 80.2057 286.273 80.2057C285.361 80.2057 284.727 80.4764 284.371 81.0177C284.029 81.5591 283.858 82.478 283.858 83.7744C283.858 85.0708 284.022 86.004 284.35 86.5738ZM293.48 89.1595V74.0299H295.81V89.1595H293.48ZM299.334 79.6287C300.075 78.7027 301.3 78.2397 303.01 78.2397C304.719 78.2397 305.937 78.7027 306.664 79.6287C307.405 80.5547 307.775 81.9437 307.775 83.7958C307.775 85.6478 307.419 87.044 306.707 87.9842C305.994 88.9245 304.762 89.3946 303.01 89.3946C301.257 89.3946 300.025 88.9245 299.313 87.9842C298.6 87.044 298.244 85.6478 298.244 83.7958C298.244 81.9437 298.607 80.5547 299.334 79.6287ZM301.086 86.5738C301.414 87.1437 302.055 87.4286 303.01 87.4286C303.964 87.4286 304.605 87.1437 304.933 86.5738C305.26 86.004 305.424 85.0708 305.424 83.7744C305.424 82.478 305.246 81.5591 304.89 81.0177C304.548 80.4764 303.921 80.2057 303.01 80.2057C302.098 80.2057 301.464 80.4764 301.108 81.0177C300.766 81.5591 300.595 82.478 300.595 83.7744C300.595 85.0708 300.759 86.004 301.086 86.5738ZM319.427 90.6127C319.427 92.9491 317.739 94.1173 314.363 94.1173C312.739 94.1173 311.535 93.8965 310.751 93.4548C309.968 93.0132 309.576 92.2083 309.576 91.0401C309.576 90.513 309.704 90.0571 309.961 89.6724C310.217 89.302 310.63 88.896 311.2 88.4543C310.73 88.1409 310.495 87.6209 310.495 86.8944C310.495 86.6094 310.687 86.1464 311.072 85.5053L311.264 85.1848C310.238 84.5722 309.725 83.5037 309.725 81.9794C309.725 80.6972 310.11 79.7569 310.879 79.1586C311.649 78.5602 312.689 78.2611 313.999 78.2611C314.626 78.2611 315.246 78.3323 315.859 78.4747L316.179 78.5389L319.491 78.4534V80.3339L317.718 80.2271C318.102 80.7257 318.295 81.3098 318.295 81.9794C318.295 83.3755 317.939 84.3443 317.226 84.8856C316.528 85.4127 315.431 85.6763 313.935 85.6763C313.565 85.6763 313.251 85.6478 312.995 85.5908C312.796 86.0752 312.696 86.4527 312.696 86.7234C312.696 86.9798 312.824 87.1579 313.08 87.2577C313.351 87.3574 313.992 87.4144 315.004 87.4286C316.699 87.4429 317.86 87.6708 318.487 88.1124C319.114 88.5541 319.427 89.3875 319.427 90.6127ZM311.862 90.8264C311.862 91.325 312.062 91.6812 312.461 91.8949C312.86 92.1086 313.543 92.2154 314.512 92.2154C316.236 92.2154 317.098 91.7239 317.098 90.7409C317.098 90.1853 316.941 89.8291 316.628 89.6724C316.329 89.53 315.723 89.4516 314.811 89.4374L312.717 89.3091C312.404 89.5656 312.183 89.8006 312.055 90.0143C311.927 90.2423 311.862 90.513 311.862 90.8264ZM312.033 81.9794C312.033 82.6347 312.19 83.1191 312.504 83.4325C312.817 83.7317 313.323 83.8813 314.021 83.8813C314.719 83.8813 315.217 83.7317 315.517 83.4325C315.83 83.1191 315.987 82.6347 315.987 81.9794C315.987 81.324 315.83 80.8468 315.517 80.5476C315.203 80.2342 314.697 80.0775 313.999 80.0775C312.689 80.0775 312.033 80.7114 312.033 81.9794ZM321.316 89.1595V78.4747H323.645V89.1595H321.316ZM321.316 76.6583V74.2008H323.645V76.6583H321.316ZM330.467 78.2397C331.222 78.2397 332.112 78.3394 333.138 78.5389L333.672 78.6457L333.587 80.4835C332.461 80.3695 331.628 80.3125 331.087 80.3125C330.004 80.3125 329.277 80.5547 328.907 81.0391C328.536 81.5235 328.351 82.4352 328.351 83.7744C328.351 85.1136 328.529 86.0396 328.885 86.5525C329.242 87.0653 329.982 87.3218 331.108 87.3218L333.608 87.1508L333.672 89.01C332.233 89.2664 331.151 89.3946 330.424 89.3946C328.8 89.3946 327.653 88.9601 326.984 88.0911C326.328 87.2078 326.001 85.7689 326.001 83.7744C326.001 81.7799 326.35 80.3624 327.048 79.5219C327.746 78.6671 328.885 78.2397 330.467 78.2397ZM343.831 81.7657V86.6379C343.845 86.9514 343.924 87.1864 344.066 87.3431C344.223 87.4856 344.458 87.5782 344.771 87.6209L344.707 89.3946C343.482 89.3946 342.535 89.1311 341.865 88.6039C340.725 89.1311 339.578 89.3946 338.424 89.3946C336.302 89.3946 335.24 88.262 335.24 85.9968C335.24 84.9141 335.525 84.1306 336.095 83.6462C336.679 83.1618 337.57 82.8698 338.766 82.77L341.523 82.535V81.7657C341.523 81.1958 341.395 80.7969 341.138 80.569C340.896 80.341 340.533 80.2271 340.049 80.2271C339.137 80.2271 337.997 80.284 336.629 80.398L335.946 80.4408L335.86 78.7953C337.413 78.4249 338.838 78.2397 340.134 78.2397C341.445 78.2397 342.385 78.5246 342.955 79.0945C343.539 79.6501 343.831 80.5405 343.831 81.7657ZM339.044 84.4155C338.061 84.501 337.57 85.0352 337.57 86.0182C337.57 87.0012 338.004 87.4927 338.873 87.4927C339.586 87.4927 340.341 87.3787 341.138 87.1508L341.523 87.0226V84.1804L339.044 84.4155ZM346.883 89.1595V74.0299H349.213V89.1595H346.883ZM362.048 89.3946C359.911 89.3946 358.458 88.8034 357.689 87.6209C356.934 86.4385 356.556 84.4939 356.556 81.787C356.556 79.0802 356.941 77.157 357.71 76.0172C358.48 74.8633 359.926 74.2863 362.048 74.2863C363.316 74.2863 364.712 74.4644 366.237 74.8205L366.151 76.7438C364.869 76.5159 363.587 76.4019 362.305 76.4019C361.023 76.4019 360.154 76.7866 359.698 77.5559C359.242 78.3109 359.014 79.7427 359.014 81.8511C359.014 83.9454 359.235 85.3771 359.676 86.1464C360.118 86.9015 360.98 87.279 362.262 87.279C363.544 87.279 364.841 87.1722 366.151 86.9585L366.215 88.9245C364.748 89.2379 363.359 89.3946 362.048 89.3946ZM370.809 89.1595H368.479V74.0299H370.809V79.0304C371.863 78.5032 372.839 78.2397 373.736 78.2397C375.161 78.2397 376.13 78.6457 376.643 79.4577C377.17 80.2555 377.433 81.5805 377.433 83.4325V89.1595H375.104V83.4966C375.104 82.3426 374.983 81.5235 374.741 81.0391C374.499 80.5547 373.986 80.3125 373.202 80.3125C372.518 80.3125 371.835 80.4265 371.151 80.6544L370.809 80.7827V89.1595ZM388.052 81.7657V86.6379C388.066 86.9514 388.144 87.1864 388.287 87.3431C388.444 87.4856 388.679 87.5782 388.992 87.6209L388.928 89.3946C387.703 89.3946 386.755 89.1311 386.086 88.6039C384.946 89.1311 383.799 89.3946 382.645 89.3946C380.523 89.3946 379.461 88.262 379.461 85.9968C379.461 84.9141 379.746 84.1306 380.316 83.6462C380.9 83.1618 381.791 82.8698 382.987 82.77L385.744 82.535V81.7657C385.744 81.1958 385.616 80.7969 385.359 80.569C385.117 80.341 384.754 80.2271 384.269 80.2271C383.358 80.2271 382.218 80.284 380.85 80.398L380.166 80.4408L380.081 78.7953C381.634 78.4249 383.059 78.2397 384.355 78.2397C385.666 78.2397 386.606 78.5246 387.176 79.0945C387.76 79.6501 388.052 80.5405 388.052 81.7657ZM383.265 84.4155C382.282 84.501 381.791 85.0352 381.791 86.0182C381.791 87.0012 382.225 87.4927 383.094 87.4927C383.806 87.4927 384.562 87.3787 385.359 87.1508L385.744 87.0226V84.1804L383.265 84.4155ZM393.305 89.1595H390.976V78.4747H393.284V79.1372C394.324 78.5389 395.307 78.2397 396.233 78.2397C397.658 78.2397 398.626 78.6457 399.139 79.4577C399.666 80.2555 399.93 81.5805 399.93 83.4325V89.1595H397.622V83.4966C397.622 82.3426 397.494 81.5235 397.237 81.0391C396.995 80.5547 396.489 80.3125 395.72 80.3125C394.993 80.3125 394.295 80.455 393.626 80.7399L393.305 80.8681V89.1595ZM411.98 90.6127C411.98 92.9491 410.292 94.1173 406.916 94.1173C405.291 94.1173 404.088 93.8965 403.304 93.4548C402.521 93.0132 402.129 92.2083 402.129 91.0401C402.129 90.513 402.257 90.0571 402.513 89.6724C402.77 89.302 403.183 88.896 403.753 88.4543C403.283 88.1409 403.048 87.6209 403.048 86.8944C403.048 86.6094 403.24 86.1464 403.625 85.5053L403.817 85.1848C402.791 84.5722 402.278 83.5037 402.278 81.9794C402.278 80.6972 402.663 79.7569 403.432 79.1586C404.202 78.5602 405.242 78.2611 406.552 78.2611C407.179 78.2611 407.799 78.3323 408.411 78.4747L408.732 78.5389L412.044 78.4534V80.3339L410.271 80.2271C410.655 80.7257 410.848 81.3098 410.848 81.9794C410.848 83.3755 410.491 84.3443 409.779 84.8856C409.081 85.4127 407.984 85.6763 406.488 85.6763C406.118 85.6763 405.804 85.6478 405.548 85.5908C405.348 86.0752 405.249 86.4527 405.249 86.7234C405.249 86.9798 405.377 87.1579 405.633 87.2577C405.904 87.3574 406.545 87.4144 407.557 87.4286C409.252 87.4429 410.413 87.6708 411.04 88.1124C411.667 88.5541 411.98 89.3875 411.98 90.6127ZM404.415 90.8264C404.415 91.325 404.615 91.6812 405.014 91.8949C405.413 92.1086 406.096 92.2154 407.065 92.2154C408.789 92.2154 409.651 91.7239 409.651 90.7409C409.651 90.1853 409.494 89.8291 409.181 89.6724C408.882 89.53 408.276 89.4516 407.364 89.4374L405.27 89.3091C404.957 89.5656 404.736 89.8006 404.608 90.0143C404.479 90.2423 404.415 90.513 404.415 90.8264ZM404.586 81.9794C404.586 82.6347 404.743 83.1191 405.056 83.4325C405.37 83.7317 405.876 83.8813 406.574 83.8813C407.272 83.8813 407.77 83.7317 408.07 83.4325C408.383 83.1191 408.54 82.6347 408.54 81.9794C408.54 81.324 408.383 80.8468 408.07 80.5476C407.756 80.2342 407.25 80.0775 406.552 80.0775C405.242 80.0775 404.586 80.7114 404.586 81.9794ZM421.477 87.2363L422.075 87.1722L422.118 88.9031C420.494 89.2308 419.055 89.3946 417.801 89.3946C416.22 89.3946 415.08 88.9601 414.382 88.0911C413.698 87.222 413.356 85.833 413.356 83.924C413.356 80.1345 414.902 78.2397 417.993 78.2397C420.985 78.2397 422.481 79.8709 422.481 83.1333L422.331 84.8001H415.707C415.721 85.6834 415.913 86.3316 416.284 86.7448C416.654 87.1579 417.345 87.3645 418.357 87.3645C419.368 87.3645 420.408 87.3218 421.477 87.2363ZM420.194 83.0051C420.194 81.9509 420.023 81.2172 419.682 80.804C419.354 80.3766 418.791 80.1629 417.993 80.1629C417.196 80.1629 416.611 80.3838 416.241 80.8254C415.885 81.267 415.7 81.9936 415.685 83.0051H420.194ZM437.9 89.1595H429.694V74.5214H432.066V87.044H437.9V89.1595ZM447.465 81.7657V86.6379C447.479 86.9514 447.558 87.1864 447.7 87.3431C447.857 87.4856 448.092 87.5782 448.405 87.6209L448.341 89.3946C447.116 89.3946 446.169 89.1311 445.499 88.6039C444.359 89.1311 443.213 89.3946 442.059 89.3946C439.936 89.3946 438.875 88.262 438.875 85.9968C438.875 84.9141 439.16 84.1306 439.729 83.6462C440.313 83.1618 441.204 82.8698 442.401 82.77L445.157 82.535V81.7657C445.157 81.1958 445.029 80.7969 444.773 80.569C444.53 80.341 444.167 80.2271 443.683 80.2271C442.771 80.2271 441.631 80.284 440.264 80.398L439.58 80.4408L439.494 78.7953C441.047 78.4249 442.472 78.2397 443.768 78.2397C445.079 78.2397 446.019 78.5246 446.589 79.0945C447.173 79.6501 447.465 80.5405 447.465 81.7657ZM442.678 84.4155C441.695 84.501 441.204 85.0352 441.204 86.0182C441.204 87.0012 441.638 87.4927 442.507 87.4927C443.22 87.4927 443.975 87.3787 444.773 87.1508L445.157 87.0226V84.1804L442.678 84.4155ZM455.368 78.2397C456.836 78.2397 457.89 78.6528 458.531 79.4791C459.186 80.2912 459.514 81.7372 459.514 83.8171C459.514 85.8971 459.129 87.3503 458.36 88.1765C457.591 88.9886 456.237 89.3946 454.3 89.3946C453.63 89.3946 452.569 89.3305 451.116 89.2023L450.389 89.1382V74.0299H452.697V78.8808C453.68 78.4534 454.571 78.2397 455.368 78.2397ZM454.3 87.3218C455.44 87.3218 456.195 87.0582 456.565 86.5311C456.95 85.9897 457.142 85.078 457.142 83.7958C457.142 82.5136 456.978 81.6161 456.651 81.1032C456.337 80.5761 455.817 80.3125 455.091 80.3125C454.407 80.3125 453.723 80.4194 453.039 80.6331L452.697 80.7399V87.2363C453.481 87.2933 454.015 87.3218 454.3 87.3218Z" fill="#949494"/>
<g clip-path="url(#clip1_283_298)">
<rect x="371.305" y="22.8291" width="85.4784" height="39.6864" rx="7.632" fill="white"/>
<path fill-rule="evenodd" clip-rule="evenodd" d="M367.478 19.645H459.676V65.6994H367.478V19.645ZM419.898 33.4278C419.233 34.121 418.084 35.3325 418.087 37.2766V48.8885C418.087 50.3917 418.504 51.1724 419.451 52.1128C420.363 53.0171 421.387 53.4323 422.67 53.4323H428.601V49.3243H423.626C423.166 49.3243 422.871 49.1442 422.567 48.801C422.135 48.3119 422.199 47.5483 422.199 47.5483V44.7136H427.523L427.516 40.5987L422.199 40.5953V38.3165C422.199 38.3165 422.224 37.625 422.847 36.8717C423.47 36.1184 424.458 36.024 424.458 36.024L428.601 36.0189V31.9091H423.139C421.742 31.9091 420.472 32.8306 419.898 33.4278ZM441.9 53.4346C443.326 53.4421 447.487 53.4641 447.513 48.6586H447.512V36.8768C447.503 31.9068 443.02 31.91 441.828 31.9108L433.673 31.9109V53.4341H441.755C441.799 53.4341 441.848 53.4343 441.9 53.4346ZM443.397 46.3557C443.397 46.3557 443.718 49.3243 440.955 49.3209V49.3226H437.786V36.024H440.981C443.506 36.0224 443.433 38.5105 443.405 39.4501C443.402 39.5314 443.4 39.6012 443.4 39.6567L443.397 46.3557ZM409.036 36.0223H406.114C403.965 36.0206 403.418 37.6593 403.418 39.5245V53.4341H399.307V36.9815C399.313 34.006 402.217 31.9109 405.192 31.9109H413.147V53.4341H409.036V36.0223ZM384.665 49.3226H387.619L387.621 49.3243C389.756 49.3261 390.293 47.7199 390.295 45.8684V31.9109H394.406V48.4063C394.397 51.3629 391.516 53.4341 388.563 53.4341H380.576V31.9109H384.685L384.665 49.3226Z" fill="#095540"/>
</g>
<defs>
<clipPath id="clip0_283_298">
<rect width="83.2105" height="85" fill="white" transform="translate(29.3615 13.5)"/>
</clipPath>
<clipPath id="clip1_283_298">
<rect x="371.305" y="22.8291" width="85.4784" height="39.6864" rx="7.632" fill="white"/>
</clipPath>
</defs>
</svg>
