<svg width="500" height="113" viewBox="0 0 500 113" fill="none" xmlns="http://www.w3.org/2000/svg">
<rect width="500" height="112" transform="translate(0 0.0999756)" fill="white"/>
<rect x="117.773" y="12.869" width="264.455" height="88" rx="2" fill="#095540"/>
<path fill-rule="evenodd" clip-rule="evenodd" d="M255.753 49.2949C255.748 46.791 257.384 45.2308 258.329 44.3379C259.147 43.5688 260.954 42.3821 262.942 42.3821H270.714V47.675L264.82 47.6816C264.82 47.6816 263.413 47.8032 262.527 48.7734C261.64 49.7436 261.604 50.6342 261.604 50.6342V53.5691L269.171 53.5735L269.181 58.8731H261.604V62.524C261.604 62.524 261.513 63.5074 262.129 64.1373C262.561 64.5793 262.981 64.8113 263.635 64.8113H270.714V70.102H262.275C260.449 70.102 258.991 69.5672 257.694 68.4026C256.346 67.1915 255.753 66.1859 255.753 64.25V49.2949ZM297.628 63.9538C297.589 70.3695 291.228 70.1043 289.434 70.1043H277.932V42.3843H289.475C291.072 42.3843 297.614 42.2981 297.626 48.78V63.9538H297.628ZM288.296 64.8069C292.227 64.8113 291.77 60.988 291.77 60.988L291.775 52.3602C291.775 51.463 292.237 47.6794 288.332 47.6816H283.786V64.8091H288.296V64.8069ZM238.714 47.6794H242.872V70.1043H248.723V42.3843H237.402C233.168 42.3843 229.037 45.0827 229.027 48.9148V70.1043H234.878V52.19C234.878 49.7878 235.657 47.6772 238.714 47.6794ZM212.395 64.8091H208.191L208.22 42.3843H202.372V70.1043H213.738C217.941 70.1043 222.041 67.4368 222.053 63.629V42.3843H216.202V60.3604C216.2 62.745 215.436 64.8135 212.398 64.8113L212.395 64.8091Z" fill="white"/>
<mask id="path-3-inside-1_120_4522" fill="white">
<rect x="14.3178" y="12.869" width="88" height="88" rx="2"/>
</mask>
<rect x="14.3178" y="12.869" width="88" height="88" rx="2" stroke="#095540" stroke-width="16" stroke-linejoin="round" mask="url(#path-3-inside-1_120_4522)"/>
<path d="M59.4422 40.4403C60.2605 40.3777 60.1479 38.2904 59.4422 38.2333L57.8496 38.1091C57.75 38.1024 57.6616 38.0386 57.6236 37.9446L57.0987 36.68C57.0607 36.5871 57.0774 36.4796 57.1423 36.4024L58.1809 35.1881C58.7155 34.5664 57.159 33.1684 56.6208 33.628L55.4065 34.6666C55.3304 34.7315 55.2219 34.7494 55.1301 34.7114L53.8655 34.1865C53.7715 34.1485 53.7077 34.06 53.6998 33.9593L53.5767 32.3679C53.5107 31.5485 51.4228 31.6598 51.3686 32.3679L51.2455 33.9593C51.2377 34.06 51.1727 34.1485 51.0788 34.1865L49.8152 34.7114C49.7212 34.7494 49.6149 34.7315 49.5376 34.6666L48.3234 33.628C47.6978 33.0969 46.3019 34.6515 46.7633 35.1881L47.8019 36.4024C47.8668 36.4796 47.8847 36.5871 47.8455 36.68L47.3217 37.9446C47.2836 38.0386 47.1941 38.1024 47.0933 38.1091L45.5008 38.2333C44.6846 38.2996 44.7957 40.3859 45.5008 40.4403L47.0933 40.5645C47.194 40.5723 47.2836 40.6362 47.3217 40.7302L47.8455 41.9948C47.8847 42.0866 47.8668 42.1952 47.8019 42.2712L46.7633 43.4867C46.2288 44.1083 47.7844 45.5044 48.3234 45.0467L49.5376 44.007C49.6149 43.9432 49.7212 43.9253 49.8152 43.9645L51.0788 44.4883C51.1728 44.5263 51.2377 44.6148 51.2455 44.7143L51.3686 46.308C51.4315 47.1263 53.5194 47.0136 53.5767 46.308L53.6998 44.7143C53.7076 44.6147 53.7715 44.5263 53.8655 44.4883L55.1301 43.9645C55.2219 43.9253 55.3305 43.9432 55.4065 44.007L56.6208 45.0467C57.2437 45.5787 58.6423 44.0234 58.1809 43.4867L57.1423 42.2712C57.0774 42.1951 57.0606 42.0866 57.0987 41.9948L57.6236 40.7302C57.6616 40.6362 57.7501 40.5724 57.8496 40.5645L59.4422 40.4403ZM52.472 41.8505C51.8005 41.8505 51.1693 41.5886 50.6948 41.1141C50.2202 40.6396 49.9595 40.0084 49.9595 39.338C49.9595 38.6665 50.2202 38.0353 50.6948 37.5607C51.1693 37.0851 51.8005 36.8244 52.472 36.8244C53.1435 36.8244 53.7748 37.0852 54.2493 37.5607C54.7238 38.0353 54.9846 38.6665 54.9846 39.338C54.9846 40.0084 54.7238 40.6396 54.2493 41.1141C53.7748 41.5886 53.1435 41.8505 52.472 41.8505Z" fill="#095540"/>
<path fill-rule="evenodd" clip-rule="evenodd" d="M84.514 47.9983C84.8143 31.8338 71.5356 21.9127 55.765 22.8831C37.1343 24.0311 28.0585 38.8775 29.3318 54.0839C30.2609 65.1821 34.5322 70.2824 38.5751 75.1098C40.0724 76.8978 41.5384 78.6483 42.7917 80.6523C44.071 82.6929 44.7436 87.1523 44.7436 89.1029V92.8976C44.7436 94.5545 46.0867 95.8973 47.7436 95.8973H73.35C73.35 95.8973 70.279 91.7157 70.0581 88.7053C69.7733 84.8246 73.7927 84.2478 77.4988 83.716C79.6389 83.4089 81.6745 83.1168 82.7164 82.2122C83.6481 81.3975 84.1977 80.2348 84.2343 78.9993L84.4745 68.7161C84.5051 67.4038 85.3854 66.2639 86.6472 65.9022L89.7977 64.9994C90.5324 64.856 91.1538 64.366 91.4651 63.6837C91.779 63.0016 91.7462 62.2123 91.3776 61.5604L84.9091 50.1377C84.6578 49.6941 84.5238 49.1938 84.5196 48.684L84.514 47.9983ZM37.4054 51.1626C36.6326 51.1626 35.9766 50.5796 35.9389 49.8078C35.8915 44.1103 37.7047 38.7388 41.0685 34.846C41.1334 34.7722 41.257 34.8208 41.257 34.9191V42.748C41.257 43.3973 41.7823 43.9239 42.4304 43.9239C43.0786 43.9239 43.6053 43.3975 43.6053 42.748V33.8724C43.6053 32.9576 44.0147 32.0808 44.7721 31.5677C47.9165 29.4379 51.7648 28.1924 56.1335 27.9238C56.693 27.8885 57.2524 27.8715 57.8045 27.8715C59.1521 27.8715 60.4632 27.9739 61.7291 28.1718C63.0803 28.3829 64.0031 29.597 64.0031 30.9646V32.9792C64.0067 33.2807 63.9021 33.7137 63.699 34.0834C63.4947 34.4581 63.2052 34.7632 62.8951 34.9287C62.686 35.0406 62.4659 35.1038 62.191 35.1051H60.9107C60.2626 35.1051 59.7372 35.6316 59.7372 36.2798C59.7372 36.9268 60.2626 37.4533 60.9107 37.4533H62.191C62.8587 37.4545 63.485 37.2818 64.0103 36.9949C64.5392 36.7104 64.9723 36.3188 65.3127 35.8857C65.9913 35.0127 66.3441 33.9864 66.3512 32.9794C66.3512 31.2465 68.0951 30.0617 69.5738 30.9651C70.8373 31.7371 71.9896 32.6469 73.0094 33.687C74.5805 35.2868 75.7846 36.9846 76.509 38.8837C77.1365 40.5286 75.7232 42.0661 73.9627 42.0661H72.247C71.1803 42.0638 70.3169 41.2002 70.3145 40.1337V38.2852C70.3145 37.637 69.7892 37.1116 69.1411 37.1116C68.4926 37.1116 67.9662 37.637 67.9662 38.2852V40.1337C67.9662 42.4965 69.8829 44.4132 72.247 44.4132H76.5481C76.9157 44.4132 77.2084 44.7286 77.16 45.093C76.504 48.4648 75.3468 50.0523 68.6359 50.6389C66.9397 50.7872 65.5207 49.4104 65.5207 47.7078V46.1741C65.5207 45.5246 64.9954 44.9992 64.3471 44.9992C63.699 44.9992 63.1724 45.5246 63.1724 46.1741V47.9469C63.1724 49.5818 61.8632 50.9169 60.2282 50.9201C60.0849 50.9204 59.9401 50.9205 59.7941 50.9205C56.7141 50.9205 54.4832 51.1394 52.8418 51.5108C51.9218 51.719 50.9432 51.0569 50.9432 50.1136C50.9432 49.4668 50.4178 48.9401 49.7696 48.9401C49.1215 48.9401 48.5948 49.4666 48.5948 50.1136L48.5948 53.04C48.5948 53.6317 48.4047 54.204 48.1581 54.7419C48.0064 55.0726 47.8801 55.4099 47.7538 55.7474C47.3025 56.9529 46.8507 58.1598 45.242 59.0697C42.0927 60.8485 38.9504 59.6247 37.2393 55.8403C36.7228 54.6977 37.6607 53.511 38.9146 53.511C40.9103 53.5098 42.5278 51.8935 42.5289 49.8967V48.1296C42.5289 47.4826 42.0024 46.9561 41.3542 46.9561C40.7072 46.9561 40.1807 47.4826 40.1807 48.1296V49.8967C40.1794 50.594 39.6139 51.1601 38.9171 51.1626L38.9132 51.1626H37.4054ZM56.2935 72.8458V71.8552L56.3013 71.8436C56.3013 71.6176 56.2981 71.3913 56.295 71.1649V71.1649V71.1648C56.2876 70.6361 56.2803 70.1065 56.3129 69.5789C56.3557 68.8836 56.1847 68.5379 55.3923 68.5767C54.6434 68.6138 53.8913 68.6068 53.1391 68.5999H53.1391H53.139C52.7091 68.5959 52.2791 68.5919 51.8497 68.5961C51.8072 68.5966 51.7629 68.5957 51.7179 68.5947C51.3883 68.5878 51.022 68.5801 51.0767 69.1167C51.1165 69.5124 51.389 69.5011 51.6491 69.4904C51.7184 69.4875 51.7868 69.4847 51.8497 69.4896C53.1574 69.5906 53.8113 70.3144 53.8113 71.661V72.7953C53.8113 74.8385 53.2753 75.3979 51.2087 75.5105C46.862 75.7475 43.9331 72.2747 44.6168 67.6911C45.0208 64.9758 46.5979 63.0375 48.9519 62.4936C51.4612 61.9149 53.3957 62.75 54.6892 65.0108L54.7139 65.0536C54.9176 65.4076 55.1076 65.7377 55.6565 65.3643C56.244 64.9666 56.0088 64.6681 55.734 64.3193C55.7109 64.2899 55.6875 64.2602 55.6642 64.23C53.8191 61.8449 51.3796 60.9593 48.4275 61.3205C45.0441 61.7362 42.255 64.4242 41.6918 67.8426C41.1713 70.9734 42.8921 74.0461 46.0074 75.5377C48.5712 76.7691 51.2437 76.571 53.8968 75.9766C56.2119 75.4561 56.2935 75.2658 56.2935 72.8458ZM72.5304 76.4171C68.4633 76.219 65.5849 73.7679 64.9284 69.9378C64.373 66.7137 66.3269 63.2759 69.4655 61.9358C72.9538 60.448 76.7528 61.3686 78.8698 64.2121C78.9101 64.2665 78.9544 64.3197 78.9984 64.3724C79.2432 64.6657 79.4756 64.9441 78.9125 65.3425C78.33 65.7506 78.1453 65.4226 77.9421 65.0617C77.919 65.0207 77.8957 64.9793 77.8715 64.9385C76.6867 62.9496 74.9815 61.9979 72.6585 62.4252C70.3123 62.8564 68.809 64.2781 68.1021 66.5466C67.6282 68.0732 67.6282 69.6154 68.0865 71.1381C68.7546 73.3484 70.1919 74.7701 72.5032 75.2168C74.8338 75.6635 76.5158 74.6302 77.8404 72.8278C77.8889 72.7622 77.934 72.6916 77.9785 72.6219C78.2055 72.2666 78.4187 71.933 78.9902 72.3811C79.521 72.7946 79.2453 73.0684 78.9907 73.3212L78.9906 73.3212C78.9247 73.3867 78.8603 73.4507 78.8115 73.5154C77.3199 75.4965 75.0319 76.5414 72.5342 76.4171H72.5304ZM61.9885 70.563C61.9923 69.9555 61.9961 69.3482 61.9961 68.7411C61.9961 68.132 61.9904 67.5226 61.9848 66.9131C61.9711 65.4431 61.9574 63.9729 62.0233 62.5065C62.0664 61.5475 61.5851 61.5665 61.0516 61.5876C60.9606 61.5912 60.8681 61.5948 60.7764 61.5937C60.7125 61.5929 60.6489 61.591 60.5863 61.589C60.0063 61.571 59.5077 61.5555 59.5217 62.5337C59.58 66.7367 59.58 70.9397 59.5217 75.1427C59.5068 76.1082 59.9857 76.0816 60.4883 76.0537C60.6409 76.0452 60.7957 76.0366 60.9395 76.0556C61.662 76.1488 62.0505 76.0128 62.0194 75.1155C61.9695 73.6006 61.979 72.0816 61.9885 70.563Z" fill="#095540"/>
<mask id="path-6-inside-2_120_4522" fill="white">
<rect x="397.601" y="12.869" width="88" height="88" rx="2"/>
</mask>
<rect x="397.601" y="12.869" width="88" height="88" rx="2" stroke="#095540" stroke-width="16" stroke-linejoin="round" mask="url(#path-6-inside-2_120_4522)"/>
<path d="M427.198 28.5844H410.267C409.715 28.5844 409.267 29.0321 409.267 29.5844V36.6292C409.267 37.1814 409.715 37.6292 410.267 37.6292H427.198C427.75 37.6292 428.198 37.1814 428.198 36.6292V29.5844C428.198 29.0321 427.75 28.5844 427.198 28.5844Z" fill="#095540"/>
<path d="M410.267 44.2779C409.716 44.2526 409.267 44.7027 409.267 45.255V51.6688C409.267 52.2211 409.716 52.6648 410.267 52.7063C417.057 53.2178 422.414 58.8949 422.414 65.8153C422.414 72.7358 417.057 78.4128 410.267 78.9243C409.716 78.9658 409.267 79.4096 409.267 79.9618V86.3756C409.267 86.9279 409.716 87.378 410.267 87.3527C421.69 86.828 430.827 77.3645 430.827 65.8153C430.827 54.2661 421.69 44.8026 410.267 44.2779Z" fill="#095540"/>
<path fill-rule="evenodd" clip-rule="evenodd" d="M451.422 29.3402C451.422 28.7532 450.918 28.2904 450.337 28.3717C439.865 29.836 431.774 38.8567 431.774 49.7241C431.774 60.5916 439.865 69.6123 450.337 71.0766C450.918 71.1579 451.422 70.6951 451.422 70.1081V63.5971C451.422 63.1006 451.056 62.6833 450.571 62.5793C444.639 61.3087 440.188 56.0331 440.188 49.7241C440.188 43.4152 444.639 38.1396 450.571 36.869C451.056 36.765 451.422 36.3477 451.422 35.8512V29.3402ZM455.247 63.5971C455.247 63.1006 455.613 62.6833 456.098 62.5793C462.029 61.3087 466.481 56.0331 466.481 49.7241C466.481 43.4152 462.029 38.1396 456.098 36.869C455.613 36.765 455.247 36.3477 455.247 35.8512V29.3402C455.247 28.7532 455.751 28.2904 456.332 28.3717C466.804 29.836 474.895 38.8567 474.895 49.7241C474.895 60.5916 466.804 69.6123 456.332 71.0766C455.751 71.1579 455.247 70.6951 455.247 70.1081V63.5971Z" fill="#095540"/>
<g clip-path="url(#clip0_120_4522)">
<path d="M435.768 82.6112L435.628 83.593H436.627L436.767 82.6112H435.768ZM437.591 83.593H438.326V84.4084H437.468L437.223 86.2224H436.241L436.487 84.4084H435.488L435.243 86.2224H434.296L434.542 84.4084H433.841V83.593H434.647L434.787 82.6112H434.086V81.7957H434.91L435.138 80.0817H436.101L435.873 81.7957H436.872L437.1 80.0817H438.064L437.836 81.7957H438.572V82.6112H437.731L437.591 83.593Z" fill="#095540"/>
<path d="M440.552 85.2738C440.359 84.9576 440.254 84.5915 440.254 84.1921V80.0817H441.48V84.1588C441.48 84.5083 441.586 84.7746 441.778 84.9743C441.971 85.1739 442.234 85.2572 442.567 85.2572C442.9 85.2572 443.163 85.1573 443.373 84.9743C443.566 84.7746 443.671 84.5083 443.671 84.1588V80.0817H444.915V84.1921C444.915 84.5915 444.81 84.9576 444.617 85.2738C444.407 85.59 444.144 85.8396 443.776 86.006C443.425 86.1891 443.022 86.2723 442.584 86.2723C442.146 86.2723 441.761 86.1891 441.393 86.006C441.025 85.8396 440.744 85.59 440.552 85.2738Z" fill="#095540"/>
<path d="M450.82 86.2224H449.593L447.228 82.3782V86.2224H446.001V80.0817H447.228L449.593 83.9258V80.0817H450.82V86.2224Z" fill="#095540"/>
<path d="M453.15 82.6112H455.603V83.6263H453.15V85.2072H456.024V86.2224H451.923V80.0817H456.024V81.0968H453.15V82.6112Z" fill="#095540"/>
<path d="M460.001 84.8578C460.194 84.6248 460.281 84.2587 460.281 83.7594V82.5779C460.281 82.062 460.194 81.6792 460.019 81.4463C459.843 81.2133 459.563 81.0968 459.178 81.0968H458.144V85.2072H459.178C459.545 85.2072 459.826 85.0907 460.001 84.8578ZM459.178 80.0817C459.896 80.0817 460.457 80.2647 460.877 80.6475C461.298 81.0302 461.508 81.646 461.508 82.5113V83.7594C461.508 84.6248 461.298 85.2572 460.877 85.6233C460.457 86.006 459.878 86.1891 459.16 86.1891H456.917V80.0817H459.178Z" fill="#095540"/>
<path d="M466.291 79.9486H463.137V81.3798H466.291V79.9486Z" fill="#095540"/>
<path d="M463.137 82.4281V83.7594C464.346 83.7594 465.328 84.6913 465.328 85.8396C465.328 86.9879 464.346 87.9198 463.137 87.9198V89.2511C465.117 89.2511 466.729 87.7201 466.729 85.8396C466.729 83.9591 465.117 82.4281 463.137 82.4281Z" fill="#095540"/>
<path d="M470.479 79.882C468.499 79.882 466.887 81.413 466.887 83.2935C466.887 85.1739 468.499 86.705 470.479 86.705C472.459 86.705 474.071 85.1739 474.071 83.2935C474.071 81.413 472.459 79.882 470.479 79.882ZM470.479 85.3736C469.27 85.3736 468.289 84.4417 468.289 83.2935C468.289 82.1452 469.27 81.2133 470.479 81.2133C471.688 81.2133 472.669 82.1452 472.669 83.2935C472.669 84.4417 471.688 85.3736 470.479 85.3736Z" fill="#095540"/>
</g>
<defs>
<clipPath id="clip0_120_4522">
<rect width="42" height="11" fill="white" transform="translate(432.895 79)"/>
</clipPath>
</defs>
</svg>
