<svg width="501" height="112" viewBox="0 0 501 112" fill="none" xmlns="http://www.w3.org/2000/svg">
<g clip-path="url(#clip0_283_298)">
<path d="M66.2382 13.585C66.4519 13.6322 66.6227 13.6898 66.7982 13.7253C70.5245 14.4781 73.0145 17.4442 73.0161 21.1596C73.0205 31.017 73.0176 40.8744 73.0177 50.7318C73.0177 53.4918 73.0188 56.2519 73.018 59.012C73.017 62.1275 70.3822 64.9701 67.199 65.3221C66.2085 65.4316 65.2425 65.3605 64.2427 65.1107C64.0217 65.7795 63.8028 66.442 63.5638 67.1652C65.2588 67.6928 66.9405 67.7184 68.6334 67.2735C70.3178 66.8308 71.7468 65.9659 72.9822 64.6738C72.9981 64.8393 73.0166 64.9424 73.0166 65.0456C73.0178 73.706 73.0217 82.3664 73.0154 91.0268C73.0131 94.1739 71.1841 96.8619 68.2281 98.0309C67.6202 98.2713 66.9511 98.3645 66.2945 98.5553C65.6414 98.585 65.004 98.585 64.3141 98.5546C64.1222 98.4901 63.9837 98.4511 63.843 98.4227C62.1434 98.0802 60.7293 97.2588 59.5929 95.9883C58.6737 94.9605 58.1049 93.7595 57.8379 92.4347C57.7876 92.4224 57.7593 92.4071 57.7336 92.4106C57.6481 92.4221 57.5632 92.4387 57.4787 92.4562C55.5509 92.8558 53.6677 92.6781 51.8968 91.861C48.7234 90.3969 46.9225 87.9256 46.5415 84.5187C46.0608 80.2202 49.5949 77.1816 53.4531 77.3025C53.789 77.313 53.9779 77.3957 54.1136 77.7422C55.0343 80.0943 56.7005 81.7655 59.0671 82.7731C59.2038 82.8314 59.3405 82.8897 59.4926 82.9545C58.4578 84.1676 57.841 85.49 57.8589 87.0808C58.6111 87.0808 59.3264 87.0808 60.0414 87.0808C60.1709 84.0276 63.2823 82.4127 65.8884 83.4982C66.1952 82.8585 66.5028 82.2173 66.8219 81.5519C65.4557 80.9774 64.0959 80.8224 62.6825 81.1481C62.4469 81.2024 62.1989 81.2561 61.9609 81.2419C58.6948 81.0477 55.8873 78.1949 55.7899 75.0111C55.7507 73.7298 56.0516 72.5364 56.6731 71.3791C56.0229 71.0185 55.3927 70.6691 54.7464 70.3108C53.8447 71.8293 53.5144 73.4204 53.5313 75.089C49.1074 75.1899 46.1444 77.2652 44.5564 81.2403C41.3063 80.1287 38.2177 77.1705 37.5719 73.1738C36.6236 67.3056 39.2064 63.2051 44.7359 60.7612C44.4699 60.1281 44.1992 59.4836 43.9208 58.8209C42.6394 59.255 41.4685 59.8049 40.4685 60.6237C39.4718 61.4399 38.5439 62.336 37.5674 63.2136C35.9635 61.9936 34.8054 60.3928 34.2674 58.3842C34.1602 57.9841 34.0545 57.5837 33.9481 57.1834C33.9481 56.4775 33.9481 55.7716 33.9784 55.0111C34.5615 51.5724 36.4739 49.1907 39.6611 47.7486C39.5677 47.6218 39.5001 47.5319 39.4345 47.4407C37.5324 44.7957 36.9217 41.8776 37.6093 38.7327C38.1306 36.3481 39.3691 34.3332 41.3105 32.7854C44.6787 30.1001 48.4415 29.5153 52.5164 30.9737C54.2273 31.586 55.6505 32.6374 56.8455 33.9772C56.9987 34.1491 57.2069 34.3294 57.2477 34.5329C57.5889 36.2323 58.3262 37.7324 59.5413 38.9985C60.4576 39.9532 61.5302 40.6901 62.8329 41.181C63.1079 40.5067 63.3714 39.8603 63.649 39.1796C61.5067 38.2451 60.0538 36.7258 59.555 34.5032C59.0564 32.281 59.5952 30.2721 61.184 28.5534C63.2427 29.5537 65.2533 29.5192 67.2895 28.4547C66.9099 27.8114 66.5474 27.1974 66.1856 26.5843C64.8596 27.2186 63.5594 27.2886 62.2761 26.6392C60.9779 25.9823 60.2864 24.8911 60.0937 23.4607C59.3347 23.529 58.6117 23.594 57.8619 23.6615C58.016 25.0235 58.538 26.1725 59.4205 27.1964C58.3406 28.3664 57.6734 29.7322 57.2961 31.293C54.1521 28.6897 50.5696 27.6615 46.5111 28.1403C46.6183 25.9699 47.3376 24.0848 48.8038 22.5269C51.2511 19.9266 54.2975 19.0569 57.8223 19.757C58.5023 16.5377 60.9644 14.2374 64.0329 13.7018C64.1214 13.6864 64.2013 13.6249 64.2853 13.585C64.9227 13.585 65.5602 13.585 66.2382 13.585ZM51.8721 48.4046C50.0135 46.4219 47.7084 45.428 44.9349 45.3792C44.9349 45.7833 44.9349 46.1318 44.9349 46.4802C44.9349 46.8415 44.9349 47.2028 44.9349 47.5632C49.9003 47.4759 53.5227 52.6508 51.0054 57.4047C51.6421 57.7452 52.2791 58.0859 52.9231 58.4303C52.9969 58.319 53.0423 58.264 53.073 58.2021C54.2831 55.7666 54.417 53.2893 53.3578 50.7731C53.2632 50.5484 53.2226 50.3864 53.3985 50.1693C55.4958 47.5792 59.3308 46.9108 62.2128 48.6453C63.1488 49.2086 63.9033 49.9529 64.5096 50.8913C65.1538 50.5133 65.7763 50.1479 66.3976 49.7833C66.3691 49.7058 66.361 49.6635 66.3399 49.6289C64.0251 45.8381 58.7127 44.3827 54.6838 46.4151C53.6446 46.9393 52.7595 47.6433 51.8721 48.4046Z" fill="#095540"/>
<path d="M84.5216 98.5846C83.7354 98.2074 82.9255 97.9156 82.2559 97.4372C80.0927 95.8916 79.4852 93.0263 80.743 90.6613C81.9453 88.4008 84.7819 87.2875 87.2933 88.0776C88.5228 88.4644 89.4968 89.1762 90.2029 90.222C90.381 90.4857 90.5291 90.5445 90.8252 90.4192C92.2541 89.8143 93.6894 89.2236 95.1262 88.6367C95.3343 88.5516 95.4433 88.4755 95.4071 88.2147C95.199 86.7133 95.7273 85.5016 96.9966 84.6235C97.2611 84.4405 97.155 84.2701 97.083 84.0838C96.6512 82.9656 96.212 81.8502 95.7762 80.7335C95.5148 80.0635 95.2434 79.3968 95.0009 78.7203C94.9162 78.4838 94.8019 78.4039 94.5411 78.3983C93.018 78.3653 91.941 77.2104 92.0161 75.7161C92.0845 74.357 93.3498 73.3008 94.8015 73.4121C95.0991 73.4349 95.3903 73.5364 95.7291 73.6115C96.4395 72.7879 97.1727 71.9391 97.9044 71.0893C98.2478 70.6904 98.5763 70.2786 98.9356 69.8939C99.1181 69.6985 99.1461 69.5608 99.0084 69.3116C98.4959 68.3841 98.5515 67.4594 99.1984 66.6137C99.8586 65.7507 100.781 65.4363 101.844 65.6701C102.895 65.9015 103.566 66.5875 103.78 67.6136C103.968 68.5121 103.705 69.3182 102.997 69.9505C102.264 70.606 101.398 70.7882 100.464 70.4886C100.163 70.3922 100.029 70.4559 99.8553 70.6607C98.8609 71.8313 97.8615 72.9979 96.853 74.1568C96.6923 74.3415 96.7087 74.4736 96.8204 74.675C97.4263 75.7673 97.2273 76.9279 96.2887 77.7867C96.1249 77.9367 96.0351 78.0415 96.1291 78.2801C96.8526 80.1173 97.5594 81.9609 98.2724 83.8021C98.3022 83.8791 98.3418 83.9524 98.3827 84.0399C99.506 83.8646 100.53 84.0813 101.407 84.77C102.608 85.7122 103.069 86.9572 102.746 88.4172C102.422 89.8841 101.447 90.8463 99.9636 91.1817C98.4887 91.5152 97.1821 91.1033 96.2015 89.932C95.993 89.6829 95.8392 89.6165 95.5313 89.7469C94.0114 90.3908 92.4823 91.0139 90.9243 91.6576C91.4087 93.4568 91.1006 95.1072 89.93 96.5607C89.0601 97.6408 87.8887 98.2706 86.4904 98.5557C85.8372 98.5846 85.1997 98.5846 84.5216 98.5846Z" fill="#095540"/>
<path d="M86.5074 13.8853C90.2075 14.2779 91.4596 17.7795 91.058 19.9286C90.6505 22.1096 88.9194 23.814 86.674 24.2464C86.5337 24.2734 86.395 24.3087 86.2334 24.3451C86.2334 25.6691 86.2334 26.9878 86.2334 28.2867C86.7009 28.4856 87.1914 28.6282 87.6092 28.8839C89.0475 29.7642 89.6285 31.2376 89.2242 32.9548C89.1552 33.2479 89.2436 33.3495 89.4697 33.4764C90.5701 34.0941 91.6649 34.7212 92.7566 35.3535C92.9652 35.4743 93.1124 35.4984 93.3298 35.3304C94.2294 34.6349 95.4025 34.5863 96.3172 35.1726C97.2545 35.7735 97.6878 36.8446 97.4173 37.8921C97.139 38.9703 96.2533 39.6836 95.0962 39.7966C94.9521 39.8106 94.7485 39.9411 94.6997 40.0652C94.4779 40.629 94.298 41.2086 94.1103 41.7848C93.9363 42.3186 93.7714 42.8553 93.599 43.402C94.3867 43.9636 94.8522 44.6764 94.8152 45.6565C94.7774 46.6585 94.1419 47.5342 93.143 47.9108C92.2134 48.2611 91.0766 48.0115 90.3891 47.306C89.6827 46.5812 89.4628 45.4852 89.8702 44.6021C90.303 43.6639 91.0389 43.1153 92.1109 43.0691C92.369 43.0579 92.4514 42.9546 92.5191 42.7415C92.8351 41.7481 93.1601 40.7573 93.4955 39.77C93.5735 39.5403 93.5511 39.4176 93.3325 39.2486C92.559 38.6503 92.2422 37.8429 92.3986 36.8913C92.4434 36.6185 92.3786 36.4917 92.1416 36.3608C91.0746 35.7715 90.0084 35.1797 88.9644 34.5533C88.6356 34.356 88.4507 34.3698 88.163 34.6296C87.0115 35.6697 85.3796 35.9061 84.02 35.2752C82.6437 34.6367 81.8131 33.2658 81.8809 31.7448C81.9464 30.2761 83.0383 28.9144 84.4872 28.495C84.6387 28.4512 84.7907 28.4094 84.9677 28.3595C84.9677 27.0256 84.9677 25.6955 84.9677 24.3317C84.03 24.172 83.1306 23.8905 82.362 23.3061C80.576 21.9483 79.786 20.1665 80.2041 17.9962C80.628 15.7959 82.8072 13.4928 86.5074 13.8853Z" fill="#095540"/>
<path d="M117.159 56.8901C117.04 57.2702 116.925 57.6118 116.803 57.951C116.013 60.1423 113.711 61.5482 111.334 61.4475C107.208 61.2726 104.539 56.6068 107.127 52.977C107.151 52.9437 107.163 52.9023 107.197 52.8287C106.377 52.071 105.553 51.3081 104.727 50.5463C104.391 50.2367 104.045 49.9377 103.72 49.6179C103.542 49.4426 103.41 49.4225 103.168 49.546C101.433 50.4317 99.3726 49.6408 98.7833 47.8826C98.3669 46.6405 98.801 45.2818 99.8552 44.5274C100.996 43.7109 102.367 43.7058 103.52 44.5148C103.66 44.6129 103.797 44.7148 103.956 44.8301C105.49 43.8858 107.029 42.9446 108.555 41.9833C108.649 41.9242 108.687 41.7006 108.668 41.5648C108.433 39.9116 109.603 38.551 111.256 38.5723C112.329 38.5861 113.283 39.2576 113.623 40.2397C113.99 41.2986 113.673 42.3846 112.804 43.0494C111.933 43.7149 110.703 43.7957 109.816 43.1728C109.463 42.9256 109.241 42.9674 108.913 43.1752C107.57 44.0264 106.21 44.8512 104.857 45.6869C104.773 45.7387 104.696 45.801 104.602 45.8681C104.875 46.7302 104.833 47.5625 104.402 48.3673C104.366 48.4359 104.4 48.5943 104.46 48.6508C105.647 49.7575 106.842 50.8553 108.042 51.9619C108.182 51.868 108.289 51.7991 108.393 51.7266C111.491 49.5629 115.8 50.9801 116.919 54.5315C116.981 54.73 117.039 54.9299 117.129 55.1423C117.159 55.7204 117.159 56.2855 117.159 56.8901Z" fill="#079268"/>
<path d="M84.5182 61.0118C84.8 60.4071 85.0462 59.8205 85.3418 59.2586C85.513 58.9331 85.4692 58.7184 85.222 58.4451C84.1863 57.3001 84.4041 55.6329 85.6791 54.749C86.7926 53.9769 88.3459 54.2035 89.1988 55.2901C89.3989 55.545 89.567 55.6022 89.8841 55.5175C91.0936 55.1944 92.3095 54.8919 93.5305 54.613C93.8554 54.5388 93.9705 54.3958 94.0189 54.0882C94.1724 53.1118 94.7597 52.4564 95.6985 52.1147C96.654 51.7669 97.5262 51.9708 98.2782 52.6107C99.4021 53.567 99.4203 55.2851 98.3415 56.2905C97.2285 57.3277 95.4858 57.2127 94.5251 55.9994C94.2891 55.7013 94.0957 55.6876 93.7678 55.7747C92.5714 56.0925 91.3684 56.3873 90.1644 56.677C89.8925 56.7425 89.7677 56.8633 89.7101 57.1443C89.4168 58.5761 88.4761 59.2977 86.9622 59.3152C86.8262 59.3168 86.6224 59.4215 86.5677 59.5331C86.0579 60.5733 85.5664 61.6224 85.0943 62.6794C85.05 62.7787 85.1305 63.0032 85.2276 63.0795C86.413 64.0125 87.049 65.1825 87.0203 66.6962C86.9866 68.4803 85.8044 70.1294 84.0944 70.6976C82.226 71.3185 80.2112 70.7629 79.0623 69.3101C76.9799 66.6769 78.4341 62.9169 81.7991 62.3004C82.3376 62.2017 82.9199 62.2775 83.4747 62.337C83.7567 62.3673 83.9054 62.3231 84.0142 62.0741C84.1666 61.7251 84.3393 61.3845 84.5182 61.0118Z" fill="#FBBE01"/>
<path d="M111.618 76.7135C109.288 78.2067 106.452 76.89 105.856 74.5327C105.503 73.1366 106.065 71.6458 107.31 70.7277C108.44 69.8939 110.07 69.8023 111.315 70.5023C113.773 71.8838 113.939 75.0008 111.618 76.7135Z" fill="#079268"/>
<path d="M103.388 31.3371C104.562 30.5082 105.903 30.4498 107.013 31.1606C108.081 31.8448 108.596 33.0885 108.323 34.3229C108.054 35.5359 106.957 36.5095 105.708 36.6443C104.427 36.7826 103.101 36.1088 102.602 35.0659C101.985 33.775 102.2 32.4398 103.174 31.5286C103.236 31.4702 103.301 31.4142 103.388 31.3371Z" fill="#FFE38C"/>
<path d="M82.9937 47.457C84.1764 47.5774 85.097 48.3021 85.3381 49.2723C85.6163 50.3922 85.2187 51.435 84.2795 52.0485C83.3779 52.6374 82.1619 52.5937 81.28 51.9407C80.4411 51.3195 80.0784 50.2002 80.3987 49.2206C80.7444 48.1635 81.6639 47.4823 82.7811 47.4561C82.8388 47.4548 82.8966 47.4562 82.9937 47.457Z" fill="#FFE38C"/>
<path d="M97.1297 21.7841C98.3115 20.2186 100.607 20.4705 101.478 21.9685C102.097 23.0347 101.87 24.3436 100.913 25.1407C100.025 25.8804 98.6278 25.9236 97.7071 25.2399C96.7091 24.4987 96.3901 23.191 96.944 22.1042C96.9952 22.0037 97.0578 21.9088 97.1297 21.7841Z" fill="#079268"/>
<path d="M91.2145 61.5769C91.5449 60.5116 92.2638 59.8915 93.3412 59.7392C94.3818 59.5921 95.248 59.9629 95.8402 60.8261C96.4207 61.6724 96.441 62.5639 95.9423 63.4567C95.3983 64.4308 94.2322 64.9122 93.1009 64.6441C91.9454 64.3702 91.1689 63.4551 91.1456 62.3216C91.1408 62.0851 91.1828 61.8476 91.2145 61.5769Z" fill="#079268"/>
<path d="M89.9589 86.2612C88.7112 86.1606 87.7299 85.2586 87.5942 84.122C87.4457 82.8794 88.1941 81.6956 89.3327 81.372C90.5429 81.0281 91.8882 81.5352 92.4169 82.5771C93.3953 84.5055 91.8276 86.4155 89.9589 86.2612Z" fill="#079268"/>
<path d="M78.9474 77.958C77.7287 76.9074 77.8251 75.0163 79.1852 74.0542C79.9751 73.4955 81.1558 73.4456 81.9983 73.9612C82.9385 74.5367 83.4068 75.5556 83.1913 76.5572C82.7698 78.5165 80.4804 79.2876 78.9474 77.958Z" fill="#079268"/>
<path d="M78.2421 39.0378C78.6637 37.9035 79.8144 37.2026 80.964 37.3535C82.2356 37.5203 83.1345 38.4606 83.2411 39.7353C83.3314 40.8157 82.5371 41.9731 81.4102 42.2546C80.4558 42.493 79.5448 42.3476 78.8261 41.6001C78.1245 40.8704 77.9402 40.0228 78.2421 39.0378Z" fill="#079268"/>
<path d="M94.8511 29.4326C94.0725 30.3364 92.8543 30.4842 91.98 29.8033C91.1322 29.143 90.9692 27.9305 91.6136 27.0781C92.2591 26.2242 93.4947 26.0331 94.3916 26.6483C95.3187 27.2842 95.5173 28.43 94.8511 29.4326Z" fill="#FFE38C"/>
<path d="M80.9568 83.3227C81.5601 82.7787 82.21 82.7193 82.7686 83.1367C83.2685 83.5101 83.4346 84.2295 83.1448 84.7663C82.7788 85.4445 81.9324 85.6716 81.2601 85.272C80.5602 84.856 80.422 84.036 80.9568 83.3227Z" fill="#FBBE01"/>
<path d="M85.1415 44.7256C84.5473 44.3486 84.4553 43.8186 84.5868 43.2301C84.6845 42.7926 85.2396 42.375 85.73 42.3277C86.2661 42.2759 86.7936 42.576 87.062 43.0853C87.3022 43.5413 87.186 44.1867 86.7961 44.5615C86.3628 44.9782 85.7845 45.0424 85.1415 44.7256Z" fill="#FBBE01"/>
<path d="M101.006 40.8357C100.286 40.312 100.142 39.5708 100.614 38.9535C101.041 38.3955 101.891 38.2571 102.463 38.6523C103.046 39.055 103.185 39.9008 102.767 40.492C102.404 41.0036 101.722 41.1457 101.006 40.8357Z" fill="#FBBE01"/>
<path d="M78.9501 27.7939C78.1917 27.4391 77.9048 26.7221 78.2139 26.0308C78.467 25.4649 79.2201 25.1387 79.8048 25.3418C80.5463 25.5994 80.9203 26.2918 80.6925 26.9851C80.4667 27.6723 79.7927 27.9945 78.9501 27.7939Z" fill="#FBBE01"/>
<path d="M101.614 73.8774C102.407 73.8536 102.934 74.1861 103.115 74.7958C103.285 75.3726 103.039 75.9828 102.497 76.2807C102.03 76.5375 101.55 76.5318 101.104 76.2438C100.611 75.9246 100.415 75.447 100.534 74.8883C100.65 74.3464 101.021 74.0113 101.614 73.8774Z" fill="#FBBE01"/>
<path d="M102.497 61.3929C102.36 62.1099 101.979 62.5138 101.385 62.6045C100.812 62.6922 100.278 62.4428 100.001 61.9586C99.7272 61.4788 99.7822 60.937 100.148 60.5074C100.493 60.1031 101.041 59.939 101.549 60.0877C102.096 60.2476 102.447 60.7173 102.497 61.3929Z" fill="#FFE38C"/>
<path d="M89.539 52.3166C89.253 51.6836 89.3233 51.1623 89.7257 50.7713C90.1513 50.3579 90.7049 50.2515 91.2349 50.4813C91.7245 50.6936 92.0452 51.2067 92.0194 51.7363C91.9939 52.2582 91.6233 52.7265 91.0992 52.8991C90.5278 53.0872 90.0244 52.9058 89.539 52.3166Z" fill="#079268"/>
<path d="M85.7621 77.0061C86.3205 76.6863 86.8392 76.718 87.3171 77.0855C87.7565 77.4235 87.8796 77.8918 87.7639 78.4089C87.6441 78.9447 87.2636 79.2436 86.7307 79.3646C86.1949 79.4863 85.5606 79.1855 85.317 78.7052C85.0063 78.0926 85.1568 77.4885 85.7621 77.0061Z" fill="#FFE38C"/>
<path d="M100.956 56.565C100.768 55.7941 101.129 55.1306 101.821 54.9292C102.51 54.7284 103.232 55.086 103.457 55.7391C103.695 56.4316 103.358 57.1391 102.672 57.3894C101.974 57.6442 101.288 57.3257 100.956 56.565Z" fill="#079268"/>
<path d="M89.4892 70.9775C89.8987 71.462 89.9626 71.9612 89.6695 72.4871C89.4202 72.9344 88.8673 73.2072 88.3602 73.1356C87.7959 73.0559 87.4131 72.7464 87.2336 72.2173C87.0538 71.6877 87.2967 71.0709 87.799 70.7458C88.283 70.4326 88.9409 70.5149 89.4892 70.9775Z" fill="#709D90"/>
<path d="M81.7918 56.6789C81.7057 57.4427 81.282 57.895 80.5857 58.0019C80.0758 58.0801 79.4151 57.6888 79.2102 57.169C79.0166 56.6781 79.1118 56.2319 79.4748 55.8411C79.8651 55.4211 80.3457 55.3015 80.8883 55.4755C81.4567 55.6578 81.7268 56.0805 81.7918 56.6789Z" fill="#709D90"/>
<path d="M107.097 66.0691C106.34 65.8633 105.921 65.198 106.087 64.5127C106.244 63.8617 106.974 63.4093 107.642 63.5479C108.352 63.6948 108.845 64.3687 108.711 65.0066C108.549 65.7783 107.917 66.2054 107.097 66.0691Z" fill="#709D90"/>
<path d="M99.2514 31.0636C98.3267 30.5609 98.0837 29.8296 98.5719 29.1093C98.9421 28.5631 99.6508 28.3736 100.245 28.6621C100.84 28.951 101.148 29.64 100.939 30.2167C100.708 30.8574 100.068 31.2239 99.4122 31.0921C99.3698 31.0836 99.3268 31.0782 99.2514 31.0636Z" fill="#709D90"/>
<path d="M86.65 38.7208C86.9694 37.4955 88.297 37.458 88.8696 38.0087C89.2844 38.4075 89.4068 39.0786 89.1354 39.5637C88.853 40.0686 88.2432 40.3363 87.6643 40.2095C87.0702 40.0794 86.6625 39.6029 86.6396 39.009C86.6364 38.9248 86.6434 38.8403 86.65 38.7208Z" fill="#FFE38C"/>
<path d="M104.165 82.0413C103.587 82.4195 103.033 82.4248 102.495 82.0414C102.074 81.7414 101.892 81.1707 102.035 80.684C102.183 80.1804 102.685 79.7906 103.238 79.7491C103.778 79.7085 104.292 80.0026 104.532 80.49C104.791 81.0176 104.682 81.5059 104.165 82.0413Z" fill="#079268"/>
<path d="M94.6025 69.5838C94.0703 70.0064 93.4328 70.075 92.936 69.7833C92.4821 69.5169 92.2658 69.0148 92.3535 68.4796C92.4432 67.9326 92.7596 67.5981 93.3018 67.4526C93.8081 67.3167 94.2651 67.4353 94.6069 67.7978C94.97 68.1829 95.0897 68.6599 94.8712 69.1693C94.8113 69.3089 94.7083 69.4311 94.6025 69.5838Z" fill="#079268"/>
</g>
<path d="M160.206 49.0827H152.513V60.7871H146.413V23.1461H160.206C168.741 23.1461 173.009 27.359 173.009 35.7847C173.009 40.1074 171.928 43.4045 169.767 45.6758C167.642 47.947 164.455 49.0827 160.206 49.0827ZM152.513 43.8074H160.151C164.547 43.8074 166.745 41.1332 166.745 35.7847C166.745 33.2203 166.214 31.352 165.151 30.1797C164.089 29.0075 162.422 28.4213 160.151 28.4213H152.513V43.8074ZM197.232 38.9718C192.91 38.3857 189.777 38.0926 187.836 38.0926C185.894 38.0926 184.539 38.3307 183.769 38.807C183.037 39.2466 182.67 39.9609 182.67 40.95C182.67 41.9391 183.073 42.6352 183.879 43.0381C184.722 43.4411 186.664 43.9173 189.704 44.4668C192.781 44.9797 194.961 45.804 196.243 46.9396C197.525 48.0753 198.166 50.0901 198.166 52.9842C198.166 55.8782 197.232 58.003 195.364 59.3584C193.532 60.7138 190.84 61.3916 187.286 61.3916C185.052 61.3916 182.231 61.0802 178.824 60.4574L177.12 60.1827L177.34 55.1822C181.736 55.7683 184.905 56.0614 186.847 56.0614C188.788 56.0614 190.162 55.8233 190.968 55.347C191.811 54.8708 192.232 54.0832 192.232 52.9842C192.232 51.8851 191.829 51.1342 191.023 50.7312C190.254 50.2916 188.367 49.8337 185.363 49.3574C182.396 48.8446 180.216 48.0569 178.824 46.9946C177.432 45.9322 176.736 43.9906 176.736 41.1698C176.736 38.349 177.688 36.2426 179.593 34.8505C181.535 33.4584 184.008 32.7624 187.012 32.7624C189.356 32.7624 192.232 33.0555 195.639 33.6416L197.342 33.9713L197.232 38.9718ZM201.019 33.3119H206.899L212.724 55.6767H214.207L220.032 33.3119H225.967L215.526 72.6014H209.646L212.943 60.7871H208.218L201.019 33.3119ZM240.386 32.7075C242.327 32.7075 244.617 32.9639 247.254 33.4768L248.628 33.7515L248.408 38.4773C245.514 38.1842 243.371 38.0376 241.979 38.0376C239.195 38.0376 237.327 38.6604 236.374 39.906C235.422 41.1515 234.945 43.4961 234.945 46.9396C234.945 50.3832 235.403 52.7644 236.319 54.0832C237.235 55.402 239.14 56.0614 242.034 56.0614L248.463 55.6218L248.628 60.4025C244.928 61.0619 242.144 61.3916 240.276 61.3916C236.099 61.3916 233.15 60.2742 231.429 58.0396C229.744 55.7683 228.901 52.0683 228.901 46.9396C228.901 41.8109 229.798 38.1659 231.594 36.0045C233.389 33.8065 236.319 32.7075 240.386 32.7075ZM260.409 60.7871H254.419V21.8822H260.409V34.7406C263.119 33.3852 265.629 32.7075 267.937 32.7075C271.6 32.7075 274.091 33.7515 275.41 35.8396C276.765 37.8911 277.443 41.298 277.443 46.0604V60.7871H271.454V46.2253C271.454 43.2579 271.142 41.1515 270.519 39.906C269.897 38.6604 268.578 38.0376 266.563 38.0376C264.805 38.0376 263.046 38.3307 261.288 38.9169L260.409 39.2466V60.7871Z" fill="#095540"/>
<path d="M306.122 60.7871H284.856V23.4208H292.439V54.0832H306.122V60.7871ZM331.161 41.8842V53.3139C331.235 54.1931 331.381 54.8158 331.601 55.1822C331.821 55.5119 332.279 55.75 332.975 55.8965L332.755 61.4465C330.887 61.4465 329.385 61.3183 328.249 61.0619C327.15 60.8054 326.033 60.2926 324.897 59.5233C322.259 60.8054 319.567 61.4465 316.819 61.4465C311.141 61.4465 308.302 58.4426 308.302 52.4347C308.302 49.504 309.09 47.4342 310.665 46.2253C312.24 44.9797 314.658 44.247 317.918 44.0272L323.798 43.5876V41.8842C323.798 40.7485 323.542 39.9792 323.029 39.5763C322.516 39.1367 321.692 38.9169 320.556 38.9169L310.225 39.3565L310.006 34.2461C313.925 33.1837 317.644 32.6525 321.16 32.6525C324.714 32.6525 327.26 33.3852 328.799 34.8505C330.374 36.3159 331.161 38.6604 331.161 41.8842ZM318.798 49.1376C316.746 49.3208 315.72 50.4198 315.72 52.4347C315.72 54.4495 316.618 55.4569 318.413 55.4569C319.805 55.4569 321.325 55.2371 322.974 54.7975L323.798 54.5777V48.698L318.798 49.1376ZM351.479 32.6525C355.325 32.6525 358.128 33.7149 359.886 35.8396C361.681 37.9277 362.579 41.6827 362.579 47.1045C362.579 52.5262 361.553 56.2812 359.502 58.3693C357.45 60.4208 353.915 61.4465 348.896 61.4465C347.321 61.4465 344.445 61.2633 340.269 60.897L338.181 60.6772V22.3218H345.544V34.1362C347.889 33.1471 349.867 32.6525 351.479 32.6525ZM348.896 54.8525C351.351 54.8525 352.999 54.2663 353.842 53.0941C354.684 51.8851 355.106 49.7421 355.106 46.6649C355.106 41.7193 353.567 39.2466 350.49 39.2466C349.024 39.2466 347.632 39.4297 346.314 39.7961L345.544 39.9609V54.6327C347.229 54.7792 348.347 54.8525 348.896 54.8525Z" fill="#FBBE01"/>
<path d="M233.216 84.6078H230.224V89.1595H227.852V74.5214H233.216C236.536 74.5214 238.195 76.1597 238.195 79.4364C238.195 81.1175 237.775 82.3996 236.934 83.2829C236.108 84.1662 234.869 84.6078 233.216 84.6078ZM230.224 82.5563H233.195C234.904 82.5563 235.759 81.5164 235.759 79.4364C235.759 78.4391 235.553 77.7126 235.139 77.2567C234.726 76.8008 234.078 76.5729 233.195 76.5729H230.224V82.5563ZM247.615 80.6758C245.934 80.4479 244.716 80.3339 243.961 80.3339C243.206 80.3339 242.679 80.4265 242.38 80.6117C242.095 80.7827 241.952 81.0605 241.952 81.4451C241.952 81.8298 242.109 82.1005 242.423 82.2572C242.75 82.4139 243.505 82.5991 244.688 82.8128C245.884 83.0122 246.732 83.3328 247.231 83.7744C247.729 84.216 247.979 84.9996 247.979 86.1251C247.979 87.2505 247.615 88.0768 246.889 88.6039C246.177 89.1311 245.129 89.3946 243.748 89.3946C242.878 89.3946 241.782 89.2735 240.457 89.0313L239.794 88.9245L239.88 86.9798C241.589 87.2078 242.822 87.3218 243.577 87.3218C244.332 87.3218 244.866 87.2292 245.179 87.044C245.507 86.8588 245.671 86.5525 245.671 86.1251C245.671 85.6977 245.514 85.4056 245.201 85.2489C244.901 85.078 244.168 84.8999 243 84.7147C241.846 84.5152 240.998 84.2089 240.457 83.7958C239.915 83.3826 239.645 82.6276 239.645 81.5306C239.645 80.4336 240.015 79.6145 240.756 79.0731C241.511 78.5317 242.472 78.2611 243.641 78.2611C244.552 78.2611 245.671 78.375 246.996 78.603L247.658 78.7312L247.615 80.6758ZM249.088 78.4747H251.375L253.64 87.1722H254.217L256.482 78.4747H258.79L254.73 93.754H252.443L253.725 89.1595H251.887L249.088 78.4747ZM264.397 78.2397C265.152 78.2397 266.043 78.3394 267.068 78.5389L267.603 78.6457L267.517 80.4835C266.392 80.3695 265.558 80.3125 265.017 80.3125C263.934 80.3125 263.208 80.5547 262.837 81.0391C262.467 81.5235 262.282 82.4352 262.282 83.7744C262.282 85.1136 262.46 86.0396 262.816 86.5525C263.172 87.0653 263.913 87.3218 265.038 87.3218L267.539 87.1508L267.603 89.01C266.164 89.2664 265.081 89.3946 264.354 89.3946C262.73 89.3946 261.584 88.9601 260.914 88.0911C260.259 87.2078 259.931 85.7689 259.931 83.7744C259.931 81.7799 260.28 80.3624 260.978 79.5219C261.676 78.6671 262.816 78.2397 264.397 78.2397ZM272.184 89.1595H269.855V74.0299H272.184V79.0304C273.238 78.5032 274.214 78.2397 275.112 78.2397C276.536 78.2397 277.505 78.6457 278.018 79.4577C278.545 80.2555 278.809 81.5805 278.809 83.4325V89.1595H276.479V83.4966C276.479 82.3426 276.358 81.5235 276.116 81.0391C275.874 80.5547 275.361 80.3125 274.577 80.3125C273.894 80.3125 273.21 80.4265 272.526 80.6544L272.184 80.7827V89.1595ZM282.097 79.6287C282.838 78.7027 284.063 78.2397 285.773 78.2397C287.482 78.2397 288.7 78.7027 289.427 79.6287C290.168 80.5547 290.538 81.9437 290.538 83.7958C290.538 85.6478 290.182 87.044 289.47 87.9842C288.757 88.9245 287.525 89.3946 285.773 89.3946C284.021 89.3946 282.788 88.9245 282.076 87.9842C281.364 87.044 281.007 85.6478 281.007 83.7958C281.007 81.9437 281.371 80.5547 282.097 79.6287ZM283.85 86.5738C284.177 87.1437 284.818 87.4286 285.773 87.4286C286.727 87.4286 287.368 87.1437 287.696 86.5738C288.024 86.004 288.188 85.0708 288.188 83.7744C288.188 82.478 288.01 81.5591 287.653 81.0177C287.311 80.4764 286.685 80.2057 285.773 80.2057C284.861 80.2057 284.227 80.4764 283.871 81.0177C283.529 81.5591 283.358 82.478 283.358 83.7744C283.358 85.0708 283.522 86.004 283.85 86.5738ZM292.98 89.1595V74.0299H295.31V89.1595H292.98ZM298.834 79.6287C299.575 78.7027 300.8 78.2397 302.51 78.2397C304.219 78.2397 305.437 78.7027 306.164 79.6287C306.905 80.5547 307.275 81.9437 307.275 83.7958C307.275 85.6478 306.919 87.044 306.207 87.9842C305.494 88.9245 304.262 89.3946 302.51 89.3946C300.757 89.3946 299.525 88.9245 298.813 87.9842C298.1 87.044 297.744 85.6478 297.744 83.7958C297.744 81.9437 298.107 80.5547 298.834 79.6287ZM300.586 86.5738C300.914 87.1437 301.555 87.4286 302.51 87.4286C303.464 87.4286 304.105 87.1437 304.433 86.5738C304.76 86.004 304.924 85.0708 304.924 83.7744C304.924 82.478 304.746 81.5591 304.39 81.0177C304.048 80.4764 303.421 80.2057 302.51 80.2057C301.598 80.2057 300.964 80.4764 300.608 81.0177C300.266 81.5591 300.095 82.478 300.095 83.7744C300.095 85.0708 300.259 86.004 300.586 86.5738ZM318.927 90.6127C318.927 92.9491 317.239 94.1173 313.863 94.1173C312.239 94.1173 311.035 93.8965 310.251 93.4548C309.468 93.0132 309.076 92.2083 309.076 91.0401C309.076 90.513 309.204 90.0571 309.461 89.6724C309.717 89.302 310.13 88.896 310.7 88.4543C310.23 88.1409 309.995 87.6209 309.995 86.8944C309.995 86.6094 310.187 86.1464 310.572 85.5053L310.764 85.1848C309.738 84.5722 309.225 83.5037 309.225 81.9794C309.225 80.6972 309.61 79.7569 310.379 79.1586C311.149 78.5602 312.189 78.2611 313.499 78.2611C314.126 78.2611 314.746 78.3323 315.359 78.4747L315.679 78.5389L318.991 78.4534V80.3339L317.218 80.2271C317.602 80.7257 317.795 81.3098 317.795 81.9794C317.795 83.3755 317.439 84.3443 316.726 84.8856C316.028 85.4127 314.931 85.6763 313.435 85.6763C313.065 85.6763 312.751 85.6478 312.495 85.5908C312.296 86.0752 312.196 86.4527 312.196 86.7234C312.196 86.9798 312.324 87.1579 312.58 87.2577C312.851 87.3574 313.492 87.4144 314.504 87.4286C316.199 87.4429 317.36 87.6708 317.987 88.1124C318.614 88.5541 318.927 89.3875 318.927 90.6127ZM311.362 90.8264C311.362 91.325 311.562 91.6812 311.961 91.8949C312.36 92.1086 313.043 92.2154 314.012 92.2154C315.736 92.2154 316.598 91.7239 316.598 90.7409C316.598 90.1853 316.441 89.8291 316.128 89.6724C315.829 89.53 315.223 89.4516 314.311 89.4374L312.217 89.3091C311.904 89.5656 311.683 89.8006 311.555 90.0143C311.427 90.2423 311.362 90.513 311.362 90.8264ZM311.533 81.9794C311.533 82.6347 311.69 83.1191 312.004 83.4325C312.317 83.7317 312.823 83.8813 313.521 83.8813C314.219 83.8813 314.717 83.7317 315.017 83.4325C315.33 83.1191 315.487 82.6347 315.487 81.9794C315.487 81.324 315.33 80.8468 315.017 80.5476C314.703 80.2342 314.197 80.0775 313.499 80.0775C312.189 80.0775 311.533 80.7114 311.533 81.9794ZM320.816 89.1595V78.4747H323.145V89.1595H320.816ZM320.816 76.6583V74.2008H323.145V76.6583H320.816ZM329.967 78.2397C330.722 78.2397 331.612 78.3394 332.638 78.5389L333.172 78.6457L333.087 80.4835C331.961 80.3695 331.128 80.3125 330.587 80.3125C329.504 80.3125 328.777 80.5547 328.407 81.0391C328.036 81.5235 327.851 82.4352 327.851 83.7744C327.851 85.1136 328.029 86.0396 328.385 86.5525C328.742 87.0653 329.482 87.3218 330.608 87.3218L333.108 87.1508L333.172 89.01C331.733 89.2664 330.651 89.3946 329.924 89.3946C328.3 89.3946 327.153 88.9601 326.484 88.0911C325.828 87.2078 325.501 85.7689 325.501 83.7744C325.501 81.7799 325.85 80.3624 326.548 79.5219C327.246 78.6671 328.385 78.2397 329.967 78.2397ZM343.331 81.7657V86.6379C343.345 86.9514 343.424 87.1864 343.566 87.3431C343.723 87.4856 343.958 87.5782 344.271 87.6209L344.207 89.3946C342.982 89.3946 342.035 89.1311 341.365 88.6039C340.225 89.1311 339.078 89.3946 337.924 89.3946C335.802 89.3946 334.74 88.262 334.74 85.9968C334.74 84.9141 335.025 84.1306 335.595 83.6462C336.179 83.1618 337.07 82.8698 338.266 82.77L341.023 82.535V81.7657C341.023 81.1958 340.895 80.7969 340.638 80.569C340.396 80.341 340.033 80.2271 339.549 80.2271C338.637 80.2271 337.497 80.284 336.129 80.398L335.446 80.4408L335.36 78.7953C336.913 78.4249 338.338 78.2397 339.634 78.2397C340.945 78.2397 341.885 78.5246 342.455 79.0945C343.039 79.6501 343.331 80.5405 343.331 81.7657ZM338.544 84.4155C337.561 84.501 337.07 85.0352 337.07 86.0182C337.07 87.0012 337.504 87.4927 338.373 87.4927C339.086 87.4927 339.841 87.3787 340.638 87.1508L341.023 87.0226V84.1804L338.544 84.4155ZM346.383 89.1595V74.0299H348.713V89.1595H346.383ZM361.548 89.3946C359.411 89.3946 357.958 88.8034 357.189 87.6209C356.434 86.4385 356.056 84.4939 356.056 81.787C356.056 79.0802 356.441 77.157 357.21 76.0172C357.98 74.8633 359.426 74.2863 361.548 74.2863C362.816 74.2863 364.212 74.4644 365.737 74.8205L365.651 76.7438C364.369 76.5159 363.087 76.4019 361.805 76.4019C360.523 76.4019 359.654 76.7866 359.198 77.5559C358.742 78.3109 358.514 79.7427 358.514 81.8511C358.514 83.9454 358.735 85.3771 359.176 86.1464C359.618 86.9015 360.48 87.279 361.762 87.279C363.044 87.279 364.341 87.1722 365.651 86.9585L365.715 88.9245C364.248 89.2379 362.859 89.3946 361.548 89.3946ZM370.309 89.1595H367.979V74.0299H370.309V79.0304C371.363 78.5032 372.339 78.2397 373.236 78.2397C374.661 78.2397 375.63 78.6457 376.143 79.4577C376.67 80.2555 376.933 81.5805 376.933 83.4325V89.1595H374.604V83.4966C374.604 82.3426 374.483 81.5235 374.241 81.0391C373.999 80.5547 373.486 80.3125 372.702 80.3125C372.018 80.3125 371.335 80.4265 370.651 80.6544L370.309 80.7827V89.1595ZM387.552 81.7657V86.6379C387.566 86.9514 387.644 87.1864 387.787 87.3431C387.944 87.4856 388.179 87.5782 388.492 87.6209L388.428 89.3946C387.203 89.3946 386.255 89.1311 385.586 88.6039C384.446 89.1311 383.299 89.3946 382.145 89.3946C380.023 89.3946 378.961 88.262 378.961 85.9968C378.961 84.9141 379.246 84.1306 379.816 83.6462C380.4 83.1618 381.291 82.8698 382.487 82.77L385.244 82.535V81.7657C385.244 81.1958 385.116 80.7969 384.859 80.569C384.617 80.341 384.254 80.2271 383.769 80.2271C382.858 80.2271 381.718 80.284 380.35 80.398L379.666 80.4408L379.581 78.7953C381.134 78.4249 382.559 78.2397 383.855 78.2397C385.166 78.2397 386.106 78.5246 386.676 79.0945C387.26 79.6501 387.552 80.5405 387.552 81.7657ZM382.765 84.4155C381.782 84.501 381.291 85.0352 381.291 86.0182C381.291 87.0012 381.725 87.4927 382.594 87.4927C383.306 87.4927 384.062 87.3787 384.859 87.1508L385.244 87.0226V84.1804L382.765 84.4155ZM392.805 89.1595H390.476V78.4747H392.784V79.1372C393.824 78.5389 394.807 78.2397 395.733 78.2397C397.158 78.2397 398.126 78.6457 398.639 79.4577C399.166 80.2555 399.43 81.5805 399.43 83.4325V89.1595H397.122V83.4966C397.122 82.3426 396.994 81.5235 396.737 81.0391C396.495 80.5547 395.989 80.3125 395.22 80.3125C394.493 80.3125 393.795 80.455 393.126 80.7399L392.805 80.8681V89.1595ZM411.48 90.6127C411.48 92.9491 409.792 94.1173 406.416 94.1173C404.791 94.1173 403.588 93.8965 402.804 93.4548C402.021 93.0132 401.629 92.2083 401.629 91.0401C401.629 90.513 401.757 90.0571 402.013 89.6724C402.27 89.302 402.683 88.896 403.253 88.4543C402.783 88.1409 402.548 87.6209 402.548 86.8944C402.548 86.6094 402.74 86.1464 403.125 85.5053L403.317 85.1848C402.291 84.5722 401.778 83.5037 401.778 81.9794C401.778 80.6972 402.163 79.7569 402.932 79.1586C403.702 78.5602 404.742 78.2611 406.052 78.2611C406.679 78.2611 407.299 78.3323 407.911 78.4747L408.232 78.5389L411.544 78.4534V80.3339L409.771 80.2271C410.155 80.7257 410.348 81.3098 410.348 81.9794C410.348 83.3755 409.991 84.3443 409.279 84.8856C408.581 85.4127 407.484 85.6763 405.988 85.6763C405.618 85.6763 405.304 85.6478 405.048 85.5908C404.848 86.0752 404.749 86.4527 404.749 86.7234C404.749 86.9798 404.877 87.1579 405.133 87.2577C405.404 87.3574 406.045 87.4144 407.057 87.4286C408.752 87.4429 409.913 87.6708 410.54 88.1124C411.167 88.5541 411.48 89.3875 411.48 90.6127ZM403.915 90.8264C403.915 91.325 404.115 91.6812 404.514 91.8949C404.913 92.1086 405.596 92.2154 406.565 92.2154C408.289 92.2154 409.151 91.7239 409.151 90.7409C409.151 90.1853 408.994 89.8291 408.681 89.6724C408.382 89.53 407.776 89.4516 406.864 89.4374L404.77 89.3091C404.457 89.5656 404.236 89.8006 404.108 90.0143C403.979 90.2423 403.915 90.513 403.915 90.8264ZM404.086 81.9794C404.086 82.6347 404.243 83.1191 404.556 83.4325C404.87 83.7317 405.376 83.8813 406.074 83.8813C406.772 83.8813 407.27 83.7317 407.57 83.4325C407.883 83.1191 408.04 82.6347 408.04 81.9794C408.04 81.324 407.883 80.8468 407.57 80.5476C407.256 80.2342 406.75 80.0775 406.052 80.0775C404.742 80.0775 404.086 80.7114 404.086 81.9794ZM420.977 87.2363L421.575 87.1722L421.618 88.9031C419.994 89.2308 418.555 89.3946 417.301 89.3946C415.72 89.3946 414.58 88.9601 413.882 88.0911C413.198 87.222 412.856 85.833 412.856 83.924C412.856 80.1345 414.402 78.2397 417.493 78.2397C420.485 78.2397 421.981 79.8709 421.981 83.1333L421.831 84.8001H415.207C415.221 85.6834 415.413 86.3316 415.784 86.7448C416.154 87.1579 416.845 87.3645 417.857 87.3645C418.868 87.3645 419.908 87.3218 420.977 87.2363ZM419.694 83.0051C419.694 81.9509 419.523 81.2172 419.182 80.804C418.854 80.3766 418.291 80.1629 417.493 80.1629C416.696 80.1629 416.111 80.3838 415.741 80.8254C415.385 81.267 415.2 81.9936 415.185 83.0051H419.694ZM437.4 89.1595H429.194V74.5214H431.566V87.044H437.4V89.1595ZM446.965 81.7657V86.6379C446.979 86.9514 447.058 87.1864 447.2 87.3431C447.357 87.4856 447.592 87.5782 447.905 87.6209L447.841 89.3946C446.616 89.3946 445.669 89.1311 444.999 88.6039C443.859 89.1311 442.713 89.3946 441.559 89.3946C439.436 89.3946 438.375 88.262 438.375 85.9968C438.375 84.9141 438.66 84.1306 439.229 83.6462C439.813 83.1618 440.704 82.8698 441.901 82.77L444.657 82.535V81.7657C444.657 81.1958 444.529 80.7969 444.273 80.569C444.03 80.341 443.667 80.2271 443.183 80.2271C442.271 80.2271 441.131 80.284 439.764 80.398L439.08 80.4408L438.994 78.7953C440.547 78.4249 441.972 78.2397 443.268 78.2397C444.579 78.2397 445.519 78.5246 446.089 79.0945C446.673 79.6501 446.965 80.5405 446.965 81.7657ZM442.178 84.4155C441.195 84.501 440.704 85.0352 440.704 86.0182C440.704 87.0012 441.138 87.4927 442.007 87.4927C442.72 87.4927 443.475 87.3787 444.273 87.1508L444.657 87.0226V84.1804L442.178 84.4155ZM454.868 78.2397C456.336 78.2397 457.39 78.6528 458.031 79.4791C458.686 80.2912 459.014 81.7372 459.014 83.8171C459.014 85.8971 458.629 87.3503 457.86 88.1765C457.091 88.9886 455.737 89.3946 453.8 89.3946C453.13 89.3946 452.069 89.3305 450.616 89.2023L449.889 89.1382V74.0299H452.197V78.8808C453.18 78.4534 454.071 78.2397 454.868 78.2397ZM453.8 87.3218C454.94 87.3218 455.695 87.0582 456.065 86.5311C456.45 85.9897 456.642 85.078 456.642 83.7958C456.642 82.5136 456.478 81.6161 456.151 81.1032C455.837 80.5761 455.317 80.3125 454.591 80.3125C453.907 80.3125 453.223 80.4194 452.539 80.6331L452.197 80.7399V87.2363C452.981 87.2933 453.515 87.3218 453.8 87.3218Z" fill="#949494"/>
<g clip-path="url(#clip1_283_298)">
<rect x="370.805" y="22.8291" width="85.4784" height="39.6864" rx="7.632" fill="white"/>
<path fill-rule="evenodd" clip-rule="evenodd" d="M366.978 19.645H459.176V65.6994H366.978V19.645ZM419.398 33.4278C418.733 34.121 417.584 35.3325 417.587 37.2766V48.8885C417.587 50.3917 418.004 51.1724 418.951 52.1128C419.863 53.0171 420.887 53.4323 422.17 53.4323H428.101V49.3243H423.126C422.666 49.3243 422.371 49.1442 422.067 48.801C421.635 48.3119 421.699 47.5483 421.699 47.5483V44.7136H427.023L427.016 40.5987L421.699 40.5953V38.3165C421.699 38.3165 421.724 37.625 422.347 36.8717C422.97 36.1184 423.958 36.024 423.958 36.024L428.101 36.0189V31.9091H422.639C421.242 31.9091 419.972 32.8306 419.398 33.4278ZM441.4 53.4346C442.826 53.4421 446.987 53.4641 447.013 48.6586H447.012V36.8768C447.003 31.9068 442.52 31.91 441.328 31.9108L433.173 31.9109V53.4341H441.255C441.299 53.4341 441.348 53.4343 441.4 53.4346ZM442.897 46.3557C442.897 46.3557 443.218 49.3243 440.455 49.3209V49.3226H437.286V36.024H440.481C443.006 36.0224 442.933 38.5105 442.905 39.4501C442.902 39.5314 442.9 39.6012 442.9 39.6567L442.897 46.3557ZM408.536 36.0223H405.614C403.465 36.0206 402.918 37.6593 402.918 39.5245V53.4341H398.807V36.9815C398.813 34.006 401.717 31.9109 404.692 31.9109H412.647V53.4341H408.536V36.0223ZM384.165 49.3226H387.119L387.121 49.3243C389.256 49.3261 389.793 47.7199 389.795 45.8684V31.9109H393.906V48.4063C393.897 51.3629 391.016 53.4341 388.063 53.4341H380.076V31.9109H384.185L384.165 49.3226Z" fill="#095540"/>
</g>
<defs>
<clipPath id="clip0_283_298">
<rect width="83.2105" height="85" fill="white" transform="translate(33.8615 13.5)"/>
</clipPath>
<clipPath id="clip1_283_298">
<rect x="370.805" y="22.8291" width="85.4784" height="39.6864" rx="7.632" fill="white"/>
</clipPath>
</defs>
</svg>
